<?xml version="1.0" encoding="UTF-8"?><svg id="_이어_2" xmlns="http://www.w3.org/2000/svg" viewBox="0 0 409.54 150.04"><defs><style>.cls-1{fill:#fff;}.cls-2{fill:none;stroke:#fff;stroke-miterlimit:10;stroke-width:5px;}</style></defs><g id="_이어_1-2"><g><g><path class="cls-1" d="M37.91,81.21l-.54-19.96h6.49l.49,19.96h2.65c.76,0,1.51,0,2.27-.03,.76-.02,1.53-.04,2.33-.08l.27-19.85h6.54l-.32,19.36c2.13-.25,4.31-.63,6.54-1.14v5.52c-2.52,.72-5.34,1.21-8.44,1.46-3.1,.25-6.15,.38-9.14,.38h-14.49v-5.62h5.35Zm-4.76-21.58v-5.52h30.07v5.52h-30.07Zm47.48,13.57h-7.41v26.88h-6.71V49.95h6.71v17.52h7.41v5.73Z"/><path class="cls-1" d="M102.54,99.01h-6.76v-16.98c-.83,.04-1.66,.05-2.49,.05h-11.03v-5.68h8.44c1.87,0,3.88-.03,6.03-.08,2.15-.05,4.33-.14,6.54-.24,2.22-.11,4.43-.25,6.63-.43,2.2-.18,4.29-.4,6.27-.65v5.52c-2.06,.29-4.25,.53-6.57,.73-2.33,.2-4.68,.37-7.06,.51v17.25Zm9.68-35.91c0,1.59-.32,3.05-.95,4.38-.63,1.33-1.52,2.49-2.68,3.46-1.15,.97-2.55,1.74-4.19,2.3-1.64,.56-3.45,.84-5.44,.84s-3.79-.28-5.41-.84c-1.62-.56-3-1.33-4.14-2.3-1.14-.97-2.02-2.13-2.65-3.46-.63-1.33-.95-2.79-.95-4.38s.31-2.99,.95-4.33c.63-1.33,1.51-2.49,2.65-3.46,1.14-.97,2.51-1.74,4.14-2.3,1.62-.56,3.42-.84,5.41-.84s3.79,.28,5.44,.84c1.64,.56,3.04,1.33,4.19,2.3,1.15,.97,2.05,2.13,2.68,3.46,.63,1.33,.95,2.78,.95,4.33Zm-6.65,0c0-1.69-.57-3.02-1.7-3.97s-2.77-1.43-4.89-1.43-3.8,.48-4.92,1.43c-1.12,.96-1.68,2.28-1.68,3.97,0,3.61,2.2,5.41,6.6,5.41,2.16,0,3.8-.46,4.92-1.38,1.12-.92,1.68-2.26,1.68-4.03Zm18.82,36.99h-6.54v-10.11h-10.76v-5.68h10.76V49.95h6.54v50.13Z"/><path class="cls-1" d="M156.19,68.13v3.57h20.44v5.14h-47.38v-5.14h20.17v-3.57h-12.71v-17.58h6.81v4.65h18.77v-4.65h6.76v17.58h-12.87Zm-19.69,31.96v-12.82h26.12v-2.49h-26.12v-5.3h32.83v12.71h-26.23v2.6h27.47v5.3h-34.07Zm25.85-39.91h-18.98v2.97h18.98v-2.97Z"/></g><rect class="cls-2" x="2.5" y="2.5" width="404.54" height="145.04" rx="43.54" ry="43.54"/><rect class="cls-1" x="195.13" y="2.5" width="213.78" height="145.04" rx="43.54" ry="43.54"/><g><path d="M231.04,62.56c0-1.66,.32-3.21,.95-4.65,.63-1.44,1.53-2.69,2.7-3.73,1.17-1.04,2.56-1.87,4.16-2.46,1.6-.6,3.38-.89,5.33-.89s3.61,.3,5.22,.89c1.6,.59,2.98,1.42,4.14,2.46,1.15,1.05,2.06,2.29,2.73,3.73,.67,1.44,1,2.99,1,4.65s-.32,3.19-.97,4.6-1.55,2.62-2.7,3.65c-1.15,1.03-2.53,1.84-4.14,2.43-1.6,.59-3.36,.89-5.27,.89s-3.68-.3-5.3-.89-3.01-1.41-4.16-2.43c-1.15-1.03-2.06-2.24-2.7-3.65s-.97-2.94-.97-4.6Zm6.76,0c0,1.91,.56,3.4,1.68,4.46,1.12,1.06,2.67,1.6,4.65,1.6s3.49-.53,4.62-1.6c1.14-1.06,1.7-2.55,1.7-4.46s-.57-3.45-1.7-4.52c-1.14-1.06-2.68-1.6-4.62-1.6s-3.49,.53-4.62,1.6c-1.14,1.06-1.7,2.57-1.7,4.52Zm33.75,36.99h-32.99v-13.9h25.36v-3.08h-25.36v-5.41h32.02v13.79h-25.47v3.14h26.45v5.46Zm-7.68-49.59h6.71v25.09h-6.71v-25.09Z"/><path d="M279.12,77.92v-26.12h6.6v8.33h10.33v-8.33h6.49v26.12h-23.42Zm16.93-12.28h-10.33v6.65h10.33v-6.65Zm21.53,33.48h-31.8v-15.58h6.76v9.9h25.04v5.68Zm6.49-30.83h-7.52v18.39h-6.65V49.95h6.65v12.66h7.52v5.68Z"/><path d="M351.81,68.13v3.57h20.44v5.14h-47.38v-5.14h20.17v-3.57h-12.71v-17.58h6.81v4.65h18.77v-4.65h6.76v17.58h-12.87Zm-19.69,31.96v-12.82h26.12v-2.49h-26.12v-5.3h32.83v12.71h-26.23v2.6h27.47v5.3h-34.07Zm25.85-39.91h-18.98v2.97h18.98v-2.97Z"/></g></g></g></svg>