<?xml version="1.0" encoding="UTF-8"?><svg id="_이어_2" xmlns="http://www.w3.org/2000/svg" xmlns:xlink="http://www.w3.org/1999/xlink" viewBox="0 0 138.28 138.28"><defs><style>.cls-1{fill:url(#linear-gradient-2);}.cls-2{fill:#fff;}.cls-3{fill:url(#linear-gradient-5);opacity:.1;}.cls-4{fill:url(#radial-gradient);}.cls-5{mask:url(#mask);}.cls-6{fill:url(#linear-gradient-3);}.cls-7{fill:url(#linear-gradient);}.cls-8{fill:url(#linear-gradient-4);}</style><linearGradient id="linear-gradient" x1="69.14" y1="138.28" x2="69.14" y2="0" gradientTransform="matrix(1, 0, 0, 1, 0, 0)" gradientUnits="userSpaceOnUse"><stop offset="0" stop-color="#969696"/><stop offset=".06" stop-color="#838383"/><stop offset=".18" stop-color="#535353"/><stop offset=".2" stop-color="#4d4d4d"/><stop offset=".22" stop-color="#525252"/><stop offset=".26" stop-color="#636363"/><stop offset=".29" stop-color="#7e7e7e"/><stop offset=".33" stop-color="#a4a4a4"/><stop offset=".37" stop-color="#d3d3d3"/><stop offset=".4" stop-color="#fdfdfd"/><stop offset=".6" stop-color="#c1c1c1"/><stop offset=".8" stop-color="#fdfdfd"/><stop offset="1" stop-color="#969696"/></linearGradient><linearGradient id="linear-gradient-2" x1="69.14" y1=".64" x2="69.14" y2="137.64" gradientTransform="matrix(1, 0, 0, 1, 0, 0)" gradientUnits="userSpaceOnUse"><stop offset="0" stop-color="#f0f0f0"/><stop offset=".03" stop-color="#ddd"/><stop offset=".09" stop-color="#adadad"/><stop offset=".18" stop-color="#606060"/><stop offset=".2" stop-color="#4d4d4d"/><stop offset=".22" stop-color="#525252"/><stop offset=".26" stop-color="#636363"/><stop offset=".29" stop-color="#7e7e7e"/><stop offset=".33" stop-color="#a4a4a4"/><stop offset=".37" stop-color="#d3d3d3"/><stop offset=".4" stop-color="#fdfdfd"/><stop offset=".6" stop-color="#c1c1c1"/><stop offset=".8" stop-color="#fdfdfd"/><stop offset="1" stop-color="#333"/></linearGradient><linearGradient id="linear-gradient-3" x1="69.14" y1="5.47" x2="69.14" y2="132.8" xlink:href="#linear-gradient-2"/><linearGradient id="linear-gradient-4" x1="69.14" y1="6.9" x2="69.14" y2="131.37" gradientTransform="translate(137.38 -.88) rotate(89.27)" gradientUnits="userSpaceOnUse"><stop offset="0" stop-color="#706b6d"/><stop offset=".9" stop-color="#080808"/></linearGradient><radialGradient id="radial-gradient" cx="69.14" cy="69.14" fx="69.14" fy="69.14" r="62.23" gradientTransform="translate(137.38 -.88) rotate(89.27)" gradientUnits="userSpaceOnUse"><stop offset=".92" stop-color="#000"/><stop offset="1" stop-color="#e6e6e6"/></radialGradient><mask id="mask" x="6.9" y="6.9" width="124.47" height="124.47" maskUnits="userSpaceOnUse"><circle class="cls-4" cx="69.14" cy="69.14" r="62.24" transform="translate(-.88 137.38) rotate(-89.27)"/></mask><linearGradient id="linear-gradient-5" x1="69.14" y1="100.6" x2="69.14" y2="37.68" gradientTransform="matrix(1, 0, 0, 1, 0, 0)" gradientUnits="userSpaceOnUse"><stop offset="0" stop-color="#5c5c5c"/><stop offset="1" stop-color="#c6c6c6"/></linearGradient></defs><g id="_"><g><g><path class="cls-7" d="M138.28,69.14c0,38.18-30.96,69.14-69.14,69.14S0,107.32,0,69.14,30.95,0,69.14,0s69.14,30.96,69.14,69.14Z"/><path class="cls-1" d="M137.64,69.14c0,37.83-30.67,68.5-68.5,68.5S.64,106.97,.64,69.14,31.31,.64,69.14,.64s68.5,30.67,68.5,68.5Z"/><path class="cls-6" d="M132.8,69.14c0,35.16-28.5,63.67-63.66,63.67S5.47,104.3,5.47,69.14,33.98,5.47,69.14,5.47s63.66,28.5,63.66,63.66Z"/></g><circle class="cls-8" cx="69.14" cy="69.14" r="62.24" transform="translate(-.88 137.38) rotate(-89.27)"/><g class="cls-5"><path d="M131.37,69.14c0,34.37-27.86,62.24-62.23,62.24S6.9,103.51,6.9,69.14,34.77,6.9,69.14,6.9s62.23,27.86,62.23,62.24ZM69.14,12c-31.56,0-57.14,25.58-57.14,57.14s25.58,57.14,57.14,57.14,57.14-25.58,57.14-57.14S100.7,12,69.14,12Z"/></g><path id="Glare" class="cls-3" d="M125.62,86.73c-3.83-27.71-27.6-49.05-56.37-49.05-.04,0-.08,0-.12,0s-.08,0-.12,0c-28.77,0-52.53,21.34-56.37,49.05-.3,1.74,.34,2.82,1.54,3.47,15.5,6.54,34.53,10.39,54.94,10.39s39.44-3.85,54.94-10.39c1.21-.65,1.84-1.74,1.54-3.47Z"/><path class="cls-2" d="M81.56,48.26h-6.74v-6.85c0-1.18-.64-2.27-1.68-2.84-1.04-.57-2.3-.53-3.3,.11l-17.17,10.98c-.94,.6-1.5,1.62-1.5,2.73,0,1.11,.56,2.13,1.49,2.73l17.17,10.98c1,.64,2.26,.68,3.3,.11,1.04-.57,1.68-1.66,1.68-2.84v-6.85h6.74c9.73,0,17.64,7.91,17.64,17.64s-7.91,17.64-17.64,17.64H34.94c-2.28,0-4.14,1.86-4.14,4.14s1.86,4.14,4.14,4.14h46.61c14.29,0,25.92-11.63,25.92-25.92s-11.63-25.92-25.92-25.92Z"/></g></g></svg>