<?xml version="1.0" encoding="UTF-8"?><svg id="_이어_2" xmlns="http://www.w3.org/2000/svg" viewBox="0 0 75 75"><defs><style>.cls-1{fill:#fff;}</style></defs><g id="_이어_1-2"><path class="cls-1" d="M37.5,75C16.82,75,0,58.18,0,37.5S16.82,0,37.5,0s37.5,16.82,37.5,37.5-16.82,37.5-37.5,37.5Zm0-72C18.48,3,3,18.48,3,37.5s15.48,34.5,34.5,34.5,34.5-15.48,34.5-34.5S56.52,3,37.5,3Z"/><path class="cls-1" d="M54.2,19.35L14.07,35.34c-.9,.36-.86,1.64,.06,1.94l9.95,3.21,24.66-14.56-19.11,16.93-1.06,11.03,6.25-7.12,11.45,8.61c1.01,.76,2.48,.21,2.74-1.03l7.04-33.46c.22-1.07-.83-1.96-1.84-1.55Z"/></g></svg>