<?xml version="1.0" encoding="UTF-8"?><svg xmlns="http://www.w3.org/2000/svg" xmlns:xlink="http://www.w3.org/1999/xlink" viewBox="0 0 163.19 176.04"><defs><style>.cls-1{fill:#26b9db;}.cls-2{isolation:isolate;}.cls-3{fill:url(#radial-gradient);mix-blend-mode:multiply;}.cls-4{clip-path:url(#clippath-1);}.cls-5{fill:#007acc;}.cls-6{fill:#f1f2f2;}.cls-7{clip-path:url(#clippath);}.cls-8{fill:none;}.cls-9{fill:#009ad6;}</style><clipPath id="clippath"><circle class="cls-8" cx="81.6" cy="88.02" r="57.62"/></clipPath><radialGradient id="radial-gradient" cx="81.74" cy="88.18" fx="81.74" fy="88.18" r="61.23" gradientTransform="matrix(1, 0, 0, 1, 0, 0)" gradientUnits="userSpaceOnUse"><stop offset=".86" stop-color="#050505"/><stop offset=".91" stop-color="#fff"/><stop offset=".92" stop-color="#f4f4f4"/><stop offset=".93" stop-color="#d8d8d8"/><stop offset=".94" stop-color="#aaa"/><stop offset=".95" stop-color="#6b6b6b"/><stop offset=".97" stop-color="#1b1b1b"/><stop offset=".97" stop-color="#050505"/></radialGradient><clipPath id="clippath-1"><circle class="cls-8" cx="81.6" cy="88.02" r="80.41"/></clipPath></defs><g class="cls-2"><g id="_이어_2"><g id="_"><g><circle class="cls-1" cx="81.6" cy="88.02" r="80.41"/><g class="cls-7"><polygon class="cls-6" points="145.71 81.79 104.85 81.79 140.24 61.36 134.01 50.57 98.62 71 119.05 35.61 108.26 29.38 87.83 64.76 87.83 23.91 75.36 23.91 75.36 64.76 54.93 29.38 44.14 35.61 64.57 71 29.18 50.57 22.95 61.36 58.34 81.79 17.48 81.79 17.48 94.25 58.34 94.25 22.95 114.68 29.18 125.48 64.57 105.05 44.14 140.43 54.93 146.66 75.36 111.28 75.36 152.14 87.83 152.14 87.83 111.28 108.26 146.66 119.05 140.43 98.62 105.05 134.01 125.48 140.24 114.68 104.85 94.25 145.71 94.25 145.71 81.79"/></g><circle class="cls-3" cx="81.6" cy="88.02" r="57.62"/><circle class="cls-1" cx="81.6" cy="88.02" r="54.29"/><g><path class="cls-5" d="M134.01,102.2s-.12,.42-.34,1.22c-.21,.8-.58,1.95-1.09,3.4-.28,.72-.54,1.53-.92,2.38-.18,.43-.37,.87-.56,1.34-.21,.45-.43,.92-.66,1.41-.93,1.93-2.09,4.07-3.55,6.28-1.46,2.2-3.21,4.49-5.25,6.73-2.04,2.24-4.39,4.44-7.03,6.44-2.63,2.01-5.54,3.84-8.64,5.41-3.1,1.57-6.42,2.83-9.83,3.78-3.41,.94-6.91,1.55-10.37,1.79-3.47,.25-6.9,.17-10.19-.19-3.29-.36-6.44-1.02-9.34-1.9-2.91-.88-5.57-1.95-7.96-3.08-2.39-1.14-4.47-2.39-6.27-3.56-.89-.61-1.71-1.18-2.46-1.73-.73-.57-1.42-1.08-2.01-1.57-.59-.5-1.11-.95-1.56-1.33-.45-.39-.81-.75-1.12-1.03-.6-.56-.92-.86-.92-.86,0,0,.33,.3,.94,.85,.31,.27,.68,.63,1.13,1.01,.46,.38,.99,.82,1.59,1.31,.6,.48,1.29,.98,2.03,1.53,.76,.54,1.59,1.09,2.48,1.68,1.82,1.13,3.91,2.34,6.29,3.46,2.39,1.11,5.05,2.15,7.94,2.99,2.89,.85,6.02,1.47,9.29,1.82,3.26,.35,6.68,.42,10.11,.16,3.44-.25,6.91-.86,10.28-1.8,3.37-.93,6.67-2.17,9.75-3.72,3.08-1.54,5.97-3.36,8.59-5.34,2.62-1.98,4.97-4.13,7.02-6.34,2.05-2.21,3.81-4.46,5.29-6.64,1.47-2.18,2.66-4.29,3.62-6.2,.24-.48,.46-.95,.68-1.39,.2-.46,.4-.9,.58-1.32,.39-.84,.67-1.65,.96-2.36,.53-1.44,.92-2.59,1.15-3.38l.36-1.21Z"/><path class="cls-5" d="M25.35,75.44s.11-.46,.32-1.33c.19-.87,.54-2.13,1.02-3.72,.51-1.58,1.15-3.5,2.09-5.62,.92-2.13,2.07-4.49,3.57-6.92,2.96-4.87,7.2-10.14,12.74-14.67,2.77-2.26,5.85-4.33,9.15-6.12,3.3-1.78,6.83-3.29,10.48-4.39,3.65-1.1,7.41-1.84,11.15-2.2,3.74-.37,7.44-.36,11-.03,3.56,.32,6.96,.99,10.12,1.87,3.15,.89,6.06,1.98,8.65,3.18,2.58,1.22,4.87,2.5,6.82,3.76,.98,.62,1.85,1.26,2.68,1.83,.8,.61,1.53,1.17,2.19,1.67,.64,.53,1.21,1.01,1.7,1.43,.5,.41,.89,.8,1.22,1.1,.66,.6,1,.92,1,.92,0,0-.35-.32-1.02-.91-.34-.29-.73-.67-1.23-1.08-.5-.41-1.08-.87-1.72-1.4-.67-.49-1.41-1.04-2.21-1.64-.84-.55-1.72-1.18-2.7-1.78-.49-.3-1.01-.61-1.53-.92-.52-.32-1.09-.6-1.66-.92-.57-.31-1.15-.63-1.77-.92-.61-.29-1.23-.61-1.88-.9-2.59-1.17-5.49-2.23-8.63-3.09-3.14-.85-6.53-1.48-10.06-1.79-3.53-.32-7.22-.32-10.92,.06-3.71,.37-7.43,1.12-11.05,2.22-3.63,1.08-7.12,2.57-10.41,4.32-3.28,1.76-6.34,3.8-9.1,6.04-2.75,2.25-5.21,4.65-7.34,7.11-2.13,2.46-3.94,4.96-5.44,7.38-1.51,2.41-2.69,4.74-3.64,6.84-.97,2.1-1.64,4.01-2.17,5.58-.5,1.58-.87,2.83-1.07,3.7l-.34,1.32Z"/><path class="cls-9" d="M137.58,101.7s-.12,.47-.35,1.34c-.21,.88-.59,2.15-1.11,3.75-.29,.79-.56,1.69-.96,2.62-.19,.47-.38,.96-.59,1.47-.22,.5-.46,1.02-.7,1.56-.98,2.13-2.21,4.49-3.78,6.93-1.56,2.44-3.45,4.95-5.67,7.42-2.22,2.46-4.78,4.87-7.65,7.08-2.87,2.21-6.03,4.24-9.44,5.94-3.4,1.7-7.03,3.09-10.76,4.11-3.74,1-7.58,1.58-11.37,1.81-3.8,.23-7.55,.06-11.14-.41-3.59-.47-7.01-1.27-10.17-2.29-3.16-1.03-6.04-2.29-8.61-3.61-2.59-1.29-4.8-2.78-6.74-4.1-.93-.71-1.83-1.35-2.62-1.99-.78-.66-1.51-1.23-2.14-1.8-.62-.57-1.18-1.08-1.66-1.52-.47-.45-.86-.86-1.18-1.17-.64-.64-.97-.98-.97-.98l.99,.97c.33,.31,.71,.71,1.19,1.16,.49,.43,1.05,.93,1.68,1.49,.63,.56,1.38,1.12,2.16,1.76,.79,.63,1.7,1.25,2.64,1.94,.49,.32,1,.65,1.52,.99,.26,.17,.52,.34,.79,.52,.27,.17,.55,.33,.84,.49,.57,.33,1.15,.67,1.74,1.02,.61,.32,1.23,.65,1.87,.98,2.57,1.3,5.45,2.53,8.59,3.54,3.15,.99,6.55,1.76,10.12,2.22,3.56,.45,7.3,.6,11.07,.35,3.77-.25,7.57-.85,11.28-1.85,3.7-.99,7.31-2.35,10.7-4.02,3.39-1.67,6.54-3.67,9.4-5.85,2.86-2.18,5.42-4.56,7.64-7,2.22-2.44,4.11-4.94,5.68-7.35,1.56-2.42,2.83-4.75,3.84-6.86,.25-.53,.49-1.05,.72-1.54,.21-.51,.41-.99,.61-1.46,.41-.93,.69-1.82,.99-2.6,.55-1.59,.94-2.85,1.17-3.73l.37-1.33Z"/></g><path class="cls-9" d="M27.31,88.02s.01-.55,.03-1.58c0-1.03,.09-2.54,.27-4.46,.13-.95,.21-2.02,.43-3.16,.1-.57,.2-1.17,.31-1.79,.14-.61,.28-1.25,.43-1.9,.63-2.61,1.51-5.53,2.81-8.57,1.29-3.05,2.99-6.23,5.14-9.35,2.15-3.13,4.74-6.2,7.76-9.04,3.01-2.85,6.48-5.4,10.26-7.56,3.77-2.18,7.88-3.89,12.14-5.08,2.13-.62,4.3-1.03,6.47-1.39,2.18-.29,4.37-.52,6.54-.56,.54-.01,1.09-.02,1.63-.04,.54,.02,1.08,.04,1.62,.05,1.07,.04,2.14,.05,3.2,.19,.53,.05,1.06,.11,1.59,.16,.53,.05,1.05,.1,1.57,.2,1.04,.18,2.07,.34,3.08,.54,4.06,.84,7.87,2.15,11.32,3.71,1.75,.75,3.35,1.66,4.92,2.51,.76,.47,1.5,.93,2.24,1.39l.54,.34c.17,.12,.35,.25,.52,.37,.34,.24,.68,.49,1.02,.73,1.38,.92,2.57,1.98,3.74,2.92,.57,.5,1.1,1.01,1.62,1.49,.52,.49,1.04,.94,1.49,1.44,1.88,1.92,3.39,3.72,4.56,5.25,.57,.78,1.08,1.47,1.53,2.07,.41,.63,.75,1.16,1.03,1.6,.56,.87,.86,1.33,.86,1.33,0,0-.3-.46-.87-1.32-.29-.43-.64-.96-1.05-1.58-.45-.6-.97-1.28-1.55-2.05-1.19-1.51-2.71-3.29-4.62-5.17-.45-.49-.98-.94-1.51-1.42-.53-.47-1.06-.98-1.64-1.46-1.19-.92-2.37-1.97-3.75-2.88-.34-.24-.68-.48-1.02-.72-.17-.12-.34-.24-.52-.36-.18-.11-.36-.22-.54-.34-.73-.45-1.47-.9-2.23-1.37-1.56-.84-3.16-1.75-4.9-2.48-3.44-1.53-7.23-2.83-11.27-3.64-1.01-.19-2.04-.34-3.07-.52-.51-.1-1.03-.15-1.56-.19-.52-.05-1.05-.1-1.57-.15-1.05-.13-2.12-.13-3.19-.17-.53-.02-1.07-.03-1.61-.05-.54,.01-1.08,.03-1.62,.04-2.16,.05-4.32,.29-6.49,.59-1.07,.2-2.16,.36-3.22,.61-1.07,.25-2.14,.48-3.19,.8-4.22,1.17-8.31,2.84-12.06,4.99-3.75,2.13-7.22,4.64-10.22,7.46-3.01,2.8-5.61,5.84-7.76,8.94-2.15,3.1-3.85,6.26-5.16,9.28-1.3,3.03-2.22,5.91-2.88,8.51-.16,.65-.3,1.28-.45,1.89-.11,.62-.23,1.21-.33,1.78-.24,1.14-.33,2.2-.47,3.15-.2,1.91-.32,3.42-.33,4.46-.03,1.03-.05,1.58-.05,1.58Z"/><g class="cls-4"><g><path class="cls-6" d="M81.6,25.63c4.6,0,11.96,1.21,11.96,1.21,.79,.13,1.44-.42,1.44-1.23V2.48c0-.81-.65-1.54-1.45-1.63,0,0-7.39-.85-11.95-.85s-11.95,.85-11.95,.85c-.8,.09-1.45,.83-1.45,1.63V25.62c0,.81,.65,1.36,1.44,1.23,0,0,7.35-1.21,11.96-1.21Z"/><path class="cls-6" d="M81.6,150.41c-4.6,0-11.96-1.21-11.96-1.21-.79-.13-1.44,.42-1.44,1.23v23.14c0,.81,.65,1.54,1.45,1.63,0,0,7.39,.85,11.95,.85s11.95-.85,11.95-.85c.8-.09,1.45-.83,1.45-1.63v-23.14c0-.81-.65-1.36-1.44-1.23,0,0-7.35,1.21-11.96,1.21Z"/><path class="cls-6" d="M27.56,56.83c2.3-3.98,7.03-9.75,7.03-9.75,.51-.62,.36-1.46-.34-1.86l-20.04-11.57c-.7-.4-1.66-.2-2.14,.44,0,0-4.43,5.98-6.71,9.92C3.09,47.96,.13,54.78,.13,54.78c-.32,.74-.01,1.67,.68,2.07l20.04,11.57c.7,.4,1.5,.12,1.78-.64,0,0,2.63-6.97,4.93-10.96Z"/><path class="cls-6" d="M135.63,119.22c-2.3,3.98-7.03,9.75-7.03,9.75-.51,.62-.36,1.46,.34,1.86l20.04,11.57c.7,.4,1.66,.2,2.14-.44,0,0,4.43-5.98,6.71-9.92,2.28-3.95,5.24-10.77,5.24-10.77,.32-.74,.01-1.67-.68-2.07l-20.04-11.57c-.7-.4-1.5-.12-1.78,.64,0,0-2.63,6.97-4.93,10.96Z"/><path class="cls-6" d="M27.56,119.22c-2.3-3.98-4.93-10.96-4.93-10.96-.28-.75-1.09-1.04-1.78-.64L.81,119.19c-.7,.4-1.01,1.34-.68,2.07,0,0,2.96,6.82,5.24,10.77,2.28,3.95,6.71,9.92,6.71,9.92,.48,.65,1.44,.85,2.14,.44l20.04-11.57c.7-.4,.85-1.24,.34-1.86,0,0-4.73-5.76-7.03-9.75Z"/><path class="cls-6" d="M135.63,56.83c2.3,3.98,4.93,10.96,4.93,10.96,.28,.75,1.09,1.04,1.78,.64l20.04-11.57c.7-.4,1.01-1.34,.68-2.07,0,0-2.96-6.82-5.24-10.77-2.28-3.95-6.71-9.92-6.71-9.92-.48-.65-1.44-.85-2.14-.44l-20.04,11.57c-.7,.4-.85,1.24-.34,1.86,0,0,4.72,5.76,7.03,9.75Z"/></g></g><g><g><path class="cls-9" d="M56.62,32.17l-11.11,6.41c-.32,.18-.73,.07-.92-.25l-6.41-11.11c-.18-.32-.07-.73,.25-.92l11.11-6.41c.32-.19,.73-.07,.92,.25l6.41,11.11c.19,.32,.07,.73-.25,.92Zm-18.01-5.54c-.15,.08-.2,.27-.11,.42l6.41,11.11c.08,.15,.27,.2,.42,.11l11.11-6.41c.15-.08,.2-.27,.11-.42l-6.41-11.11c-.08-.15-.27-.2-.42-.11l-11.11,6.41Z"/><path class="cls-9" d="M51.58,18.8c-.09,.05-.12,.16-.07,.25l5.67,9.82c.05,.09,.16,.12,.25,.07s.12-.16,.07-.25l-5.67-9.82c-.05-.09-.16-.12-.25-.07Z"/><path class="cls-9" d="M49.3,18.13c-.05-.09-.16-.12-.25-.07l-9.82,5.67c-.09,.05-.12,.16-.07,.25,.05,.09,.16,.12,.25,.07l9.82-5.67c.09-.05,.12-.16,.07-.25Z"/><path class="cls-9" d="M20.79,81.41v12.83c0,.37-.3,.67-.67,.67H7.29c-.37,0-.67-.3-.67-.67v-12.83c0-.37,.3-.67,.67-.67h12.83c.37,0,.67,.3,.67,.67Zm-13.8,12.83c0,.17,.14,.3,.3,.3h12.83c.17,0,.3-.14,.3-.3v-12.83c0-.17-.14-.3-.3-.3H7.29c-.17,0-.3,.14-.3,.3v12.83Z"/><path class="cls-9" d="M6.69,79.09c0,.1,.08,.18,.18,.18h11.34c.1,0,.18-.08,.18-.18s-.08-.18-.18-.18H6.87c-.1,0-.18,.08-.18,.18Z"/><path class="cls-9" d="M4.97,80.74c-.1,0-.18,.08-.18,.18v11.34c0,.1,.08,.18,.18,.18s.18-.08,.18-.18v-11.34c0-.1-.08-.18-.18-.18Z"/><path class="cls-9" d="M45.51,137.07l11.11,6.41c.32,.18,.43,.6,.25,.92l-6.41,11.11c-.19,.32-.6,.43-.92,.25l-11.11-6.41c-.32-.19-.43-.6-.25-.92l6.41-11.11c.18-.32,.6-.43,.92-.25Zm4.21,18.37c.15,.08,.33,.03,.42-.11l6.41-11.11c.08-.15,.03-.33-.11-.42l-11.11-6.41c-.15-.08-.33-.03-.42,.11l-6.41,11.11c-.08,.15-.03,.33,.11,.42l11.11,6.41Z"/><path class="cls-9" d="M36.46,148.12c.09,.05,.2,.02,.25-.07l5.67-9.82c.05-.09,.02-.2-.07-.25-.09-.05-.2-.02-.25,.07l-5.67,9.82c-.05,.09-.02,.2,.07,.25Z"/><path class="cls-9" d="M37.02,150.43c-.05,.09-.02,.2,.07,.25l9.82,5.67c.09,.05,.2,.02,.25-.07s.02-.2-.07-.25l-9.82-5.67c-.09-.05-.2-.02-.25,.07Z"/><path class="cls-9" d="M124.27,149.34l-11.11,6.41c-.32,.19-.73,.07-.92-.25l-6.41-11.11c-.18-.32-.07-.73,.25-.92l11.11-6.41c.32-.18,.73-.07,.92,.25l6.41,11.11c.19,.32,.07,.73-.25,.92Zm-18.01-5.54c-.15,.08-.2,.27-.11,.42l6.41,11.11c.08,.15,.27,.2,.42,.11l11.11-6.41c.15-.08,.2-.27,.11-.42l-6.41-11.11c-.08-.15-.27-.2-.42-.11l-11.11,6.41Z"/><path class="cls-9" d="M105.3,146.78c-.09,.05-.12,.16-.07,.25l5.67,9.82c.05,.09,.16,.12,.25,.07,.09-.05,.12-.16,.07-.25l-5.67-9.82c-.05-.09-.16-.12-.25-.07Z"/><path class="cls-9" d="M123.54,151.66c-.05-.09-.16-.12-.25-.07l-9.82,5.67c-.09,.05-.12,.16-.07,.25,.05,.09,.16,.12,.25,.07l9.82-5.67c.09-.05,.12-.16,.07-.25Z"/><path class="cls-9" d="M156.09,81.41v12.83c0,.37-.3,.67-.67,.67h-12.83c-.37,0-.67-.3-.67-.67v-12.83c0-.37,.3-.67,.67-.67h12.83c.37,0,.67,.3,.67,.67Zm-13.8,12.83c0,.17,.14,.3,.3,.3h12.83c.17,0,.3-.14,.3-.3v-12.83c0-.17-.14-.3-.3-.3h-12.83c-.17,0-.3,.14-.3,.3v12.83Z"/><path class="cls-9" d="M144.38,96.56c0,.1,.08,.18,.18,.18h11.34c.1,0,.18-.08,.18-.18s-.08-.18-.18-.18h-11.34c-.1,0-.18,.08-.18,.18Z"/><path class="cls-9" d="M157.73,83.2c-.1,0-.18,.08-.18,.18v11.34c0,.1,.08,.18,.18,.18s.18-.08,.18-.18v-11.34c0-.1-.08-.18-.18-.18Z"/><path class="cls-9" d="M113.16,19.89l11.11,6.41c.32,.19,.43,.6,.25,.92l-6.41,11.11c-.19,.32-.6,.43-.92,.25l-11.11-6.41c-.32-.18-.43-.6-.25-.92l6.41-11.11c.18-.32,.6-.43,.92-.25Zm4.21,18.37c.15,.08,.33,.03,.42-.11l6.41-11.11c.08-.15,.03-.33-.11-.42l-11.11-6.41c-.15-.08-.33-.03-.42,.11l-6.41,11.11c-.08,.15-.03,.33,.11,.42l11.11,6.41Z"/><path class="cls-9" d="M120.43,37.6c.09,.05,.2,.02,.25-.07l5.67-9.82c.05-.09,.02-.2-.07-.25-.09-.05-.2-.02-.25,.07l-5.67,9.82c-.05,.09-.02,.2,.07,.25Z"/><path class="cls-9" d="M115.54,19.36c-.05,.09-.02,.2,.07,.25l9.82,5.67c.09,.05,.2,.02,.25-.07,.05-.09,.02-.2-.07-.25l-9.82-5.67c-.09-.05-.2-.02-.25,.07Z"/></g><g><path class="cls-9" d="M56.87,32.36l-11.11,6.41c-.32,.18-.73,.07-.92-.25l-6.41-11.11c-.18-.32-.07-.73,.25-.92l11.11-6.41c.32-.19,.73-.07,.92,.25l6.41,11.11c.18,.32,.07,.73-.25,.92Zm-18.01-5.54c-.15,.08-.2,.27-.11,.42l6.41,11.11c.08,.15,.27,.2,.42,.11l11.11-6.41c.15-.08,.2-.27,.11-.42l-6.41-11.11c-.08-.15-.27-.2-.42-.11l-11.11,6.41Z"/><g><path class="cls-6" d="M49,28.72c.39,.68,.16,1.55-.52,1.94-.68,.39-1.55,.16-1.94-.52-.39-.68-.16-1.55,.52-1.94,.68-.39,1.55-.16,1.94,.52Z"/><path class="cls-6" d="M50.4,23c.39,.68,.16,1.55-.52,1.94-.68,.39-1.55,.16-1.94-.52-.39-.68-.16-1.55,.52-1.94s1.55-.16,1.94,.52Z"/><path class="cls-6" d="M54.65,30.37c.39,.68,.16,1.55-.52,1.94s-1.55,.16-1.94-.52-.16-1.55,.52-1.94c.68-.39,1.55-.16,1.94,.52Z"/><path class="cls-6" d="M43.35,27.08c.39,.68,.16,1.55-.52,1.94-.68,.39-1.55,.16-1.94-.52-.39-.68-.16-1.55,.52-1.94,.68-.39,1.55-.16,1.94,.52Z"/><path class="cls-6" d="M47.6,34.44c.39,.68,.16,1.55-.52,1.94-.68,.39-1.55,.16-1.94-.52-.39-.68-.16-1.55,.52-1.94,.68-.39,1.55-.16,1.94,.52Z"/></g><path class="cls-9" d="M51.83,19c-.09,.05-.12,.16-.07,.25l5.67,9.82c.05,.09,.16,.12,.25,.07,.09-.05,.12-.16,.07-.25l-5.67-9.82c-.05-.09-.16-.12-.25-.07Z"/><path class="cls-9" d="M49.54,18.33c-.05-.09-.16-.12-.25-.07l-9.82,5.67c-.09,.05-.12,.16-.07,.25,.05,.09,.16,.12,.25,.07l9.82-5.67c.09-.05,.12-.16,.07-.25Z"/></g><g><path class="cls-9" d="M21.03,81.61v12.83c0,.37-.3,.67-.67,.67H7.53c-.37,0-.67-.3-.67-.67v-12.83c0-.37,.3-.67,.67-.67h12.83c.37,0,.67,.3,.67,.67Zm-13.8,12.83c0,.17,.14,.3,.3,.3h12.83c.17,0,.3-.14,.3-.3v-12.83c0-.17-.14-.31-.3-.31H7.53c-.17,0-.3,.14-.3,.31v12.83Z"/><g><path class="cls-6" d="M9.69,82.53c.78,0,1.42,.64,1.42,1.42s-.64,1.42-1.42,1.42-1.42-.64-1.42-1.42,.64-1.42,1.42-1.42Z"/><path class="cls-6" d="M18.2,82.53c.78,0,1.42,.64,1.42,1.42s-.64,1.42-1.42,1.42-1.42-.64-1.42-1.42,.64-1.42,1.42-1.42Z"/><path class="cls-6" d="M9.69,90.67c.78,0,1.42,.64,1.42,1.42s-.64,1.42-1.42,1.42-1.42-.64-1.42-1.42,.64-1.42,1.42-1.42Z"/><circle class="cls-6" cx="18.2" cy="92.09" r="1.42"/></g><path class="cls-9" d="M6.93,79.29c0,.1,.08,.18,.18,.18h11.34c.1,0,.18-.08,.18-.18s-.08-.18-.18-.18H7.12c-.1,0-.18,.08-.18,.18Z"/><path class="cls-9" d="M5.21,80.94c-.1,0-.18,.08-.18,.18v11.34c0,.1,.08,.18,.18,.18s.18-.08,.18-.18v-11.34c0-.1-.08-.18-.18-.18Z"/></g><g><path class="cls-9" d="M45.76,137.27l11.11,6.41c.32,.18,.43,.6,.25,.92l-6.41,11.11c-.19,.32-.6,.43-.92,.25l-11.11-6.41c-.32-.19-.43-.6-.25-.92l6.41-11.11c.18-.32,.6-.43,.92-.25Zm4.21,18.37c.15,.08,.33,.03,.42-.11l6.41-11.11c.08-.15,.03-.33-.11-.42l-11.11-6.41c-.15-.08-.33-.03-.42,.11l-6.41,11.11c-.08,.15-.03,.33,.11,.42l11.11,6.41Z"/><g><path class="cls-6" d="M40.89,147.55c.39-.68,1.26-.91,1.94-.52s.91,1.26,.52,1.94c-.39,.68-1.26,.91-1.94,.52-.68-.39-.91-1.26-.52-1.94Z"/><path class="cls-6" d="M43.01,143.86c.39-.68,1.26-.91,1.94-.52s.91,1.26,.52,1.94c-.39,.68-1.26,.91-1.94,.52s-.91-1.26-.52-1.94Z"/><path class="cls-6" d="M45.14,140.18c.39-.68,1.26-.91,1.94-.52,.68,.39,.91,1.26,.52,1.94-.39,.68-1.26,.91-1.94,.52-.68-.39-.91-1.26-.52-1.94Z"/><path class="cls-6" d="M47.94,151.62c.39-.68,1.26-.91,1.94-.52,.68,.39,.91,1.26,.52,1.94-.39,.68-1.26,.91-1.94,.52s-.91-1.26-.52-1.94Z"/><path class="cls-6" d="M50.07,147.93c.39-.68,1.26-.91,1.94-.52,.68,.39,.91,1.26,.52,1.94-.39,.68-1.26,.91-1.94,.52-.68-.39-.91-1.26-.52-1.94Z"/><path class="cls-6" d="M52.19,144.25c.39-.68,1.26-.91,1.94-.52,.68,.39,.91,1.26,.52,1.94s-1.26,.91-1.94,.52c-.68-.39-.91-1.26-.52-1.94Z"/></g><path class="cls-9" d="M36.7,148.31c.09,.05,.2,.02,.25-.07l5.67-9.82c.05-.09,.02-.2-.07-.25-.09-.05-.2-.02-.25,.07l-5.67,9.82c-.05,.09-.02,.2,.07,.25Z"/><path class="cls-9" d="M37.27,150.63c-.05,.09-.02,.2,.07,.25l9.82,5.67c.09,.05,.2,.02,.25-.07s.02-.2-.07-.25l-9.82-5.67c-.09-.05-.2-.02-.25,.07Z"/></g><g><path class="cls-9" d="M124.52,149.54l-11.11,6.41c-.32,.19-.73,.07-.92-.25l-6.41-11.11c-.19-.32-.07-.73,.25-.92l11.11-6.41c.32-.18,.73-.07,.92,.25l6.41,11.11c.19,.32,.07,.73-.25,.92Zm-18.01-5.54c-.15,.08-.2,.27-.11,.42l6.41,11.11c.08,.15,.27,.2,.42,.11l11.11-6.41c.15-.08,.2-.27,.11-.42l-6.41-11.11c-.08-.15-.27-.2-.42-.11l-11.11,6.41Z"/><g><path class="cls-6" d="M122.3,147.55c.39,.68,.16,1.55-.52,1.94-.68,.39-1.55,.16-1.94-.52-.39-.68-.16-1.55,.52-1.94,.68-.39,1.55-.16,1.94,.52Z"/><path class="cls-6" d="M111,144.25c.39,.68,.16,1.55-.52,1.94-.68,.39-1.55,.16-1.94-.52-.39-.68-.16-1.55,.52-1.94,.68-.39,1.55-.16,1.94,.52Z"/></g><path class="cls-9" d="M105.55,146.98c-.09,.05-.12,.16-.07,.25l5.67,9.82c.05,.09,.16,.12,.25,.07,.09-.05,.12-.16,.07-.25l-5.67-9.82c-.05-.09-.16-.12-.25-.07Z"/><path class="cls-9" d="M123.79,151.86c-.05-.09-.16-.12-.25-.07l-9.82,5.67c-.09,.05-.12,.16-.07,.25,.05,.09,.16,.12,.25,.07l9.82-5.67c.09-.05,.12-.16,.07-.25Z"/></g><g><path class="cls-9" d="M156.33,81.61v12.83c0,.37-.3,.67-.67,.67h-12.83c-.37,0-.67-.3-.67-.67v-12.83c0-.37,.3-.67,.67-.67h12.83c.37,0,.67,.3,.67,.67Zm-13.81,12.83c0,.17,.14,.3,.31,.3h12.83c.17,0,.3-.14,.3-.3v-12.83c0-.17-.14-.31-.3-.31h-12.83c-.17,0-.31,.14-.31,.31v12.83Z"/><g><path class="cls-6" d="M149.25,86.6c.78,0,1.42,.64,1.42,1.42s-.64,1.42-1.42,1.42-1.42-.64-1.42-1.42,.64-1.42,1.42-1.42Z"/><path class="cls-6" d="M144.99,82.53c.78,0,1.42,.64,1.42,1.42s-.64,1.42-1.42,1.42-1.42-.64-1.42-1.42,.64-1.42,1.42-1.42Z"/><path class="cls-6" d="M153.5,90.67c.78,0,1.42,.64,1.42,1.42s-.64,1.42-1.42,1.42-1.42-.64-1.42-1.42,.64-1.42,1.42-1.42Z"/></g><path class="cls-9" d="M144.63,96.75c0,.1,.08,.18,.18,.18h11.34c.1,0,.18-.08,.18-.18s-.08-.18-.18-.18h-11.34c-.1,0-.18,.08-.18,.18Z"/><path class="cls-9" d="M157.98,83.4c-.1,0-.18,.08-.18,.18v11.34c0,.1,.08,.18,.18,.18s.18-.08,.18-.18v-11.34c0-.1-.08-.18-.18-.18Z"/></g><g><path class="cls-9" d="M113.41,20.09l11.11,6.41c.32,.19,.43,.6,.25,.92l-6.41,11.11c-.19,.32-.6,.43-.92,.25l-11.11-6.41c-.32-.18-.43-.6-.25-.92l6.41-11.11c.18-.32,.6-.43,.92-.25Zm4.21,18.37c.15,.08,.33,.03,.42-.11l6.41-11.11c.08-.15,.03-.33-.11-.42l-11.11-6.41c-.15-.08-.33-.03-.42,.11l-6.41,11.11c-.08,.15-.03,.33,.11,.42l11.11,6.41Z"/><path class="cls-6" d="M114.19,28.72c.39-.68,1.26-.91,1.94-.52,.68,.39,.91,1.26,.52,1.94-.39,.68-1.26,.91-1.94,.52s-.91-1.26-.52-1.94Z"/><path class="cls-9" d="M120.67,37.8c.09,.05,.2,.02,.25-.07l5.67-9.82c.05-.09,.02-.2-.07-.25-.09-.05-.2-.02-.25,.07l-5.67,9.82c-.05,.09-.02,.2,.07,.25Z"/><path class="cls-9" d="M115.79,19.56c-.05,.09-.02,.2,.07,.25l9.82,5.67c.09,.05,.2,.02,.25-.07,.05-.09,.02-.2-.07-.25l-9.82-5.67c-.09-.05-.2-.02-.25,.07Z"/></g></g></g></g></g></g></svg>