<?xml version="1.0" encoding="UTF-8"?><svg xmlns="http://www.w3.org/2000/svg" xmlns:xlink="http://www.w3.org/1999/xlink" viewBox="0 0 142.31 153.51"><defs><style>.cls-1{isolation:isolate;}.cls-2{fill:url(#radial-gradient);mix-blend-mode:multiply;}.cls-3{clip-path:url(#clippath-1);}.cls-4{fill:#3a3a3a;}.cls-5{fill:#f1f2f2;}.cls-6{clip-path:url(#clippath);}.cls-7{fill:none;}.cls-8{fill:#636363;}.cls-9{fill:#353535;}.cls-10{fill:#474747;}.cls-11{fill:#666;}</style><clipPath id="clippath"><circle class="cls-7" cx="71.15" cy="76.76" r="50.25"/></clipPath><radialGradient id="radial-gradient" cx="71.28" cy="76.9" fx="71.28" fy="76.9" r="53.39" gradientTransform="matrix(1, 0, 0, 1, 0, 0)" gradientUnits="userSpaceOnUse"><stop offset=".86" stop-color="#050505"/><stop offset=".91" stop-color="#fff"/><stop offset=".92" stop-color="#f4f4f4"/><stop offset=".93" stop-color="#d8d8d8"/><stop offset=".94" stop-color="#aaa"/><stop offset=".95" stop-color="#6b6b6b"/><stop offset=".97" stop-color="#1b1b1b"/><stop offset=".97" stop-color="#050505"/></radialGradient><clipPath id="clippath-1"><circle class="cls-7" cx="71.15" cy="76.76" r="70.12"/></clipPath></defs><g class="cls-1"><g id="_이어_2"><g id="_"><g><circle class="cls-11" cx="71.15" cy="76.76" r="70.12"/><g class="cls-6"><polygon class="cls-5" points="127.06 71.32 91.43 71.32 122.29 53.51 116.86 44.1 86 61.91 103.81 31.05 94.4 25.62 76.59 56.48 76.59 20.85 65.72 20.85 65.72 56.48 47.9 25.62 38.49 31.05 56.31 61.91 25.45 44.1 20.02 53.51 50.87 71.32 15.24 71.32 15.24 82.19 50.87 82.19 20.02 100.01 25.45 109.42 56.31 91.6 38.49 122.46 47.9 127.89 65.72 97.04 65.72 132.67 76.59 132.67 76.59 97.04 94.4 127.89 103.81 122.46 86 91.6 116.86 109.42 122.29 100.01 91.43 82.19 127.06 82.19 127.06 71.32"/></g><circle class="cls-2" cx="71.15" cy="76.76" r="50.25"/><circle class="cls-11" cx="71.15" cy="76.76" r="47.34"/><g><path class="cls-4" d="M116.86,89.12s-.1,.37-.3,1.06c-.18,.7-.51,1.7-.95,2.97-.25,.62-.48,1.33-.8,2.07-.16,.37-.32,.76-.49,1.16-.19,.4-.38,.81-.58,1.23-.82,1.68-1.82,3.55-3.1,5.47-1.28,1.92-2.8,3.91-4.58,5.87-1.78,1.95-3.83,3.87-6.13,5.61-2.3,1.75-4.83,3.35-7.54,4.72-2.71,1.37-5.6,2.47-8.57,3.3-2.97,.82-6.02,1.35-9.05,1.56-3.03,.22-6.01,.15-8.89-.17-2.87-.31-5.61-.89-8.14-1.66-2.53-.76-4.86-1.7-6.94-2.69-2.08-1-3.9-2.09-5.47-3.11-.77-.53-1.49-1.03-2.14-1.51-.64-.5-1.23-.94-1.75-1.37-.51-.44-.97-.82-1.36-1.16-.39-.34-.71-.66-.97-.9-.52-.49-.8-.75-.8-.75,0,0,.28,.26,.82,.74,.27,.24,.59,.55,.99,.88,.4,.33,.86,.71,1.38,1.14,.52,.42,1.13,.85,1.77,1.34,.66,.47,1.38,.95,2.16,1.47,1.58,.99,3.41,2.04,5.49,3.02,2.08,.96,4.4,1.87,6.93,2.6,2.52,.74,5.25,1.28,8.1,1.59,2.84,.3,5.82,.37,8.82,.14,3-.22,6.02-.75,8.96-1.57,2.94-.81,5.82-1.89,8.5-3.24,2.69-1.35,5.21-2.93,7.49-4.66,2.28-1.73,4.34-3.6,6.13-5.53,1.79-1.92,3.32-3.89,4.61-5.79,1.28-1.9,2.32-3.74,3.16-5.41,.21-.42,.4-.82,.6-1.22,.18-.4,.35-.78,.51-1.15,.34-.73,.58-1.44,.84-2.06,.46-1.26,.8-2.26,1-2.95l.32-1.06Z"/><path class="cls-4" d="M22.11,65.78s.1-.4,.27-1.16c.17-.76,.47-1.86,.89-3.25,.45-1.38,1.01-3.05,1.82-4.9,.8-1.85,1.8-3.91,3.11-6.03,2.58-4.25,6.28-8.84,11.11-12.8,2.41-1.97,5.1-3.78,7.98-5.33,2.88-1.55,5.95-2.87,9.14-3.83,3.18-.96,6.46-1.6,9.72-1.92,3.26-.32,6.49-.32,9.59-.03,3.11,.28,6.07,.86,8.82,1.63,2.75,.77,5.28,1.72,7.54,2.77,2.25,1.06,4.25,2.18,5.94,3.28,.85,.54,1.62,1.1,2.34,1.59,.69,.53,1.33,1.02,1.91,1.46,.56,.47,1.05,.88,1.48,1.24,.43,.36,.77,.7,1.06,.96,.57,.53,.88,.81,.88,.81,0,0-.31-.28-.89-.79-.29-.25-.64-.59-1.08-.94-.44-.35-.94-.76-1.5-1.22-.58-.43-1.23-.91-1.93-1.43-.73-.48-1.5-1.03-2.36-1.55-.43-.26-.88-.53-1.33-.81-.46-.28-.95-.52-1.44-.8-.5-.27-1-.55-1.54-.8-.54-.26-1.07-.53-1.64-.79-2.26-1.02-4.79-1.95-7.52-2.69-2.74-.74-5.69-1.29-8.77-1.57-3.07-.28-6.3-.28-9.52,.05-3.23,.33-6.48,.97-9.64,1.93-3.16,.94-6.21,2.24-9.07,3.77-2.86,1.54-5.53,3.32-7.93,5.27-2.4,1.96-4.54,4.06-6.4,6.2-1.86,2.14-3.43,4.33-4.74,6.43-1.32,2.1-2.34,4.13-3.17,5.97-.84,1.83-1.43,3.49-1.9,4.86-.44,1.38-.76,2.47-.94,3.23l-.29,1.15Z"/><path class="cls-8" d="M119.98,88.68s-.1,.41-.3,1.17c-.18,.77-.51,1.87-.97,3.27-.25,.69-.49,1.47-.83,2.29-.16,.41-.34,.84-.51,1.28-.2,.44-.4,.89-.61,1.36-.86,1.86-1.93,3.92-3.3,6.04-1.36,2.12-3.01,4.32-4.94,6.47-1.94,2.15-4.17,4.25-6.67,6.17-2.5,1.93-5.26,3.7-8.23,5.18-2.97,1.48-6.13,2.69-9.38,3.58-3.26,.87-6.61,1.38-9.92,1.58-3.31,.2-6.58,.05-9.72-.36-3.13-.41-6.11-1.11-8.87-1.99-2.75-.9-5.27-2-7.51-3.14-2.26-1.13-4.19-2.42-5.88-3.57-.82-.62-1.6-1.17-2.29-1.74-.68-.57-1.32-1.07-1.86-1.57-.54-.5-1.03-.94-1.45-1.32-.41-.39-.75-.75-1.03-1.02-.55-.56-.85-.86-.85-.86l.86,.84c.28,.27,.62,.62,1.04,1.01,.43,.38,.92,.81,1.47,1.3,.55,.49,1.2,.98,1.88,1.54,.69,.55,1.48,1.09,2.31,1.7,.43,.28,.87,.57,1.32,.86,.23,.15,.46,.3,.69,.45,.24,.15,.48,.29,.73,.43,.49,.29,1,.59,1.52,.89,.53,.28,1.08,.57,1.63,.86,2.24,1.13,4.75,2.21,7.49,3.09,2.75,.86,5.71,1.54,8.83,1.93,3.11,.39,6.37,.52,9.65,.3,3.29-.22,6.6-.74,9.83-1.62,3.23-.86,6.37-2.05,9.33-3.5,2.96-1.45,5.7-3.2,8.2-5.1,2.49-1.9,4.73-3.98,6.67-6.1,1.93-2.13,3.59-4.31,4.95-6.41,1.36-2.11,2.46-4.14,3.35-5.98,.22-.46,.42-.91,.63-1.34,.18-.44,.36-.87,.53-1.27,.36-.81,.61-1.58,.87-2.27,.48-1.39,.82-2.49,1.02-3.25l.32-1.16Z"/></g><path class="cls-8" d="M23.81,76.76s0-.48,.03-1.38c0-.9,.08-2.22,.24-3.89,.11-.83,.18-1.76,.37-2.76,.09-.5,.18-1.02,.27-1.56,.12-.53,.24-1.09,.37-1.66,.55-2.28,1.31-4.82,2.45-7.47,1.13-2.66,2.61-5.43,4.48-8.16,1.87-2.73,4.14-5.41,6.77-7.88,2.62-2.48,5.65-4.71,8.95-6.59,3.29-1.9,6.87-3.39,10.59-4.43,1.85-.54,3.75-.9,5.64-1.21,1.9-.25,3.81-.46,5.71-.49,.47-.01,.95-.02,1.42-.03,.47,.02,.94,.03,1.41,.05,.94,.04,1.87,.04,2.79,.16,.46,.05,.92,.09,1.39,.14,.46,.04,.92,.09,1.37,.18,.9,.16,1.8,.29,2.69,.47,3.54,.73,6.86,1.88,9.87,3.24,1.52,.65,2.92,1.45,4.29,2.19,.66,.41,1.31,.81,1.95,1.21l.47,.3c.15,.11,.3,.22,.45,.32,.3,.21,.6,.42,.89,.63,1.2,.81,2.24,1.73,3.27,2.54,.5,.43,.96,.88,1.41,1.3,.45,.43,.91,.82,1.3,1.26,1.64,1.67,2.96,3.24,3.97,4.58,.5,.68,.94,1.28,1.33,1.81,.35,.55,.66,1.01,.9,1.39l.75,1.16s-.27-.4-.76-1.15c-.25-.37-.56-.84-.92-1.38-.39-.52-.85-1.12-1.35-1.79-1.03-1.32-2.37-2.87-4.03-4.51-.4-.43-.86-.82-1.32-1.24-.46-.41-.93-.85-1.43-1.27-1.03-.8-2.07-1.72-3.27-2.51-.29-.21-.59-.42-.89-.63-.15-.11-.3-.21-.45-.32-.16-.1-.32-.2-.47-.29-.64-.39-1.29-.79-1.94-1.19-1.36-.73-2.76-1.52-4.28-2.16-3-1.34-6.31-2.46-9.82-3.17-.88-.17-1.78-.3-2.67-.45-.45-.09-.9-.13-1.36-.17-.46-.04-.91-.09-1.37-.13-.91-.12-1.85-.11-2.78-.15-.47-.01-.93-.03-1.4-.04-.47,.01-.94,.03-1.41,.04-1.88,.04-3.77,.25-5.66,.51-.94,.17-1.88,.32-2.81,.53-.93,.22-1.87,.42-2.78,.7-3.68,1.02-7.25,2.48-10.52,4.35-3.27,1.86-6.29,4.05-8.91,6.5-2.63,2.44-4.89,5.1-6.77,7.8-1.88,2.7-3.36,5.46-4.5,8.09-1.13,2.64-1.94,5.16-2.51,7.42-.14,.57-.27,1.12-.39,1.65-.1,.54-.2,1.05-.29,1.55-.21,.99-.29,1.92-.41,2.75-.18,1.67-.28,2.99-.29,3.89l-.04,1.38Z"/><g class="cls-3"><g><path class="cls-5" d="M71.15,22.35c4.01,0,10.43,1.05,10.43,1.05,.69,.11,1.26-.37,1.26-1.07V2.16c0-.7-.57-1.34-1.27-1.42,0,0-6.44-.74-10.42-.74s-10.42,.74-10.42,.74c-.7,.08-1.27,.72-1.27,1.42V22.34c0,.7,.57,1.18,1.26,1.07,0,0,6.41-1.05,10.43-1.05Z"/><path class="cls-5" d="M71.15,131.16c-4.01,0-10.43-1.05-10.43-1.05-.69-.11-1.26,.37-1.26,1.07v20.18c0,.7,.57,1.34,1.27,1.42,0,0,6.44,.74,10.42,.74s10.42-.74,10.42-.74c.7-.08,1.27-.72,1.27-1.42v-20.18c0-.7-.57-1.18-1.26-1.07,0,0-6.41,1.05-10.43,1.05Z"/><path class="cls-5" d="M24.04,49.55c2.01-3.47,6.13-8.5,6.13-8.5,.45-.54,.31-1.27-.3-1.63L12.39,29.34c-.61-.35-1.45-.18-1.87,.39,0,0-3.86,5.21-5.85,8.65C2.69,41.82,.11,47.77,.11,47.77c-.28,.64-.01,1.46,.6,1.81l17.47,10.09c.61,.35,1.31,.1,1.56-.56,0,0,2.29-6.08,4.3-9.56Z"/><path class="cls-5" d="M118.27,103.96c-2.01,3.47-6.13,8.5-6.13,8.5-.45,.54-.31,1.27,.3,1.63l17.47,10.09c.61,.35,1.45,.18,1.87-.39,0,0,3.86-5.21,5.85-8.65,1.99-3.44,4.57-9.39,4.57-9.39,.28-.64,.01-1.46-.6-1.81l-17.47-10.09c-.61-.35-1.31-.1-1.56,.56,0,0-2.29,6.08-4.3,9.56Z"/><path class="cls-5" d="M24.04,103.96c-2.01-3.47-4.3-9.56-4.3-9.56-.25-.66-.95-.91-1.56-.56L.71,103.94c-.61,.35-.88,1.17-.6,1.81,0,0,2.58,5.95,4.57,9.39,1.99,3.44,5.85,8.65,5.85,8.65,.42,.56,1.26,.74,1.87,.39l17.47-10.09c.61-.35,.74-1.08,.3-1.63,0,0-4.12-5.03-6.13-8.5Z"/><path class="cls-5" d="M118.27,49.55c2.01,3.47,4.3,9.56,4.3,9.56,.25,.66,.95,.91,1.56,.56l17.47-10.09c.61-.35,.88-1.17,.6-1.81,0,0-2.58-5.95-4.57-9.39-1.99-3.44-5.85-8.65-5.85-8.65-.42-.56-1.26-.74-1.87-.39l-17.47,10.09c-.61,.35-.74,1.08-.3,1.63,0,0,4.12,5.03,6.13,8.5Z"/></g></g><g><g><path class="cls-9" d="M49.38,28.05l-9.69,5.59c-.28,.16-.64,.07-.8-.21l-5.59-9.69c-.16-.28-.07-.64,.21-.8l9.69-5.59c.28-.16,.64-.07,.8,.21l5.59,9.69c.16,.28,.07,.64-.21,.8Zm-15.71-4.83c-.13,.07-.17,.24-.1,.36l5.59,9.69c.07,.13,.24,.17,.36,.1l9.69-5.59c.13-.07,.17-.24,.1-.36l-5.59-9.69c-.07-.13-.24-.17-.36-.1l-9.69,5.59Z"/><path class="cls-9" d="M44.98,16.39c-.08,.04-.1,.14-.06,.22l4.94,8.56c.04,.08,.14,.1,.22,.06s.1-.14,.06-.22l-4.94-8.56c-.04-.08-.14-.1-.22-.06Z"/><path class="cls-9" d="M42.99,15.81c-.04-.08-.14-.1-.22-.06l-8.56,4.94c-.08,.04-.1,.14-.06,.22,.04,.08,.14,.1,.22,.06l8.56-4.94c.08-.04,.1-.14,.06-.22Z"/><path class="cls-9" d="M18.13,70.99v11.19c0,.32-.26,.59-.59,.59H6.35c-.32,0-.59-.26-.59-.59v-11.19c0-.32,.26-.59,.59-.59h11.19c.32,0,.59,.26,.59,.59Zm-12.04,11.19c0,.15,.12,.27,.27,.27h11.19c.15,0,.27-.12,.27-.27v-11.19c0-.15-.12-.27-.27-.27H6.35c-.15,0-.27,.12-.27,.27v11.19Z"/><path class="cls-9" d="M5.83,68.97c0,.09,.07,.16,.16,.16H15.88c.09,0,.16-.07,.16-.16s-.07-.16-.16-.16H5.99c-.09,0-.16,.07-.16,.16Z"/><path class="cls-9" d="M4.33,70.41c-.09,0-.16,.07-.16,.16v9.89c0,.09,.07,.16,.16,.16s.16-.07,.16-.16v-9.89c0-.09-.07-.16-.16-.16Z"/><path class="cls-9" d="M39.69,119.53l9.69,5.59c.28,.16,.38,.52,.21,.8l-5.59,9.69c-.16,.28-.52,.38-.8,.21l-9.69-5.59c-.28-.16-.38-.52-.21-.8l5.59-9.69c.16-.28,.52-.38,.8-.21Zm3.67,16.02c.13,.07,.29,.03,.36-.1l5.59-9.69c.07-.13,.03-.29-.1-.36l-9.69-5.59c-.13-.07-.29-.03-.36,.1l-5.59,9.69c-.07,.13-.03,.29,.1,.36l9.69,5.59Z"/><path class="cls-9" d="M31.79,129.16c.08,.04,.17,.02,.22-.06l4.94-8.56c.04-.08,.02-.17-.06-.22-.08-.04-.17-.02-.22,.06l-4.94,8.56c-.04,.08-.02,.17,.06,.22Z"/><path class="cls-9" d="M32.29,131.18c-.04,.08-.02,.17,.06,.22l8.56,4.94c.08,.04,.17,.02,.22-.06s.02-.17-.06-.22l-8.56-4.94c-.08-.04-.17-.02-.22,.06Z"/><path class="cls-9" d="M108.37,130.23l-9.69,5.59c-.28,.16-.64,.07-.8-.21l-5.59-9.69c-.16-.28-.07-.64,.21-.8l9.69-5.59c.28-.16,.64-.07,.8,.21l5.59,9.69c.16,.28,.07,.64-.21,.8Zm-15.71-4.83c-.13,.07-.17,.24-.1,.36l5.59,9.69c.07,.13,.24,.17,.36,.1l9.69-5.59c.13-.07,.17-.24,.1-.36l-5.59-9.69c-.07-.13-.24-.17-.36-.1l-9.69,5.59Z"/><path class="cls-9" d="M91.83,127.99c-.08,.04-.1,.14-.06,.22l4.94,8.56c.04,.08,.14,.1,.22,.06,.08-.04,.1-.14,.06-.22l-4.94-8.56c-.04-.08-.14-.1-.22-.06Z"/><path class="cls-9" d="M107.73,132.25c-.04-.08-.14-.1-.22-.06l-8.56,4.94c-.08,.04-.1,.14-.06,.22,.04,.08,.14,.1,.22,.06l8.56-4.94c.08-.04,.1-.14,.06-.22Z"/><path class="cls-9" d="M136.11,70.99v11.19c0,.32-.26,.59-.59,.59h-11.19c-.32,0-.59-.26-.59-.59v-11.19c0-.32,.26-.59,.59-.59h11.19c.32,0,.59,.26,.59,.59Zm-12.04,11.19c0,.15,.12,.27,.27,.27h11.19c.15,0,.27-.12,.27-.27v-11.19c0-.15-.12-.27-.27-.27h-11.19c-.15,0-.27,.12-.27,.27v11.19Z"/><path class="cls-9" d="M125.91,84.2c0,.09,.07,.16,.16,.16h9.89c.09,0,.16-.07,.16-.16s-.07-.16-.16-.16h-9.89c-.09,0-.16,.07-.16,.16Z"/><path class="cls-9" d="M137.55,72.56c-.09,0-.16,.07-.16,.16v9.89c0,.09,.07,.16,.16,.16s.16-.07,.16-.16v-9.89c0-.09-.07-.16-.16-.16Z"/><path class="cls-9" d="M98.68,17.35l9.69,5.59c.28,.16,.38,.52,.21,.8l-5.59,9.69c-.16,.28-.52,.38-.8,.21l-9.69-5.59c-.28-.16-.38-.52-.21-.8l5.59-9.69c.16-.28,.52-.38,.8-.21Zm3.67,16.02c.13,.07,.29,.03,.36-.1l5.59-9.69c.07-.13,.03-.29-.1-.36l-9.69-5.59c-.13-.07-.29-.03-.36,.1l-5.59,9.69c-.07,.13-.03,.29,.1,.36l9.69,5.59Z"/><path class="cls-9" d="M105.02,32.79c.08,.04,.17,.02,.22-.06l4.94-8.56c.04-.08,.02-.17-.06-.22-.08-.04-.17-.02-.22,.06l-4.94,8.56c-.04,.08-.02,.17,.06,.22Z"/><path class="cls-9" d="M100.76,16.89c-.04,.08-.02,.17,.06,.22l8.56,4.94c.08,.04,.17,.02,.22-.06,.04-.08,.02-.17-.06-.22l-8.56-4.94c-.08-.04-.17-.02-.22,.06Z"/></g><g><path class="cls-10" d="M49.59,28.22l-9.69,5.59c-.28,.16-.64,.07-.8-.21l-5.59-9.69c-.16-.28-.07-.64,.21-.8l9.69-5.59c.28-.16,.64-.07,.8,.21l5.59,9.69c.16,.28,.07,.64-.21,.8Zm-15.71-4.83c-.13,.07-.17,.24-.1,.36l5.59,9.69c.07,.13,.24,.17,.36,.1l9.69-5.59c.13-.07,.17-.24,.1-.36l-5.59-9.69c-.07-.13-.24-.17-.36-.1l-9.69,5.59Z"/><g><path class="cls-5" d="M42.73,25.05c.34,.59,.14,1.35-.45,1.69-.59,.34-1.35,.14-1.69-.45-.34-.59-.14-1.35,.45-1.69,.59-.34,1.35-.14,1.69,.45Z"/><path class="cls-5" d="M43.95,20.06c.34,.59,.14,1.35-.45,1.69-.59,.34-1.35,.14-1.69-.45-.34-.59-.14-1.35,.45-1.69s1.35-.14,1.69,.45Z"/><path class="cls-5" d="M47.66,26.49c.34,.59,.14,1.35-.45,1.69s-1.35,.14-1.69-.45-.14-1.35,.45-1.69c.59-.34,1.35-.14,1.69,.45Z"/><path class="cls-5" d="M37.8,23.61c.34,.59,.14,1.35-.45,1.69-.59,.34-1.35,.14-1.69-.45-.34-.59-.14-1.35,.45-1.69,.59-.34,1.35-.14,1.69,.45Z"/><path class="cls-5" d="M41.51,30.04c.34,.59,.14,1.35-.45,1.69-.59,.34-1.35,.14-1.69-.45-.34-.59-.14-1.35,.45-1.69,.59-.34,1.35-.14,1.69,.45Z"/></g><path class="cls-10" d="M45.19,16.57c-.08,.04-.1,.14-.06,.22l4.94,8.56c.04,.08,.14,.1,.22,.06,.08-.04,.1-.14,.06-.22l-4.94-8.56c-.04-.08-.14-.1-.22-.06Z"/><path class="cls-10" d="M43.2,15.98c-.04-.08-.14-.1-.22-.06l-8.56,4.94c-.08,.04-.1,.14-.06,.22,.04,.08,.14,.1,.22,.06l8.56-4.94c.08-.04,.1-.14,.06-.22Z"/></g><g><path class="cls-10" d="M18.34,71.16v11.19c0,.32-.26,.59-.59,.59H6.57c-.32,0-.59-.26-.59-.59v-11.19c0-.32,.26-.59,.59-.59h11.19c.32,0,.59,.26,.59,.59Zm-12.04,11.19c0,.15,.12,.27,.27,.27h11.19c.15,0,.27-.12,.27-.27v-11.19c0-.15-.12-.27-.27-.27H6.57c-.15,0-.27,.12-.27,.27v11.19Z"/><g><path class="cls-5" d="M8.45,71.97c.68,0,1.24,.55,1.24,1.24s-.55,1.24-1.24,1.24-1.24-.55-1.24-1.24,.55-1.24,1.24-1.24Z"/><path class="cls-5" d="M15.87,71.97c.68,0,1.24,.55,1.24,1.24s-.55,1.24-1.24,1.24-1.24-.55-1.24-1.24,.55-1.24,1.24-1.24Z"/><path class="cls-5" d="M8.45,79.07c.68,0,1.24,.55,1.24,1.24s-.55,1.24-1.24,1.24-1.24-.55-1.24-1.24,.55-1.24,1.24-1.24Z"/><circle class="cls-5" cx="15.87" cy="80.31" r="1.24"/></g><path class="cls-10" d="M6.05,69.14c0,.09,.07,.16,.16,.16h9.89c.09,0,.16-.07,.16-.16s-.07-.16-.16-.16H6.21c-.09,0-.16,.07-.16,.16Z"/><path class="cls-10" d="M4.54,70.58c-.09,0-.16,.07-.16,.16v9.89c0,.09,.07,.16,.16,.16s.16-.07,.16-.16v-9.89c0-.09-.07-.16-.16-.16Z"/></g><g><path class="cls-10" d="M39.9,119.7l9.69,5.59c.28,.16,.38,.52,.21,.8l-5.59,9.69c-.16,.28-.52,.38-.8,.21l-9.69-5.59c-.28-.16-.38-.52-.21-.8l5.59-9.69c.16-.28,.52-.38,.8-.21Zm3.67,16.02c.13,.07,.29,.03,.36-.1l5.59-9.69c.07-.13,.03-.29-.1-.36l-9.69-5.59c-.13-.07-.29-.03-.36,.1l-5.59,9.69c-.07,.13-.03,.29,.1,.36l9.69,5.59Z"/><g><path class="cls-5" d="M35.65,128.66c.34-.59,1.1-.8,1.69-.45s.8,1.1,.45,1.69c-.34,.59-1.1,.8-1.69,.45-.59-.34-.8-1.1-.45-1.69Z"/><path class="cls-5" d="M37.51,125.45c.34-.59,1.1-.8,1.69-.45s.8,1.1,.45,1.69c-.34,.59-1.1,.8-1.69,.45s-.8-1.1-.45-1.69Z"/><path class="cls-5" d="M39.36,122.24c.34-.59,1.1-.8,1.69-.45,.59,.34,.8,1.1,.45,1.69-.34,.59-1.1,.8-1.69,.45-.59-.34-.8-1.1-.45-1.69Z"/><path class="cls-5" d="M41.8,132.22c.34-.59,1.1-.8,1.69-.45,.59,.34,.8,1.1,.45,1.69-.34,.59-1.1,.8-1.69,.45s-.8-1.1-.45-1.69Z"/><path class="cls-5" d="M43.66,129c.34-.59,1.1-.8,1.69-.45,.59,.34,.8,1.1,.45,1.69-.34,.59-1.1,.8-1.69,.45-.59-.34-.8-1.1-.45-1.69Z"/><path class="cls-5" d="M45.51,125.79c.34-.59,1.1-.8,1.69-.45,.59,.34,.8,1.1,.45,1.69-.34,.59-1.1,.8-1.69,.45-.59-.34-.8-1.1-.45-1.69Z"/></g><path class="cls-10" d="M32.01,129.33c.08,.04,.17,.02,.22-.06l4.94-8.56c.04-.08,.02-.17-.06-.22-.08-.04-.17-.02-.22,.06l-4.94,8.56c-.04,.08-.02,.17,.06,.22Z"/><path class="cls-10" d="M32.5,131.35c-.04,.08-.02,.17,.06,.22l8.56,4.94c.08,.04,.17,.02,.22-.06s.02-.17-.06-.22l-8.56-4.94c-.08-.04-.17-.02-.22,.06Z"/></g><g><path class="cls-10" d="M108.58,130.4l-9.69,5.59c-.28,.16-.64,.07-.8-.21l-5.59-9.69c-.16-.28-.07-.64,.21-.8l9.69-5.59c.28-.16,.64-.07,.8,.21l5.59,9.69c.16,.28,.07,.64-.21,.8Zm-15.71-4.83c-.13,.07-.17,.24-.1,.36l5.59,9.69c.07,.13,.24,.17,.36,.1l9.69-5.59c.13-.07,.17-.24,.1-.36l-5.59-9.69c-.07-.13-.24-.17-.36-.1l-9.69,5.59Z"/><g><path class="cls-5" d="M106.65,128.66c.34,.59,.14,1.35-.45,1.69-.59,.34-1.35,.14-1.69-.45-.34-.59-.14-1.35,.45-1.69,.59-.34,1.35-.14,1.69,.45Z"/><path class="cls-5" d="M96.79,125.79c.34,.59,.14,1.35-.45,1.69-.59,.34-1.35,.14-1.69-.45-.34-.59-.14-1.35,.45-1.69,.59-.34,1.35-.14,1.69,.45Z"/></g><path class="cls-10" d="M92.04,128.17c-.08,.04-.1,.14-.06,.22l4.94,8.56c.04,.08,.14,.1,.22,.06,.08-.04,.1-.14,.06-.22l-4.94-8.56c-.04-.08-.14-.1-.22-.06Z"/><path class="cls-10" d="M107.94,132.43c-.04-.08-.14-.1-.22-.06l-8.56,4.94c-.08,.04-.1,.14-.06,.22,.04,.08,.14,.1,.22,.06l8.56-4.94c.08-.04,.1-.14,.06-.22Z"/></g><g><path class="cls-10" d="M136.32,71.16v11.19c0,.32-.26,.59-.59,.59h-11.19c-.32,0-.59-.26-.59-.59v-11.19c0-.32,.26-.59,.59-.59h11.19c.32,0,.59,.26,.59,.59Zm-12.04,11.19c0,.15,.12,.27,.27,.27h11.19c.15,0,.27-.12,.27-.27v-11.19c0-.15-.12-.27-.27-.27h-11.19c-.15,0-.27,.12-.27,.27v11.19Z"/><g><path class="cls-5" d="M130.15,75.52c.68,0,1.24,.55,1.24,1.24s-.55,1.24-1.24,1.24-1.24-.55-1.24-1.24,.55-1.24,1.24-1.24Z"/><path class="cls-5" d="M126.44,71.97c.68,0,1.24,.55,1.24,1.24s-.55,1.24-1.24,1.24-1.24-.55-1.24-1.24,.55-1.24,1.24-1.24Z"/><path class="cls-5" d="M133.86,79.07c.68,0,1.24,.55,1.24,1.24s-.55,1.24-1.24,1.24-1.24-.55-1.24-1.24,.55-1.24,1.24-1.24Z"/></g><path class="cls-10" d="M126.12,84.37c0,.09,.07,.16,.16,.16h9.89c.09,0,.16-.07,.16-.16s-.07-.16-.16-.16h-9.89c-.09,0-.16,.07-.16,.16Z"/><path class="cls-10" d="M137.76,72.73c-.09,0-.16,.07-.16,.16v9.89c0,.09,.07,.16,.16,.16s.16-.07,.16-.16v-9.89c0-.09-.07-.16-.16-.16Z"/></g><g><path class="cls-10" d="M98.89,17.52l9.69,5.59c.28,.16,.38,.52,.21,.8l-5.59,9.69c-.16,.28-.52,.38-.8,.21l-9.69-5.59c-.28-.16-.38-.52-.21-.8l5.59-9.69c.16-.28,.52-.38,.8-.21Zm3.67,16.02c.13,.07,.29,.03,.36-.1l5.59-9.69c.07-.13,.03-.29-.1-.36l-9.69-5.59c-.13-.07-.29-.03-.36,.1l-5.59,9.69c-.07,.13-.03,.29,.1,.36l9.69,5.59Z"/><path class="cls-5" d="M99.58,25.05c.34-.59,1.1-.8,1.69-.45,.59,.34,.8,1.1,.45,1.69-.34,.59-1.1,.8-1.69,.45s-.8-1.1-.45-1.69Z"/><path class="cls-10" d="M105.23,32.96c.08,.04,.17,.02,.22-.06l4.94-8.56c.04-.08,.02-.17-.06-.22-.08-.04-.17-.02-.22,.06l-4.94,8.56c-.04,.08-.02,.17,.06,.22Z"/><path class="cls-10" d="M100.97,17.06c-.04,.08-.02,.17,.06,.22l8.56,4.94c.08,.04,.17,.02,.22-.06,.04-.08,.02-.17-.06-.22l-8.56-4.94c-.08-.04-.17-.02-.22,.06Z"/></g></g></g></g></g></g></svg>