<?xml version="1.0" encoding="UTF-8"?><svg id="_이어_2" xmlns="http://www.w3.org/2000/svg" viewBox="0 0 198.7 198.7"><defs><style>.cls-1{opacity:.7;}.cls-2{fill:#fff;}</style></defs><g id="_이어_1-2"><g><g class="cls-1"><circle class="cls-2" cx="99.35" cy="99.35" r="92.35"/></g><g><path d="M47.76,81.66h27.33l-23.24-23.24c-.32-.38-.51-.65-.67-.95-.38-.72-.58-1.48-.58-2.27s.2-1.55,.58-2.27c.45-.84,1.12-1.52,1.95-1.97,1.46-.81,3.18-.81,4.66,0,.27,.15,.53,.32,.76,.52l.51,.5,22.85,22.85v-27.33c0-2.66,2.17-4.83,4.83-4.83s4.83,2.17,4.83,4.83v38.98c0,.32-.03,.63-.09,.95l-.11,.38c-.06,.23-.11,.38-.17,.52-.06,.14-.13,.27-.2,.41l-.24,.43c-.35,.53-.8,.98-1.33,1.33l-.35,.2c-.2,.11-.34,.19-.49,.25-.14,.06-.28,.1-.43,.14l-.48,.13c-.31,.06-.62,.09-.94,.09H47.76c-2.66,0-4.83-2.17-4.83-4.83s2.17-4.83,4.83-4.83Z"/><path d="M81.92,151.19v-27.33l-23.24,23.24c-.38,.32-.65,.51-.95,.67-.72,.38-1.48,.58-2.27,.58s-1.55-.2-2.27-.58c-.84-.45-1.52-1.12-1.97-1.95-.81-1.46-.81-3.18,0-4.66,.15-.27,.32-.53,.52-.76l.5-.51,22.85-22.85h-27.33c-2.66,0-4.83-2.17-4.83-4.83s2.17-4.83,4.83-4.83h38.98c.32,0,.63,.03,.95,.09l.38,.11c.23,.06,.38,.11,.52,.17,.14,.06,.27,.13,.41,.2l.43,.24c.53,.35,.98,.8,1.33,1.33l.2,.35c.11,.2,.19,.34,.25,.49,.06,.14,.1,.28,.14,.43l.13,.48c.06,.31,.09,.62,.09,.94v38.98c0,2.66-2.17,4.83-4.83,4.83-2.66,0-4.83-2.17-4.83-4.83Z"/><path d="M155.76,86.49c0,2.66-2.17,4.83-4.83,4.83h-38.98c-.32,0-.63-.03-.94-.09l-.48-.13c-.14-.04-.29-.08-.43-.14-.15-.06-.28-.13-.49-.25l-.35-.2c-.53-.36-.98-.81-1.33-1.33l-.24-.43c-.08-.13-.15-.27-.2-.41-.06-.14-.1-.29-.17-.52l-.11-.38c-.06-.31-.09-.63-.09-.95V47.5c0-2.66,2.17-4.83,4.83-4.83s4.83,2.17,4.83,4.83v27.33l22.85-22.85,.51-.5c.24-.2,.49-.37,.76-.52,1.47-.81,3.19-.81,4.66,0,.83,.45,1.5,1.13,1.95,1.97,.39,.72,.58,1.49,.58,2.27,0,.79-.2,1.55-.58,2.27-.16,.3-.34,.57-.67,.95l-23.24,23.24h27.33c2.66,0,4.83,2.17,4.83,4.83Z"/><path d="M111.95,156.02c-2.66,0-4.83-2.17-4.83-4.83v-38.98c0-.32,.03-.63,.09-.94l.13-.48c.04-.14,.08-.29,.14-.43,.06-.15,.13-.28,.25-.49l.2-.35c.36-.53,.81-.98,1.33-1.33l.43-.24c.13-.08,.27-.15,.41-.2,.14-.06,.29-.1,.52-.17l.38-.11c.31-.06,.63-.09,.95-.09h38.98c2.66,0,4.83,2.17,4.83,4.83,0,2.66-2.17,4.83-4.83,4.83h-27.33l22.85,22.85,.5,.51c.2,.24,.37,.49,.52,.76,.81,1.47,.81,3.19,0,4.66-.45,.83-1.13,1.5-1.97,1.95-.72,.39-1.49,.58-2.27,.58s-1.55-.2-2.27-.58c-.3-.16-.57-.34-.95-.67l-23.24-23.24v27.33c0,2.66-2.17,4.83-4.83,4.83Z"/></g><path class="cls-2" d="M99.35,7c51,0,92.35,41.35,92.35,92.35s-41.35,92.35-92.35,92.35S7,150.35,7,99.35,48.35,7,99.35,7m0-7C44.57,0,0,44.57,0,99.35s44.57,99.35,99.35,99.35,99.35-44.57,99.35-99.35S154.13,0,99.35,0h0Z"/></g></g></svg>