<?xml version="1.0" encoding="UTF-8"?><svg id="_이어_2" xmlns="http://www.w3.org/2000/svg" viewBox="0 0 162.16 61.35"><defs><style>.cls-1{fill:#fff;}</style></defs><g id="_이어_1-2"><g><path class="cls-1" d="M131.49,61.35H30.67C13.76,61.35,0,47.59,0,30.67S13.76,0,30.67,0h100.81c16.91,0,30.67,13.76,30.67,30.67s-13.76,30.67-30.67,30.67ZM30.67,5c-14.16,0-25.67,11.52-25.67,25.67s11.52,25.67,25.67,25.67h100.81c14.16,0,25.67-11.52,25.67-25.67s-11.52-25.67-25.67-25.67H30.67Z"/><rect class="cls-1" x="77.34" y="2.5" width="83.05" height="56.35" rx="28.17" ry="28.17"/><g><path d="M63.7,16.46h-22.63c-1.58,0-2.87,1.28-2.87,2.87v1.12h11.06c2.44,0,4.42,1.98,4.42,4.42v10.07l7.57,4.35c.33,.19,.68-.2,.46-.51l-3.71-5.13h5.7c1.58,0,2.87-1.28,2.87-2.87v-11.46c0-1.58-1.28-2.87-2.87-2.87Z"/><path d="M49.26,21.75H24.61c-1.72,0-3.12,1.4-3.12,3.12v12.48c0,1.72,1.4,3.12,3.12,3.12h6.21l-4.04,5.59c-.24,.33,.14,.76,.5,.55l10.68-6.14h11.31c1.72,0,3.12-1.4,3.12-3.12v-12.48c0-1.72-1.4-3.12-3.12-3.12Z"/></g><path class="cls-1" d="M135.7,26.22c-.02-1.75-1.44-3.21-3.28-3.42-.25-6.74-6.28-12.18-13.56-12.18s-13.31,5.45-13.56,12.18c-1.84,.21-3.26,1.67-3.28,3.42-1.97,.78-3.27,2.61-3.27,4.6s1.31,3.82,3.27,4.6c.03,1.91,1.7,3.45,3.75,3.45s3.75-1.57,3.75-3.5v-9.12c0-1.14-.62-2.22-1.64-2.87v-.17c0-5.61,4.93-10.18,10.98-10.18s10.98,4.57,10.98,10.18v.17c-1.01,.65-1.64,1.74-1.64,2.87v9.12c0,1.74,1.4,3.22,3.22,3.46-.34,3.85-2.53,5.08-9.14,5.19-.5-.92-1.5-1.51-2.61-1.51h-4.91c-1.62,0-2.93,1.23-2.93,2.74s1.31,2.74,2.93,2.74h4.91c1.12,0,2.13-.6,2.62-1.53,7.07-.11,11.5-1.55,11.75-8.2,1.01-.64,1.64-1.71,1.66-2.84,1.97-.78,3.27-2.61,3.27-4.6s-1.31-3.82-3.27-4.6Zm.69,4.6c0,.62-.25,1.22-.69,1.69v-3.38c.44,.47,.69,1.07,.69,1.69Zm-3.27-4.56v9.12c0,.59-.52,1.06-1.16,1.06s-1.16-.48-1.16-1.06v-9.12c0-.59,.52-1.06,1.16-1.06s1.16,.48,1.16,1.06Zm-26.19,0v9.12c0,.59-.52,1.06-1.16,1.06s-1.16-.48-1.16-1.06v-9.12c0-.59,.52-1.06,1.16-1.06s1.16,.48,1.16,1.06Zm-4.91,2.87v3.38c-.44-.47-.69-1.07-.69-1.69s.25-1.22,.69-1.69Zm12.75,15.82h4.91c.19,0,.35,.14,.35,.3s-.16,.3-.35,.3h-4.91c-.19,0-.35-.14-.35-.3s.15-.3,.35-.3Z"/><g><path class="cls-1" d="M64.55,16.46h-22.63c-1.58,0-2.87,1.28-2.87,2.87v1.12h11.06c2.44,0,4.42,1.98,4.42,4.42v10.07l7.57,4.35c.33,.19,.68-.2,.46-.51l-3.71-5.13h5.7c1.58,0,2.87-1.28,2.87-2.87v-11.46c0-1.58-1.28-2.87-2.87-2.87Z"/><path class="cls-1" d="M50.11,21.75H25.46c-1.72,0-3.12,1.4-3.12,3.12v12.48c0,1.72,1.4,3.12,3.12,3.12h6.21l-4.04,5.59c-.24,.33,.14,.76,.5,.55l10.68-6.14h11.31c1.72,0,3.12-1.4,3.12-3.12v-12.48c0-1.72-1.4-3.12-3.12-3.12Z"/></g><path d="M136.55,26.22c-.02-1.75-1.44-3.21-3.28-3.42-.25-6.74-6.28-12.18-13.56-12.18s-13.31,5.45-13.56,12.18c-1.84,.21-3.26,1.67-3.28,3.42-1.97,.78-3.27,2.61-3.27,4.6s1.31,3.82,3.27,4.6c.03,1.91,1.7,3.45,3.75,3.45s3.75-1.57,3.75-3.5v-9.12c0-1.14-.62-2.22-1.64-2.87v-.17c0-5.61,4.93-10.18,10.98-10.18s10.98,4.57,10.98,10.18v.17c-1.01,.65-1.64,1.74-1.64,2.87v9.12c0,1.74,1.4,3.22,3.22,3.46-.34,3.85-2.53,5.08-9.14,5.19-.5-.92-1.5-1.51-2.61-1.51h-4.91c-1.62,0-2.93,1.23-2.93,2.74s1.31,2.74,2.93,2.74h4.91c1.12,0,2.13-.6,2.62-1.53,7.07-.11,11.5-1.55,11.75-8.2,1.01-.64,1.64-1.71,1.66-2.84,1.97-.78,3.27-2.61,3.27-4.6s-1.31-3.82-3.27-4.6Zm.69,4.6c0,.62-.25,1.22-.69,1.69v-3.38c.44,.47,.69,1.07,.69,1.69Zm-3.27-4.56v9.12c0,.59-.52,1.06-1.16,1.06s-1.16-.48-1.16-1.06v-9.12c0-.59,.52-1.06,1.16-1.06s1.16,.48,1.16,1.06Zm-26.19,0v9.12c0,.59-.52,1.06-1.16,1.06s-1.16-.48-1.16-1.06v-9.12c0-.59,.52-1.06,1.16-1.06s1.16,.48,1.16,1.06Zm-4.91,2.87v3.38c-.44-.47-.69-1.07-.69-1.69s.25-1.22,.69-1.69Zm12.75,15.82h4.91c.19,0,.35,.14,.35,.3s-.16,.3-.35,.3h-4.91c-.19,0-.35-.14-.35-.3s.15-.3,.35-.3Z"/></g></g></svg>