<?xml version="1.0" encoding="UTF-8"?><svg id="_이어_2" xmlns="http://www.w3.org/2000/svg" viewBox="0 0 632.35 632.35"><defs><style>.cls-1{fill:#fff;}</style></defs><g id="_이어_2-2"><g><path class="cls-1" d="M316.17,0C141.56,0,0,141.56,0,316.17s141.56,316.17,316.17,316.17,316.17-141.56,316.17-316.17S490.79,0,316.17,0Zm208.01,524.19c-27.02,27.02-58.49,48.24-93.51,63.05-36.25,15.33-74.78,23.11-114.5,23.11s-78.25-7.77-114.5-23.11c-35.03-14.82-66.49-36.03-93.51-63.05-27.02-27.02-48.24-58.49-63.05-93.51-15.33-36.25-23.11-74.78-23.11-114.5s7.77-78.25,23.11-114.5c14.82-35.03,36.03-66.49,63.05-93.51,27.02-27.02,58.49-48.24,93.51-63.05,36.25-15.33,74.78-23.11,114.5-23.11s78.25,7.77,114.5,23.11c35.03,14.81,66.49,36.03,93.51,63.05,27.02,27.02,48.24,58.49,63.05,93.51,15.33,36.25,23.11,74.78,23.11,114.5s-7.77,78.25-23.11,114.5c-14.82,35.03-36.03,66.49-63.05,93.51Z"/><path class="cls-1" d="M340.34,256.19c36.66-10.49,63.49-44.25,63.49-84.28,0-48.41-39.24-87.65-87.65-87.65s-87.65,39.24-87.65,87.65c0,40.03,26.83,73.79,63.49,84.28-52.21,6.41-92.64,50.91-92.64,104.85v187.04h233.61v-187.04c0-53.94-40.43-98.44-92.64-104.85Zm-89.82-84.28c0-36.2,29.45-65.65,65.65-65.65s65.65,29.45,65.65,65.65-29.45,65.65-65.65,65.65-65.65-29.45-65.65-65.65Zm160.46,354.17H221.37v-165.04c0-46.13,37.53-83.65,83.65-83.65h22.3c46.13,0,83.65,37.53,83.65,83.65v165.04Z"/></g></g></svg>