<?xml version="1.0" encoding="UTF-8"?><svg id="_이어_2" xmlns="http://www.w3.org/2000/svg" viewBox="0 0 198.7 198.7"><defs><style>.cls-1{opacity:.7;}.cls-2{fill:#fff;}</style></defs><g id="_이어_1-2"><g><g class="cls-1"><circle cx="99.35" cy="99.35" r="92.35"/></g><path class="cls-2" d="M99.35,7c51,0,92.35,41.35,92.35,92.35s-41.35,92.35-92.35,92.35S7,150.35,7,99.35,48.35,7,99.35,7m0-7C44.57,0,0,44.57,0,99.35s44.57,99.35,99.35,99.35,99.35-44.57,99.35-99.35S154.13,0,99.35,0h0Z"/><path class="cls-2" d="M81.76,87.62h78.49c.28,0,.5-.22,.5-.5v-5.38c0-.28-.22-.5-.5-.5H87.64v-21.89c0-.19-.1-.36-.27-.44s-.36-.07-.52,.03L31.53,97.54c-.13,.09-.21,.24-.21,.4,0,.16,.07,.31,.2,.41l55.33,41.4c.09,.07,.19,.1,.3,.1,.08,0,.15-.02,.22-.05,.17-.08,.28-.26,.28-.45v-22.11h72.6c.28,0,.5-.22,.5-.5v-5.38c0-.28-.22-.5-.5-.5H81.76c-.28,0-.5,.22-.5,.5v16.24l-39.4-29.48,39.4-27.49v16.5c0,.28,.22,.5,.5,.5Z"/></g></g></svg>