<?xml version="1.0" encoding="UTF-8"?><svg id="_이어_2" xmlns="http://www.w3.org/2000/svg" viewBox="0 0 210.11 161.16"><defs><style>.cls-1{fill:#fff;}</style></defs><g id="_이어_2-2"><g><path class="cls-1" d="M205.69,133.9c-2.62-6.44-6.23-12.5-10.77-17.97-1.04-1.26-2.13-2.49-3.27-3.69-5.43-5.74-11.92-10.72-19.22-14.75-1.51-.83-3.06-1.63-4.64-2.38-.35-.16-.68-.35-1.03-.51-1.61-.74-3.25-1.43-4.93-2.07-.56-.21-1.17-.33-1.76-.49-1.62-.44-3.28-.75-4.93-.75-.62,0-1.25,.03-1.87,.09-1.07,.11-2.13,.32-3.18,.6-.78,.21-1.55,.45-2.29,.76-.58,.24-1.15,.51-1.7,.8-1.66,.89-3.18,2.03-4.48,3.4l-2.52,2.64-2.19,2.3-4.72,4.94c-.31,.33-.64,.55-.96,.71-.4,.2-.81,.33-1.15,.37-.21,.03-.4,.03-.56,.03-.19,0-.43-.02-.69-.07-.39-.06-.83-.19-1.27-.46-.24-.15-.49-.35-.71-.6l-3.71-3.89-5.72-6h-.01c-.55-.6-1.16-1.12-1.79-1.62-.17-.13-.34-.26-.52-.39-.56-.41-1.15-.8-1.76-1.14-.1-.06-.19-.12-.3-.18-.7-.38-1.44-.71-2.18-1-.19-.07-.39-.14-.58-.2-.63-.22-1.27-.41-1.91-.56-.17-.04-.33-.09-.5-.12-.79-.16-1.58-.28-2.38-.35-.18-.02-.36-.02-.55-.03-.36-.02-.71-.05-1.07-.05-.18,0-.35,.04-.52,.05-.72,.02-1.44,.09-2.15,.19-.33,.05-.65,.07-.98,.14-1.02,.2-2.03,.47-3.01,.85h0c-3.94,1.52-7.67,3.32-11.22,5.32-2.5,1.41-4.93,2.91-7.22,4.54-6.94,4.93-12.89,10.82-17.63,17.41-1.43,1.98-2.7,4.05-3.9,6.15-4.38,7.68-7.26,16.08-8.25,24.9-.07,.65-.06,1.31,.02,1.96,.17,1.3,.63,2.56,1.36,3.68,.37,.56,.8,1.09,1.29,1.57,2.04,1.99,4.86,3.11,7.89,3.11H199.5c3.03,0,5.84-1.12,7.89-3.11,.99-.96,1.73-2.11,2.18-3.35,.23-.62,.39-1.26,.47-1.91,.08-.65,.09-1.3,.02-1.96-.66-5.86-2.17-11.53-4.37-16.94Z"/><path class="cls-1" d="M77.78,65.76c.98,.06,1.9,.12,2.89,.12,3.61,0,7.11-.55,10.42-1.57-2.05-4.49-3.2-9.39-3.2-14.49v-7.33c0-12.83,7.16-24.36,18.05-31.28-1.17-1.39-2.48-2.7-3.94-3.88C95.39,1.98,86.79-.57,77.78,.11c-16.19,1.24-28.87,14.05-28.87,29.16v7.33c0,15.11,12.67,27.92,28.87,29.16Z"/><path class="cls-1" d="M39.08,149.97c2.62-23.27,16.68-44.11,37.88-57.37l-8.47-8.88c-5-5.29-13.31-7.09-20.21-4.41C21.45,89.63,2.93,125.17,.05,150.84c-.28,2.61,.7,5.29,2.68,7.21,2.04,1.99,4.86,3.11,7.89,3.11h31.35c-2.26-3.32-3.31-7.23-2.88-11.19Z"/><path class="cls-1" d="M97.83,42.48v7.33c0,3.61,.74,7.08,2.06,10.29,4.21,10.26,14.48,17.92,26.81,18.87,.94,.06,1.83,.11,2.77,.12,.04,0,.08,0,.12,0,1.99,0,3.95-.16,5.86-.47,3.82-.63,7.45-1.87,10.77-3.7,.83-.46,1.64-.95,2.42-1.48,.79-.53,1.55-1.09,2.29-1.69,5.73-4.62,9.3-10.96,10.11-17.72,.11-.97,.17-1.94,.17-2.92v-9.94c0-7.83-3.73-15.36-10.28-20.64-.79-.64-1.61-1.23-2.45-1.78-.27-.18-.56-.34-.84-.51-.58-.36-1.16-.71-1.76-1.03-.35-.18-.7-.35-1.06-.52-.55-.27-1.11-.53-1.68-.77-.39-.16-.78-.31-1.17-.46-.56-.21-1.12-.41-1.69-.59-.41-.13-.82-.25-1.24-.37-.58-.16-1.16-.3-1.74-.43-.42-.09-.84-.18-1.26-.26-.61-.11-1.22-.2-1.84-.28-.41-.05-.83-.11-1.24-.15-.66-.06-1.33-.09-2-.12-.38-.01-.76-.04-1.14-.05-.09,0-.18-.01-.27-.01-.95,0-1.9,.04-2.86,.11-5.91,.45-11.34,2.46-15.87,5.55-.07,.05-.15,.09-.23,.14-.15,.1-.29,.21-.44,.32-1.87,1.35-3.58,2.89-5.09,4.58-4.52,5.09-7.24,11.58-7.24,18.57Z"/></g></g></svg>