<?xml version="1.0" encoding="UTF-8"?><svg id="_이어_2" xmlns="http://www.w3.org/2000/svg" viewBox="0 0 331.83 331.83"><defs><style>.cls-1{fill:#fff;}</style></defs><g id="_이어_1-2"><path class="cls-1" d="M165.91,0C74.28,0,0,74.28,0,165.91s74.28,165.91,165.91,165.91,165.91-74.28,165.91-165.91S257.54,0,165.91,0Zm84.56,138.53l-86.26,86.26c-4.33,4.35-10.03,6.53-15.76,6.53s-11.4-2.18-15.73-6.53l-51.37-51.37c-8.71-8.71-8.71-22.81,0-31.52,8.71-8.71,22.81-8.71,31.52,0l35.59,35.61,70.5-70.47c8.71-8.71,22.81-8.71,31.52,0,8.71,8.68,8.71,22.81,0,31.49Z"/></g></svg>