<?xml version="1.0" encoding="UTF-8"?><svg id="_이어_2" xmlns="http://www.w3.org/2000/svg" viewBox="0 0 283.44 283.44"><defs><style>.cls-1{fill:#fff;}</style></defs><g id="_이어_1-2"><path class="cls-1" d="M279.15,258.41l-86.07-86.07c13.71-18.05,21.95-40.47,21.95-64.83C215.02,48.23,166.79,0,107.51,0S0,48.23,0,107.51s48.23,107.51,107.51,107.51c24.36,0,46.78-8.24,64.83-21.95l86.07,86.07c2.86,2.86,6.61,4.3,10.37,4.3s7.5-1.43,10.37-4.3c5.73-5.73,5.73-15,0-20.73ZM29.32,107.51c0-43.11,35.08-78.19,78.19-78.19s78.19,35.08,78.19,78.19-35.08,78.19-78.19,78.19S29.32,150.63,29.32,107.51Z"/></g></svg>