<?xml version="1.0" encoding="UTF-8"?><svg id="_이어_2" xmlns="http://www.w3.org/2000/svg" viewBox="0 0 388.17 388.17"><defs><style>.cls-1{fill:#fff;}</style></defs><g id="_이어_2-2"><g><circle class="cls-1" cx="194.09" cy="194.09" r="194.09"/><g><path d="M306.78,263.19c-3.87-9.52-9.22-18.49-15.93-26.59-1.54-1.86-3.16-3.68-4.83-5.46-8.04-8.49-17.63-15.85-28.43-21.82-2.24-1.24-4.52-2.41-6.86-3.52-.52-.24-1.01-.52-1.53-.76-2.38-1.09-4.81-2.11-7.29-3.07-.83-.32-1.73-.49-2.6-.73-2.39-.66-4.86-1.11-7.3-1.11-.92,0-1.85,.05-2.77,.14-1.59,.16-3.16,.47-4.7,.89-1.15,.31-2.29,.67-3.39,1.12-.86,.35-1.7,.75-2.52,1.19-2.46,1.31-4.71,3-6.62,5.03l-3.73,3.91-3.25,3.4-6.98,7.31c-.45,.5-.94,.81-1.43,1.05-.6,.3-1.19,.49-1.7,.55-.31,.04-.59,.05-.82,.05-.28,0-.64-.03-1.03-.1-.58-.1-1.23-.28-1.87-.68-.36-.22-.72-.51-1.06-.88l-5.49-5.75-8.47-8.87s-.01-.01-.02-.02c-.82-.86-1.72-1.64-2.64-2.38-.25-.2-.51-.39-.76-.58-.83-.61-1.7-1.18-2.6-1.69-.15-.08-.29-.18-.44-.26-1.04-.56-2.12-1.05-3.23-1.47-.28-.11-.57-.2-.86-.3-.93-.33-1.87-.6-2.83-.83-.25-.06-.49-.13-.73-.18-1.16-.24-2.34-.41-3.52-.51-.27-.02-.54-.03-.81-.04-.53-.03-1.06-.08-1.58-.08-.26,0-.52,.06-.77,.07-1.06,.03-2.12,.14-3.18,.29-.48,.07-.97,.11-1.45,.2-1.51,.3-3,.69-4.45,1.25h0c-5.82,2.24-11.34,4.91-16.6,7.87-3.7,2.09-7.29,4.3-10.69,6.71-10.27,7.29-19.07,16.01-26.09,25.76-2.11,2.93-4,5.99-5.77,9.09-6.48,11.36-10.74,23.79-12.2,36.83-.1,.97-.09,1.94,.03,2.9,.25,1.92,.94,3.78,2.02,5.45,.54,.83,1.18,1.62,1.91,2.33,3.02,2.94,7.19,4.6,11.67,4.6h207.07c4.48,0,8.65-1.66,11.67-4.6,1.46-1.43,2.55-3.13,3.23-4.96,.34-.91,.57-1.86,.7-2.82,.12-.96,.14-1.93,.03-2.9-.97-8.67-3.21-17.06-6.47-25.06Z"/><path d="M147.21,127.96v10.85c0,5.34,1.1,10.47,3.05,15.23,6.23,15.18,21.42,26.51,39.66,27.91,1.4,.09,2.7,.17,4.09,.17,.06,0,.12,0,.18,0,2.94,0,5.84-.24,8.67-.7,5.65-.93,11.03-2.77,15.93-5.47,1.22-.67,2.42-1.4,3.58-2.18,1.16-.78,2.29-1.61,3.39-2.5,8.48-6.84,13.76-16.21,14.95-26.22,.17-1.43,.26-2.87,.26-4.32v-14.71c0-11.59-5.52-22.72-15.21-30.54-1.16-.94-2.38-1.81-3.62-2.63-.41-.27-.83-.5-1.24-.75-.85-.53-1.71-1.05-2.6-1.52-.51-.27-1.04-.52-1.56-.77-.82-.4-1.64-.79-2.48-1.14-.57-.24-1.15-.46-1.73-.68-.82-.31-1.65-.61-2.5-.87-.6-.19-1.21-.37-1.83-.54-.85-.24-1.71-.45-2.58-.64-.62-.14-1.24-.27-1.87-.39-.9-.16-1.81-.29-2.72-.41-.61-.08-1.22-.17-1.84-.22-.98-.09-1.97-.14-2.96-.17-.56-.02-1.12-.06-1.68-.07-.13,0-.26-.02-.39-.02-1.4,0-2.81,.05-4.23,.16-8.74,.67-16.78,3.64-23.47,8.2-.11,.07-.23,.14-.34,.21-.22,.15-.43,.31-.65,.47-2.77,2-5.3,4.27-7.53,6.78-6.69,7.52-10.72,17.13-10.72,27.47Z"/></g></g></g></svg>