<?xml version="1.0" encoding="UTF-8"?><svg id="_이어_2" xmlns="http://www.w3.org/2000/svg" xmlns:xlink="http://www.w3.org/1999/xlink" viewBox="0 0 407.98 407.98"><defs><style>.cls-1{fill:url(#_제_그라디언트_95);}.cls-2{fill:#cad9ec;}.cls-3{fill:#fdfffc;}.cls-4{fill:#b2c2d3;}</style><linearGradient id="_제_그라디언트_95" x1="344.62" y1="84.6" x2="56.97" y2="328.8" gradientTransform="translate(203.99 -84.5) rotate(45)" gradientUnits="userSpaceOnUse"><stop offset=".14" stop-color="#50c5e9"/><stop offset=".89" stop-color="#2d74ff"/></linearGradient></defs><g id="transport"><ellipse class="cls-1" cx="203.99" cy="203.99" rx="203.98" ry="204" transform="translate(-84.5 203.99) rotate(-45)"/><g><path class="cls-2" d="M124.12,233.76l22.64,74.22c.39,1.17,2.11,.98,2.23-.25l5.88-61.08c.03-.29,.16-.56,.38-.75l108.33-94.01c1.04-.92-.15-2.55-1.34-1.84L124.63,232.41c-.47,.27-.68,.84-.5,1.35Z"/><polygon class="cls-4" points="148.98 307.98 295.48 141.14 154.9 246.2 148.98 307.98"/><path class="cls-3" d="M67.71,204.01l224.86-89.58c5.68-2.26,11.59,2.71,10.33,8.69l-39.42,187.49c-1.46,6.96-9.66,10.04-15.34,5.76l-93.23-70.17,107.1-94.89L123.83,232.88l-55.76-18c-5.15-1.66-5.39-8.87-.36-10.87Z"/></g></g></svg>