<?xml version="1.0" encoding="UTF-8"?><svg id="_이어_2" xmlns="http://www.w3.org/2000/svg" viewBox="0 0 77.69 74.13"><defs><style>.cls-1{fill:#fff;}</style></defs><g id="_이어_1-2"><g><path class="cls-1" d="M10.31,68.79c.06,.32,.15,.63,.27,.92,.04,.1,.09,.19,.14,.28,.09,.19,.18,.38,.29,.55,.06,.1,.14,.19,.21,.29,.11,.15,.23,.3,.35,.43,.09,.09,.18,.18,.27,.26,.13,.12,.27,.24,.41,.35,.1,.08,.2,.15,.31,.21,.15,.1,.31,.18,.47,.26,.11,.05,.22,.11,.34,.16,.17,.07,.36,.12,.54,.17,.11,.03,.22,.07,.34,.09,.21,.04,.42,.06,.64,.08,.1,0,.19,.02,.29,.03,.32,0,.64-.02,.97-.08l8.87-1.65h-3.29c-4.41,0-8-3.59-8-8V7.15c0-.36,.03-.7,.08-1.05l-9.71,1.8c-2.04,.38-3.55,1.94-3.97,3.84-.07,.32-.11,.64-.12,.98,0,.33,.02,.67,.08,1.01l10.22,55.06Z"/><path class="cls-1" d="M21.72,68.15h6.7l6.37,1.18,8.22,1.53,1.57,.29,15.49,2.88c.38,.07,.77,.11,1.15,.11,1.25,0,2.47-.38,3.53-1.1,1.38-.95,2.3-2.37,2.61-4.01l10.22-55.06c.3-1.64-.05-3.3-.99-4.68-.95-1.38-2.37-2.3-4.01-2.61l-7.07-1.31-3.44-.64c-.86-1.53-2.47-2.57-4.35-2.57h-9.52l-1.06-.2L37.19,.11c-2.25-.42-4.44,.44-5.85,2.04h-9.62c-2.18,0-4.02,1.41-4.7,3.35-.18,.52-.3,1.07-.3,1.65V63.15c0,2.76,2.24,5,5,5Zm.42-7.52L32.36,5.57c.38-2.03,2.34-3.38,4.37-3l8.14,1.51,3.37,.62,14.48,2.69,3,.56,6.4,1.19c.98,.18,1.84,.74,2.41,1.56,.57,.83,.78,1.82,.6,2.81l-10.22,55.06c-.18,.98-.74,1.84-1.56,2.41-.83,.57-1.82,.78-2.81,.6l-2.37-.44-8.3-1.54-7.74-1.44-.48-.09-16.5-3.06c-2.03-.38-3.38-2.34-3-4.37Z"/><path class="cls-1" d="M35.36,37.78c-.76,4.1,1.95,8.04,6.05,8.8,1.63,.3,3.22,.05,4.61-.61-.5,1.98-1.65,3.63-3.19,4.78l3.16,.59,3.16,.59c-1.02-1.62-1.51-3.58-1.26-5.61,1.06,1.11,2.46,1.92,4.09,2.22,.47,.09,.93,.12,1.39,.12,1.03,0,2.03-.21,2.94-.6,2.25-.96,3.99-2.99,4.47-5.57,.88-4.72-1.91-7.31-7.4-15.3-.65-.94-1.08-1.72-1.39-2.36-.64-1.33-.7-2.03-.7-2.03,0,0-.46,.96-2.28,2.43-.36,.29-.76,.6-1.24,.93-8,5.49-11.52,6.91-12.4,11.63Z"/><path class="cls-1" d="M35.4,20.29c.44,.08,.87,.01,1.25-.16-.13,.53-.45,.98-.86,1.29l.85,.16,.85,.16c-.28-.44-.41-.97-.34-1.51,.29,.3,.66,.52,1.1,.6,1.11,.21,2.17-.53,2.38-1.63,.24-1.28-.52-1.98-2-4.14-.54-.78-.56-1.19-.56-1.19,0,0-.17,.37-.95,.91-2.16,1.48-3.11,1.87-3.35,3.14-.21,1.11,.53,2.17,1.63,2.38Z"/><path class="cls-1" d="M36.54,11.87c.08,.01,.13,.01,.16-.01,.03-.02,.07-.08,.12-.17l.62-1.17,2.31,.43,.17,1.31c.01,.1,.03,.17,.04,.2,.01,.03,.06,.05,.15,.07l.64,.12c.09,.02,.16,.02,.21,0,.05-.01,.07-.1,.05-.25l-.79-6.24c-.02-.11-.05-.19-.08-.24-.03-.05-.1-.09-.21-.11l-.67-.12c-.11-.02-.19-.01-.24,.02-.05,.04-.1,.1-.16,.2l-2.98,5.54c-.06,.13-.09,.2-.09,.23,0,.03,.04,.05,.1,.06l.66,.12Zm2.76-4.86l.35,3.12-1.82-.34,1.47-2.78Z"/><path class="cls-1" d="M61.49,52.71l-.85-.16-.85-.16c.28,.44,.41,.97,.34,1.51-.29-.3-.66-.52-1.1-.6-.62-.11-1.22,.07-1.67,.44-.36,.29-.62,.7-.71,1.19-.21,1.15,.38,1.84,1.59,3.55,.13,.18,.26,.37,.41,.58,.54,.78,.56,1.19,.56,1.19,0,0,.17-.37,.95-.91,1.21-.83,2.03-1.32,2.57-1.81,.42-.39,.68-.77,.78-1.34,.15-.79-.19-1.55-.78-2-.24-.18-.53-.32-.85-.38-.44-.08-.87-.01-1.25,.16,.13-.53,.45-.98,.86-1.29Z"/><path class="cls-1" d="M60.73,62.26c-.08-.01-.13-.01-.16,.01-.03,.02-.07,.08-.12,.17l-.62,1.17-1.48-.27-.83-.15-.17-1.31c-.01-.1-.03-.17-.04-.2-.01-.03-.06-.05-.15-.07l-.64-.12c-.09-.02-.16-.02-.21,0s-.07,.1-.05,.25l.58,4.58,.21,1.66c.02,.08,.04,.14,.06,.18,0,.01,.01,.04,.02,.06,.03,.05,.1,.09,.21,.11l.67,.12c.11,.02,.19,.01,.24-.02,.05-.04,.1-.1,.16-.2l.08-.15,2.9-5.39c.06-.13,.09-.2,.09-.23,0-.03-.04-.05-.1-.06l-.66-.12Zm-2.76,4.86l-.24-2.16-.11-.95,.49,.09,1.33,.25-1.47,2.78Z"/></g></g></svg>