<?xml version="1.0" encoding="UTF-8"?><svg id="_이어_2" xmlns="http://www.w3.org/2000/svg" viewBox="0 0 107.13 107.13"><defs><style>.cls-1{fill:#fff;}</style></defs><g id="_이어_1-2"><path class="cls-1" d="M53.57,0C23.98,0,0,23.98,0,53.57s23.98,53.57,53.57,53.57,53.57-23.98,53.57-53.57S83.15,0,53.57,0Zm6.96,88.11h-15.39v-15.47h15.39v15.47Zm13.45-42.64c-1.35,3.63-3.72,7.09-7.12,10.38-1.93,1.82-3.44,3.56-4.53,5.23-1.09,1.67-1.71,3.83-1.89,6.46h-15.65v-2.11c0-2.23,.44-4.37,1.32-6.42,.88-2.05,2.17-3.9,3.87-5.54,1.82-1.76,3.33-3.27,4.53-4.53,1.2-1.26,2.15-2.39,2.86-3.38,.7-1,1.2-1.93,1.49-2.81,.29-.88,.44-1.85,.44-2.9,0-1.58-.59-2.96-1.76-4.13-1.17-1.17-2.76-1.67-4.75-1.5-2.05,.18-3.6,.84-4.66,1.98-1.06,1.14-1.85,2.74-2.37,4.79l-13.63-4.13c1.35-5.45,3.69-9.69,7.03-12.71,3.34-3.02,7.41-4.7,12.22-5.05,6.39-.41,11.47,.73,15.25,3.43,3.78,2.7,6.26,6.13,7.43,10.29,1.29,4.81,1.26,9.03-.09,12.66Z"/></g></svg>