<?xml version="1.0" encoding="UTF-8"?><svg id="_이어_2" xmlns="http://www.w3.org/2000/svg" viewBox="0 0 331.83 331.83"><defs><style>.cls-1{fill:#878787;}</style></defs><g id="_이어_1-2"><path class="cls-1" d="M165.91,0C74.28,0,0,74.28,0,165.91s74.28,165.91,165.91,165.91,165.91-74.28,165.91-165.91S257.54,0,165.91,0Zm77.71,216.71c7.43,7.43,7.43,19.48,0,26.91-3.72,3.72-8.59,5.57-13.46,5.57s-9.74-1.86-13.46-5.57l-50.8-50.8-50.8,50.8c-3.72,3.72-8.59,5.57-13.46,5.57s-9.74-1.86-13.46-5.57c-7.43-7.43-7.43-19.48,0-26.91l50.8-50.8-50.8-50.8c-7.43-7.43-7.43-19.48,0-26.91s19.48-7.43,26.91,0l50.8,50.8,50.8-50.8c7.43-7.43,19.48-7.43,26.91,0,7.43,7.43,7.43,19.48,0,26.91l-50.8,50.8,50.8,50.8Z"/></g></svg>