<?xml version="1.0" encoding="UTF-8"?><svg id="_이어_2" xmlns="http://www.w3.org/2000/svg" viewBox="0 0 131.41 117.31"><defs><style>.cls-1{fill:#fff;}.cls-2{fill:none;}</style></defs><g id="_이어_1-2"><g><path class="cls-2" d="M72.14,109.3c.09,0,.19-.01,.28-.03-.15,.02-.3,.02-.44,0,.06,0,.11,.02,.17,.02Z"/><path class="cls-2" d="M19.69,109.3c.06,0,.11-.01,.17-.02-.15,.01-.3,.01-.44,0,.09,.01,.18,.03,.28,.03Z"/><path class="cls-2" d="M19.69,33.49c-.09,0-.18,.01-.27,.03,.15-.02,.29-.02,.44,0-.06,0-.11-.02-.17-.02Z"/><path class="cls-1" d="M130.46,27.76l-5.9-2.1c-.48-1.6-1.13-3.19-1.95-4.73l2.69-5.64c.26-.55,.15-1.2-.28-1.62l-7.28-7.27c-.42-.42-1.08-.54-1.62-.28l-5.64,2.68c-1.54-.81-3.12-1.46-4.73-1.95l-2.1-5.9c-.2-.57-.74-.95-1.34-.95h-10.25c-.6,0-1.14,.38-1.34,.95l-2.1,5.9c-1.6,.48-3.19,1.13-4.73,1.95l-5.64-2.68c-.54-.27-1.19-.15-1.62,.28l-7.28,7.27c-.42,.42-.54,1.07-.28,1.62l2.69,5.64c-.82,1.54-1.47,3.12-1.95,4.73l-5.9,2.1c-.57,.19-.95,.74-.95,1.34v2.3c.27,.11,.54,.21,.81,.33l5.36-2.55c.93-.45,1.96-.69,3-.69,1.82,0,3.6,.74,4.89,2.02l9.77,9.76c2.06,2.06,2.6,5.22,1.35,7.87l-2.57,5.39c.37,.81,.71,1.64,1.02,2.48l5.61,2c2.77,.96,4.63,3.57,4.63,6.52v3.91h5.48c.6,0,1.14-.37,1.34-.95l2.1-5.9c1.6-.48,3.19-1.13,4.73-1.94l5.64,2.69c.54,.26,1.19,.15,1.62-.28l7.28-7.27c.42-.42,.54-1.07,.28-1.62l-2.69-5.64c.82-1.54,1.47-3.12,1.95-4.73l5.9-2.09c.57-.2,.95-.74,.95-1.34v-10.25c0-.6-.38-1.15-.95-1.34Zm-33.26,17.87c-6.3,0-11.41-5.12-11.41-11.41s5.11-11.4,11.41-11.4,11.4,5.11,11.4,11.4-5.11,11.41-11.4,11.41Z"/><path class="cls-1" d="M90.55,62.73l-7.92-2.82c-.64-2.15-1.51-4.28-2.61-6.34l3.61-7.57c.35-.74,.2-1.61-.37-2.18l-9.77-9.76c-.57-.57-1.45-.73-2.17-.37l-7.57,3.6c-2.06-1.09-4.19-1.96-6.34-2.61l-2.82-7.92c-.27-.76-.99-1.27-1.8-1.27h-13.75c-.81,0-1.53,.51-1.8,1.27l-2.82,7.92c-2.15,.65-4.28,1.52-6.34,2.61l-7.57-3.6c-.72-.36-1.6-.2-2.17,.37l-9.77,9.76c-.57,.57-.72,1.44-.37,2.18l3.61,7.57c-1.1,2.06-1.97,4.19-2.61,6.34l-7.92,2.82c-.77,.26-1.28,.99-1.28,1.8v13.75c0,.81,.51,1.53,1.28,1.8l7.92,2.81c.64,2.16,1.51,4.28,2.61,6.34l-3.61,7.57c-.35,.74-.2,1.61,.37,2.18l9.77,9.76c.57,.58,1.45,.73,2.17,.38l7.57-3.61c2.06,1.09,4.19,1.97,6.34,2.61l2.82,7.92c.27,.77,.99,1.27,1.8,1.27h13.75c.81,0,1.53-.5,1.8-1.27l2.82-7.92c2.15-.64,4.28-1.52,6.34-2.61l7.57,3.61c.72,.35,1.6,.2,2.17-.38l9.77-9.76c.57-.57,.72-1.44,.37-2.18l-3.61-7.57c1.1-2.06,1.97-4.18,2.61-6.34l7.92-2.81c.77-.27,1.28-.99,1.28-1.8v-13.75c0-.81-.51-1.54-1.28-1.8Zm-29.33,8.67c0,8.44-6.86,15.31-15.3,15.31s-15.31-6.87-15.31-15.31,6.86-15.3,15.31-15.3,15.3,6.86,15.3,15.3Z"/></g></g></svg>