<?xml version="1.0" encoding="UTF-8"?><svg id="_이어_2" xmlns="http://www.w3.org/2000/svg" viewBox="0 0 426.48 426.48"><defs><style>.cls-1{fill:#fff;}</style></defs><g id="_이어_1-2"><g><path class="cls-1" d="M409.72,130.23c-10.74-25.39-26.11-48.2-45.69-67.78s-42.38-34.95-67.78-45.69C269.95,5.64,242.02,0,213.24,0s-56.71,5.64-83.01,16.76c-25.39,10.74-48.2,26.11-67.78,45.69-19.58,19.58-34.95,42.38-45.69,67.78C5.64,156.53,0,184.46,0,213.24s5.64,56.71,16.76,83c10.74,25.39,26.12,48.2,45.69,67.78,19.58,19.58,42.38,34.95,67.78,45.69,26.29,11.12,54.22,16.76,83.01,16.76s56.71-5.64,83.01-16.76c25.39-10.74,48.2-26.11,67.78-45.69,19.58-19.58,34.95-42.38,45.69-67.78,11.12-26.29,16.76-54.22,16.76-83s-5.64-56.71-16.76-83.01Zm-6.68,83.01c0,104.65-85.14,189.79-189.79,189.79S23.45,317.89,23.45,213.24,108.59,23.45,213.24,23.45s189.79,85.14,189.79,189.79Z"/><path class="cls-1" d="M319.67,110.87H106.8c-9.67,0-17.5,7.83-17.5,17.5s7.83,17.5,17.5,17.5h212.87c9.67,0,17.5-7.83,17.5-17.5s-7.83-17.5-17.5-17.5Z"/><path class="cls-1" d="M319.67,195.74H106.8c-9.67,0-17.5,7.83-17.5,17.5s7.83,17.5,17.5,17.5h212.87c9.67,0,17.5-7.83,17.5-17.5s-7.83-17.5-17.5-17.5Z"/><path class="cls-1" d="M319.67,280.61H106.8c-9.67,0-17.5,7.83-17.5,17.5s7.83,17.5,17.5,17.5h212.87c9.67,0,17.5-7.83,17.5-17.5s-7.83-17.5-17.5-17.5Z"/></g></g></svg>