<?xml version="1.0" encoding="UTF-8"?><svg id="_이어_2" xmlns="http://www.w3.org/2000/svg" viewBox="0 0 183.91 189.78"><defs><style>.cls-1{fill:#fff;}</style></defs><g id="_이어_1-2"><g><path class="cls-1" d="M125.24,141.86c16.36-10.86,27.17-29.45,27.17-50.52,0-33.42-27.19-60.61-60.61-60.61S31.19,57.92,31.19,91.34c0,21.07,10.81,39.66,27.18,50.52h0l-21.46,37.17c-1.3,2.24-1.3,4.92,0,7.16,1.3,2.25,3.62,3.59,6.21,3.59h97.36c2.59,0,4.91-1.34,6.21-3.59,1.29-2.24,1.29-4.92,0-7.16l-21.46-37.17Zm-4.04-1h0c-8.61,5.13-18.66,8.09-29.39,8.09s-20.78-2.96-29.39-8.09l-1.5,2.6h0l1.5-2.6c-.86-.51-1.71-1.04-2.54-1.6-15.47-10.34-25.68-27.96-25.68-47.92,0-31.77,25.84-57.61,57.61-57.61s57.61,25.84,57.61,57.61c0,19.96-10.21,37.58-25.68,47.92-.83,.56-1.68,1.09-2.54,1.6Z"/><path class="cls-1" d="M69.07,80.14c9.38,0,17-7.62,17-17s-7.62-17-17-17-17,7.62-17,17,7.62,17,17,17Zm0-7.93c-5,0-9.07-4.07-9.07-9.07s4.07-9.07,9.07-9.07,9.07,4.07,9.07,9.07-4.07,9.07-9.07,9.07Z"/><path class="cls-1" d="M64.99,58.13c-.11,.22-.3,.39-.56,.51-.28,.13-.55,.21-.83,.25l-.11,.02v2.1l.98-.07v6.43h2.38v-9.3h-1.84l-.03,.07Z"/><path class="cls-1" d="M73.54,65.18c-.27,.01-.57,.02-.88,.02h-1.22c.18-.17,.34-.32,.49-.46,.21-.2,.4-.39,.57-.57,.17-.18,.32-.37,.47-.55,.15-.18,.3-.4,.46-.64,.18-.28,.33-.57,.44-.88,.1-.3,.18-.6,.22-.9,.03-.3,.04-.59,0-.85-.03-.27-.09-.51-.19-.72-.24-.51-.64-.94-1.2-1.27-.56-.33-1.18-.48-1.86-.46-.93,.03-1.68,.33-2.21,.91-.52,.57-.85,1.33-.98,2.26l-.02,.12,2.37,.41v-.14c.03-.38,.13-.69,.31-.9,.18-.21,.38-.31,.61-.33,.16,0,.33,.05,.5,.18,.17,.12,.26,.3,.28,.52,.02,.21-.05,.47-.21,.77-.17,.31-.45,.69-.83,1.12h0c-.24,.27-.47,.52-.68,.74-.21,.22-.43,.43-.65,.65-.22,.22-.45,.44-.7,.67-.25,.23-.53,.48-.83,.75l-.04,.04v1.68h4.43c.13,0,.29,0,.47,0,.19,0,.37-.01,.56-.03,.2,0,.39-.02,.57-.04,.18-.02,.34-.05,.48-.08l.09-.02v-2.12l-.16,.04c-.19,.05-.42,.08-.68,.09Z"/><path class="cls-1" d="M85.01,122.19c-.19-.25-.4-.46-.65-.63-.25-.17-.51-.29-.78-.37-.21-.05-.44-.08-.69-.08h-.01c-.24,0-.49,.02-.74,.06-.24,.05-.47,.11-.68,.18-.15,.05-.29,.11-.42,.18,0-.48,.03-.99,.09-1.53,.07-.58,.16-1.16,.29-1.74l.04-.17-2.42,.32-.02,.08c-.17,.74-.29,1.48-.35,2.22-.07,.74-.1,1.42-.09,2.05,.01,.64,.07,1.22,.18,1.73,.11,.52,.32,1.03,.61,1.53,.34,.61,.84,1.03,1.49,1.26,.35,.12,.71,.19,1.09,.19,.31,0,.63-.04,.96-.13,.4-.09,.78-.24,1.12-.45,.35-.2,.65-.45,.9-.73,.25-.28,.45-.6,.58-.95,.13-.35,.19-.74,.18-1.15-.02-.37-.09-.71-.21-1.03-.12-.32-.27-.6-.47-.85Zm-1.86,2.63c-.21,.24-.46,.39-.75,.44-.34,.07-.62,.02-.86-.13-.25-.15-.39-.38-.45-.69-.07-.33,0-.6,.18-.82,.19-.23,.45-.38,.78-.45,.09-.02,.18-.03,.27-.03,.23,0,.43,.07,.62,.2,.26,.18,.41,.4,.45,.67,.05,.31-.03,.57-.23,.81Z"/><path class="cls-1" d="M108.82,125.14c.16-.19,.3-.41,.4-.64,.1-.23,.16-.48,.17-.73,.01-.21-.01-.42-.07-.62,.19-.02,.37-.07,.55-.15,.22-.1,.42-.22,.6-.37,.18-.15,.34-.33,.47-.53,.13-.2,.23-.42,.28-.64,.13-.52,.05-1.04-.25-1.55-.29-.5-.72-.93-1.29-1.26-.56-.33-1.14-.46-1.73-.39-.59,.07-1.14,.36-1.64,.85l-.07,.07,1.26,1.44,.08-.09c.19-.21,.38-.32,.6-.35,.22-.03,.42,0,.6,.08,.25,.13,.4,.29,.44,.49,.05,.2,0,.37-.13,.52-.16,.18-.36,.25-.62,.21-.27-.04-.61-.2-1.01-.49l-.09-.06-.85,1.28,.08,.06s.05,.03,.09,.06c.04,.03,.08,.06,.13,.09,.04,.03,.09,.07,.15,.11,.06,.04,.11,.07,.15,.1,.22,.15,.34,.32,.38,.55,.04,.22-.02,.42-.19,.6-.16,.18-.36,.25-.6,.22-.25-.03-.46-.14-.63-.34-.16-.17-.23-.39-.23-.68,0-.3,.08-.57,.23-.81l.06-.1-1.71-.87-.05,.08c-.43,.68-.6,1.36-.52,2.02,.09,.66,.4,1.25,.93,1.74,.56,.52,1.16,.84,1.78,.94,.15,.03,.3,.04,.45,.04,.46,0,.88-.13,1.27-.39,.19-.13,.37-.29,.54-.49Z"/><path class="cls-1" d="M110.88,123.06l1.35,1.49,.08-.09c.21-.24,.44-.39,.66-.43,.22-.04,.41-.01,.57,.1,.11,.08,.19,.21,.24,.38,.05,.17,.02,.33-.09,.49-.09,.15-.27,.28-.54,.4-.28,.12-.66,.23-1.13,.31-.3,.06-.58,.1-.83,.14-.25,.03-.51,.06-.76,.09-.27,.03-.54,.06-.81,.08-.28,.02-.59,.05-.94,.07h-.05l-.87,1.12,2.93,2.29c.09,.07,.19,.15,.32,.24,.12,.09,.25,.18,.38,.27,.14,.1,.27,.19,.4,.27,.13,.08,.25,.15,.36,.19l.07,.03,1.1-1.4-.12-.05c-.15-.07-.31-.16-.5-.29-.19-.13-.39-.28-.59-.44l-.8-.63c.21-.02,.39-.03,.56-.05,.24-.02,.47-.05,.68-.08,.21-.04,.4-.08,.59-.12,.19-.04,.39-.1,.63-.18,.27-.09,.52-.21,.74-.36,.22-.15,.43-.31,.61-.48,.18-.18,.33-.37,.44-.56,.12-.19,.2-.38,.25-.57,.11-.46,.06-.95-.14-1.46s-.53-.93-.99-1.27c-.63-.47-1.28-.65-1.93-.53-.64,.11-1.25,.44-1.81,.99l-.07,.07Z"/><path class="cls-1" d="M96.93,101.82l1.78,6.18,2.29-.66-2.57-8.94-1.76,.51v.08c-.06,.24-.19,.46-.41,.64-.23,.2-.48,.36-.72,.47l-.1,.04,.58,2.02,.92-.34Z"/><path class="cls-1" d="M101.23,104.8c.33,.53,.7,.94,1.1,1.22,.4,.27,.84,.43,1.28,.46,.09,0,.18,.01,.27,.01,.35,0,.72-.05,1.08-.16,.45-.13,.86-.33,1.21-.59,.36-.27,.64-.63,.84-1.08,.19-.44,.29-.98,.29-1.61,0-.63-.12-1.38-.37-2.25-.25-.86-.55-1.56-.89-2.09-.35-.53-.73-.94-1.13-1.21-.41-.27-.85-.42-1.29-.46-.44-.03-.87,0-1.3,.13-.43,.12-.83,.32-1.18,.58-.36,.27-.64,.63-.85,1.08-.2,.44-.3,.98-.31,1.62,0,.63,.11,1.38,.36,2.24,.25,.87,.54,1.58,.88,2.11Zm1.08-4.93c.05-.21,.13-.38,.24-.48,.11-.11,.22-.18,.36-.22,.06-.02,.13-.03,.2-.03s.14,0,.21,.03c.15,.03,.3,.13,.46,.28,.16,.16,.33,.4,.5,.71,.17,.32,.33,.75,.48,1.27,.15,.51,.24,.95,.27,1.31,.03,.35,.02,.64-.04,.87-.05,.22-.13,.39-.23,.5-.1,.11-.22,.19-.35,.22-.13,.04-.28,.04-.42,0-.15-.04-.3-.14-.47-.3-.17-.16-.33-.4-.49-.71-.16-.32-.32-.74-.47-1.26-.15-.52-.24-.97-.28-1.32-.03-.35-.02-.64,.04-.86Z"/><path class="cls-1" d="M92.39,42.72c1.32-.08,2.65-.1,3.96-.06,23.15,.67,42.34,19.33,43.68,42.49,.05,.8,.71,1.41,1.5,1.41,.03,0,.06,0,.09,0,.83-.05,1.46-.76,1.41-1.58-.7-12.1-5.88-23.39-14.58-31.8-8.65-8.37-20.02-13.16-32-13.51-1.4-.04-2.82-.02-4.22,.06-.83,.05-1.46,.76-1.41,1.58s.75,1.45,1.58,1.41Z"/><path class="cls-1" d="M134.43,77.66c0-8.83-7.18-16.02-16.02-16.02s-16.02,7.18-16.02,16.02c0,3.26,.99,6.3,2.67,8.83-1.2-.27-2.45-.43-3.73-.43-9.38,0-17.01,7.63-17.01,17.01,0,.97,.09,1.93,.25,2.86-.95-.16-1.92-.25-2.92-.25-2.72,0-5.29,.66-7.58,1.8-.18-8.68-7.28-15.68-16-15.68s-16.02,7.18-16.02,16.02,7.18,16.02,16.02,16.02c2.35,0,4.58-.52,6.59-1.44,0,.09-.01,.18-.01,.28,0,9.38,7.63,17,17,17,5.46,0,10.32-2.58,13.43-6.59,3.03,4.68,8.29,7.77,14.27,7.77,9.37,0,17-7.62,17-17,0-6.5-3.66-12.15-9.03-15.01,.65-1.81,1.01-3.75,1.01-5.78,0-3.61-1.14-6.95-3.06-9.71,1.02,.2,2.07,.31,3.14,.31,8.83,0,16.02-7.18,16.02-16.02Zm-33.1,16.34c5,0,9.06,4.07,9.06,9.07,0,1.35-.3,2.64-.84,3.79h-.2c-4.46,0-8.53,1.73-11.57,4.55-3.24-1.38-5.52-4.6-5.52-8.34,0-5,4.07-9.07,9.07-9.07Zm-30.36,15.47c-2.87,2.32-4.96,5.57-5.85,9.27-2.03,1.32-4.45,2.09-7.05,2.09-7.18,0-13.02-5.84-13.02-13.02s5.84-13.02,13.02-13.02,13.02,5.84,13.02,13.02c0,.56-.05,1.11-.12,1.65Zm10.68,22.28c-5,0-9.06-4.07-9.06-9.07s4.06-9.07,9.06-9.07,9.07,4.07,9.07,9.07-4.07,9.07-9.07,9.07Zm36.76-7.89c0,5-4.06,9.07-9.06,9.07s-9.07-4.07-9.07-9.07c0-1.35,.31-2.64,.85-3.79,.29-.64,.65-1.23,1.08-1.78,1.66-2.12,4.24-3.49,7.14-3.49,.53,0,1.04,.05,1.54,.14,.7,.12,1.37,.31,2,.58,3.25,1.38,5.52,4.6,5.52,8.34Zm-13.02-46.2c0-7.18,5.84-13.02,13.02-13.02s13.02,5.84,13.02,13.02-5.84,13.02-13.02,13.02-13.02-5.84-13.02-13.02Z"/><path class="cls-1" d="M22.24,19.82c14.94-2.7,17.12-4.88,19.82-19.82,2.7,14.94,4.88,17.12,19.82,19.82-14.94,2.7-17.12,4.88-19.82,19.82-2.7-14.94-4.88-17.12-19.82-19.82Z"/><path class="cls-1" d="M144.27,139.38c14.94-2.7,17.12-4.88,19.82-19.82,2.7,14.94,4.88,17.12,19.82,19.82-14.94,2.7-17.12,4.88-19.82,19.82-2.7-14.94-4.88-17.12-19.82-19.82Z"/><path class="cls-1" d="M0,76.62c9.03-1.63,10.35-2.95,11.98-11.98,1.63,9.03,2.95,10.35,11.98,11.98-9.03,1.63-10.35,2.95-11.98,11.98-1.63-9.03-2.95-10.35-11.98-11.98Z"/></g></g></svg>