<?xml version="1.0" encoding="UTF-8"?><svg id="_이어_2" xmlns="http://www.w3.org/2000/svg" viewBox="0 0 632.35 632.35"><defs><style>.cls-1{fill:#fff;}</style></defs><g id="_이어_2-2"><g><path class="cls-1" d="M316.17,0C141.56,0,0,141.56,0,316.17s141.56,316.17,316.17,316.17,316.17-141.56,316.17-316.17S490.79,0,316.17,0Zm31.49,526.09c-13.24-17.1-21.12-38.54-21.12-61.78,0-28.8,12.1-54.82,31.48-73.25,6.56-6.24,13.96-11.61,22-15.92,14.21-7.62,30.43-11.95,47.65-11.95,11.98,0,23.48,2.1,34.16,5.94,6.65,2.39,12.98,5.47,18.91,9.13,28.82,17.84,48.06,49.74,48.06,86.05,0,55.76-45.37,101.13-101.13,101.13-20.94,0-40.42-6.4-56.58-17.35-8.93-6.05-16.84-13.49-23.43-22Zm1.37-372.05c8.97-6.01,19.74-9.52,31.32-9.52,31.11,0,56.42,25.31,56.42,56.42s-25.31,56.42-56.42,56.42c-21.4,0-40.05-11.97-49.61-29.57,12.57-15.17,20.12-34.64,20.12-55.88,0-6.13-.63-12.11-1.83-17.88Zm10.55,119.33c-6.86,.84-13.48,2.46-19.77,4.74-14.79-11.68-32.78-19.5-52.43-21.92,10.79-3.09,20.72-8.21,29.37-14.89,9.77,15.36,24.93,26.94,42.84,32.07Zm11.18,18.22h19.17c34.17,0,62.84,23.98,70.1,55.99-10.31-2.86-21.16-4.4-32.36-4.4-17.03,0-33.25,3.54-47.97,9.91-1.69-22.69-10.53-43.39-24.3-59.83,4.96-1.08,10.1-1.67,15.37-1.67Zm-41.91-119.67c0,2.28-.12,4.54-.35,6.77-.64,6.18-2.15,12.1-4.38,17.65-3.7,9.19-9.4,17.36-16.59,23.96-11.69,10.72-27.26,17.28-44.33,17.28-36.2,0-65.65-29.45-65.65-65.65s29.45-65.65,65.65-65.65c28.45,0,52.73,18.2,61.82,43.57,2.47,6.91,3.83,14.34,3.83,22.08Zm-54.5,105.48c15.94,0,30.85,4.49,43.54,12.26,5.7,3.49,10.95,7.64,15.64,12.34,15.11,15.14,24.46,36.03,24.46,59.06v4.22c-31.11,21.95-51.48,58.16-51.48,99.05,0,22.55,6.2,43.68,16.98,61.78H168.41v-165.04c0-46.13,37.53-83.65,83.65-83.65h22.3Zm267.4,227.58c4.55-12.72,7.03-26.41,7.03-40.67,0-47.92-27.97-89.42-68.44-109.06-3.83-42.59-37.05-76.7-79.24-81.88,31.5-9.02,54.56-38.03,54.56-72.43,0-41.6-33.73-75.33-75.33-75.33-13.6,0-26.36,3.62-37.37,9.93-13.82-30.26-44.34-51.28-79.77-51.28-48.41,0-87.65,39.24-87.65,87.65,0,40.03,26.83,73.79,63.49,84.28-52.21,6.41-92.64,50.91-92.64,104.85v187.04h193.86c22.06,23,53.09,37.35,87.4,37.35,2.59,0,5.16-.09,7.7-.25-1.56,.69-3.13,1.39-4.7,2.06-36.25,15.33-74.78,23.11-114.5,23.11s-78.25-7.77-114.5-23.11c-35.03-14.82-66.49-36.03-93.51-63.05-27.02-27.02-48.24-58.49-63.05-93.51-15.33-36.25-23.11-74.78-23.11-114.5s7.77-78.25,23.11-114.5c14.82-35.03,36.03-66.49,63.05-93.51,27.02-27.02,58.49-48.24,93.51-63.05,36.25-15.33,74.78-23.11,114.5-23.11s78.25,7.77,114.5,23.11c35.03,14.81,66.49,36.03,93.51,63.05,27.02,27.02,48.24,58.49,63.05,93.51,15.33,36.25,23.11,74.78,23.11,114.5s-7.77,78.25-23.11,114.5c-11.43,27.03-26.69,51.92-45.47,74.3Z"/><path class="cls-1" d="M437.67,529.26v-54.96h54.96c5.52,0,10-4.48,10-10s-4.48-10-10-10h-54.96v-54.96c0-5.52-4.48-10-10-10s-10,4.48-10,10v54.96h-54.96c-1.7,0-3.3,.43-4.7,1.17-3.16,1.68-5.3,5-5.3,8.83s2.15,7.15,5.3,8.83c1.4,.75,3,1.17,4.7,1.17h54.96v54.96c0,5.52,4.48,10,10,10s10-4.48,10-10Z"/></g></g></svg>