<?xml version="1.0" encoding="UTF-8"?><svg id="_이어_2" xmlns="http://www.w3.org/2000/svg" viewBox="0 0 115.85 97.13"><defs><style>.cls-1{fill:#fff;}</style></defs><g id="_이어_1-2"><g><path class="cls-1" d="M110.53,48.33l-16.96,5.95v33.55l16.96,5.95c2.6,.91,5.31-1.02,5.31-3.77V52.1c0-2.75-2.72-4.68-5.31-3.77Z"/><path class="cls-1" d="M77.82,44.98h-9.08c7.92-3.82,13.38-11.93,13.38-21.32,0-13.07-10.59-23.66-23.66-23.66s-23.66,10.59-23.66,23.66c0,.16,0,.31,.01,.46-2.64-5.17-8-8.72-14.21-8.72-8.81,0-15.96,7.14-15.96,15.96,0,5.77,3.07,10.81,7.67,13.61h-2.95c-5.18,0-9.37,4.2-9.37,9.37v33.41c0,5.18,4.2,9.37,9.37,9.37H77.82c5.18,0,9.37-4.2,9.37-9.37V54.35c0-5.18-4.2-9.37-9.37-9.37Zm-41.31-12.5c2.2,5.48,6.4,9.95,11.69,12.5H28.91c4.28-2.62,7.24-7.2,7.6-12.5Zm42.94,51.06c0,.79-.64,1.43-1.43,1.43H26.7c-.79,0-1.43-.64-1.43-1.43v-3.87c0-.79,.64-1.43,1.43-1.43h51.32c.79,0,1.43,.64,1.43,1.43v3.87Zm0-10.39c0,.79-.64,1.43-1.43,1.43H26.7c-.79,0-1.43-.64-1.43-1.43v-3.87c0-.79,.64-1.43,1.43-1.43h51.32c.79,0,1.43,.64,1.43,1.43v3.87Z"/></g></g></svg>