<?xml version="1.0" encoding="UTF-8"?><svg id="_이어_2" xmlns="http://www.w3.org/2000/svg" viewBox="0 0 355.8 340.9"><defs><style>.cls-1{fill:#fff;}</style></defs><g id="_이어_1-2"><g><g><path class="cls-1" d="M171.67,98.29H54.11c-4.14,0-7.5-3.36-7.5-7.5s3.36-7.5,7.5-7.5h117.57c4.14,0,7.5,3.36,7.5,7.5s-3.36,7.5-7.5,7.5Z"/><path class="cls-1" d="M171.67,139.33H54.11c-4.14,0-7.5-3.36-7.5-7.5s3.36-7.5,7.5-7.5h117.57c4.14,0,7.5,3.36,7.5,7.5s-3.36,7.5-7.5,7.5Z"/><path class="cls-1" d="M171.67,180.38H54.11c-4.14,0-7.5-3.36-7.5-7.5s3.36-7.5,7.5-7.5h117.57c4.14,0,7.5,3.36,7.5,7.5s-3.36,7.5-7.5,7.5Z"/><path class="cls-1" d="M171.67,221.42H54.11c-4.14,0-7.5-3.36-7.5-7.5s3.36-7.5,7.5-7.5h117.57c4.14,0,7.5,3.36,7.5,7.5s-3.36,7.5-7.5,7.5Z"/></g><g><path class="cls-1" d="M333.42,215.13H201.65c-12.34,0-22.38,10.04-22.38,22.38v81.02c0,12.34,10.04,22.38,22.38,22.38h131.76c12.34,0,22.38-10.04,22.38-22.38v-81.02c0-12.34-10.04-22.38-22.38-22.38Zm-140.54,52.87h149.32v50.53c0,4.84-3.94,8.78-8.78,8.78H201.65c-4.84,0-8.78-3.94-8.78-8.78v-50.53Zm0-14.24v-11.79h149.32v11.79H192.87Z"/><path class="cls-1" d="M286.23,315.4h42.29c3.56,0,6.45-2.89,6.45-6.45v-8.46c0-3.56-2.89-6.45-6.45-6.45h-40.95c-4.29,0-7.79,3.49-7.79,7.79v7.12c0,3.56,2.89,6.45,6.45,6.45Z"/></g><path class="cls-1" d="M39.85,289.71c-13.7,0-24.85-11.15-24.85-24.85V39.85c0-13.7,11.15-24.85,24.85-24.85H185.93c13.7,0,24.85,11.15,24.85,24.85V205.63h15V39.85c0-21.97-17.88-39.85-39.85-39.85H39.85C17.88,0,0,17.88,0,39.85v225.01c0,21.97,17.88,39.85,39.85,39.85H169.77v-15H39.85Z"/></g></g></svg>