<?xml version="1.0" encoding="UTF-8"?><svg id="_이어_2" xmlns="http://www.w3.org/2000/svg" viewBox="0 0 451.61 720.82"><defs><style>.cls-1{fill:#fff;}</style></defs><g id="_迹_1"><g><path class="cls-1" d="M47.91,154.75L242.11,64.19c16.85-7.86,24.14-27.89,16.28-44.74-7.86-16.85-27.89-24.14-44.74-16.28L19.45,93.72C2.6,101.58-4.7,121.61,3.16,138.46c7.86,16.85,27.89,24.14,44.74,16.28Z"/><path class="cls-1" d="M435.57,301l-88.43-36.89-213.6,99.6-28.58,91.45c-6.76,21.64,15.38,41.01,35.93,31.43l295.66-137.87c20.54-9.58,19.94-39-.98-47.73Z"/><polygon class="cls-1" points="380.25 678.12 430.08 720.82 429.41 655.2 321.23 423.21 272.07 446.13 380.25 678.12"/><polygon class="cls-1" points="62.93 168.45 127.13 345.99 337.68 247.81 242.95 84.51 62.93 168.45"/></g></g></svg>