<?xml version="1.0" encoding="UTF-8"?><svg id="_이어_2" xmlns="http://www.w3.org/2000/svg" viewBox="0 0 141.59 153.91"><defs><style>.cls-1{fill:#fff;}</style></defs><g id="_이어_1-2"><path class="cls-1" d="M130.07,64.26c-.09-7.2-5.07-13.22-11.55-14.09C117.66,22.42,96.42,0,70.79,0S23.94,22.42,23.07,50.16c-6.48,.88-11.46,6.89-11.55,14.1-6.92,3.22-11.52,10.75-11.52,18.96s4.6,15.74,11.52,18.96c.09,7.85,5.97,14.21,13.19,14.21s13.19-6.46,13.19-14.4v-37.53c0-4.67-2.19-9.15-5.76-11.83v-.68c0-23.11,17.34-41.91,38.66-41.91s38.66,18.8,38.66,41.91v.68c-3.57,2.68-5.76,7.16-5.76,11.83v37.53c0,7.17,4.91,13.25,11.34,14.25-1.19,15.84-8.91,20.91-32.18,21.36-1.75-3.79-5.29-6.21-9.17-6.21h-17.28c-5.68,0-10.31,5.06-10.31,11.27s4.62,11.27,10.31,11.27h17.28c3.93,0,7.49-2.45,9.22-6.3,24.87-.46,40.46-6.37,41.34-33.75,3.56-2.63,5.78-7.05,5.84-11.69,6.92-3.22,11.52-10.75,11.52-18.96s-4.61-15.74-11.52-18.96Zm2.43,18.96c0,2.55-.88,5.03-2.43,6.95v-13.9c1.54,1.92,2.43,4.4,2.43,6.95Zm-11.52-18.77v37.53c0,2.41-1.84,4.37-4.09,4.37s-4.1-1.96-4.1-4.37v-37.53c0-2.41,1.84-4.37,4.1-4.37s4.09,1.96,4.09,4.37Zm-92.17,0v37.53c0,2.41-1.84,4.37-4.09,4.37s-4.09-1.96-4.09-4.37v-37.53c0-2.41,1.84-4.37,4.09-4.37s4.09,1.96,4.09,4.37Zm-17.28,11.82v13.9c-1.54-1.92-2.43-4.4-2.43-6.95s.88-5.03,2.43-6.95Zm44.87,65.14h17.28c.67,0,1.22,.56,1.22,1.24s-.55,1.24-1.22,1.24h-17.28c-.67,0-1.21-.56-1.21-1.24s.54-1.24,1.21-1.24Z"/></g></svg>