<?xml version="1.0" encoding="UTF-8"?><svg id="_이어_2" xmlns="http://www.w3.org/2000/svg" viewBox="0 0 124.89 111.49"><defs><style>.cls-1{fill:#fff;}</style></defs><g id="_이어_1-2"><g><path class="cls-1" d="M68.56,103.88c.09,0,.18-.01,.26-.03-.14,.02-.28,.02-.42,0,.05,0,.11,.02,.16,.02Z"/><path class="cls-1" d="M18.72,103.88c.05,0,.11-.01,.16-.02-.14,.01-.28,.01-.42,0,.09,.01,.17,.03,.26,.03Z"/><path class="cls-1" d="M18.72,31.83c-.09,0-.17,.01-.26,.03,.14-.02,.28-.02,.42,0-.05,0-.11-.02-.16-.02Z"/><path class="cls-1" d="M123.99,26.38l-5.61-2c-.45-1.52-1.07-3.03-1.85-4.49l2.56-5.36c.25-.52,.14-1.14-.26-1.54l-6.92-6.91c-.4-.4-1.03-.52-1.54-.26l-5.36,2.55c-1.46-.77-2.97-1.39-4.49-1.85l-2-5.61c-.19-.54-.7-.9-1.28-.9h-9.74c-.57,0-1.08,.36-1.27,.9l-2,5.61c-1.52,.46-3.03,1.08-4.49,1.85l-5.36-2.55c-.51-.25-1.13-.14-1.54,.26l-6.92,6.91c-.4,.4-.51,1.02-.26,1.54l2.56,5.36c-.78,1.46-1.4,2.97-1.85,4.49l-5.61,2c-.55,.18-.91,.7-.91,1.28v2.19c.26,.11,.52,.2,.77,.32l5.1-2.42c.88-.43,1.86-.66,2.85-.66,1.73,0,3.42,.7,4.64,1.92l9.29,9.28c1.96,1.96,2.47,4.96,1.28,7.48l-2.44,5.12c.35,.77,.67,1.56,.97,2.35l5.33,1.9c2.63,.91,4.4,3.4,4.4,6.2v3.72h5.21c.57,0,1.08-.35,1.28-.9l2-5.61c1.52-.45,3.03-1.08,4.49-1.85l5.36,2.56c.51,.25,1.13,.14,1.54-.27l6.92-6.91c.4-.4,.51-1.02,.26-1.54l-2.56-5.36c.78-1.46,1.4-2.96,1.85-4.49l5.61-1.99c.55-.19,.91-.7,.91-1.28v-9.74c0-.57-.36-1.09-.91-1.28Zm-31.61,16.99c-5.99,0-10.84-4.87-10.84-10.85s4.86-10.84,10.84-10.84,10.84,4.86,10.84,10.84-4.86,10.85-10.84,10.85Z"/><path class="cls-1" d="M86.06,59.62l-7.53-2.68c-.61-2.04-1.44-4.07-2.48-6.03l3.43-7.19c.33-.7,.19-1.53-.35-2.07l-9.29-9.28c-.54-.54-1.38-.69-2.06-.35l-7.19,3.42c-1.96-1.04-3.98-1.86-6.03-2.48l-2.68-7.53c-.26-.72-.94-1.21-1.71-1.21h-13.07c-.77,0-1.45,.48-1.71,1.21l-2.68,7.53c-2.04,.62-4.07,1.44-6.03,2.48l-7.19-3.42c-.68-.34-1.52-.19-2.06,.35l-9.29,9.28c-.54,.54-.68,1.37-.35,2.07l3.43,7.19c-1.05,1.96-1.87,3.98-2.48,6.03l-7.53,2.68c-.73,.25-1.22,.94-1.22,1.71v13.07c0,.77,.48,1.45,1.22,1.71l7.53,2.67c.61,2.05,1.44,4.07,2.48,6.03l-3.43,7.19c-.33,.7-.19,1.53,.35,2.07l9.29,9.28c.54,.55,1.38,.69,2.06,.36l7.19-3.43c1.96,1.04,3.98,1.87,6.03,2.48l2.68,7.53c.26,.73,.94,1.21,1.71,1.21h13.07c.77,0,1.45-.48,1.71-1.21l2.68-7.53c2.04-.61,4.07-1.44,6.03-2.48l7.19,3.43c.68,.33,1.52,.19,2.06-.36l9.29-9.28c.54-.54,.68-1.37,.35-2.07l-3.43-7.19c1.05-1.96,1.87-3.97,2.48-6.03l7.53-2.67c.73-.26,1.22-.94,1.22-1.71v-13.07c0-.77-.48-1.46-1.22-1.71Zm-27.88,8.24c0,8.02-6.52,14.55-14.54,14.55s-14.55-6.53-14.55-14.55,6.52-14.54,14.55-14.54,14.54,6.52,14.54,14.54Z"/></g></g></svg>