<?xml version="1.0" encoding="UTF-8"?><svg id="_이어_2" xmlns="http://www.w3.org/2000/svg" viewBox="0 0 892.74 892.74"><defs><style>.cls-1{fill:#fff;}</style></defs><g id="_이어_7"><g><g><path class="cls-1" d="M685.85,254.22H206.89c-43.31,0-78.54,35.23-78.54,78.54v227.22c0,43.31,35.23,78.54,78.54,78.54h478.96c43.31,0,78.54-35.23,78.54-78.54v-227.22c0-43.31-35.23-78.54-78.54-78.54Zm0,349.3H206.89c-24.01,0-43.54-19.53-43.54-43.54v-183.39H729.39v183.39c0,24.01-19.53,43.54-43.54,43.54Z"/><rect class="cls-1" x="504.28" y="489.54" width="190.96" height="52.96" rx="10.17" ry="10.17"/></g><path class="cls-1" d="M446.37,892.74c-60.25,0-118.71-11.8-173.75-35.08-53.16-22.48-100.89-54.67-141.88-95.65-40.99-40.99-73.17-88.72-95.65-141.88C11.8,565.08,0,506.62,0,446.37s11.8-118.71,35.09-173.75c22.48-53.16,54.67-100.89,95.65-141.88,40.99-40.99,88.72-73.17,141.88-95.65C327.66,11.8,386.12,0,446.37,0s118.71,11.8,173.75,35.08c53.16,22.48,100.89,54.67,141.88,95.65,40.99,40.99,73.17,88.72,95.65,141.88,23.28,55.04,35.09,113.5,35.09,173.75s-11.8,118.71-35.09,173.75c-22.48,53.16-54.67,100.89-95.65,141.88-40.99,40.99-88.72,73.17-141.88,95.65-55.04,23.28-113.5,35.08-173.75,35.08Zm0-857.74C219.54,35,35,219.54,35,446.37s184.54,411.37,411.37,411.37,411.37-184.54,411.37-411.37S673.2,35,446.37,35Z"/></g></g></svg>