<?xml version="1.0" encoding="UTF-8"?><svg id="_이어_2" xmlns="http://www.w3.org/2000/svg" xmlns:xlink="http://www.w3.org/1999/xlink" viewBox="0 0 290.36 290.36"><defs><style>.cls-1{fill:url(#linear-gradient-2);}.cls-2{fill:#fff;}.cls-3{fill:url(#linear-gradient-5);opacity:.1;}.cls-4{fill:url(#radial-gradient);}.cls-5{mask:url(#mask);}.cls-6{fill:url(#linear-gradient-3);}.cls-7{fill:url(#linear-gradient);}.cls-8{fill:url(#linear-gradient-4);}</style><linearGradient id="linear-gradient" x1="145.18" y1="290.36" x2="145.18" y2="0" gradientTransform="matrix(1, 0, 0, 1, 0, 0)" gradientUnits="userSpaceOnUse"><stop offset="0" stop-color="#969696"/><stop offset=".06" stop-color="#838383"/><stop offset=".18" stop-color="#535353"/><stop offset=".2" stop-color="#4d4d4d"/><stop offset=".22" stop-color="#525252"/><stop offset=".26" stop-color="#636363"/><stop offset=".29" stop-color="#7e7e7e"/><stop offset=".33" stop-color="#a4a4a4"/><stop offset=".37" stop-color="#d3d3d3"/><stop offset=".4" stop-color="#fdfdfd"/><stop offset=".6" stop-color="#c1c1c1"/><stop offset=".8" stop-color="#fdfdfd"/><stop offset="1" stop-color="#969696"/></linearGradient><linearGradient id="linear-gradient-2" x1="145.18" y1="1.34" x2="145.18" y2="289.02" gradientTransform="matrix(1, 0, 0, 1, 0, 0)" gradientUnits="userSpaceOnUse"><stop offset="0" stop-color="#f0f0f0"/><stop offset=".03" stop-color="#ddd"/><stop offset=".09" stop-color="#adadad"/><stop offset=".18" stop-color="#606060"/><stop offset=".2" stop-color="#4d4d4d"/><stop offset=".22" stop-color="#525252"/><stop offset=".26" stop-color="#636363"/><stop offset=".29" stop-color="#7e7e7e"/><stop offset=".33" stop-color="#a4a4a4"/><stop offset=".37" stop-color="#d3d3d3"/><stop offset=".4" stop-color="#fdfdfd"/><stop offset=".6" stop-color="#c1c1c1"/><stop offset=".8" stop-color="#fdfdfd"/><stop offset="1" stop-color="#333"/></linearGradient><linearGradient id="linear-gradient-3" x1="145.18" y1="11.5" x2="145.18" y2="278.86" xlink:href="#linear-gradient-2"/><linearGradient id="linear-gradient-4" x1="145.18" y1="14.49" x2="145.18" y2="275.86" gradientTransform="translate(288.48 -1.85) rotate(89.27)" gradientUnits="userSpaceOnUse"><stop offset="0" stop-color="#706b6d"/><stop offset=".9" stop-color="#080808"/></linearGradient><radialGradient id="radial-gradient" cx="145.18" cy="145.18" fx="145.18" fy="145.18" r="130.68" gradientTransform="translate(288.48 -1.85) rotate(89.27)" gradientUnits="userSpaceOnUse"><stop offset=".92" stop-color="#000"/><stop offset="1" stop-color="#e6e6e6"/></radialGradient><mask id="mask" x="14.5" y="14.49" width="261.36" height="261.37" maskUnits="userSpaceOnUse"><circle class="cls-4" cx="145.18" cy="145.18" r="130.68" transform="translate(-1.85 288.48) rotate(-89.27)"/></mask><linearGradient id="linear-gradient-5" x1="145.18" y1="211.23" x2="145.18" y2="79.12" gradientTransform="matrix(1, 0, 0, 1, 0, 0)" gradientUnits="userSpaceOnUse"><stop offset="0" stop-color="#5c5c5c"/><stop offset="1" stop-color="#c6c6c6"/></linearGradient></defs><g id="_이어_1-2"><g><g><g><path class="cls-7" d="M290.36,145.18c0,80.18-65,145.18-145.18,145.18S0,225.36,0,145.18,65,0,145.18,0s145.18,65,145.18,145.18Z"/><path class="cls-1" d="M289.02,145.18c0,79.44-64.4,143.84-143.84,143.84S1.34,224.62,1.34,145.18,65.74,1.34,145.18,1.34s143.84,64.4,143.84,143.84Z"/><path class="cls-6" d="M278.86,145.18c0,73.83-59.85,133.69-133.68,133.69S11.5,219.01,11.5,145.18,71.35,11.5,145.18,11.5s133.68,59.85,133.68,133.68Z"/></g><circle class="cls-8" cx="145.18" cy="145.18" r="130.68" transform="translate(-1.85 288.48) rotate(-89.27)"/><g class="cls-5"><path d="M275.86,145.18c0,72.17-58.51,130.68-130.68,130.68S14.5,217.35,14.5,145.18,73,14.49,145.18,14.49s130.68,58.51,130.68,130.68ZM145.18,25.19c-66.27,0-119.99,53.72-119.99,119.99s53.72,119.99,119.99,119.99,119.99-53.72,119.99-119.99S211.45,25.19,145.18,25.19Z"/></g><path id="Glare" class="cls-3" d="M263.78,182.12c-8.04-58.19-57.96-103-118.36-103-.08,0-.16,0-.25,0s-.16,0-.24,0c-60.4,0-110.31,44.82-118.36,103-.63,3.65,.71,5.92,3.24,7.3,32.54,13.74,72.5,21.82,115.36,21.82s82.82-8.07,115.36-21.82c2.53-1.37,3.87-3.65,3.24-7.3Z"/></g><g><path class="cls-2" d="M188.77,138.58c-26.96,0-48.82,21.86-48.82,48.82s21.86,48.82,48.82,48.82,48.82-21.86,48.82-48.82-21.86-48.82-48.82-48.82Zm32.63,38.26l-33.27,33.27c-1.68,1.68-3.88,2.52-6.08,2.52s-4.4-.84-6.08-2.52l-19.82-19.82c-3.36-3.36-3.36-8.8,0-12.16,3.36-3.36,8.8-3.36,12.16,0l13.74,13.74,27.2-27.2c3.36-3.36,8.8-3.36,12.16,0,3.36,3.36,3.36,8.8,0,12.16Z"/><path class="cls-2" d="M190.14,85.48v-16.73c.01-.16,.02-.33,.02-.5,0-9.27-20.29-14.12-40.33-14.12s-40.33,4.85-40.33,14.12c0,.25,.02,.5,.04,.69v1.43c-5.13-.73-10.8-1.11-16.44-1.11-20.04,0-40.33,4.85-40.33,14.12,0,.25,.02,.5,.04,.69v16.23c-.01,.12-.02,.24-.03,.38,0,.13-.01,.25-.01,.38s0,.25,.01,.38c0,.12,.02,.25,.03,.31v16.23c-.01,.12-.02,.25-.03,.38,0,.12-.01,.25-.01,.38s0,.25,.01,.38c0,.13,.02,.25,.03,.31v16.23c-.01,.12-.02,.24-.03,.38,0,.13-.01,.25-.01,.38s0,.26,.01,.38c0,.13,.02,.25,.03,.31v16.23c-.01,.12-.02,.24-.03,.38,0,.13-.01,.25-.01,.38s0,.25,.01,.38c0,.13,.02,.25,.03,.31v16.23c-.01,.12-.02,.24-.03,.38,0,.12-.01,.25-.01,.38s0,.25,.01,.38c0,.12,.02,.25,.03,.31v16.23c-.01,.12-.02,.25-.03,.38,0,.12-.01,.25-.01,.38s0,.25,.01,.38c0,.13,.02,.25,.03,.31v16.24c-.02,.25-.04,.5-.04,.75,0,9.27,20.29,14.12,40.33,14.12s40.33-4.85,40.33-14.12c0-.17,0-.33-.02-.45v-37.03c.55,.08,1.1,.15,1.66,.22,.55,.07,1.08-.26,1.27-.79,.32-.92,.68-1.87,1.07-2.8,.14-.34,.11-.72-.07-1.04-.19-.32-.51-.54-.89-.58-1.03-.12-2.04-.26-3.03-.41v-9.67c.01-.17,.02-.33,.02-.5s0-.33-.02-.46v-1.67c.75,.11,1.51,.21,2.35,.31,.48,.05,.96,.11,1.53,.17,.97,.1,1.96,.19,2.95,.27h.13c.42,.04,.85,.07,1.28,.1l.35,.02c.48,.03,.95,.06,1.42,.08,.1,0,.19,0,.29,0,.23-.03,.48-.01,.83,.05,.38,.06,.75-.08,.99-.38,.85-1.05,1.75-2.09,2.68-3.09,.29-.31,.36-.74,.2-1.13-.16-.39-.53-.64-.96-.64h-.56c-.76-.03-1.52-.06-2.32-.09-.83-.03-1.65-.08-2.47-.13h-.2c-.8-.07-1.6-.13-2.38-.2-2.1-.18-4.15-.43-6.1-.72v-9.67c.01-.16,.02-.33,.02-.5s0-.33-.02-.45v-1.67c.74,.11,1.5,.21,2.29,.3h.12c.46,.07,.92,.12,1.47,.18,.97,.1,1.96,.19,2.95,.27h.13c.47,.05,.95,.08,1.52,.12h.1c.42,.03,.83,.06,1.25,.08l.3,.02c.47,.02,.94,.04,1.41,.06h.12c.47,.02,.94,.04,1.41,.05h.26c.46,.02,.92,.03,1.39,.04h.23c.96,.01,1.91,.01,2.9,0h.23c.46,0,.93-.02,1.39-.03h.26c.47-.02,.94-.04,1.41-.05h.12c.47-.02,.94-.04,1.41-.07l.32-.02c.41-.02,.82-.05,1.21-.07h.22c.48-.04,.95-.08,1.41-.11h.14c.99-.09,1.98-.17,2.94-.28h.1c.44-.06,.88-.11,1.32-.16l.22-.03c1.48-.18,2.95-.38,4.4-.62,1.92-.32,3.77-.69,5.51-1.11,1.34-.32,2.61-.67,3.8-1.05,.87-.27,1.71-.56,2.5-.87l.09-.03c.25-.1,.5-.19,.8-.32l.31-.13h0c.09-.04,.19-.08,.28-.12l.1-.04c.15-.07,.31-.13,.46-.2h.13l.08-.09c.13-.06,.26-.12,.39-.18l.65-.32,.08-.04c.11-.05,.21-.11,.31-.17l.19-.1c.17-.09,.33-.19,.53-.3,.08-.04,.15-.09,.23-.13v3.24l.53-.03c1.42-.09,2.78-.13,4.1-.1h.7v-10.07c.01-.16,.02-.33,.02-.49s0-.33-.02-.46v-16.73c.01-.16,.02-.33,.02-.49s0-.33-.02-.46v-16.73c.01-.16,.02-.33,.02-.5s0-.33-.02-.46Zm-9.13,39.28c-.05,.03-.11,.05-.19,.09l-.14,.07,.22,.45-.33-.39-4.88,1.86c-.35,.1-.7,.21-1.07,.31-.32,.09-.64,.18-.97,.26-3.96,1.03-8.5,1.78-13.51,2.23-.79,.07-1.58,.13-2.48,.19h-.11c-.82,.06-1.64,.11-2.52,.14-.75,.03-1.51,.06-2.27,.08h-.56c-1.58,.04-3.19,.04-4.76,.01h-.55c-.76-.03-1.52-.05-2.33-.09-.83-.03-1.65-.08-2.46-.13h-.21c-.8-.07-1.6-.13-2.38-.2-2.08-.19-4.13-.43-6.1-.73v-9.67c.01-.16,.02-.33,.02-.49s0-.33-.02-.46v-1.67c.74,.11,1.48,.21,2.21,.29l.13,.02c.48,.06,.96,.11,1.54,.17,.98,.1,1.96,.19,2.95,.27h.13c.47,.05,.95,.08,1.41,.11l.36,.02c.43,.03,.86,.05,1.28,.07l.02-.5h0l.09,.5c.47,.02,.95,.04,1.42,.06l1.79,.05c.46,.01,.93,.02,1.4,.03h.22c.96,.01,1.94,.01,2.9,0h.24c.46,0,.93-.02,1.45-.03l1.73-.05c.47-.02,.95-.04,1.42-.06l-.02-.5h0l.14,.49c.43-.02,.86-.05,1.28-.07l.35-.02c.48-.03,.95-.06,1.42-.1h.13c1-.09,1.98-.18,3.05-.29,.48-.05,.97-.1,1.43-.16h.1c1.49-.19,2.96-.4,4.28-.62h.11c1.93-.33,3.78-.7,5.51-1.12,1.32-.32,2.59-.67,3.79-1.05,.83-.26,1.64-.54,2.48-.86l.11-.03c.27-.11,.54-.21,.8-.32,.39-.16,.77-.33,1.14-.49l.1-.05c.19-.09,.38-.18,.56-.27l.11-.05c.16-.08,.32-.16,.5-.25l.55-.3c.17-.09,.33-.19,.54-.3,.07-.04,.15-.09,.22-.13v10.37c-.05,.31-.32,.95-1.45,1.85-.03,.02-.06,.05-.11,.09l-.72,.51c-.05,.04-.11,.07-.18,.12l-.13,.08c-.05,.04-.11,.07-.22,.13l-.98,.54Zm-66.14-56.23l-.02-.48c.27-1.18,2.8-3.42,9.12-5.34,6.87-2.09,16.05-3.24,25.86-3.24s18.99,1.15,25.86,3.24c6.38,1.94,8.9,4.2,9.12,5.38v.3c-.2,1.33-3.15,3.6-9.12,5.42-.66,.2-1.34,.39-2.04,.57-3.98,1.04-8.52,1.79-13.51,2.22-6.65,.59-13.98,.59-20.63,0-2.47-.22-4.87-.52-7.14-.89-2.26-.37-4.4-.82-6.38-1.33-.7-.18-1.38-.37-2.03-.57-5.75-1.75-8.7-3.9-9.1-5.28Zm34.96,13.85c8.69,0,17.24-.91,24.07-2.55,2.69-.65,5.11-1.41,7.19-2.26,1.39-.57,2.64-1.19,3.73-1.84v10.37c-.05,.31-.32,.95-1.5,1.88l-.24,.18c-.05,.04-.11,.08-.21,.15l.3,.4h0l-.41-.32-.1,.07,.27,.42-.37-.35-1.72,.98c-.06,.03-.12,.06-.2,.1-.06,.03-.12,.06-.18,.09l-4.75,1.8c-.31,.09-.62,.18-.94,.27l-.11,.03c-.31,.09-.64,.17-.98,.26-.78,.2-1.58,.39-2.41,.57-3.18,.7-6.67,1.23-10.39,1.58l-.22,.02c-.16,.02-.33,.03-.5,.05-.79,.07-1.58,.13-2.37,.18h-.22c-.82,.07-1.64,.11-2.52,.15-.75,.03-1.51,.06-2.28,.07h-.55c-1.58,.05-3.18,.05-4.76,.01h-.55c-.76-.03-1.52-.05-2.32-.08-.83-.04-1.65-.08-2.57-.14h-.11c-.8-.06-1.6-.12-2.39-.19l-.79-.08c-1.85-.18-3.63-.4-5.31-.65v-9.67c.01-.16,.02-.33,.02-.5,0-.74-.13-1.47-.38-2.17,5.23,.76,11.01,1.17,16.78,1.17Zm33.55,23.22l-1.07,.74,.27,.42h0l-.36-.37-3.81,1.83c-.08,.03-.17,.06-.29,.11l-1.86,.64c-.17,.06-.35,.11-.59,.19-.32,.1-.65,.19-1.04,.3-.32,.09-.65,.18-.98,.26-1.32,.35-2.79,.67-4.37,.98-2.63,.5-5.47,.9-8.43,1.18l-.71,.07c-.78,.07-1.58,.13-2.4,.18h-.19c-.81,.07-1.64,.11-2.51,.15-.75,.03-1.52,.06-2.28,.08h-.55c-1.58,.05-3.18,.04-4.77,.01h-.55c-.76-.03-1.53-.05-2.32-.09-.83-.04-1.65-.08-2.48-.14h-.19c-.8-.07-1.6-.12-2.39-.19l-.79-.08c-1.79-.17-3.57-.39-5.31-.65v-9.67c.01-.16,.02-.33,.02-.49s0-.33-.02-.46v-1.67c.75,.11,1.51,.21,2.34,.31,.47,.06,.95,.11,1.43,.16h.11c.97,.11,1.96,.2,2.92,.27,.06,0,.11,.01,.16,.02h.17c.42,.04,.83,.07,1.24,.1,.07,0,.15,.01,.22,.02,.48,.03,.95,.06,1.42,.08,.05,0,.11,0,.13,0h.2c.4,.03,.81,.05,1.21,.06h.12c.47,.02,.94,.04,1.41,.05h.26c.46,.02,.92,.03,1.37,.03h.25c.96,.01,1.93,.01,2.89,0h.24c.46,0,.93-.02,1.37-.03h.27c.47-.02,.94-.03,1.41-.05h.12c.41-.02,.81-.04,1.22-.06h.17c.05,0,.1-.01,.15-.02,.48-.02,.95-.05,1.42-.08,.08,0,.15,0,.21-.02,.44-.03,.88-.06,1.32-.09h.1c.06-.01,.11-.01,.14-.02,.99-.08,1.98-.17,2.94-.27h.1c.48-.06,.96-.11,1.42-.17h.12c1.49-.19,2.96-.4,4.4-.63,1.94-.32,3.8-.7,5.51-1.11l.55-.14c1.18-.3,2.22-.59,3.16-.88l.09-.02c.9-.28,1.76-.58,2.59-.9,.27-.11,.54-.21,.8-.32,.22-.09,.43-.18,.63-.27,.17-.07,.34-.15,.51-.23h.11l.08-.09c.17-.08,.33-.16,.51-.24,.19-.09,.37-.18,.48-.25l.09-.04c.18-.09,.35-.18,.56-.3,.17-.09,.33-.19,.53-.3,.07-.04,.15-.09,.22-.13v10.39c-.06,.32-.34,.95-1.43,1.82ZM59.32,191.9l.22-.46-.21-.17-.36,.35h0l.25-.44-.6-.61s-.05-.06-.07-.09l-.09-.12s-.06-.09-.11-.16c-.03-.05-.06-.1-.08-.14l-.04-.07s-.04-.09-.06-.14c-.01-.03-.02-.06-.03-.1v-10.48c.05,.03,.11,.07,.17,.1l.06,.04c.15,.09,.3,.17,.46,.26l.71,.38h0c.06,.03,.12,.06,.18,.09l.28,.14c.58,.28,1.19,.55,1.82,.81,.26,.11,.53,.21,.8,.32l.1,.03c.79,.3,1.63,.59,2.52,.87,.6,.19,1.21,.37,1.84,.54,.63,.17,1.27,.34,1.93,.49,.44,.11,.88,.21,1.33,.31,1.33,.29,2.73,.56,4.22,.81,1.4,.23,2.87,.44,4.45,.63,.48,.06,.96,.11,1.54,.17,.97,.1,1.95,.19,2.95,.27l.27,.02c.42,.03,.85,.06,1.27,.09l1.4,.08,.37,.02c.47,.02,.94,.04,1.39,.06,.05,0,.1,0,.14,0l1.67,.05c.46,.01,.92,.02,1.39,.03h.23c.96,.01,1.94,.01,2.89,0h.24c.46,0,.92-.02,1.39-.03l1.65-.05c.06,0,.11,0,.14,0,.47-.02,.94-.04,1.41-.06l1.75-.1c.42-.03,.83-.06,1.25-.09l.31-.02c.99-.08,1.97-.16,2.94-.27h.11c.48-.06,.96-.11,1.42-.17h.11c.97-.13,1.91-.26,2.85-.4l.19-.03c.45-.07,.89-.13,1.24-.2h.12c.96-.17,1.9-.34,2.81-.53,.92-.19,1.83-.38,2.69-.6,.19-.04,.38-.09,.64-.16,1.15-.29,2.18-.58,3.17-.89,.88-.28,1.74-.58,2.59-.9,.27-.1,.54-.21,.81-.32l.62-.26c.17-.07,.35-.15,.52-.23l.05-.02s.03-.01,.04-.02l.29-.13h0c.1-.05,.2-.1,.31-.15,.19-.09,.37-.18,.48-.25l.1-.04c.17-.09,.35-.18,.46-.25l.09-.05c.17-.09,.33-.19,.54-.3l.22-.13v10.35c-.03,.24-.16,.51-.38,.81-.26,.34-.62,.7-1.12,1.1-.05,.04-.11,.09-.23,.18l-.7,.48c-.05,.03-.1,.06-.13,.08l-1.04,.59c-.06,.03-.12,.06-.19,.1l-1.21,.58c-.07,.03-.14,.06-.29,.12l-.88,.36c-.07,.03-.14,.06-.22,.09l-2.14,.75c-.17,.05-.34,.11-.6,.19h0c-.23,.07-.45,.13-.68,.2l-.35,.1c-.3,.09-.61,.17-.98,.27-.48,.12-.98,.25-1.52,.38-.5,.11-1.01,.23-1.61,.35-.46,.1-.94,.19-1.42,.28-.55,.1-1.11,.2-1.69,.3l-.27,.05c-.5,.08-1.01,.16-1.52,.23l-.23,.03c-.44,.06-.89,.12-1.33,.18l-.4,.05c-.48,.06-.97,.11-1.45,.17l-2.16,.21c-.75,.07-1.51,.12-2.27,.17h-.2c-.82,.07-1.64,.11-2.51,.15-.76,.03-1.52,.05-2.28,.08h-.56c-1.58,.04-3.19,.04-4.77,.01h-.55c-.77-.03-1.52-.05-2.33-.09-.83-.03-1.65-.08-2.46-.13l-.21-.02c-.76-.05-1.52-.11-2.3-.18l-.38-.04c-.42-.04-.83-.08-1.24-.12l-.51-.05c-.49-.05-.97-.11-1.45-.17l-.41-.05c-.45-.06-.89-.12-1.33-.18l-.24-.04c-.51-.07-1.02-.15-1.51-.23l-.29-.05c-1.09-.18-2.14-.38-3.19-.6-.52-.11-1.03-.22-1.56-.35-.51-.12-1-.24-1.54-.38-.31-.08-.62-.17-.93-.25-.35-.1-.7-.2-.96-.27l-.12-.06h-.04c-.17-.05-.34-.1-.5-.15l-1.1-.37-4.31-1.89c-.24-.13-.46-.27-.67-.4l-.27-.18-.28,.41h0l.18-.48-.17-.12-.29,.41,.2-.47-.33-.25-.31,.4h0Zm60.38-14.28h0Zm6.89-3.81l-.19,.15,.31,.39h0l-.42-.32-.4,.28,.29,.41-.39-.34-.63,.39c-.05,.03-.11,.07-.18,.11l-3.08,1.44c-.07,.03-.14,.05-.23,.09l-1.93,.68-.2,.06c-.19,.06-.38,.12-.58,.18-.32,.1-.64,.19-.98,.28l.1,.49h0l-.24-.45c-.3,.08-.61,.17-.92,.25-2.11,.55-4.45,1.03-6.97,1.43-2.13,.33-4.33,.6-6.54,.8-.78,.07-1.58,.13-2.39,.18h-.2c-.81,.07-1.64,.11-2.52,.15-.75,.03-1.51,.06-2.27,.08h-.56c-1.58,.04-3.18,.04-4.77,.01h-.55c-.76-.03-1.52-.05-2.32-.08-.83-.04-1.65-.08-2.48-.14h-.19c-.8-.07-1.6-.12-2.38-.19-4.99-.44-9.54-1.19-13.51-2.23-.32-.08-.64-.17-.95-.25l-.13,.48h0l.02-.51c-.33-.09-.65-.18-.97-.28l-.58-.18-4.7-1.88c-.07-.04-.14-.07-.18-.09l-.53-.29c-.23-.13-.45-.26-.65-.39l-.13-.08c-.05-.03-.1-.06-.15-.1l-.45-.31-.38,.34h0l.22-.46-1.01-.92-.38,.33,.3-.41-.11-.13c-.05-.06-.09-.12-.16-.24-.03-.04-.05-.09-.08-.13l-.02-.04c-.03-.05-.05-.11-.07-.16l-.02-.07s-.01-.04-.02-.05v-10.48c.07,.05,.15,.09,.24,.14,.16,.09,.31,.18,.46,.26l.06,.04c.16,.09,.32,.17,.48,.25l.07,.04c.16,.08,.32,.16,.49,.24l.08,.04c.58,.28,1.19,.55,1.82,.81,.26,.11,.53,.21,.82,.33,.8,.31,1.67,.61,2.57,.89l.08,.02c1.17,.37,2.42,.71,3.72,1.02,1.72,.41,3.57,.79,5.55,1.12,1.43,.23,2.89,.44,4.33,.61l.12,.02c.46,.06,.91,.11,1.37,.16l.17,.02c.97,.1,1.96,.19,2.94,.27h.14c.47,.05,.94,.08,1.41,.11l.42,.03c.41,.02,.82,.05,1.23,.07l1.65,.07c.47,.02,.94,.03,1.41,.05h.26c.46,.02,.92,.03,1.37,.03h.25c.96,.01,1.94,.01,2.89,0h.24c.46,0,.92-.02,1.39-.03h.25c.47-.02,.94-.03,1.39-.05l1.67-.07c.41-.02,.82-.04,1.23-.07l.4-.03c.48-.03,.95-.06,1.42-.1h.13c.99-.09,1.97-.18,2.94-.28l.29-.03c.42-.05,.84-.09,1.24-.14h.1c.97-.13,1.91-.26,2.85-.4l.27-.04c.42-.06,.83-.12,1.16-.19h.12c.96-.17,1.9-.34,2.81-.53,.92-.18,1.83-.38,2.7-.59l.63-.16c.44-.11,.87-.22,1.3-.34,.63-.17,1.25-.35,1.87-.55,.85-.27,1.67-.55,2.5-.86l.1-.03c.27-.11,.54-.21,.8-.32l.63-.27c.17-.07,.35-.15,.52-.23l.07-.03h.02l.6-.3c.19-.09,.37-.18,.48-.25l.1-.04c.17-.09,.35-.18,.46-.25l.09-.04c.17-.09,.33-.19,.54-.31l.13-.08,.08-.05v10.35c-.04,.3-.29,.95-1.49,1.89Zm-23.94-6.46h0Zm-3.18,.21h0Zm-1.52,.07h0Zm-11.1-.06h0Zm40.85-12.52c-.26,.35-.62,.7-1.12,1.1l-.11,.08,.3,.4h0l-.39-.33,.3,.4h0l-.38-.34-.12,.09s-.08,.06-.08,.06l-.47,.31,.27,.42h0l-.37-.35-.83,.48,.24,.44h0l-.34-.38-3.93,1.68c-.1,.04-.21,.07-.3,.11l-.16,.05,.16,.47-.26-.44-.54,.17c-.19,.06-.38,.12-.58,.18-.23,.07-.46,.14-.7,.21l-.35,.1c-.32,.09-.65,.18-.98,.26-1.04,.27-2.19,.54-3.4,.79-1.09,.23-2.26,.44-3.56,.64-2.1,.33-4.3,.6-6.54,.8-.79,.07-1.58,.13-2.37,.18h-.22c-.81,.07-1.64,.11-2.52,.15-.75,.03-1.51,.05-2.28,.07h-.55c-1.58,.05-3.18,.05-4.76,.01h-.55c-.76-.03-1.52-.05-2.21-.08h-.11c-.83-.05-1.65-.09-2.47-.14h-.2c-.81-.07-1.6-.13-2.39-.2-1.88-.17-3.7-.37-5.41-.62-1.77-.26-3.45-.55-5.02-.88-1.02-.21-2.06-.46-3.08-.72-.33-.08-.66-.17-.98-.26-.35-.1-.71-.2-1.05-.31l-.64-.2-3.44-1.29c-.06-.03-.12-.05-.19-.08l-1.72-.86c-.23-.13-.45-.26-.65-.38l-.3-.19-.27,.42h0l.16-.49-.89-.67-.33,.38h0l.24-.46-.1-.09-.34,.36h0l.27-.43-.14-.13s-.07-.07-.13-.13l-.16-.18s-.06-.07-.11-.14c-.04-.05-.07-.1-.15-.22-.04-.06-.07-.11-.11-.19-.03-.05-.05-.11-.08-.17-.01-.04-.02-.07-.03-.1v-10.48c.07,.05,.15,.09,.23,.14,.14,.08,.29,.17,.44,.25l.12,.07c.15,.08,.29,.16,.44,.24l.74,.37h0c.55,.26,1.12,.52,1.72,.76,.26,.11,.53,.22,.82,.32,.82,.31,1.68,.61,2.57,.89l.1,.03c.66,.21,1.33,.4,2.02,.59,.55,.15,1.11,.29,1.68,.43,.44,.1,.88,.21,1.33,.31,1.31,.29,2.72,.56,4.22,.81,1.4,.23,2.87,.44,4.36,.62h.11c.47,.07,.95,.12,1.52,.18,.97,.1,1.95,.19,2.94,.27l.04-.5h0l.1,.51c.42,.04,.85,.06,1.28,.09l.35,.02c.48,.03,.95,.06,1.42,.08,.05,0,.1,0,.13,0,.47,.03,.94,.05,1.41,.06h.12c.47,.02,.94,.04,1.41,.05l1.88,.04c.96,.01,1.94,.01,2.89,0l1.89-.04c.47-.01,.94-.03,1.41-.04h.12c.47-.02,.94-.04,1.39-.07,.05,0,.1,0,.14,0,.48-.02,.96-.05,1.42-.08l.36-.02c.43-.03,.85-.06,1.28-.09l-.04-.5h0l.17,.49c.99-.08,1.97-.17,2.94-.27h.1c.48-.06,.96-.11,1.53-.18,.97-.12,1.91-.25,2.85-.39,.51-.08,1.02-.15,1.55-.24,.96-.16,1.89-.33,2.81-.51,.92-.19,1.83-.38,2.7-.6l.63-.16c1.08-.27,2.14-.57,3.17-.89,.95-.3,1.79-.59,2.59-.9,.27-.11,.54-.21,.81-.32l1.83-.82c.19-.09,.37-.18,.48-.25l1.19-.64c.07-.04,.15-.09,.22-.13v10.35c-.03,.24-.17,.52-.38,.81Zm-1.63-15.61h0Zm-64.43,.87h0Zm66.06-2.94c-.26,.35-.62,.7-1.12,1.09-.05,.04-.11,.09-.24,.18-.05,.04-.11,.08-.17,.12l.28,.41-.41-.32-.14,.09,.28,.42-.39-.34-.56,.34,.26,.43-.38-.36-5.01,2.17c-.12,.04-.24,.08-.39,.13l-.75,.24c-.32,.1-.64,.19-1.06,.3-.32,.09-.65,.18-.98,.26-2.1,.55-4.44,1.03-6.97,1.43-2.12,.34-4.33,.6-6.54,.8-.79,.07-1.58,.13-2.37,.18l-.22,.02c-.81,.05-1.64,.1-2.52,.13-.75,.03-1.51,.05-2.28,.07h-.55c-1.58,.04-3.19,.04-4.76,.01h-.56c-.76-.03-1.52-.05-2.32-.09-.83-.03-1.65-.08-2.46-.13l-.21-.02c-.81-.05-1.6-.11-2.39-.18-2.46-.22-4.86-.52-7.13-.89-2.25-.37-4.39-.82-6.38-1.34-.33-.09-.66-.17-.98-.26l-.11-.03c-.32-.09-.63-.18-.94-.27l-2.18-.73c-.08-.03-.16-.06-.22-.08l-3.58-1.63c-.23-.13-.45-.26-.68-.41l-.26-.17-.28,.42,.16-.49-1.18-.94-.4,.31h0l.28-.42-.27-.3s-.06-.07-.1-.13c-.05-.06-.09-.13-.16-.24l-.1-.17c-.03-.06-.05-.11-.08-.18-.01-.04-.02-.07-.03-.11v-10.48l.24,.14c.16,.09,.32,.19,.49,.28,.01,0,.02,.01,.03,.02h0l.65,.34h0c.15,.08,.31,.15,.46,.23l.11,.05h0c.56,.27,1.14,.53,1.71,.76,.26,.11,.53,.21,.8,.32l.11,.04c.79,.3,1.63,.59,2.42,.83l.13,.06h.04c.84,.26,1.75,.52,2.76,.79l.94,.23c.44,.11,.88,.21,1.33,.31,1.32,.29,2.73,.56,4.22,.81,1.41,.23,2.88,.44,4.45,.63h.13c.44,.06,.88,.12,1.41,.17,.98,.1,1.96,.19,2.96,.27h.12c.47,.05,.95,.08,1.52,.12h.1c.48,.04,.95,.06,1.44,.09h.12c.47,.03,.95,.05,1.42,.07h.12c.47,.02,.94,.04,1.41,.05h.26c.46,.02,.93,.03,1.4,.03h.23c.97,.01,1.92,.01,2.91,0h.22c.46,0,.93-.02,1.4-.03h.25c.47-.02,.95-.04,1.42-.05h.12c.48-.02,.95-.04,1.42-.07h.12c.48-.03,.96-.06,1.42-.09h.21c.48-.04,.95-.08,1.42-.11h.14c.99-.09,1.98-.17,3.04-.29,.45-.04,.89-.1,1.33-.15l.21-.03c.97-.12,1.92-.25,2.85-.39,.51-.08,1.01-.15,1.55-.24,.96-.16,1.89-.33,2.81-.51,.92-.19,1.83-.38,2.7-.59,.17-.04,.33-.08,.5-.12l.14-.04c1.16-.29,2.19-.58,3.17-.89,.86-.27,1.7-.56,2.5-.86h.12l.07-.07c.24-.09,.47-.19,.69-.28l.24-.1c.31-.13,.62-.26,.91-.4l.59-.28,.17-.08c.16-.08,.31-.16,.46-.23l.75-.4c.12-.07,.25-.14,.4-.23,.08-.04,.15-.09,.22-.13v10.35c-.03,.24-.17,.52-.38,.81Zm-29.76-5.1h0Zm-9.56,0h0Zm39.32-12.59c-.26,.34-.62,.7-1.11,1.09l-.2,.16,.29,.41-.38-.34-.4,.28,.28,.41h0l-.38-.35-.18,.12,.27,.42-.37-.36-.33,.2c-.06,.03-.11,.07-.2,.11l-.51,.28c-.06,.03-.11,.06-.19,.1l-1.21,.58c-.07,.03-.14,.06-.29,.12l-3.24,1.2c-.17,.05-.34,.11-.6,.19h0c-.22,.07-.44,.13-.67,.2l-.37,.1c-.32,.09-.65,.18-.98,.27-1.33,.35-2.8,.68-4.36,.97-.85,.16-1.72,.31-2.6,.45-1.86,.3-3.82,.54-5.83,.73l-.22,.02c-.16,.02-.33,.03-.5,.05-.79,.07-1.58,.13-2.46,.19h-.12c-.82,.06-1.64,.11-2.51,.14-.76,.03-1.52,.05-2.28,.08h-.56c-1.58,.04-3.19,.04-4.77,.01h-.55c-.77-.03-1.52-.05-2.33-.09-.83-.03-1.65-.08-2.46-.13h-.21c-.8-.07-1.6-.13-2.39-.2-.25-.02-.49-.04-.79-.08-3.28-.31-6.38-.77-9.24-1.35-1.22-.25-2.39-.52-3.48-.8-.33-.08-.66-.17-.98-.26-.35-.1-.7-.2-.96-.27l-.12-.06h-.04c-.17-.05-.35-.11-.59-.18l-1.76-.61c-.09-.03-.17-.06-.27-.11l-3.28-1.51c-.24-.13-.46-.27-.67-.4l-.12-.08c-.05-.03-.1-.07-.15-.1l-.86-.63s-.08-.06-.19-.16l-.13-.11-.34,.37h0l.25-.45-.44-.46s-.06-.07-.09-.11l-.07-.1s-.06-.09-.11-.16c-.03-.05-.06-.1-.1-.17-.03-.05-.05-.11-.08-.18-.01-.03-.02-.07-.03-.1v-10.48s.1,.06,.16,.09l.07,.05c.17,.1,.33,.19,.51,.29l.66,.35h0c.06,.03,.12,.06,.18,.09l.28,.14c.58,.28,1.19,.55,1.82,.81,.26,.11,.53,.21,.8,.32h.02l.05,.02h.02c.81,.32,1.65,.61,2.52,.88,.84,.26,1.7,.51,2.6,.74l.32,.08c.28,.07,.57,.15,.86,.22,1.73,.42,3.58,.79,5.55,1.11,1.41,.23,2.87,.44,4.33,.61l.12,.02c.48,.06,.96,.11,1.54,.17,.97,.1,1.95,.19,2.94,.27h.14c.47,.05,.94,.08,1.41,.11h.22c.48,.04,.95,.07,1.43,.1l.02-.5h0l.1,.5c.47,.02,.94,.04,1.41,.06h.13c.47,.02,.94,.04,1.42,.05h.25c.46,.02,.92,.03,1.39,.03h.23c.96,.01,1.94,.01,2.89,0h.24c.46,0,.92-.02,1.39-.03h.25c.47-.02,.94-.03,1.41-.05l-.02-.5h0l.15,.5c.47-.02,.94-.04,1.41-.06h.12c.48-.03,.95-.06,1.51-.09h.12c.48-.04,.95-.07,1.42-.11h.13c.99-.09,1.97-.18,2.94-.28h.11c.48-.06,.96-.11,1.42-.17h.1c.97-.13,1.91-.26,2.85-.4l.27-.04c.42-.06,.83-.12,1.16-.19h.12c.96-.17,1.9-.34,2.81-.53,.92-.19,1.83-.38,2.71-.59l.63-.16c1.15-.29,2.18-.58,3.17-.89,.88-.28,1.74-.58,2.59-.9,.27-.1,.54-.21,.81-.32l.62-.26c.17-.07,.35-.15,.52-.23l.07-.03h.02l.6-.29c.19-.09,.37-.18,.51-.26l.13-.06c.15-.08,.31-.16,.4-.22l.09-.04c.17-.09,.34-.19,.54-.31l.22-.13v10.35c-.03,.24-.17,.52-.38,.81Zm-1.63-15.61h0Zm.51-.97l-.12,.09,.3,.4h0l-.42-.31-.45,.32,.29,.41-.39-.34-.13,.08,.27,.42h0l-.36-.36,.26,.42-.4-.34-5.89,2.54c-.19,.06-.38,.12-.58,.18-.32,.1-.64,.19-1.05,.3-.32,.09-.65,.18-.98,.26-.78,.2-1.58,.39-2.4,.57-1.43,.31-2.97,.6-4.56,.85-1.91,.3-3.87,.55-5.83,.73l-.71,.07c-.78,.07-1.58,.13-2.39,.18h-.2c-.81,.07-1.64,.11-2.52,.15-.75,.03-1.51,.06-2.27,.07h-.56c-1.58,.04-3.18,.04-4.76,.01h-.55c-.76-.03-1.52-.05-2.32-.09-.83-.04-1.65-.08-2.48-.14h-.19c-.8-.07-1.6-.12-2.38-.19l-.79-.08c-3.92-.37-7.57-.94-10.86-1.7-.63-.15-1.26-.29-1.86-.45-.33-.09-.66-.17-.98-.26-.35-.1-.71-.2-1.05-.31l-.77-.24c-.12-.04-.25-.08-.38-.12l-.22-.08c-.1-.03-.21-.07-.3-.1l-1.99-.76c-.06-.02-.12-.05-.19-.08l-2.15-1.05c-.23-.13-.45-.26-.68-.4l-.38-.25s-.09-.06-.16-.11l-1.41-1.25s-.04-.04-.07-.08l-.04-.05c-.05-.06-.09-.12-.16-.22l-.11-.19c-.03-.05-.05-.1-.08-.18-.01-.03-.02-.06-.03-.1v-10.48c1.08,.65,2.32,1.26,3.7,1.83,2.07,.85,4.49,1.61,7.19,2.26,6.82,1.64,15.36,2.55,24.07,2.55,5.85,0,11.73-.41,17.01-1.2,1.49-.22,2.95-.47,4.36-.75,.92-.19,1.83-.38,2.7-.6l.63-.16c2.45-.62,4.65-1.33,6.56-2.11l.23-.1c1.3-.54,2.47-1.13,3.49-1.75v10.35c-.04,.3-.29,.95-1.5,1.9Zm-7.62-14.17c-.32,.1-.64,.19-.97,.28-.35,.1-.71,.19-1.07,.29-2.11,.55-4.45,1.03-6.97,1.43-2.08,.33-4.28,.6-6.54,.8-6.69,.59-13.94,.59-20.63,0-2.46-.22-4.86-.51-7.13-.89-2.26-.37-4.4-.82-6.38-1.34-.69-.18-1.38-.37-2.03-.57-5.75-1.75-8.7-3.89-9.1-5.27l-.02-.48c.27-1.18,2.8-3.42,9.12-5.34,6.87-2.09,16.05-3.24,25.86-3.24,5.88,0,11.71,.43,16.86,1.24,1.47,.23,2.92,.5,4.3,.8,1.72,.37,3.3,.78,4.7,1.2,6.36,1.93,8.88,4.18,9.12,5.36v.32c-.2,1.33-3.15,3.6-9.12,5.41Zm-60.81,108l.24,.14c.14,.08,.29,.16,.43,.25l.09,.05c.15,.08,.3,.16,.46,.24l.08,.04h0l.68,.34h0c.23,.11,.46,.21,.69,.32l.22,.1c.23,.1,.45,.2,.74,.32l.86,.34,.11,.04c.78,.3,1.61,.59,2.42,.83l.13,.06h.04c.3,.1,.61,.19,.93,.28l.31,.09c.23,.07,.47,.13,.7,.2l4.61,1.08c.3,.06,.6,.12,.99,.19l.33,.06c.44,.08,.89,.16,1.38,.24,1.41,.23,2.88,.44,4.45,.63,.48,.05,.96,.11,1.54,.17,.97,.1,1.96,.19,2.96,.27h.11c.42,.04,.83,.07,1.25,.1l.37,.02c.48,.03,.95,.06,1.44,.08h.11c.47,.03,.95,.05,1.42,.07l.02-.5h0l.1,.51c.47,.02,.95,.03,1.41,.04h.26c.46,.02,.92,.03,1.4,.03h.23c.97,.02,1.92,.02,2.91,0h.22c.46,0,.93-.02,1.39-.03h.25c.47-.02,.95-.04,1.42-.05l-.02-.5h0l.13,.49c.48-.02,.95-.04,1.42-.06h.12c.48-.03,.96-.06,1.42-.09l.38-.02c.42-.03,.84-.06,1.24-.09h.14c.99-.09,1.98-.18,3.04-.29,.48-.05,.97-.1,1.53-.17,1.5-.18,2.97-.38,4.4-.62,.45-.08,.9-.15,1.34-.23l1.81-.35c.27-.06,.54-.11,.81-.17l2.91-.7c.13-.03,.27-.07,.4-.1,.24-.06,.47-.13,.69-.2l.33-.09c.34-.1,.67-.2,1.02-.31,.88-.27,1.72-.56,2.49-.86h.12l.07-.07c.24-.09,.47-.19,.7-.28l.15-.06-.11-.5h0l.31,.41c.27-.11,.54-.23,.79-.35l.59-.28,.17-.08c.17-.08,.33-.16,.47-.24l.12-.06c.15-.08,.3-.16,.48-.26l.53-.3c.07-.04,.15-.09,.22-.13v10.37c-.2,1.17-2.71,3.44-9.12,5.4-6.87,2.09-16.05,3.24-25.86,3.24s-18.99-1.15-25.86-3.24c-6.19-1.88-8.74-4.07-9.1-5.27v-10.48Zm123.75-72.08h0Zm.26-.15h0Zm-37.05,10.12h0Zm9.57,0h0Zm26.9-4.97h0Z"/></g></g></g></svg>