<?xml version="1.0" encoding="UTF-8"?><svg id="_이어_2" xmlns="http://www.w3.org/2000/svg" viewBox="0 0 834.68 516.52"><defs><style>.cls-1{fill:#fff;}</style></defs><g id="_이어_1-2"><g><path class="cls-1" d="M796.03,313h-54.39C735.5,139.38,592.43,0,417.34,0S99.17,139.38,93.04,313H38.64c-21.31,0-38.64,17.33-38.64,38.64v126.23c0,21.31,17.33,38.64,38.64,38.64H796.03c21.31,0,38.64-17.33,38.64-38.64v-126.23c0-21.31-17.33-38.64-38.64-38.64Zm-609.51-9.97c.17-1.84,.38-3.67,.59-5.49,.24-2.02,.48-4.03,.77-6.03,.26-1.8,.55-3.59,.85-5.38,.34-2,.68-3.99,1.07-5.96,.34-1.76,.72-3.52,1.1-5.27,.43-1.97,.88-3.93,1.36-5.88,.43-1.73,.88-3.45,1.35-5.16,.53-1.94,1.07-3.87,1.65-5.79,.51-1.69,1.03-3.36,1.58-5.03,.2-.61,.42-1.22,.62-1.82l169.75,61.78H185.83c.06-1.29,.14-2.59,.22-3.88,.14-2.04,.28-4.07,.46-6.09Zm80.75-154.97c1.27-1.08,2.53-2.16,3.82-3.22,1.56-1.27,3.16-2.5,4.75-3.74,1.32-1.02,2.63-2.05,3.97-3.04,1.62-1.2,3.28-2.35,4.93-3.51,1.37-.96,2.73-1.92,4.12-2.85,1.68-1.12,3.39-2.19,5.09-3.27,.94-.59,1.87-1.19,2.82-1.76l105.8,183.25L240.98,174.33c.89-1.04,1.78-2.08,2.69-3.11,1.11-1.25,2.21-2.5,3.34-3.73,1.36-1.48,2.75-2.92,4.15-4.36,1.16-1.2,2.32-2.4,3.51-3.57,1.43-1.41,2.9-2.78,4.36-4.16,1.22-1.14,2.43-2.28,3.67-3.4,1.5-1.34,3.03-2.65,4.57-3.96Zm161.86-55.02c1.27,.06,2.53,.2,3.79,.28,2.62,.18,5.25,.34,7.85,.6,1.52,.15,3.02,.38,4.54,.57,2.32,.28,4.65,.54,6.95,.89,.5,.08,.99,.18,1.49,.26l-36.87,209.07-36.84-208.92c.79-.13,1.58-.29,2.37-.42,2.3-.35,4.62-.61,6.95-.89,1.52-.18,3.01-.41,4.54-.57,2.6-.26,5.22-.42,7.85-.6,1.27-.08,2.52-.22,3.79-.28,3.91-.2,7.84-.3,11.8-.3s7.89,.1,11.8,.3ZM200.56,242.45c.71-1.88,1.45-3.74,2.21-5.59,.65-1.6,1.32-3.18,2.01-4.76,.8-1.84,1.63-3.67,2.48-5.48,.72-1.55,1.46-3.09,2.22-4.62,.89-1.8,1.81-3.59,2.75-5.36,.79-1.5,1.6-3,2.43-4.49,.98-1.75,1.98-3.48,2.99-5.2,.86-1.46,1.74-2.92,2.63-4.35,1.05-1.7,2.14-3.38,3.24-5.05,.93-1.41,1.86-2.82,2.82-4.21,1.14-1.65,2.31-3.28,3.48-4.9,.99-1.36,1.98-2.71,3-4.05,1.05-1.39,2.14-2.75,3.23-4.11l158.16,132.71h-4.43l-189.77-69.07c.18-.49,.36-.99,.54-1.48Zm102.91-119.71c1.46-.83,2.91-1.67,4.38-2.47,1.79-.96,3.61-1.87,5.43-2.78,1.5-.75,2.98-1.53,4.49-2.25,1.85-.88,3.72-1.7,5.59-2.53,1.53-.68,3.05-1.39,4.6-2.04,1.89-.79,3.82-1.52,5.74-2.27,1.57-.61,3.12-1.24,4.7-1.82,1.95-.71,3.93-1.34,5.9-2,1.59-.53,3.17-1.09,4.78-1.59,2-.62,4.03-1.16,6.06-1.72,1.61-.45,3.22-.93,4.85-1.35,2.08-.53,4.18-.98,6.28-1.45,1.61-.36,3.2-.76,4.82-1.09,.44-.09,.88-.15,1.32-.24l36.84,208.91-105.82-183.29s.02-.02,.04-.02Zm160.09-25.36c1.62,.33,3.21,.73,4.82,1.09,2.1,.47,4.21,.92,6.28,1.45,1.63,.42,3.23,.9,4.85,1.35,2.02,.56,4.06,1.11,6.06,1.72,1.61,.49,3.18,1.05,4.78,1.59,1.97,.66,3.95,1.29,5.9,2,1.58,.58,3.14,1.21,4.71,1.82,1.92,.74,3.84,1.47,5.74,2.26,1.55,.65,3.07,1.36,4.61,2.04,1.87,.83,3.74,1.65,5.58,2.53,1.52,.72,3,1.5,4.5,2.25,1.82,.92,3.64,1.82,5.43,2.78,1.26,.68,2.49,1.4,3.73,2.1l-106.05,183.69,36.87-209.08c.73,.14,1.48,.25,2.21,.39Zm108.4,54.64c1.24,1.11,2.45,2.26,3.67,3.4,1.47,1.37,2.93,2.75,4.36,4.16,1.19,1.17,2.35,2.37,3.51,3.57,1.4,1.44,2.79,2.88,4.15,4.36,1.13,1.23,2.24,2.48,3.34,3.73,.78,.88,1.54,1.77,2.3,2.66l-162.12,136.03,106.04-183.66c1.17,.71,2.33,1.45,3.49,2.19,1.71,1.08,3.42,2.15,5.09,3.27,1.39,.93,2.75,1.9,4.12,2.85,1.65,1.16,3.31,2.31,4.93,3.51,1.34,.99,2.65,2.02,3.97,3.04,1.59,1.23,3.19,2.46,4.75,3.74,1.29,1.05,2.55,2.14,3.82,3.22,1.53,1.31,3.07,2.61,4.57,3.96Zm53.21,69.98c.76,1.53,1.5,3.07,2.22,4.62,.85,1.81,1.68,3.64,2.48,5.47,.69,1.58,1.36,3.17,2.02,4.77,.76,1.85,1.49,3.71,2.21,5.59,.15,.39,.29,.79,.44,1.18l-190.59,69.37h-4.42l158.72-133.17c1.21,1.51,2.42,3.03,3.59,4.57,1.02,1.33,2.01,2.69,3,4.05,1.18,1.62,2.35,3.25,3.48,4.9,.96,1.39,1.89,2.79,2.82,4.21,1.1,1.67,2.19,3.35,3.24,5.05,.9,1.44,1.77,2.89,2.63,4.35,1.02,1.72,2.02,3.45,2.99,5.2,.83,1.49,1.63,2.98,2.43,4.49,.94,1.77,1.86,3.56,2.75,5.36Zm12.66,31.05c.54,1.67,1.07,3.35,1.58,5.03,.58,1.92,1.12,3.85,1.65,5.79,.47,1.71,.92,3.43,1.35,5.16,.48,1.95,.93,3.91,1.36,5.88,.38,1.75,.76,3.5,1.1,5.27,.38,1.98,.73,3.97,1.07,5.96,.3,1.79,.59,3.58,.85,5.38,.29,2,.53,4.01,.77,6.03,.21,1.82,.42,3.65,.59,5.49,.19,2.02,.33,4.05,.46,6.09,.08,1.29,.16,2.58,.22,3.88h-182.29l170.56-62.08c.24,.71,.49,1.41,.72,2.12Zm57.46,59.96h-30.94c-.07-1.59-.2-3.16-.31-4.74-.14-2.13-.29-4.26-.48-6.38-.18-2.02-.41-4.02-.64-6.02-.24-2.09-.5-4.17-.8-6.25-.29-2-.6-3.98-.93-5.97-.11-.66-.2-1.34-.31-2l30.39-5.36c-2.49-14.14-6.05-27.9-10.58-41.23l29.09-10.58c5.15,15,9.22,30.5,12.03,46.44l-30.53,5.38c2.11,12,3.48,24.25,4.02,36.71Zm-17.16-85.23l-29.04,10.57c-.18-.47-.38-.93-.55-1.4-.71-1.85-1.44-3.7-2.18-5.53-.76-1.86-1.53-3.7-2.33-5.53-.79-1.81-1.6-3.6-2.43-5.38-.85-1.82-1.71-3.62-2.6-5.42-.87-1.75-1.77-3.49-2.68-5.22-.93-1.77-1.87-3.54-2.85-5.28-.67-1.2-1.34-2.41-2.04-3.6l26.73-15.43c-7.23-12.48-15.44-24.32-24.45-35.48l23.7-19.89c10.17,12.54,19.4,25.86,27.54,39.91l-26.79,15.46c7.78,13.42,14.49,27.52,19.97,42.22Zm-49.34-83.66l-23.62,19.82c-.73-.85-1.5-1.67-2.25-2.51-1.32-1.49-2.63-2.99-3.98-4.45-1.31-1.42-2.66-2.81-4-4.2-1.38-1.43-2.76-2.86-4.17-4.25-1.38-1.36-2.79-2.68-4.2-4.01-1.44-1.36-2.88-2.72-4.36-4.04-1.45-1.3-2.93-2.56-4.4-3.82-.54-.46-1.06-.93-1.6-1.39l19.86-23.67c-11.18-9.39-23.14-17.85-35.71-25.41l15.52-26.88c14.13,8.47,27.48,18.1,40.03,28.64l-19.84,23.65c11.79,9.91,22.72,20.81,32.73,32.52Zm-75.11-61.83l-15.42,26.71c-1.39-.78-2.77-1.58-4.18-2.34-1.77-.95-3.57-1.84-5.37-2.75-1.73-.88-3.46-1.78-5.22-2.62-1.83-.88-3.7-1.69-5.56-2.52-1.76-.79-3.52-1.6-5.3-2.35-1.9-.8-3.84-1.52-5.76-2.28-1.65-.65-3.29-1.33-4.96-1.94l10.57-29.05c-13.88-5.07-28.3-8.94-43.1-11.75l5.38-30.52c16.6,3.13,32.74,7.55,48.29,13.23l-10.57,29.04c14.34,5.23,28.07,11.71,41.19,19.13Zm-231.51-19.13c13.6-4.97,27.73-8.78,42.22-11.57l5.35,30.34c-.57,.11-1.15,.21-1.72,.33-1.81,.37-3.6,.82-5.39,1.22-2.15,.49-4.32,.95-6.45,1.49-1.83,.47-3.62,1.01-5.43,1.51-2.07,.58-4.15,1.13-6.2,1.76-1.82,.56-3.61,1.2-5.42,1.8-1.99,.66-3.99,1.31-5.97,2.02-.14,.05-.28,.09-.41,.14l-10.57-29.05c-14.59,5.32-28.56,11.93-41.89,19.51l-15.47-26.8c14.89-8.48,30.5-15.81,46.79-21.76l10.57,29.04Zm-145.67,122.41c7.13-12.31,15.21-23.99,24.08-35.02l23.64,19.83s-.03,.04-.05,.06c-1.21,1.51-2.41,3.02-3.58,4.56-1.21,1.59-2.38,3.2-3.56,4.81-1.13,1.56-2.26,3.13-3.36,4.72-1.13,1.64-2.24,3.31-3.33,4.98-1.06,1.62-2.12,3.25-3.14,4.89-1.05,1.69-2.08,3.41-3.09,5.13-.29,.49-.59,.97-.88,1.46l-26.73-15.43c-7.83,13.5-14.58,27.7-20.08,42.51l-29.02-10.56c6.12-16.51,13.59-32.36,22.32-47.42l26.79,15.46ZM461.78,50.06l-5.35,30.35c-.61-.1-1.22-.22-1.83-.31-2.41-.37-4.85-.63-7.28-.93-1.66-.2-3.3-.45-4.97-.62-2.72-.27-5.47-.44-8.22-.63-1.41-.09-2.8-.24-4.21-.31-4.17-.21-8.37-.32-12.59-.32v-30.91c-15.45,0-30.57,1.38-45.34,3.82l-5.38-30.5c16.51-2.74,33.44-4.24,50.72-4.24v30.91c15.14,0,29.96,1.34,44.44,3.69Zm-243.02,37.89l19.84,23.65c10.97-9.22,22.71-17.54,35.03-25l15.39,26.66c-1.25,.76-2.46,1.59-3.7,2.38-1.67,1.06-3.35,2.1-4.99,3.2-1.64,1.09-3.24,2.24-4.85,3.37-1.61,1.13-3.22,2.25-4.79,3.41-1.59,1.17-3.14,2.39-4.7,3.6-1.54,1.2-3.09,2.38-4.6,3.61-.98,.8-1.96,1.62-2.93,2.44l-19.86-23.67c-11.95,10.04-23.01,21.08-33.12,32.96l-23.73-19.91c11.27-13.26,23.68-25.5,37.01-36.69Zm-105.9,182.97l30.53,5.38c2.47-14.03,6-27.7,10.48-40.94l28.99,10.55c-.26,.78-.48,1.57-.73,2.35-.62,1.91-1.22,3.82-1.79,5.75-.58,1.93-1.13,3.88-1.66,5.83-.52,1.93-1.03,3.88-1.51,5.83-.49,1.98-.94,3.97-1.38,5.97-.43,1.96-.84,3.93-1.22,5.91-.26,1.37-.54,2.74-.78,4.12l-30.39-5.36c-2.11,12-3.48,24.25-4.02,36.71h-30.89c.53-14.29,1.96-28.36,4.38-42.09Zm698.63,206.97c0,8.52-6.93,15.46-15.46,15.46H38.64c-8.52,0-15.46-6.93-15.46-15.46v-126.23c0-8.52,6.93-15.46,15.46-15.46H796.03c8.52,0,15.46,6.93,15.46,15.46v126.23Z"/><path class="cls-1" d="M137.04,386.41c3.1,0,5.49,3.43,7.16,10.28,.65,2.7,1.33,4.42,2.02,5.14,.69,.72,1.94,1.09,3.74,1.09,1.47,0,2.45-.22,2.94-.66,.49-.44,.74-1.21,.74-2.31,0-.28-.02-.58-.06-.9l-1.41-15.18c-.16-1.85-.43-2.99-.8-3.42-.37-.43-.92-.64-1.65-.64h-3.18c-.65,0-1.37,.39-2.14,1.18-.9,.88-1.59,1.32-2.08,1.32-.41,0-1.02-.22-1.84-.66-2.16-1.23-4.71-1.84-7.65-1.84-4.86,0-9.12,1.47-12.77,4.39-3.65,2.92-6.65,7.06-9,12.42-2.35,5.36-3.52,12.52-3.52,21.47,0,9.49,1.4,17.28,4.19,23.36,2.79,6.08,6.11,10.36,9.95,12.85,3.84,2.48,8.29,3.72,13.35,3.72s9.59-1.49,13.1-4.46c3.51-2.97,5.27-6.7,5.27-11.2,0-1.42-.34-2.36-1.01-2.85-.67-.49-1.87-.73-3.58-.73-2.29,0-3.8,.33-4.53,.99-.73,.66-1.16,1.84-1.28,3.54-.41,5.88-2.33,8.82-5.76,8.82-2.69,0-4.04-1.76-4.04-5.28v-53.04c0-4.93,1.28-7.4,3.86-7.4Z"/><path class="cls-1" d="M273.9,450.99c-1.92-1.32-3.12-3.23-3.61-5.75l-10.05-51.81c-.25-1.32-.49-2.66-.74-4.01-.57-3.49-1.14-5.75-1.71-6.79-.57-1.04-1.57-1.56-3-1.56h-23.38c-1.06,0-1.71,.21-1.96,.62-.25,.41-.37,1.48-.37,3.21,0,1.29,.41,2.12,1.23,2.5,1.76,.75,2.64,1.62,2.64,2.59,0,.63-.1,1.37-.31,2.22l-11.34,55.48c-.21,1.1-.98,2.14-2.33,3.11-1.43,1.07-2.14,2.47-2.14,4.2,0,1.45,.45,2.17,1.34,2.17h16.11c.69,0,1.13-.13,1.31-.4,.18-.27,.27-1.05,.27-2.34,0-1-.12-1.73-.36-2.17-.25-.44-.87-.86-1.89-1.28-1.91-.78-2.86-1.74-2.86-2.88,0-.72,.17-1.54,.52-2.45,.09-.19,.13-.33,.13-.42l.71-4.34h15.26c.89,4.02,1.33,6.58,1.33,7.68s-.71,1.95-2.13,2.65c-.97,.5-1.56,.94-1.76,1.32-.2,.38-.31,1.32-.31,2.83,0,1.2,.41,1.79,1.22,1.79h27.19c.94,0,1.55-.18,1.83-.54,.29-.36,.43-1.34,.43-2.94,0-1.04-.08-1.66-.25-1.86-.16-.2-.51-.48-1.04-.83Zm-40.77-15.51l6.92-36.84,6.7,36.84h-13.62Z"/><path class="cls-1" d="M365.93,405.26c-6.16-8.02-9.25-13.39-9.25-16.12,0-2.2,1.02-3.3,3.06-3.3,2.86,0,6.1,3.16,9.74,9.48,1.71,2.99,2.88,4.68,3.49,5.09,.61,.41,1.96,.62,4.04,.62,1.84,0,2.97-.09,3.4-.28,.43-.19,.64-.58,.64-1.18,0-.16-.08-.66-.24-1.51l-3.31-15.98c-.21-1.01-.51-1.67-.92-1.98-2-.22-3.14-.33-3.43-.33-1.22,0-2.21,.41-2.94,1.22-1.14,1.26-1.84,1.97-2.08,2.12-4.53-2.2-8.39-3.3-11.57-3.3-4.61,0-8.51,1.67-11.7,5-3.18,3.33-4.78,7.8-4.78,13.39,0,4.97,1.34,9.83,4.01,14.59,2.67,4.76,7.23,11.13,13.69,19.12,2.69,3.33,4.97,6.36,6.83,9.08,1.86,2.72,2.78,5.07,2.78,7.05,0,1.13-.42,2.08-1.25,2.83-.84,.75-1.93,1.13-3.28,1.13-3.63,0-7.25-3.82-10.84-11.46-.98-2.14-1.73-3.51-2.26-4.1-.53-.6-2.27-.89-5.21-.89-2.16,0-3.25,.46-3.25,1.37,0,.12,.2,1.2,.61,3.21l3.06,15.7c.16,1,.42,1.63,.77,1.86,.35,.24,1.01,.35,1.99,.35,2.53,0,4.12-.6,4.78-1.79,.33-.6,.75-.89,1.29-.89,.61,0,1.45,.25,2.51,.75,2.73,1.29,5.57,1.93,8.51,1.93,4.65,0,8.84-1.62,12.55-4.86,3.71-3.24,5.57-7.89,5.57-13.96,0-5.12-1.07-9.75-3.22-13.88-2.14-4.13-6.75-10.82-13.81-20.06Z"/><path class="cls-1" d="M479.21,381.08h-29.33c-1.35,0-2.02,.49-2.02,1.46v2.5c0,.75,.11,1.26,.34,1.53,.22,.27,.85,.57,1.87,.92,1.39,.44,2.28,1,2.69,1.68,.41,.68,.61,1.67,.61,2.99v55.96c0,1.32-1.1,2.22-3.31,2.69-1.22,.28-1.94,.68-2.14,1.18-.2,.5-.31,1.88-.31,4.15,0,.69,.57,1.04,1.71,1.04h29.88c1.02,0,1.65-.06,1.9-.19,.24-.12,.37-.69,.37-1.7v-1.84c0-.85-.12-1.45-.37-1.79-.25-.34-.96-.74-2.14-1.18-1.84-.69-2.76-1.63-2.76-2.83v-56.67c0-2.14,1.27-3.38,3.8-3.72,.78-.09,1.28-.35,1.5-.75,.22-.41,.34-1.45,.34-3.11,0-1.1-.16-1.76-.49-1.98-.33-.22-1.04-.33-2.14-.33Z"/><path class="cls-1" d="M598.8,381.08h-16.9c-.69,0-1.16,.11-1.41,.31-.25,.2-.37,.78-.37,1.72,0,1.51,.17,2.52,.52,3.04,.35,.52,1.11,.98,2.3,1.39,2,.63,3,1.7,3,3.21v27.13l-20.61-36.8h-16.94c-1.5,0-2.25,1.1-2.25,3.3,0,1.23,.17,2.06,.51,2.5,.34,.44,1.02,.85,2.03,1.23,1.13,.44,1.85,1,2.18,1.67,.32,.68,.48,1.69,.48,3.04v55.73c0,.91-1.05,1.73-3.14,2.45-1.09,.35-1.63,.96-1.63,1.84,0,1.92,.1,3.12,.31,3.6,.2,.49,.71,.73,1.53,.73h16.24c1.06,0,1.66-.12,1.8-.38,.14-.25,.21-1.52,.21-3.82,0-1.1-.86-1.95-2.57-2.54-2.04-.69-3.06-1.73-3.06-3.11v-33.28l24,43.14h10.41v-66.99c0-.72,.18-1.29,.55-1.7,.37-.41,1.26-.83,2.69-1.28,.65-.22,1.07-.49,1.26-.8,.18-.31,.28-1.05,.28-2.22,0-1.98-.47-3.02-1.41-3.11Z"/><path class="cls-1" d="M712.48,384.45c-4.39-3.1-9.58-4.65-15.58-4.65-9.39,0-16.85,3.63-22.38,10.89-5.53,7.26-8.3,16.75-8.3,28.48s2.69,20.77,8.08,28c5.39,7.23,12.76,10.85,22.1,10.85,9.84,0,17.46-3.7,22.87-11.1,5.41-7.4,8.11-16.48,8.11-27.23,0-8.96-1.39-16.29-4.16-22.02-2.78-5.72-6.36-10.13-10.75-13.22Zm-10.75,63.1c0,1.35-.46,2.58-1.38,3.68-.92,1.1-2.13,1.65-3.64,1.65-1.35,0-2.51-.49-3.49-1.48-.98-.99-1.47-2.45-1.47-4.36v-56.9c0-1.42,.49-2.61,1.47-3.58,.98-.97,2.16-1.46,3.55-1.46,3.31,0,4.96,1.97,4.96,5.89v56.57Z"/></g></g></svg>