<?xml version="1.0" encoding="UTF-8"?><svg id="_이어_2" xmlns="http://www.w3.org/2000/svg" viewBox="0 0 388.17 388.17"><defs><style>.cls-1{fill:#fff;}</style></defs><g id="_이어_2-2"><g><circle class="cls-1" cx="194.09" cy="194.09" r="194.09"/><g><path d="M260.55,119.58H128.2l103.88-21.9,10.29-2.17,2.2-.47c5.31-1.12,10.48,2.13,11.78,7.4l4.2,17.13Z"/><path d="M226.82,88.56l-116.76,24.62,89.67-51.63c2.31-1.33,5.01-1.68,7.59-.99,2.58,.69,4.73,2.35,6.06,4.66l13.43,23.33Z"/><path d="M254.62,247.07c-11.03,0-20-8.97-20-20v-30c0-11.03,8.97-20,20-20h45.63v-37.5c0-5.51-4.48-10-10-10H95.26c-2,0-3.86,.59-5.43,1.61-.87,.56-1.64,1.25-2.3,2.05-1.42,1.72-2.27,3.93-2.27,6.34v144.99c0,5.51,4.48,10,10,10h194.99c5.51,0,10-4.48,10-10v-37.5h-45.63Z"/><path d="M309.61,187.08h-55c-5.52,0-10,4.48-10,10v30c0,5.52,4.48,10,10,10h55c5.52,0,10-4.48,10-10v-30c0-5.52-4.48-10-10-10Zm-42.14,36.25c-6.21,0-11.25-5.04-11.25-11.25s5.04-11.25,11.25-11.25,11.25,5.04,11.25,11.25-5.04,11.25-11.25,11.25Z"/></g></g></g></svg>