<?xml version="1.0" encoding="UTF-8"?><svg id="_이어_2" xmlns="http://www.w3.org/2000/svg" viewBox="0 0 85.42 99.61"><defs><style>.cls-1{fill:#fff;}</style></defs><g id="_이어_1-2"><g><path class="cls-1" d="M36.88,2.52c-10.88,0-21.4,3.68-29.88,10.29V3.5c0-1.93-1.57-3.5-3.5-3.5S0,1.57,0,3.5V24.32H21.83c1.93,0,3.5-1.57,3.5-3.5s-1.57-3.5-3.5-3.5H12.66c7-5.02,15.47-7.8,24.21-7.8,22.91,0,41.54,18.64,41.54,41.54s-18.64,41.54-41.54,41.54c-10,0-19.65-3.6-27.2-10.14-1.46-1.27-3.67-1.11-4.94,.35-1.27,1.46-1.11,3.67,.35,4.94,8.82,7.64,20.1,11.85,31.78,11.85,26.77,0,48.54-21.78,48.54-48.54S63.64,2.52,36.88,2.52Z"/><path class="cls-1" d="M56.7,71.22c-.67,0-1.34-.19-1.94-.59l-21.91-14.6V31.89c0-1.93,1.57-3.5,3.5-3.5s3.5,1.57,3.5,3.5v20.39l18.79,12.53c1.61,1.07,2.04,3.25,.97,4.85-.67,1.01-1.78,1.56-2.92,1.56Z"/></g></g></svg>