<?xml version="1.0" encoding="UTF-8"?><svg id="_이어_2" xmlns="http://www.w3.org/2000/svg" viewBox="0 0 121.57 81.47"><defs><style>.cls-1{fill:#fff;}</style></defs><g id="_이어_1-2"><g><path class="cls-1" d="M113.84,0H52.8c-4.27,0-7.73,3.46-7.73,7.73v3.02h29.83c6.58,0,11.92,5.35,11.92,11.92v27.16l20.42,11.74c.88,.5,1.82-.54,1.23-1.36l-10.01-13.85h15.38c4.27,0,7.73-3.46,7.73-7.73V7.73c0-4.27-3.46-7.73-7.73-7.73Z"/><path class="cls-1" d="M74.9,14.25H8.42C3.77,14.25,0,18.02,0,22.67V56.34c0,4.65,3.77,8.42,8.42,8.42H25.17l-10.91,15.08c-.65,.89,.38,2.04,1.34,1.49l28.8-16.57h30.5c4.65,0,8.42-3.77,8.42-8.42V22.67c0-4.65-3.77-8.42-8.42-8.42Z"/></g></g></svg>