<?xml version="1.0" encoding="UTF-8"?><svg id="_이어_2" xmlns="http://www.w3.org/2000/svg" viewBox="0 0 165.47 165.47"><defs><style>.cls-1{fill:#fff;}.cls-2{fill:none;stroke:#fff;stroke-miterlimit:10;stroke-width:12px;}</style></defs><g id="_"><g><circle class="cls-2" cx="82.74" cy="82.74" r="76.74"/><path class="cls-1" d="M46.76,34.92h55.09c4.46,0,8.27,.7,11.45,2.1,3.18,1.4,5.78,3.26,7.8,5.57,2.02,2.31,3.49,4.97,4.39,7.98,.91,3.01,1.36,6.17,1.36,9.47s-.46,6.5-1.36,9.59c-.91,3.09-2.37,5.82-4.39,8.17-2.02,2.35-4.62,4.25-7.8,5.69-3.18,1.45-6.99,2.17-11.45,2.17h-22.9v41.47h8.67v3.84H46.76v-3.84h8.67V38.76h-8.67v-3.84Zm42.21,46.17c1.98,0,3.84-.5,5.57-1.49,1.73-.99,3.26-2.39,4.58-4.21,1.32-1.81,2.35-4.02,3.09-6.62,.74-2.6,1.11-5.47,1.11-8.6,0-3.79-.39-7.03-1.18-9.72-.79-2.68-1.86-4.89-3.22-6.62-1.36-1.73-2.97-3.01-4.83-3.84-1.86-.82-3.82-1.24-5.88-1.24h-9.28v42.33h10.03Z"/></g></g></svg>