<?xml version="1.0" encoding="UTF-8"?><svg id="_이어_2" xmlns="http://www.w3.org/2000/svg" viewBox="0 0 419.48 419.48"><defs><style>.cls-1{fill:#fff;}</style></defs><g id="_이어_1-2"><g><path class="cls-1" d="M320.7,125.52c0-.25,0-.49-.03-.74h0v-27.29c.02-.24,.03-.49,.03-.74,0-14.54-32.6-22.15-64.81-22.15s-64.81,7.61-64.81,22.15c0,.38,.03,.76,.07,1.13v3.27c-8.67-1.29-18.13-1.94-27.56-1.94-32.21,0-64.81,7.61-64.81,22.15,0,.38,.03,.76,.07,1.13v26.51c-.02,.18-.04,.37-.05,.55,0,.19-.02,.39-.02,.58s0,.39,.02,.58c0,.18,.03,.37,.05,.55v26.51c-.02,.18-.04,.36-.05,.55s-.02,.38-.02,.57h0c0,.2,0,.39,.02,.58,0,.18,.03,.37,.05,.55v26.51c-.02,.18-.04,.37-.05,.55,0,.19-.02,.39-.02,.58s0,.39,.02,.58c0,.19,.03,.37,.05,.55v26.51c-.02,.18-.04,.37-.05,.55,0,.19-.02,.39-.02,.58s0,.39,.02,.58c0,.18,.03,.37,.05,.55v26.51c-.02,.18-.04,.37-.05,.55,0,.19-.02,.38-.02,.58s0,.39,.02,.58c0,.18,.03,.37,.05,.55v26.51c-.02,.18-.04,.36-.05,.55,0,.19-.02,.38-.02,.57h0c0,.2,0,.39,.02,.58,0,.18,.03,.37,.05,.55v26.51c-.04,.37-.07,.75-.07,1.13,0,14.55,32.6,22.16,64.81,22.16s64.81-7.61,64.81-22.16c0-.25-.01-.49-.03-.74v-3.65c8.66,1.28,18.1,1.94,27.52,1.94,32.21,0,64.81-7.61,64.81-22.15,0-.25,0-.5-.03-.74v-27.28h0c.02-.25,.03-.49,.03-.74s0-.5-.03-.74v-27.28c.02-.24,.03-.49,.03-.74s0-.49-.03-.74v-27.29c.02-.24,.03-.49,.03-.74s0-.49-.03-.74v-27.29c.02-.24,.03-.49,.03-.74s0-.5-.03-.74v-27.29c.02-.24,.03-.49,.03-.74s0-.5-.03-.74v-27.28c.02-.24,.03-.49,.03-.74Zm-114.8,207c-11.25,3.42-26.28,5.3-42.31,5.3s-31.06-1.88-42.31-5.3c-10.68-3.25-15.45-7.26-15.45-9.81h.07v-18.08c.25,.17,.51,.33,.78,.5h0c.26,.17,.53,.33,.8,.49,0,0,.01,0,.02,.01,.27,.16,.54,.31,.82,.47,0,0,0,0,.01,0,.29,.15,.57,.31,.86,.46t0,0c.3,.15,.6,.3,.9,.45h0c.41,.2,.84,.4,1.27,.6,.12,.05,.23,.1,.35,.16,.36,.16,.72,.31,1.09,.47l.2,.08s.06,.02,.09,.04c.39,.16,.79,.32,1.2,.48,0,0,0,0,.01,0,1.32,.51,2.71,.99,4.15,1.44,0,0,.02,0,.03,0,.53,.17,1.06,.33,1.61,.49,.17,.05,.34,.09,.52,.15,.38,.11,.76,.22,1.14,.32,.21,.06,.41,.11,.62,.16,.36,.09,.72,.19,1.09,.28,.22,.06,.44,.11,.66,.16,.15,.04,.31,.08,.46,.11,.16,.04,.31,.07,.47,.11,.4,.09,.81,.19,1.22,.28,.27,.06,.55,.12,.83,.18,.43,.09,.86,.18,1.3,.27,.26,.06,.53,.11,.79,.16,.48,.09,.97,.19,1.46,.28,.22,.04,.45,.09,.67,.13,.72,.13,1.44,.26,2.17,.38,.02,0,.04,0,.06,0,2.3,.38,4.66,.71,7.07,1,.05,0,.09,.01,.14,.02,.78,.09,1.56,.18,2.34,.26,.05,0,.1,0,.15,.02,1.58,.16,3.17,.31,4.78,.43h.21c.77,.08,1.54,.13,2.31,.18,.11,0,.22,.01,.32,.02,.78,.05,1.55,.09,2.33,.14,.06,0,.12,0,.18,0,.77,.04,1.53,.07,2.3,.1,.06,0,.13,0,.19,0,.77,.03,1.53,.05,2.3,.07,.14,0,.28,0,.41,.01,.75,.02,1.5,.03,2.25,.04,.13,0,.25,0,.38,0,.78,0,1.56,.01,2.35,.01s1.57,0,2.35-.01c.13,0,.25,0,.38,0,.75,0,1.5-.02,2.25-.04,.14,0,.28,0,.41-.01,.77-.02,1.53-.04,2.3-.07,.07,0,.13,0,.19,0,.77-.03,1.54-.06,2.3-.1,.06,0,.12,0,.19,0,.78-.04,1.55-.08,2.32-.14,.11,0,.22-.01,.32-.02,.77-.05,1.54-.1,2.31-.16h.21c1.61-.14,3.2-.29,4.78-.45,.05,0,.09-.01,.15-.02,.78-.08,1.56-.17,2.34-.26,.05,0,.09-.01,.14-.02,2.41-.29,4.77-.62,7.07-1,.01,0,.03,0,.05,0,.73-.12,1.46-.25,2.18-.38,.22-.04,.44-.08,.66-.12,.49-.09,.98-.19,1.47-.28,.26-.06,.52-.11,.78-.16,.44-.09,.87-.18,1.3-.27,.28-.06,.55-.12,.83-.18,.41-.09,.82-.19,1.23-.28,.15-.04,.31-.07,.46-.11,.16-.04,.31-.08,.46-.11,.19-.05,.37-.09,.56-.14,.04,0,.07-.02,.11-.03,.36-.09,.72-.19,1.08-.28,.21-.05,.42-.11,.63-.16,.38-.1,.76-.21,1.13-.32,.17-.05,.35-.1,.52-.15,.55-.16,1.08-.32,1.61-.48,.01,0,.02,0,.04-.01,1.44-.45,2.82-.93,4.14-1.44,0,0,.02,0,.02,0,.44-.16,.87-.34,1.29-.51,.08-.03,.17-.07,.25-.11,.04-.01,.08-.03,.11-.05,.06-.02,.12-.05,.18-.08,.49-.21,.97-.42,1.43-.63h0c.31-.15,.63-.3,.94-.44,0,0,0,0,.02,0,.3-.15,.59-.3,.88-.45,0,0,.02,0,.03-.02,.28-.15,.56-.29,.83-.44l.06-.03c.27-.15,.54-.3,.79-.45,.02,0,.04-.02,.06-.03,.26-.15,.52-.31,.77-.47,.01,0,.03-.01,.04-.02,.26-.16,.52-.33,.78-.5v18.1h.03c0,2.54-4.78,6.56-15.45,9.81ZM106.67,161.32s0,0,.01,0c.26,.16,.52,.32,.79,.47,0,0,.01,.01,.02,.02,.27,.16,.54,.31,.82,.46,0,0,.01,0,.02,.01,.28,.15,.57,.31,.86,.46,0,0,0,0,.01,0,.3,.16,.59,.31,.9,.45,0,0,0,0,0,0,.93,.45,1.9,.88,2.91,1.3,.42,.17,.86,.34,1.29,.51,0,0,.01,0,.02,0,1.32,.5,2.7,.98,4.14,1.43,.01,0,.03,0,.04,.01,1.35,.42,2.75,.82,4.19,1.2,.62,.16,1.25,.32,1.9,.48,2.82,.68,5.81,1.28,8.91,1.79,.02,0,.04,0,.06,0,2.3,.38,4.66,.71,7.06,1,.05,0,.1,.01,.15,.02,.78,.09,1.55,.18,2.34,.26h.15c1.57,.18,3.17,.32,4.77,.45,.08,0,.15,.01,.22,.02,.76,.06,1.53,.11,2.3,.16,.11,0,.23,.01,.33,.02,.77,.05,1.54,.09,2.32,.13,.07,0,.13,0,.2,0,.76,.04,1.52,.07,2.28,.1,.07,0,.14,0,.2,0,.76,.03,1.53,.05,2.29,.08,.14,0,.28,0,.42,0,.75,.02,1.49,.03,2.24,.04,.13,0,.26,0,.39,0,.78,0,1.56,.01,2.34,.01s1.56,0,2.34-.01c.13,0,.26,0,.39,0,.75,0,1.49-.02,2.25-.04,.14,0,.28,0,.42,0,.77-.02,1.53-.05,2.29-.08,.07,0,.14,0,.2,0,.76-.03,1.53-.07,2.29-.1,.06,0,.13,0,.19,0,.78-.04,1.55-.08,2.32-.13,.11,0,.22-.01,.33-.02,.77-.05,1.54-.1,2.3-.16,.07,0,.15-.01,.22-.02,1.61-.12,3.2-.27,4.77-.43,.05,0,.1,0,.16-.01,.78-.08,1.56-.17,2.33-.26,.05,0,.1,0,.15-.02,1.56-.18,3.1-.4,4.61-.62,.82-.12,1.64-.24,2.45-.38,.02,0,.04,0,.06,0,1.55-.25,3.06-.53,4.54-.83,1.49-.3,2.95-.62,4.37-.96,.31-.08,.6-.15,.9-.23,.04,0,.08-.02,.12-.03,1.75-.44,3.45-.91,5.07-1.42h.04c1.44-.47,2.82-.94,4.14-1.45h.03c.44-.18,.86-.35,1.29-.52l.37-.16c.22-.09,.43-.18,.64-.27,.33-.14,.65-.29,.97-.43,0,0,0,0,0,0,.31-.15,.62-.29,.93-.44,0,0,.01,0,.02,0,.3-.15,.59-.29,.88-.44,.01,0,.03-.01,.04-.02,.28-.15,.55-.29,.82-.44,.02,0,.04-.02,.06-.03,.27-.15,.53-.3,.79-.45,.02,0,.04-.02,.06-.03,.26-.15,.52-.31,.77-.47l.04-.03c.26-.16,.52-.33,.78-.5v18.44c-.08,.51-.34,1.08-.78,1.68-.45,.6-1.08,1.23-1.91,1.88-.02,.01-.04,.03-.06,.05-.1,.08-.2,.16-.31,.23-.03,.03-.07,.05-.1,.08-.1,.07-.2,.15-.31,.22l-.14,.1c-.1,.07-.2,.14-.31,.21l-.17,.11c-.1,.07-.21,.13-.31,.2-.07,.04-.13,.08-.2,.12-.1,.06-.21,.13-.31,.19-.08,.05-.15,.09-.23,.14-.1,.06-.21,.12-.32,.18-.08,.05-.16,.1-.25,.15-.11,.06-.22,.12-.32,.17-.09,.05-.18,.1-.28,.15-.11,.06-.22,.12-.33,.17-.1,.05-.2,.1-.3,.15l-.34,.17c-.11,.05-.21,.1-.32,.16-.12,.06-.23,.11-.35,.16-.11,.05-.23,.1-.34,.16-.12,.05-.24,.11-.36,.16-.12,.06-.24,.11-.37,.16-.12,.05-.24,.11-.36,.16-.13,.05-.26,.11-.39,.16-.13,.05-.25,.1-.38,.15-.14,.06-.28,.11-.41,.17-.13,.05-.25,.1-.39,.15-.15,.06-.3,.11-.44,.17-.13,.05-.26,.1-.39,.15-.16,.06-.31,.11-.47,.17-.13,.05-.26,.09-.39,.14-.17,.06-.34,.12-.52,.18-.13,.04-.25,.08-.38,.13-.2,.07-.39,.13-.6,.2-.11,.04-.22,.07-.33,.11-.29,.09-.58,.18-.88,.27l-.08,.03s-.02,0-.03,0c-.51,.16-1.04,.3-1.56,.45-.05,.01-.09,.03-.14,.04-.53,.15-1.07,.3-1.61,.44-2.26,.59-4.66,1.12-7.15,1.6-1.39,.27-2.81,.51-4.26,.74-3.05,.48-6.24,.88-9.53,1.19-.39,.04-.78,.08-1.17,.11-1.29,.12-2.59,.22-3.9,.3-.11,0-.22,.01-.33,.02-1.33,.08-2.68,.16-4.04,.22-.02,0-.05,0-.07,0-1.24,.05-2.48,.09-3.73,.12-.3,0-.6,.01-.9,.02-1.29,.02-2.58,.04-3.89,.04s-2.6-.02-3.89-.04c-.3,0-.6-.01-.9-.02-1.25-.03-2.49-.07-3.72-.12-.03,0-.05,0-.08,0-1.36-.06-2.7-.13-4.04-.22-.11,0-.22-.01-.33-.02-1.31-.08-2.61-.18-3.9-.3-.43-.04-.86-.08-1.29-.12-5.36-.51-10.44-1.25-15.12-2.21-1.98-.4-3.89-.84-5.71-1.31-.55-.14-1.08-.29-1.61-.44-.57-.16-1.15-.32-1.7-.49,0,0-.02,0-.03,0-.02,0-.04-.01-.05-.02-.31-.09-.6-.18-.9-.28-.11-.03-.21-.07-.32-.1-.2-.07-.4-.13-.6-.2l-.37-.13c-.17-.06-.35-.12-.52-.17-.13-.05-.25-.09-.38-.14-.16-.06-.32-.12-.48-.17-.13-.05-.25-.09-.38-.14-.15-.06-.3-.11-.45-.17-.13-.05-.25-.09-.37-.14l-.42-.17c-.12-.05-.24-.1-.36-.15-.14-.06-.27-.11-.4-.17-.12-.05-.23-.1-.35-.15-.13-.06-.26-.11-.39-.17-.11-.05-.22-.1-.33-.15-.12-.05-.24-.11-.37-.16-.11-.05-.22-.1-.32-.15-.12-.06-.23-.11-.34-.17-.11-.05-.21-.1-.31-.15-.11-.06-.22-.11-.32-.16-.1-.05-.2-.1-.3-.16-.1-.05-.21-.11-.31-.16-.1-.05-.2-.1-.29-.16-.09-.05-.18-.1-.27-.15-.39-.23-.77-.45-1.12-.67-.06-.04-.13-.08-.19-.12-.1-.06-.2-.13-.29-.19-.06-.04-.12-.08-.18-.12-.09-.06-.18-.13-.28-.19-.06-.04-.11-.08-.17-.12-.08-.06-.17-.13-.26-.19l-.16-.11c-.08-.07-.16-.13-.24-.19-.05-.04-.09-.08-.14-.11-.08-.06-.16-.13-.23-.19-.04-.03-.08-.07-.12-.1-.08-.07-.15-.13-.22-.2-.04-.03-.07-.07-.11-.1-.07-.07-.14-.13-.21-.2-.03-.03-.06-.06-.09-.09-.07-.07-.14-.14-.2-.2-.02-.03-.05-.05-.07-.08-.07-.08-.13-.15-.19-.22-.02-.02-.03-.04-.05-.06-.07-.08-.13-.16-.18-.23,0,0-.01-.01-.02-.02-.09-.12-.17-.24-.25-.36-.02-.03-.03-.06-.05-.09-.07-.1-.13-.21-.18-.31,0-.01-.02-.03-.02-.04-.06-.12-.11-.23-.15-.35,0-.01-.01-.03-.02-.05-.04-.1-.07-.21-.1-.31,0,0,0-.01,0-.02v-18.63c.25,.17,.51,.34,.78,.5Zm-.78-10.64v-18.62c2.03,1.35,4.43,2.58,7.14,3.69,3.42,1.4,7.32,2.62,11.58,3.65,11.34,2.73,25.19,4.13,38.97,4.13,9.43,0,18.89-.65,27.56-1.94,2.42-.36,4.77-.77,7.05-1.22,1.49-.3,2.95-.62,4.37-.96,.34-.08,.68-.17,1.02-.25,3.86-.97,7.42-2.11,10.56-3.39l.37-.16c2.58-1.08,4.87-2.27,6.81-3.57v18.45c-.16,1.02-1.04,2.25-2.69,3.56-.02,.01-.04,.03-.06,.05-.1,.08-.2,.16-.31,.23-.04,.03-.07,.05-.11,.08-.1,.07-.2,.15-.31,.22l-.14,.1c-.1,.07-.2,.14-.3,.21-.06,.04-.12,.08-.17,.11-.1,.07-.2,.13-.31,.2-.07,.04-.14,.08-.2,.13l-.31,.18c-.08,.05-.15,.09-.23,.14-.1,.06-.21,.12-.31,.18-.08,.05-.17,.1-.26,.15-.1,.06-.21,.12-.31,.17-.09,.05-.19,.1-.28,.15-.11,.06-.22,.11-.33,.17-.1,.05-.2,.1-.3,.16-.11,.06-.23,.11-.34,.16-.11,.05-.22,.1-.32,.16-.11,.05-.23,.11-.34,.16-.12,.06-.23,.11-.35,.16-.11,.06-.23,.11-.35,.16-.12,.06-.25,.11-.37,.16-.12,.05-.24,.1-.36,.16-.13,.06-.27,.11-.4,.16-.12,.05-.24,.1-.37,.15-.14,.06-.28,.11-.43,.17-.12,.05-.24,.1-.37,.15-.15,.06-.31,.11-.46,.17-.13,.05-.25,.09-.38,.14-.16,.06-.32,.12-.49,.18-.13,.04-.25,.09-.38,.13-.18,.06-.36,.12-.54,.19-.12,.04-.23,.08-.36,.12-.2,.07-.41,.14-.62,.2-.1,.03-.2,.07-.31,.1-.31,.1-.63,.2-.96,.3-.52,.16-1.06,.31-1.59,.46-.05,.01-.09,.03-.14,.04-.53,.15-1.07,.29-1.61,.43-1.27,.33-2.59,.64-3.94,.94-2.38,.52-4.88,.99-7.47,1.4-3.05,.48-6.24,.88-9.53,1.2-.39,.04-.78,.08-1.17,.11-1.28,.11-2.58,.21-3.9,.3-.11,0-.23,.02-.34,.02-1.33,.08-2.67,.16-4.03,.22h-.08c-1.23,.06-2.47,.09-3.72,.12-.3,0-.6,.01-.9,.02-1.29,.03-2.58,.04-3.89,.04s-2.6-.01-3.89-.04c-.3,0-.6-.01-.9-.02-1.25-.03-2.49-.07-3.72-.12h-.08c-1.36-.06-2.7-.14-4.03-.22-.11,0-.23-.01-.33-.02-1.32-.08-2.61-.18-3.9-.3-.43-.04-.86-.08-1.29-.13-6.39-.61-12.39-1.55-17.78-2.78-1.04-.24-2.06-.48-3.05-.74-.55-.14-1.08-.29-1.61-.43-.58-.16-1.17-.33-1.73-.5-.32-.1-.64-.2-.95-.3-.1-.03-.2-.07-.31-.1-.21-.07-.41-.13-.62-.2-.12-.04-.23-.08-.35-.12-.18-.06-.36-.12-.53-.18-.13-.05-.25-.09-.37-.13-.16-.06-.33-.12-.49-.18-.12-.04-.24-.09-.37-.14-.15-.06-.31-.11-.46-.17-.12-.04-.24-.09-.36-.14-.15-.06-.29-.12-.43-.17-.12-.05-.23-.09-.35-.14-.14-.06-.28-.12-.41-.17-.11-.05-.23-.09-.34-.15-.13-.06-.26-.11-.39-.17-.11-.05-.22-.1-.33-.15-.13-.06-.25-.11-.38-.17-.1-.05-.21-.09-.31-.15-.12-.06-.23-.11-.35-.17-.1-.05-.21-.1-.31-.15-.11-.06-.22-.11-.33-.16-.1-.05-.2-.1-.3-.15-.11-.06-.21-.11-.31-.17-.09-.05-.19-.1-.28-.15-.1-.06-.19-.11-.29-.16-.39-.22-.75-.43-1.09-.65-.07-.04-.13-.08-.2-.12-.1-.07-.19-.13-.29-.19-.06-.04-.13-.08-.18-.12-.09-.06-.18-.12-.27-.19-.06-.04-.12-.08-.17-.12-.08-.06-.17-.13-.25-.19-.06-.04-.11-.08-.16-.12-.08-.07-.16-.13-.24-.19l-.14-.11c-.08-.06-.15-.13-.23-.19-.04-.04-.08-.08-.12-.11-.08-.07-.15-.13-.22-.2-.04-.03-.07-.07-.11-.1-.07-.07-.14-.13-.21-.2-.03-.03-.06-.06-.09-.09-.07-.07-.14-.14-.2-.2-.02-.02-.05-.05-.07-.08-.07-.08-.13-.15-.19-.22-.02-.02-.03-.04-.05-.06-.07-.08-.13-.15-.18-.23,0,0-.01-.02-.02-.03-.09-.12-.17-.24-.25-.36-.02-.03-.04-.06-.06-.09-.06-.1-.12-.21-.18-.31,0,0-.01-.02-.02-.04-.06-.12-.11-.23-.15-.35,0-.01-.01-.03-.02-.05-.04-.1-.07-.21-.1-.31,0,0,0-.01,0-.02Zm.78,39.4h0c.26,.17,.53,.33,.8,.49,0,0,.01,0,.02,.01,.27,.16,.54,.31,.82,.47,0,0,0,0,.01,0,.29,.16,.57,.31,.86,.46t0,0c.3,.15,.6,.3,.9,.45h0c.93,.45,1.9,.89,2.91,1.3,.43,.18,.86,.35,1.3,.52,0,0,0,0,.01,0,1.32,.51,2.71,.99,4.15,1.44,0,0,.02,0,.03,0,1.45,.46,2.96,.88,4.51,1.29,.52,.13,1.05,.26,1.58,.39,.7,.17,1.42,.34,2.15,.5,2.18,.48,4.44,.91,6.76,1.3,.02,0,.04,0,.06,0,2.3,.38,4.66,.71,7.07,1,.05,0,.09,.01,.14,.02,.78,.09,1.56,.18,2.34,.26,.05,0,.1,.01,.15,.02,1.58,.16,3.17,.31,4.78,.43h.21c.77,.08,1.54,.13,2.31,.18,.11,0,.22,.01,.32,.02,.78,.05,1.55,.09,2.33,.14,.06,0,.12,0,.18,0,.77,.04,1.53,.07,2.3,.1,.06,0,.13,0,.19,0,.77,.03,1.53,.05,2.3,.07,.14,0,.28,0,.41,.01,.75,.02,1.5,.03,2.25,.04,.13,0,.25,0,.38,0,.78,0,1.56,.01,2.35,.01s1.57,0,2.35-.01c.13,0,.25,0,.38,0,.75,0,1.5-.02,2.25-.04,.14,0,.28,0,.41-.01,.77-.02,1.53-.04,2.3-.07,.07,0,.13,0,.19,0,.77-.03,1.54-.06,2.3-.1,.06,0,.12,0,.19,0,.78-.04,1.55-.08,2.32-.14,.11,0,.22-.01,.32-.02,.77-.05,1.54-.1,2.31-.16h.21c1.61-.14,3.2-.28,4.78-.45,.05,0,.09-.01,.15-.02,.78-.08,1.56-.17,2.34-.26,.05,0,.09-.01,.14-.02,1.56-.19,3.1-.4,4.62-.62,.82-.12,1.64-.24,2.45-.38,.01,0,.03,0,.05,0,1.55-.25,3.06-.54,4.54-.83,1.49-.3,2.95-.62,4.37-.96,.34-.08,.68-.17,1.02-.25,1.76-.44,3.45-.91,5.07-1.42,.01,0,.02,0,.04-.01,1.44-.45,2.82-.93,4.14-1.44,0,0,.02,0,.02,0,.44-.16,.87-.34,1.29-.51,.12-.05,.24-.1,.37-.16,.55-.23,1.09-.47,1.62-.7h0c.31-.15,.63-.3,.94-.44,0,0,0,0,.02,0,.3-.15,.59-.3,.88-.45,0,0,.02,0,.03-.01,.28-.15,.56-.3,.83-.45l.06-.03c.27-.15,.54-.3,.79-.45,.02,0,.04-.02,.06-.03,.26-.15,.52-.31,.77-.47,.01,0,.03-.01,.04-.02,.26-.16,.52-.33,.78-.5v18.44c-.08,.51-.34,1.08-.78,1.67-.45,.6-1.08,1.24-1.9,1.88-.02,.02-.04,.03-.06,.05-.1,.08-.2,.16-.31,.23-.04,.03-.07,.06-.11,.08-.1,.08-.2,.15-.31,.22-.05,.04-.09,.07-.14,.1-.1,.07-.2,.14-.3,.2-.06,.04-.12,.08-.17,.12-.1,.07-.2,.13-.31,.19-.07,.04-.14,.08-.2,.13-.1,.06-.21,.13-.31,.19-.08,.04-.15,.09-.23,.14-.1,.06-.21,.12-.31,.18-.08,.05-.17,.09-.26,.14-.1,.06-.21,.12-.31,.18-.09,.05-.19,.1-.28,.15-.11,.06-.22,.11-.33,.17-.1,.05-.2,.1-.3,.15l-.34,.17-.32,.16c-.11,.06-.23,.11-.34,.16-.12,.05-.23,.1-.35,.16-.11,.05-.23,.1-.35,.16-.12,.05-.25,.11-.37,.16-.12,.05-.24,.1-.36,.16-.13,.06-.27,.11-.4,.17-.12,.05-.24,.1-.37,.15-.14,.06-.28,.11-.43,.17-.12,.05-.24,.1-.37,.15-.15,.06-.31,.11-.46,.17-.13,.05-.25,.1-.38,.15-.16,.06-.32,.12-.49,.17-.13,.05-.25,.09-.38,.14-.18,.06-.36,.12-.54,.18-.12,.04-.23,.08-.36,.12-.2,.07-.41,.14-.62,.2-.1,.04-.2,.07-.31,.1-.31,.1-.63,.2-.96,.3-.52,.16-1.06,.31-1.59,.46-.05,.01-.09,.02-.14,.04-.53,.15-1.07,.29-1.61,.43-3.52,.92-7.35,1.7-11.41,2.34-3.42,.54-7,.98-10.7,1.31-1.28,.11-2.58,.21-3.9,.3-.11,0-.23,.01-.34,.02-1.33,.08-2.67,.16-4.03,.22-.03,0-.06,0-.08,0-1.23,.05-2.47,.09-3.72,.12-.3,0-.6,.01-.9,.02-1.29,.02-2.58,.04-3.89,.04s-2.6-.02-3.89-.04c-.3,0-.6-.01-.9-.02-1.25-.03-2.49-.07-3.72-.12-.03,0-.06,0-.08,0-1.36-.06-2.7-.13-4.03-.22-.11,0-.23-.02-.33-.02-1.32-.09-2.61-.19-3.9-.3-4.06-.36-7.96-.85-11.67-1.46-3.71-.61-7.2-1.34-10.45-2.19-.55-.14-1.08-.28-1.61-.43-.58-.16-1.17-.33-1.73-.5-.32-.1-.64-.2-.95-.3-.1-.03-.2-.07-.31-.1-.21-.07-.41-.14-.62-.2-.12-.04-.23-.08-.35-.12-.18-.06-.36-.12-.53-.18-.13-.04-.25-.08-.37-.13-.16-.06-.33-.12-.49-.17-.12-.05-.24-.09-.37-.14-.15-.06-.31-.12-.46-.17-.12-.05-.24-.09-.36-.14-.15-.06-.29-.11-.43-.17-.12-.05-.23-.09-.35-.14-.14-.06-.28-.11-.41-.17-.11-.05-.23-.1-.34-.15-.13-.06-.26-.11-.39-.17-.11-.05-.22-.1-.33-.15-.13-.06-.25-.11-.38-.17-.1-.05-.21-.1-.31-.15-.12-.06-.23-.11-.35-.17-.1-.05-.21-.1-.31-.15-.11-.06-.22-.11-.33-.17-.1-.05-.2-.1-.3-.15-.11-.06-.21-.11-.31-.17-.09-.05-.19-.1-.28-.15-.1-.05-.19-.11-.29-.16-.39-.22-.75-.44-1.09-.65-.07-.04-.13-.08-.2-.12-.1-.06-.19-.13-.29-.19-.06-.04-.13-.08-.18-.12-.09-.07-.18-.13-.27-.19-.06-.04-.12-.08-.17-.12-.08-.07-.17-.13-.25-.19-.06-.04-.11-.08-.16-.12-.08-.07-.16-.13-.24-.19l-.14-.11c-.08-.07-.15-.13-.23-.19-.04-.04-.08-.07-.12-.11-.08-.07-.15-.13-.22-.19-.04-.03-.07-.07-.11-.1-.07-.07-.14-.14-.21-.2l-.09-.09c-.07-.07-.14-.14-.2-.21-.02-.02-.05-.05-.07-.08-.07-.07-.13-.14-.19-.21-.02-.02-.03-.04-.05-.06-.07-.08-.13-.15-.18-.23,0,0-.01-.02-.02-.02-.09-.12-.17-.24-.25-.36-.02-.03-.04-.06-.05-.08-.07-.1-.13-.21-.18-.31,0-.01-.01-.03-.02-.04-.06-.12-.11-.23-.15-.35,0-.01-.01-.03-.02-.04-.04-.11-.07-.21-.1-.31,0,0,0-.01,0-.02v-18.63c.25,.17,.51,.33,.78,.5Zm0,28.77s0,0,.01,0c.26,.16,.52,.32,.79,.48,0,0,.01,0,.02,.01,.27,.16,.54,.31,.82,.47,0,0,.01,0,.02,0,.28,.16,.57,.31,.86,.46,0,0,0,0,.01,0,.3,.15,.59,.3,.9,.45h0c.93,.45,1.9,.88,2.91,1.3,.42,.17,.86,.35,1.29,.51,0,0,.01,0,.02,0,1.32,.5,2.7,.98,4.14,1.44,.01,0,.03,0,.04,0,1.09,.34,2.23,.67,3.38,.98,.88,.24,1.79,.47,2.71,.7,.7,.17,1.42,.33,2.15,.49,2.18,.48,4.44,.92,6.76,1.3,.02,0,.04,0,.06,0,2.3,.38,4.66,.71,7.06,1,.05,0,.1,0,.15,.02,.78,.09,1.55,.18,2.34,.26h.15c1.57,.18,3.17,.32,4.77,.45,.08,0,.15,0,.22,.01,.76,.06,1.53,.11,2.3,.16,.11,0,.23,.01,.33,.02,.77,.05,1.54,.09,2.32,.13,.07,0,.13,0,.2,0,.76,.04,1.52,.08,2.28,.1,.07,0,.14,0,.2,0,.76,.03,1.53,.05,2.29,.07,.14,0,.28,0,.42,0,.75,.02,1.49,.03,2.24,.05h.39c.78,0,1.56,.02,2.34,.02s1.56,0,2.34-.02h.39c.75-.01,1.49-.03,2.25-.05,.14,0,.28,0,.42,0,.77-.02,1.53-.04,2.29-.07,.07,0,.14,0,.2,0,.76-.03,1.53-.06,2.29-.1,.06,0,.13,0,.19,0,.78-.04,1.55-.08,2.32-.13,.11,0,.22-.01,.33-.02,.77-.05,1.54-.1,2.3-.16,.07,0,.15,0,.22-.01,1.61-.13,3.2-.27,4.77-.44,.05,0,.1,0,.16-.01,.78-.08,1.56-.17,2.33-.26,.05,0,.1-.01,.15-.02,1.56-.19,3.1-.4,4.61-.62,.82-.12,1.64-.24,2.45-.38,.02,0,.04,0,.06,0,1.55-.26,3.06-.54,4.54-.83,1.49-.3,2.95-.62,4.37-.96,.34-.08,.68-.17,1.02-.25,1.75-.44,3.45-.92,5.07-1.42h.04c1.44-.47,2.82-.94,4.14-1.45,0,0,.02,0,.03,0,.44-.17,.86-.34,1.29-.51,.12-.05,.24-.1,.37-.16,.22-.09,.43-.18,.64-.27,.33-.15,.65-.29,.97-.44,0,0,0,0,0,0,.31-.15,.62-.29,.93-.44,0,0,.01,0,.02-.01,.3-.15,.59-.29,.88-.44,.01,0,.03,0,.04-.02,.28-.15,.55-.29,.82-.44,.02-.01,.04-.02,.06-.03,.27-.15,.53-.3,.79-.45,.02-.01,.04-.02,.06-.04,.26-.15,.52-.31,.77-.46l.04-.03c.26-.16,.52-.33,.78-.5v18.45c-.08,.51-.34,1.08-.78,1.67-.45,.6-1.08,1.24-1.9,1.88-.02,.01-.04,.03-.06,.05-.1,.08-.2,.16-.31,.23-.04,.03-.07,.05-.11,.08-.1,.07-.2,.15-.31,.22-.05,.03-.09,.07-.14,.1-.1,.07-.2,.14-.3,.2-.06,.04-.12,.08-.17,.11-.1,.07-.2,.13-.31,.2-.07,.04-.14,.08-.2,.13-.1,.06-.21,.12-.31,.19-.08,.04-.15,.09-.23,.13-.1,.06-.21,.12-.31,.18-.08,.05-.17,.09-.26,.14-.1,.06-.21,.12-.31,.17-.09,.05-.19,.1-.28,.15-.11,.06-.22,.11-.33,.17-.1,.05-.2,.1-.3,.16-.11,.06-.23,.11-.34,.16-.11,.06-.22,.11-.32,.16-.11,.05-.23,.11-.34,.16-.12,.06-.23,.11-.35,.16-.11,.06-.23,.11-.35,.16-.12,.06-.25,.11-.37,.16-.12,.05-.24,.1-.36,.16-.13,.06-.27,.11-.4,.17-.12,.05-.24,.1-.37,.15-.14,.06-.28,.11-.43,.17-.12,.05-.24,.09-.37,.15-.15,.06-.31,.11-.46,.17-.13,.05-.25,.09-.38,.14-.16,.06-.32,.12-.49,.18-.13,.04-.25,.09-.38,.13-.18,.07-.36,.13-.54,.19-.12,.04-.23,.08-.36,.12-.2,.07-.41,.14-.62,.2-.1,.03-.2,.07-.31,.1-.31,.1-.63,.2-.96,.3-.52,.16-1.06,.31-1.59,.47-.05,0-.09,.02-.14,.04-.53,.15-1.07,.29-1.61,.43-1.78,.47-3.65,.89-5.58,1.29-1.88,.39-3.83,.74-5.84,1.06-3.42,.54-7,.97-10.7,1.3-1.28,.11-2.58,.21-3.9,.3-.11,0-.23,.01-.34,.02-1.33,.09-2.67,.16-4.03,.22-.03,0-.06,0-.08,0-1.23,.05-2.47,.09-3.72,.12-.3,0-.6,.01-.9,.02-1.29,.03-2.58,.04-3.89,.04s-2.6-.01-3.89-.04c-.3,0-.6,0-.9-.02-1.25-.03-2.49-.07-3.72-.12-.03,0-.06,0-.08,0-1.36-.06-2.7-.13-4.03-.22-.11,0-.23-.01-.33-.02-1.32-.09-2.61-.19-3.9-.3-3.04-.27-6-.61-8.85-1.02-2.85-.41-5.6-.89-8.21-1.44-1.74-.36-3.43-.76-5.05-1.18-.55-.14-1.08-.29-1.61-.43-.58-.16-1.17-.33-1.73-.5-.32-.1-.64-.2-.95-.3-.1-.03-.2-.07-.31-.1-.21-.07-.41-.13-.62-.2-.12-.04-.23-.08-.35-.12-.18-.06-.36-.12-.53-.18-.13-.04-.25-.09-.37-.13-.16-.06-.33-.12-.49-.18-.12-.04-.24-.09-.37-.14-.15-.06-.31-.11-.46-.17-.12-.05-.24-.09-.36-.14-.15-.06-.29-.12-.43-.17-.12-.05-.23-.09-.35-.14-.14-.06-.28-.11-.41-.17-.11-.05-.23-.09-.34-.14-.13-.06-.26-.12-.39-.17-.11-.05-.22-.09-.33-.15-.13-.06-.25-.11-.38-.17-.1-.05-.21-.1-.31-.15-.12-.06-.23-.11-.35-.17-.1-.05-.21-.1-.31-.15-.11-.06-.22-.11-.33-.17-.1-.05-.2-.1-.3-.15-.11-.06-.21-.11-.31-.17-.09-.05-.19-.1-.28-.15-.1-.06-.19-.11-.29-.16-.39-.22-.75-.43-1.09-.65-.07-.04-.13-.08-.2-.12-.1-.07-.19-.13-.29-.19-.06-.04-.13-.08-.18-.13-.09-.06-.18-.12-.27-.19-.06-.04-.12-.08-.17-.12-.08-.06-.17-.12-.25-.19-.06-.04-.11-.08-.16-.12-.08-.06-.16-.13-.24-.19l-.14-.11c-.08-.07-.15-.13-.23-.19-.04-.04-.08-.07-.12-.11-.08-.07-.15-.13-.22-.2-.04-.03-.07-.07-.11-.1-.07-.07-.14-.13-.21-.2l-.09-.09c-.07-.07-.14-.14-.2-.21-.02-.02-.05-.05-.07-.08-.07-.07-.13-.15-.19-.22-.02-.02-.03-.04-.05-.06-.07-.08-.13-.15-.18-.23,0,0-.01-.02-.02-.03-.09-.12-.17-.24-.25-.36-.02-.03-.04-.06-.05-.08-.07-.11-.13-.21-.18-.31,0,0-.01-.02-.02-.04-.06-.12-.11-.23-.15-.35,0-.01-.01-.03-.02-.04-.04-.11-.07-.21-.1-.31,0,0,0-.01,0-.02v-18.62c.25,.17,.51,.33,.78,.5Zm0,28.77s0,0,.01,0c.26,.16,.52,.32,.79,.48,0,0,.01,0,.02,.01,.27,.16,.54,.31,.82,.46,0,0,.01,0,.02,.01,.28,.16,.57,.31,.86,.46,0,0,0,0,.01,0,.3,.15,.59,.3,.9,.45h0c.93,.46,1.9,.89,2.91,1.31,.42,.17,.86,.34,1.29,.51,0,0,.01,0,.02,0,1.32,.5,2.7,.98,4.14,1.44,.01,0,.03,0,.04,0,1.93,.61,3.97,1.17,6.09,1.68,2.82,.68,5.81,1.28,8.91,1.79h.06c2.3,.39,4.66,.72,7.06,1.01,.05,0,.1,.01,.15,.02,.78,.09,1.55,.18,2.34,.26h.15c1.57,.18,3.17,.32,4.77,.45,.08,0,.15,.01,.22,.02,.76,.06,1.53,.11,2.3,.16,.11,0,.23,.01,.33,.02,.77,.05,1.54,.09,2.32,.13,.07,0,.13,0,.2,0,.76,.04,1.52,.07,2.28,.1,.07,0,.14,0,.2,0,.76,.03,1.53,.06,2.29,.08,.14,0,.28,0,.42,0,.75,.02,1.49,.03,2.24,.04,.13,0,.26,0,.39,0,.78,0,1.56,.01,2.34,.01s1.56,0,2.34-.01c.13,0,.26,0,.39,0,.75,0,1.49-.02,2.25-.04,.14,0,.28,0,.42,0,.77-.02,1.53-.04,2.29-.08,.07,0,.14,0,.2,0,.76-.03,1.53-.07,2.29-.1,.06,0,.13,0,.19,0,.78-.04,1.55-.08,2.32-.13,.11,0,.22-.01,.33-.02,.77-.05,1.54-.1,2.3-.16,.07,0,.15-.01,.22-.02,1.61-.12,3.2-.27,4.77-.43,.05,0,.1,0,.16-.01,.78-.08,1.56-.17,2.33-.26,.05,0,.1,0,.15-.02,1.56-.18,3.1-.4,4.61-.62,.82-.12,1.64-.24,2.45-.38,.02,0,.04,0,.06,0,1.55-.25,3.06-.53,4.54-.83,1.49-.3,2.95-.62,4.37-.96,.34-.08,.68-.17,1.02-.25,.71-.18,1.41-.36,2.1-.55,1.02-.28,2.01-.57,2.97-.87h.04c1.44-.47,2.82-.94,4.14-1.45,0,0,.02,0,.03,0,.44-.17,.86-.34,1.29-.51l.37-.16c.22-.09,.43-.18,.64-.27,.33-.14,.65-.29,.97-.43,0,0,0,0,0,0,.31-.15,.62-.29,.93-.44,0,0,.01,0,.02-.01,.3-.15,.59-.29,.88-.44,.01,0,.03-.01,.04-.02,.28-.15,.55-.29,.82-.44,.02,0,.04-.02,.06-.03,.27-.15,.53-.3,.79-.45,.02,0,.04-.02,.06-.03,.26-.16,.52-.31,.77-.47l.04-.03c.26-.16,.52-.33,.78-.5v18.45c-.16,1.02-1.04,2.25-2.69,3.56-.02,.01-.04,.03-.06,.05-.1,.08-.2,.16-.31,.23-.04,.03-.07,.05-.11,.08-.1,.07-.2,.15-.31,.22l-.14,.1c-.1,.07-.2,.14-.3,.21-.06,.04-.12,.08-.17,.11-.1,.07-.2,.13-.31,.2-.07,.04-.14,.08-.2,.12-.1,.07-.21,.13-.31,.19-.08,.05-.15,.09-.23,.14-.1,.06-.21,.12-.31,.18-.08,.05-.17,.1-.26,.15-.1,.06-.21,.12-.31,.17-.09,.05-.19,.1-.28,.15-.11,.06-.22,.11-.33,.17-.1,.05-.2,.1-.3,.16-.11,.05-.23,.11-.34,.16-.11,.05-.22,.1-.32,.16-.11,.05-.23,.11-.34,.16-.12,.06-.23,.11-.35,.16-.11,.06-.23,.11-.35,.16-.12,.06-.25,.11-.37,.16-.12,.05-.24,.1-.36,.16-.13,.06-.27,.11-.4,.16-.12,.05-.24,.1-.37,.15-.14,.06-.28,.11-.43,.17-.12,.05-.24,.1-.37,.15-.15,.06-.31,.12-.46,.17-.13,.05-.25,.09-.38,.14-.16,.06-.32,.12-.49,.18-.13,.04-.25,.09-.38,.13-.18,.06-.36,.12-.54,.18-.12,.04-.23,.08-.36,.13-.2,.07-.41,.14-.62,.2-.1,.03-.2,.07-.31,.1-.31,.1-.63,.2-.96,.3-.52,.16-1.06,.31-1.59,.46-.05,.01-.09,.03-.14,.04-.53,.15-1.07,.29-1.61,.43-3.52,.92-7.35,1.7-11.41,2.34-3.42,.54-7,.98-10.7,1.31-1.28,.11-2.58,.21-3.9,.3-.11,0-.23,.02-.34,.02-1.33,.08-2.67,.16-4.03,.22h-.08c-1.23,.05-2.47,.09-3.72,.12-.3,0-.6,.01-.9,.02-1.29,.02-2.58,.04-3.89,.04s-2.6-.02-3.89-.04c-.3,0-.6-.01-.9-.02-1.25-.03-2.49-.07-3.72-.12h-.08c-1.36-.06-2.7-.14-4.03-.22-.11,0-.23-.01-.33-.02-1.32-.08-2.61-.18-3.9-.3-8.11-.71-15.63-1.95-22.12-3.65-.55-.14-1.08-.29-1.61-.43-.58-.16-1.17-.33-1.73-.5-.32-.1-.64-.2-.95-.3-.1-.03-.2-.07-.31-.1-.21-.07-.41-.14-.62-.2-.12-.04-.23-.08-.35-.12-.18-.06-.36-.12-.53-.18-.13-.05-.25-.09-.37-.13-.16-.06-.33-.12-.49-.18-.12-.04-.24-.09-.37-.14-.15-.06-.31-.11-.46-.17-.12-.05-.24-.09-.36-.14-.15-.06-.29-.11-.43-.17-.12-.05-.23-.09-.35-.14-.14-.06-.28-.12-.41-.17-.11-.05-.23-.09-.34-.15-.13-.06-.26-.11-.39-.17-.11-.05-.22-.1-.33-.15-.13-.06-.25-.11-.38-.17-.1-.05-.21-.09-.31-.15-.12-.06-.23-.11-.35-.17-.1-.05-.21-.1-.31-.15-.11-.06-.22-.11-.33-.16-.1-.05-.2-.1-.3-.15-.11-.06-.21-.11-.31-.17-.09-.05-.19-.1-.28-.15-.1-.06-.19-.11-.29-.16-.39-.22-.75-.43-1.09-.65l-.2-.13c-.1-.06-.19-.12-.29-.19-.06-.04-.13-.08-.18-.12-.09-.06-.18-.12-.27-.19-.06-.04-.12-.08-.17-.12-.08-.06-.17-.13-.25-.19-.06-.04-.11-.08-.16-.12-.08-.07-.16-.13-.24-.19l-.14-.11c-.08-.06-.15-.13-.23-.19-.04-.03-.08-.07-.12-.1-.08-.07-.15-.13-.22-.2-.04-.03-.07-.07-.11-.1-.07-.07-.14-.13-.21-.2-.03-.03-.06-.06-.09-.09-.07-.07-.14-.14-.2-.2-.02-.03-.05-.05-.07-.08-.07-.08-.13-.15-.19-.22-.02-.02-.03-.04-.05-.06-.07-.08-.13-.15-.18-.23,0,0-.01-.02-.02-.03-.09-.12-.17-.24-.25-.36-.02-.03-.04-.06-.05-.09-.07-.1-.13-.21-.18-.31,0-.01-.01-.02-.02-.04-.06-.12-.11-.23-.15-.35,0-.01-.01-.03-.02-.05-.04-.1-.07-.21-.1-.31,0,0,0-.01,0-.02v-18.62c.25,.16,.51,.33,.78,.5Zm0,28.76h.01c.26,.17,.52,.33,.79,.49,0,0,.01,0,.02,.02,.27,.16,.54,.31,.82,.46,0,0,.01,0,.02,.01,.28,.15,.57,.31,.86,.46,0,0,0,0,.01,0,.3,.16,.59,.31,.9,.45,0,0,0,0,0,0,.93,.45,1.9,.88,2.91,1.3,.42,.17,.86,.34,1.29,.51,0,0,.01,0,.02,0,1.32,.51,2.7,.99,4.14,1.44,.01,0,.03,0,.04,.01,.97,.3,1.96,.59,2.97,.87,1.01,.28,2.05,.55,3.12,.8,.7,.17,1.42,.34,2.15,.5,2.18,.48,4.44,.91,6.76,1.3,.02,0,.04,0,.06,0,2.3,.38,4.66,.71,7.06,1,.05,0,.1,.01,.15,.02,.78,.09,1.55,.18,2.34,.26h.15c1.57,.18,3.17,.32,4.77,.45,.08,0,.15,0,.22,.02,.76,.06,1.53,.11,2.3,.16,.11,0,.23,.01,.33,.02,.77,.05,1.54,.09,2.32,.13,.07,0,.13,0,.2,0,.76,.04,1.52,.07,2.28,.1,.07,0,.14,0,.2,0,.76,.03,1.53,.05,2.29,.08,.14,0,.28,0,.42,0,.75,.02,1.49,.03,2.24,.04,.13,0,.26,0,.39,0,.78,0,1.56,.01,2.34,.01s1.56,0,2.34-.01c.13,0,.26,0,.39,0,.75,0,1.49-.02,2.25-.04,.14,0,.28,0,.42,0,.77-.02,1.53-.05,2.29-.08,.07,0,.14,0,.2,0,.76-.03,1.53-.06,2.29-.1,.06,0,.13,0,.19,0,.78-.04,1.55-.08,2.32-.13,.11,0,.22-.01,.33-.02,.77-.05,1.54-.1,2.3-.16,.07,0,.15-.01,.22-.02,1.61-.13,3.2-.27,4.77-.43,.05,0,.1,0,.16-.01,.78-.08,1.56-.17,2.33-.26,.05,0,.1-.01,.15-.02,1.56-.19,3.1-.4,4.61-.62,.82-.12,1.64-.24,2.45-.38,.02,0,.04,0,.06,0,1.55-.25,3.06-.53,4.54-.83,1.49-.3,2.95-.62,4.37-.96,.31-.07,.6-.15,.9-.22,.04,0,.08-.02,.12-.03,1.75-.44,3.45-.91,5.07-1.42h.04c1.44-.47,2.82-.94,4.14-1.45h.03c.44-.18,.86-.35,1.29-.52l.37-.16c.22-.09,.43-.18,.64-.27,.33-.14,.65-.29,.97-.43,0,0,0,0,0,0,.31-.15,.62-.29,.93-.44,0,0,.01,0,.02,0,.3-.15,.59-.29,.88-.44,.01,0,.03-.01,.04-.02,.28-.15,.55-.29,.82-.44,.02,0,.04-.02,.06-.03,.27-.15,.53-.3,.79-.45,.02,0,.04-.02,.06-.03,.26-.16,.52-.31,.77-.47l.04-.03c.26-.16,.52-.33,.78-.5v18.44c-.08,.52-.34,1.08-.78,1.68s-1.08,1.23-1.91,1.88l-.06,.04c-.1,.08-.2,.16-.31,.24-.03,.03-.07,.05-.1,.08-.1,.07-.2,.15-.31,.22l-.14,.1c-.1,.07-.2,.14-.31,.21l-.17,.11c-.1,.07-.21,.13-.31,.2-.07,.04-.13,.08-.2,.12-.1,.06-.21,.13-.31,.19-.08,.05-.15,.09-.23,.14-.1,.06-.21,.12-.32,.18-.08,.05-.16,.09-.25,.14-.11,.06-.22,.12-.32,.18-.09,.05-.18,.1-.28,.15-.11,.06-.22,.12-.33,.17-.1,.05-.2,.1-.3,.15l-.34,.17c-.11,.05-.21,.1-.32,.16-.12,.06-.23,.11-.35,.16-.11,.05-.23,.1-.34,.16-.12,.05-.24,.11-.36,.16-.12,.06-.24,.11-.37,.16-.12,.05-.24,.11-.36,.16-.13,.05-.26,.11-.39,.16-.13,.05-.25,.1-.38,.15-.14,.06-.28,.11-.41,.16-.13,.05-.25,.1-.39,.15-.15,.06-.3,.11-.44,.17-.13,.05-.26,.1-.39,.15-.16,.06-.31,.11-.47,.17-.13,.05-.26,.09-.39,.14-.17,.06-.34,.12-.52,.18-.13,.04-.25,.08-.38,.13-.2,.07-.39,.13-.6,.2-.11,.04-.22,.07-.33,.11-.29,.09-.58,.18-.88,.27l-.08,.03s-.02,0-.03,0c-.51,.15-1.04,.3-1.56,.45-.05,.01-.09,.03-.14,.04-.53,.15-1.07,.29-1.61,.44-.79,.21-1.61,.41-2.44,.6-.02,0-.04,.01-.07,.02-.82,.19-1.65,.38-2.5,.55l-.14,.03c-.76,.16-1.54,.31-2.33,.46-.91,.17-1.82,.33-2.76,.49-.15,.03-.3,.05-.46,.08-.82,.13-1.64,.26-2.49,.38-.13,.02-.26,.04-.39,.06-.72,.1-1.45,.2-2.18,.29l-.66,.08c-.78,.09-1.58,.19-2.38,.27-.28,.03-.56,.06-.84,.09-.67,.07-1.35,.13-2.03,.2-.22,.02-.44,.04-.67,.06-1.22,.11-2.46,.2-3.71,.29-.11,0-.22,.01-.33,.02-1.33,.08-2.68,.16-4.04,.22-.02,0-.05,0-.07,0-1.24,.05-2.48,.09-3.73,.12-.3,0-.6,.01-.9,.02-1.29,.02-2.58,.04-3.89,.04s-2.6-.02-3.89-.04c-.3,0-.6-.01-.9-.02-1.25-.03-2.49-.07-3.72-.12-.03,0-.05,0-.08,0-1.36-.06-2.7-.13-4.04-.22-.11,0-.22-.01-.33-.02-1.25-.08-2.49-.18-3.71-.29-.22-.02-.45-.04-.67-.06-.68-.06-1.36-.13-2.03-.19-.28-.03-.56-.06-.84-.09-.8-.08-1.59-.18-2.38-.27-.22-.03-.44-.06-.66-.08-.73-.09-1.46-.19-2.18-.29l-.39-.06c-.84-.12-1.66-.25-2.49-.38-.15-.03-.31-.05-.46-.08-1.74-.29-3.44-.6-5.08-.95-.05,0-.09-.02-.14-.03-.85-.17-1.68-.36-2.5-.55-.02,0-.04-.01-.06-.02-.83-.19-1.64-.39-2.44-.6-.55-.15-1.08-.29-1.61-.44-.57-.16-1.15-.32-1.7-.49,0,0-.02,0-.03,0-.02,0-.04-.01-.05-.02-.31-.09-.6-.18-.9-.28-.11-.04-.21-.07-.32-.1-.2-.07-.4-.13-.6-.2-.12-.04-.24-.08-.37-.13-.17-.06-.35-.12-.52-.17-.13-.05-.25-.09-.38-.14-.16-.06-.32-.12-.48-.17-.13-.05-.25-.09-.38-.14-.15-.06-.3-.12-.45-.17-.13-.05-.25-.09-.37-.14l-.42-.17c-.12-.05-.24-.1-.36-.15-.14-.06-.27-.11-.4-.17-.12-.05-.23-.1-.35-.15-.13-.06-.26-.11-.39-.17-.11-.05-.22-.1-.33-.15-.12-.06-.24-.11-.37-.16-.11-.05-.22-.1-.32-.15-.12-.06-.23-.11-.34-.17-.11-.05-.21-.1-.31-.15-.11-.06-.22-.11-.32-.16-.1-.05-.2-.1-.3-.16-.1-.06-.21-.11-.31-.16-.1-.05-.2-.1-.29-.16-.09-.05-.18-.1-.27-.15-.39-.23-.77-.45-1.12-.67-.06-.04-.13-.08-.19-.12-.1-.06-.2-.13-.29-.19-.06-.04-.12-.08-.18-.12-.09-.07-.18-.13-.28-.19-.06-.04-.11-.08-.17-.12-.08-.07-.17-.13-.26-.19l-.16-.11c-.08-.07-.16-.13-.24-.19-.05-.04-.09-.08-.14-.11-.08-.07-.16-.13-.23-.19-.04-.03-.08-.07-.12-.1-.08-.07-.15-.13-.22-.2-.04-.03-.07-.07-.11-.1-.07-.07-.14-.14-.21-.2-.03-.03-.06-.06-.09-.09-.07-.07-.14-.14-.2-.2-.02-.03-.05-.05-.07-.08-.07-.08-.13-.15-.19-.22-.02-.02-.03-.04-.05-.06-.07-.08-.13-.16-.18-.23,0,0-.01-.01-.02-.02-.09-.12-.17-.24-.25-.36-.02-.03-.03-.06-.05-.09-.07-.1-.13-.21-.18-.31,0,0-.02-.02-.02-.04-.06-.12-.11-.23-.15-.35,0-.01-.01-.03-.02-.05-.04-.1-.07-.21-.1-.31,0,0,0-.01,0-.02v-18.63c.25,.17,.51,.34,.78,.5ZM221.32,121.37v.34c-.4,2.55-5.21,6.36-15.42,9.46-.52,.16-1.05,.31-1.59,.47-.57,.16-1.16,.31-1.75,.47-3.52,.92-7.35,1.7-11.41,2.34-3.42,.54-7,.98-10.7,1.31-5.4,.47-11.06,.72-16.85,.72s-11.45-.25-16.85-.72c-4.06-.36-7.96-.85-11.67-1.46-3.71-.61-7.2-1.34-10.45-2.19-1.14-.3-2.26-.61-3.34-.94-9.93-3.02-14.76-6.71-15.38-9.25v-.55h-.07c0-2.54,4.77-6.56,15.45-9.8,11.25-3.42,26.28-5.3,42.31-5.3,9.77,0,19.16,.7,27.56,2.03,2.44,.38,4.79,.82,7.05,1.31,2.72,.59,5.3,1.24,7.71,1.97,10.68,3.24,15.45,7.26,15.45,9.8h-.03Zm5.93-4.56c8.96,1.4,18.81,2.11,28.64,2.11,13.78,0,27.63-1.4,38.97-4.13,4.26-1.02,8.17-2.24,11.58-3.65,2.73-1.12,5.15-2.36,7.18-3.72v18.45h0c-.16,1.02-1.03,2.26-2.69,3.56-.02,.02-.04,.03-.06,.05-.1,.08-.21,.16-.31,.23-.04,.03-.07,.06-.11,.08-.1,.08-.2,.15-.3,.22-.05,.03-.09,.07-.15,.1-.1,.07-.2,.14-.3,.2-.06,.04-.11,.08-.17,.12-.1,.06-.2,.13-.31,.19-.07,.04-.13,.08-.2,.13-.1,.06-.2,.12-.31,.19-.08,.04-.16,.09-.23,.13-.1,.06-.21,.12-.31,.18l-.25,.14c-.1,.06-.21,.12-.32,.17-.09,.05-.19,.1-.28,.15l-.32,.17c-.1,.05-.2,.1-.31,.16-.11,.06-.22,.11-.33,.16-.11,.06-.22,.11-.33,.16-.11,.05-.23,.11-.34,.16-.11,.05-.23,.1-.35,.16-.12,.05-.23,.1-.36,.16-.12,.05-.24,.11-.37,.16-.12,.05-.24,.1-.36,.16-.13,.06-.26,.11-.4,.17-.12,.05-.24,.1-.37,.15l-.42,.17c-.13,.05-.25,.09-.38,.15l-.45,.17-.38,.14c-.16,.06-.32,.12-.49,.18-.12,.04-.25,.09-.38,.14-.17,.06-.36,.12-.54,.18-.12,.04-.24,.08-.36,.12-.2,.07-.41,.14-.62,.2-.1,.03-.2,.07-.31,.1-.31,.1-.63,.2-.96,.3-.57,.17-1.15,.34-1.73,.5-.53,.15-1.07,.29-1.61,.43-1.27,.33-2.6,.64-3.95,.94-5.19,1.14-10.92,2.02-17,2.59-.39,.04-.78,.08-1.17,.11-1.28,.11-2.58,.21-3.9,.3-.11,0-.22,.01-.33,.02-1.33,.09-2.67,.16-4.03,.22-.03,0-.06,0-.08,0-1.23,.05-2.47,.09-3.72,.12-.3,0-.6,.01-.91,.02-1.29,.03-2.58,.04-3.89,.04s-2.6-.01-3.89-.04c-.31,0-.61,0-.91-.02-1.25-.03-2.49-.07-3.72-.12-.02,0-.05,0-.08,0-1.35-.06-2.7-.13-4.03-.22-.11,0-.22-.01-.33-.02-1.31-.09-2.61-.19-3.9-.3-.44-.04-.86-.08-1.3-.13-3.23-.31-6.36-.7-9.37-1.17v-16.49c.02-.24,.03-.49,.03-.74,0-1.61-.4-3.13-1.15-4.56Zm1.12,147.65v-3.66c1.5,.22,3.03,.43,4.57,.62,.05,0,.1,.01,.16,.02,.77,.09,1.55,.18,2.33,.26h.15c1.57,.18,3.17,.32,4.77,.45,.07,0,.14,.01,.22,.02,.77,.06,1.53,.11,2.3,.16,.11,0,.22,.01,.33,.02,.77,.05,1.54,.09,2.31,.13,.07,0,.13,0,.2,0,.76,.04,1.52,.07,2.29,.1,.07,0,.13,0,.2,0,.76,.03,1.53,.06,2.29,.08,.14,0,.28,0,.42,0,.75,.02,1.49,.03,2.25,.04,.13,0,.25,0,.39,0,.78,0,1.56,.01,2.34,.01s1.56,0,2.34-.01c.13,0,.26,0,.39,0,.75,0,1.5-.02,2.25-.04,.14,0,.28,0,.42,0,.76-.02,1.53-.04,2.29-.08,.07,0,.13,0,.2,0,.77-.03,1.53-.07,2.29-.1,.07,0,.13,0,.2,0,.77-.04,1.55-.08,2.31-.13,.11,0,.23-.01,.33-.02,.77-.05,1.54-.1,2.3-.16,.08,0,.15-.01,.22-.02,1.61-.12,3.2-.27,4.77-.43h.16c.78-.1,1.56-.18,2.34-.28,.05,0,.1,0,.15-.02,2.41-.29,4.76-.62,7.06-1,.02,0,.04,0,.06,0,3.1-.52,6.08-1.11,8.91-1.79,.3-.08,.6-.15,.9-.23,1.8-.45,3.53-.93,5.19-1.45,.01,0,.03,0,.04,0,1.44-.46,2.82-.94,4.13-1.44,0,0,.02,0,.03,0,.44-.17,.86-.34,1.29-.51,.34-.14,.68-.28,1.01-.43,.33-.14,.65-.29,.97-.43,0,0,0,0,0,0,.31-.15,.62-.29,.93-.44h.03c.3-.16,.59-.31,.88-.46,0,0,.02-.01,.04-.02,.28-.15,.55-.29,.83-.44,.02,0,.04-.02,.06-.03,.27-.15,.53-.3,.78-.45,.02,0,.04-.02,.06-.03,.26-.16,.52-.31,.77-.47,.01,0,.03-.02,.05-.03,.26-.16,.52-.33,.77-.5h0v18.45c-.16,1.02-1.04,2.26-2.69,3.56-.02,.02-.04,.03-.06,.05-.1,.08-.21,.16-.31,.23-.03,.03-.07,.05-.1,.08-.1,.07-.2,.15-.31,.22-.05,.03-.09,.07-.14,.1-.1,.07-.21,.14-.31,.21-.06,.04-.11,.08-.17,.11-.1,.07-.2,.13-.31,.2-.07,.04-.13,.08-.2,.12-.1,.07-.21,.13-.31,.19-.08,.04-.15,.08-.23,.13-.1,.06-.21,.12-.31,.18l-.25,.14c-.1,.06-.21,.12-.32,.17-.09,.05-.18,.1-.28,.15-.11,.06-.22,.11-.33,.17-.1,.05-.2,.1-.3,.15-.11,.06-.23,.11-.34,.17-.1,.05-.21,.1-.32,.16-.12,.06-.23,.11-.35,.16-.11,.06-.23,.11-.34,.16-.12,.05-.24,.11-.36,.16-.12,.06-.24,.11-.37,.16l-.37,.16c-.13,.06-.26,.11-.39,.16-.12,.05-.24,.1-.37,.16-.14,.05-.28,.11-.42,.16-.13,.05-.25,.1-.38,.15-.15,.06-.3,.11-.45,.16-.13,.05-.25,.1-.39,.15-.16,.06-.32,.12-.47,.17-.13,.05-.26,.09-.39,.14-.17,.06-.35,.12-.52,.18-.13,.04-.25,.09-.38,.13-.19,.07-.39,.13-.59,.19-.11,.04-.23,.08-.34,.11-.29,.09-.58,.18-.87,.27l-.08,.03s-.02,0-.03,0c-.56,.17-1.13,.33-1.71,.49-.53,.15-1.07,.29-1.61,.43-.8,.21-1.61,.41-2.44,.61-.02,0-.04,0-.07,.01-.82,.19-1.65,.38-2.49,.55-.05,0-.09,.02-.14,.03-1.64,.34-3.35,.66-5.08,.95-.16,.02-.31,.05-.46,.08-.82,.13-1.64,.26-2.48,.38l-.39,.06c-.72,.1-1.44,.2-2.18,.29-.22,.03-.44,.06-.66,.08-.78,.1-1.58,.19-2.38,.27-.28,.03-.55,.06-.83,.09-.68,.07-1.35,.14-2.03,.2-.22,.02-.44,.04-.66,.06-1.23,.1-2.47,.2-3.72,.28-.11,0-.22,.02-.33,.02-1.33,.08-2.68,.16-4.03,.22h-.08c-1.23,.06-2.48,.09-3.73,.12-.3,0-.6,.01-.9,.02-1.29,.02-2.59,.04-3.89,.04s-2.6-.02-3.9-.04c-.3,0-.6-.01-.9-.02-1.25-.03-2.49-.07-3.73-.12h-.08c-1.35-.06-2.7-.14-4.03-.22-.11,0-.22-.01-.33-.02-1.25-.08-2.49-.18-3.71-.28-.23-.02-.45-.04-.67-.06-.68-.06-1.35-.13-2.03-.2-.28-.03-.56-.06-.84-.09-.8-.08-1.59-.17-2.38-.27-.22-.03-.44-.06-.66-.08-.73-.09-1.46-.19-2.18-.29l-.39-.06c-.58-.08-1.14-.17-1.71-.26v-16.49h0c.02-.25,.03-.49,.03-.74s-.01-.5-.03-.74Zm85.25-23.53c-.16,1.02-1.03,2.26-2.69,3.56-.02,.02-.04,.03-.06,.05-.1,.08-.21,.16-.31,.23-.04,.03-.07,.06-.11,.08-.1,.07-.2,.15-.3,.22-.05,.03-.09,.07-.15,.1-.1,.07-.2,.14-.3,.2-.06,.04-.11,.08-.17,.12-.1,.06-.2,.13-.31,.19-.07,.04-.13,.08-.2,.13-.1,.06-.2,.12-.31,.19-.08,.04-.16,.09-.23,.13-.1,.06-.21,.12-.31,.18l-.25,.14c-.1,.06-.21,.12-.32,.17-.09,.05-.19,.1-.28,.15l-.32,.17c-.1,.05-.2,.1-.31,.16-.11,.06-.22,.11-.33,.16-.11,.06-.22,.11-.33,.16s-.23,.11-.34,.16c-.11,.06-.23,.11-.35,.16-.12,.06-.23,.11-.36,.16-.12,.06-.24,.11-.37,.16-.12,.05-.24,.1-.36,.16-.13,.06-.26,.11-.4,.17-.12,.05-.24,.1-.37,.15l-.42,.17c-.13,.05-.25,.09-.38,.15l-.45,.17c-.13,.05-.25,.09-.38,.14-.16,.06-.32,.12-.49,.18-.12,.04-.25,.09-.38,.13-.17,.07-.36,.13-.54,.19-.12,.04-.24,.08-.36,.12-.2,.07-.41,.14-.62,.2-.1,.03-.2,.07-.31,.1-.31,.1-.63,.2-.96,.3-.57,.17-1.15,.34-1.73,.5-.53,.15-1.07,.29-1.61,.43-6.49,1.7-14.01,2.93-22.12,3.65-1.28,.11-2.58,.21-3.9,.3-.11,0-.22,.01-.33,.02-1.33,.09-2.67,.16-4.03,.22-.03,0-.06,0-.08,0-1.23,.05-2.47,.09-3.72,.12-.3,0-.6,.01-.91,.02-1.29,.03-2.58,.04-3.89,.04s-2.6-.01-3.89-.04c-.31,0-.61,0-.91-.02-1.25-.03-2.49-.07-3.72-.12-.02,0-.05,0-.08,0-1.36-.06-2.7-.13-4.03-.22-.11,0-.22-.01-.33-.02-1.31-.09-2.61-.19-3.9-.3-3.7-.32-7.26-.77-10.67-1.3v-16.49c.02-.25,.03-.49,.03-.74s-.01-.49-.03-.74h0v-3.66c1.5,.22,3.03,.43,4.57,.62,.05,0,.1,0,.16,.02,.77,.09,1.55,.18,2.33,.26h.15c1.57,.18,3.17,.32,4.77,.45,.07,0,.14,0,.22,.01,.77,.06,1.53,.11,2.3,.16,.11,0,.22,.01,.33,.02,.77,.05,1.54,.09,2.31,.13,.07,0,.13,0,.2,0,.76,.04,1.52,.08,2.29,.1,.07,0,.13,0,.2,0,.76,.03,1.53,.05,2.29,.07,.14,0,.28,0,.42,0,.75,.02,1.49,.03,2.25,.05h.39c.78,0,1.56,.02,2.34,.02s1.56,0,2.34-.02h.39c.75-.01,1.5-.03,2.25-.05,.14,0,.28,0,.42,0,.76-.02,1.53-.04,2.29-.07,.07,0,.13,0,.2,0,.77-.03,1.53-.06,2.29-.1,.07,0,.13,0,.2,0,.77-.04,1.55-.08,2.31-.13,.11,0,.23-.01,.33-.02,.77-.05,1.54-.1,2.3-.16,.08,0,.15,0,.22-.01,1.61-.13,3.2-.27,4.77-.44h.16c.78-.09,1.56-.18,2.34-.27,.05,0,.1-.01,.15-.02,2.41-.29,4.76-.62,7.06-1,.02,0,.04,0,.06,0,3.1-.52,6.08-1.11,8.91-1.79,1.06-.25,2.1-.52,3.12-.8,1.02-.28,2.01-.57,2.97-.87h.04c1.44-.47,2.82-.94,4.13-1.45,0,0,.02,0,.03,0,.44-.17,.86-.34,1.29-.51,.34-.14,.68-.28,1.01-.42,.33-.15,.65-.29,.97-.44t0,0c.31-.15,.62-.29,.93-.44h.03c.3-.16,.59-.31,.88-.45,0,0,.02-.01,.04-.02,.28-.15,.55-.29,.83-.44,.02-.01,.04-.02,.06-.03,.27-.15,.53-.3,.78-.45,.02-.01,.04-.02,.06-.04,.26-.15,.52-.31,.77-.46,.01,0,.03-.02,.05-.03,.26-.16,.52-.33,.77-.5t0,0v18.45h0Zm0-28.77c-.16,1.02-1.03,2.26-2.69,3.56-.02,.02-.04,.03-.06,.05-.1,.08-.21,.16-.31,.23-.04,.03-.07,.06-.11,.08-.1,.08-.2,.15-.3,.22-.05,.04-.09,.07-.15,.1-.1,.07-.2,.14-.3,.2-.06,.04-.11,.08-.17,.12-.1,.07-.2,.13-.31,.19-.07,.04-.13,.08-.2,.13-.1,.06-.2,.13-.31,.19-.08,.04-.16,.09-.23,.14-.1,.06-.21,.12-.31,.18-.08,.05-.17,.09-.25,.15-.1,.06-.21,.11-.32,.17-.09,.05-.19,.1-.28,.15-.11,.06-.22,.12-.32,.17-.1,.05-.2,.1-.31,.15-.11,.06-.22,.11-.33,.17-.11,.05-.22,.1-.33,.16-.11,.06-.23,.11-.34,.16-.11,.05-.23,.1-.35,.16-.12,.05-.23,.1-.36,.16-.12,.05-.24,.11-.37,.16-.12,.05-.24,.1-.36,.16-.13,.06-.26,.11-.4,.17-.12,.05-.24,.1-.37,.15l-.42,.17c-.13,.05-.25,.1-.38,.15-.15,.06-.3,.11-.45,.17l-.38,.14c-.16,.06-.32,.12-.49,.17-.12,.05-.25,.09-.38,.14-.17,.06-.36,.12-.54,.18-.12,.04-.24,.08-.36,.12-.2,.07-.41,.14-.62,.21-.1,.03-.2,.07-.31,.1-.31,.1-.63,.2-.96,.3-.57,.17-1.15,.33-1.73,.5-.53,.15-1.07,.29-1.61,.43-1.78,.47-3.65,.9-5.58,1.29-5.09,1.04-10.66,1.84-16.54,2.35-1.28,.11-2.58,.21-3.9,.3-.11,0-.22,.01-.33,.02-1.33,.08-2.67,.16-4.03,.22-.03,0-.06,0-.08,0-1.23,.05-2.47,.09-3.72,.12-.3,0-.6,.01-.91,.02-1.29,.02-2.58,.04-3.89,.04s-2.6-.02-3.89-.04c-.31,0-.61-.01-.91-.02-1.25-.03-2.49-.07-3.72-.12-.02,0-.05,0-.08,0-1.36-.06-2.7-.13-4.03-.22-.11,0-.22-.02-.33-.02-1.31-.09-2.61-.19-3.9-.3-3.69-.32-7.26-.76-10.67-1.29v-16.5c.02-.24,.03-.49,.03-.74s-.01-.49-.03-.74v-3.66c1.5,.23,3.03,.44,4.57,.62,.05,0,.1,.01,.16,.02,.77,.09,1.55,.18,2.33,.26,.05,0,.1,.01,.15,.02,1.57,.16,3.17,.31,4.77,.43,.07,0,.14,0,.22,.01,.77,.06,1.53,.11,2.3,.16,.11,0,.22,.01,.33,.02,.77,.05,1.54,.09,2.31,.14,.07,0,.13,0,.2,0,.76,.04,1.52,.07,2.29,.1,.07,0,.13,0,.2,0,.76,.03,1.53,.05,2.29,.07,.14,0,.28,0,.42,.01,.75,.02,1.49,.03,2.25,.04,.13,0,.25,0,.39,0,.78,0,1.56,.01,2.34,.01s1.56,0,2.34-.01c.13,0,.26,0,.39,0,.75,0,1.5-.02,2.25-.04h.42c.76-.03,1.53-.06,2.29-.08,.07,0,.13,0,.2,0,.77-.03,1.53-.06,2.29-.1,.07,0,.13,0,.2,0,.77-.04,1.55-.08,2.31-.14,.11,0,.23-.01,.33-.02,.77-.05,1.54-.1,2.3-.16,.08,0,.15,0,.22-.01,1.61-.13,3.2-.27,4.77-.43,.05,0,.1-.01,.16-.02,.78-.08,1.56-.17,2.34-.26,.05,0,.1-.01,.15-.02,2.41-.29,4.76-.62,7.06-1,.02,0,.04,0,.06,0,3.1-.51,6.08-1.11,8.91-1.79,2.12-.51,4.15-1.07,6.08-1.67h.04c1.44-.47,2.82-.94,4.13-1.45,0,0,.02,0,.03,0,.44-.16,.86-.34,1.29-.51h0c.34-.14,.68-.29,1.01-.43,.33-.15,.65-.29,.97-.44t0,0c.31-.14,.62-.29,.93-.44,0,0,.02,0,.03,0,.3-.15,.59-.3,.88-.44,0,0,.02-.01,.04-.02,.28-.14,.55-.29,.83-.44,.02,0,.04-.02,.06-.03,.27-.15,.53-.3,.78-.45,.02-.01,.04-.02,.06-.04,.26-.15,.52-.31,.77-.46,.01,0,.03-.02,.05-.03,.26-.16,.52-.33,.77-.5h0v18.44h0Zm0-28.77c-.16,1.03-1.03,2.26-2.69,3.56-.02,.01-.04,.03-.06,.05-.1,.08-.21,.16-.31,.23-.04,.02-.07,.05-.11,.08-.1,.07-.2,.14-.3,.22-.05,.03-.09,.07-.15,.1-.1,.07-.2,.14-.3,.21-.06,.04-.11,.08-.17,.11-.1,.07-.2,.13-.31,.19-.07,.04-.13,.08-.2,.13-.1,.07-.2,.13-.31,.19-.08,.05-.16,.09-.23,.14-.1,.06-.21,.12-.31,.18-.08,.05-.17,.1-.25,.15-.1,.06-.21,.11-.32,.17-.09,.05-.19,.1-.28,.15l-.32,.17c-.1,.05-.2,.1-.31,.15-.11,.06-.22,.11-.33,.17-.11,.05-.22,.1-.33,.16-.11,.06-.23,.11-.34,.16-.11,.05-.23,.11-.35,.16s-.23,.11-.36,.16c-.12,.06-.24,.11-.37,.16-.12,.05-.24,.1-.36,.15-.13,.06-.26,.11-.4,.16-.12,.05-.24,.1-.37,.15l-.42,.17c-.13,.05-.25,.1-.38,.15-.15,.06-.3,.12-.45,.17-.13,.05-.25,.09-.38,.14-.16,.06-.32,.12-.49,.17-.12,.05-.25,.09-.38,.14-.17,.06-.36,.12-.54,.18-.12,.04-.24,.08-.36,.12-.2,.07-.41,.14-.62,.21-.1,.03-.2,.07-.31,.1-.31,.1-.63,.2-.96,.3-.57,.17-1.15,.34-1.73,.5-.53,.15-1.07,.29-1.61,.43-6.49,1.7-14.01,2.93-22.12,3.65-1.28,.11-2.58,.21-3.9,.3-.11,0-.22,.01-.33,.02-1.33,.08-2.67,.16-4.03,.22-.03,0-.06,0-.08,0-1.23,.05-2.47,.09-3.72,.12-.3,0-.6,.01-.91,.02-1.29,.02-2.58,.04-3.89,.04s-2.6-.02-3.89-.04c-.31,0-.61-.01-.91-.02-1.25-.03-2.49-.07-3.72-.12-.02,0-.05,0-.08,0-1.36-.06-2.7-.13-4.03-.22-.11,0-.22-.01-.33-.02-1.31-.09-2.61-.18-3.9-.3-3.7-.33-7.26-.77-10.67-1.3v-16.5c.02-.24,.03-.49,.03-.74s-.01-.5-.03-.74v-3.66c1.51,.22,3.03,.43,4.58,.62,.05,0,.1,.01,.15,.02,.78,.09,1.56,.18,2.34,.26,.05,0,.1,0,.15,.01,1.58,.16,3.18,.31,4.78,.43,.07,0,.14,.01,.21,.02,.77,.06,1.54,.11,2.31,.16,.11,0,.22,.01,.33,.02,.77,.05,1.55,.09,2.32,.13,.06,0,.12,0,.18,0,.77,.04,1.54,.07,2.3,.1,.07,0,.13,0,.19,0,.76,.03,1.53,.05,2.3,.08,.14,0,.27,0,.41,0,.75,.02,1.5,.03,2.26,.04,.12,0,.25,0,.37,0,.78,0,1.57,.01,2.35,.01s1.56,0,2.35-.01c.12,0,.25,0,.38,0,.75,0,1.5-.02,2.25-.04,.14,0,.27,0,.41,0,.77-.02,1.54-.05,2.3-.08,.06,0,.12,0,.19,0,.77-.03,1.54-.07,2.3-.1,.06,0,.12,0,.18,0,.78-.04,1.55-.08,2.32-.13,.11,0,.22-.01,.33-.02,.77-.05,1.54-.1,2.31-.16,.07,0,.14-.01,.21-.02,1.61-.12,3.2-.27,4.78-.43,.05,0,.1,0,.15-.01,.78-.08,1.56-.17,2.34-.26,.05,0,.1,0,.15-.02,2.41-.29,4.77-.62,7.07-1,.02,0,.04,0,.05,0,3.1-.51,6.08-1.11,8.91-1.79,2.12-.51,4.16-1.07,6.09-1.68,0,0,.02,0,.03-.01,1.44-.45,2.82-.93,4.14-1.43,0,0,.01,0,.02,0,.44-.17,.86-.34,1.29-.51,.68-.28,1.34-.57,1.99-.86h0c.31-.15,.62-.29,.93-.44,0,0,.01,0,.02,0,.3-.15,.6-.3,.88-.44,.01,0,.02-.01,.04-.02,.28-.15,.56-.3,.83-.44,.02-.01,.04-.02,.06-.03,.27-.15,.53-.3,.79-.45,.02-.01,.04-.02,.06-.03,.26-.16,.52-.31,.77-.47,.01,0,.03-.01,.04-.02,.26-.16,.52-.33,.78-.5v18.44h0Zm-2.69-25.2l-.06,.04c-.1,.08-.21,.16-.31,.23-.03,.03-.07,.05-.1,.08-.1,.07-.2,.15-.31,.22-.05,.03-.09,.07-.14,.1-.1,.07-.21,.14-.31,.21-.06,.04-.11,.08-.17,.11-.1,.07-.2,.13-.31,.2-.07,.04-.13,.08-.2,.12-.1,.07-.21,.13-.31,.19-.08,.04-.15,.09-.23,.13-.1,.06-.21,.12-.31,.18l-.25,.14c-.1,.06-.21,.12-.32,.17-.09,.05-.18,.1-.28,.15-.11,.06-.22,.11-.33,.17-.1,.05-.2,.1-.3,.15-.11,.06-.23,.11-.34,.17-.1,.05-.21,.1-.32,.16-.12,.06-.23,.11-.35,.16-.11,.06-.23,.11-.34,.16-.12,.05-.24,.11-.36,.16-.12,.06-.24,.11-.37,.16-.12,.05-.24,.1-.37,.16-.13,.06-.26,.11-.39,.16-.12,.05-.24,.1-.37,.16-.14,.05-.28,.11-.42,.16-.13,.05-.25,.1-.38,.15-.15,.06-.3,.11-.45,.16-.13,.05-.25,.1-.39,.15-.16,.06-.32,.12-.47,.17-.13,.05-.26,.09-.39,.14-.17,.06-.35,.12-.52,.18-.13,.05-.25,.09-.38,.13-.19,.07-.39,.13-.59,.19-.11,.04-.23,.08-.34,.11-.29,.09-.58,.18-.87,.27l-.08,.03s-.02,0-.03,0c-.56,.17-1.13,.33-1.71,.49-.53,.15-1.07,.29-1.61,.43-2.26,.59-4.66,1.12-7.16,1.6-4.31,.82-8.94,1.47-13.8,1.93-.39,.04-.78,.08-1.17,.11-1.28,.11-2.58,.21-3.9,.3-.11,0-.22,.02-.33,.02-1.33,.08-2.67,.16-4.03,.22h-.08c-1.23,.05-2.48,.09-3.73,.12-.3,0-.6,.01-.9,.02-1.29,.03-2.59,.04-3.89,.04s-2.6-.01-3.9-.04c-.3,0-.6-.01-.9-.02-1.25-.03-2.49-.07-3.73-.12h-.08c-1.35-.06-2.7-.14-4.03-.22-.11,0-.22-.01-.33-.02-1.32-.08-2.62-.18-3.9-.3-.44-.04-.86-.08-1.3-.13-3.23-.31-6.36-.7-9.37-1.17v-16.49h0c.02-.25,.03-.49,.03-.74s-.01-.5-.03-.74v-3.66c1.5,.22,3.03,.43,4.57,.62h.16c.77,.11,1.55,.19,2.33,.28h.15c1.57,.18,3.17,.32,4.77,.45,.07,0,.14,.01,.22,.02,.77,.06,1.53,.11,2.3,.16,.11,0,.22,.02,.33,.02,.77,.05,1.54,.09,2.31,.13,.07,0,.13,0,.2,0,.76,.04,1.52,.08,2.29,.1,.07,0,.13,0,.2,0,.76,.03,1.53,.05,2.29,.07,.14,0,.28,0,.42,0,.75,.02,1.49,.03,2.25,.04,.13,0,.25,0,.39,0,.78,0,1.56,.01,2.34,.01s1.56,0,2.34-.01c.13,0,.26,0,.39,0,.75,0,1.5-.02,2.25-.04,.14,0,.28,0,.42,0,.76-.02,1.53-.04,2.29-.07,.07,0,.13,0,.2,0,.77-.03,1.53-.07,2.29-.1,.07,0,.13,0,.2,0,.77-.04,1.55-.08,2.31-.13,.11,0,.23-.01,.33-.02,.77-.05,1.54-.1,2.3-.16,.08,0,.15,0,.22-.02,1.61-.12,3.2-.27,4.77-.43h.16c.78-.1,1.56-.18,2.34-.28,.05,0,.1,0,.15-.01,2.41-.29,4.76-.62,7.06-1,.02,0,.04,0,.06,0,3.1-.52,6.08-1.11,8.91-1.79,.3-.08,.6-.15,.9-.23,1.8-.45,3.53-.93,5.19-1.45,.01,0,.03,0,.04,0,1.44-.46,2.82-.94,4.13-1.44,0,0,.02,0,.03,0,.44-.17,.86-.34,1.29-.51,.34-.14,.68-.28,1.01-.43,.33-.14,.65-.29,.97-.43,0,0,0,0,0,0,.31-.15,.62-.29,.93-.44h.03c.3-.16,.59-.31,.88-.46,0,0,.02-.01,.04-.02,.28-.15,.55-.29,.83-.44,.02,0,.04-.02,.06-.03,.27-.15,.53-.3,.78-.45,.02,0,.04-.02,.06-.03,.26-.16,.52-.31,.77-.47,.01,0,.03-.02,.05-.03,.26-.16,.52-.33,.77-.5h0v18.45c-.16,1.02-1.04,2.26-2.69,3.56Zm-12.73,149.72c-11.25,3.42-26.28,5.3-42.31,5.3-9.76,0-19.13-.7-27.52-2.02v-16.5c.02-.24,.03-.49,.03-.74s-.01-.5-.03-.74v-3.66c1.51,.23,3.03,.44,4.58,.62,.05,0,.1,.01,.15,.02,.78,.09,1.56,.18,2.34,.26,.05,0,.1,0,.15,.01,1.58,.16,3.17,.31,4.78,.43,.07,0,.14,0,.21,.02,.77,.06,1.54,.11,2.31,.16,.11,0,.22,.01,.33,.02,.77,.05,1.55,.09,2.32,.13,.06,0,.12,0,.18,0,.77,.04,1.54,.07,2.3,.1,.07,0,.13,0,.19,0,.76,.03,1.53,.05,2.3,.08,.14,0,.27,0,.41,0,.75,.02,1.5,.03,2.26,.04,.12,0,.25,0,.37,0,.78,0,1.57,.01,2.35,.01s1.56,0,2.35-.01c.12,0,.25,0,.38,0,.75,0,1.5-.02,2.25-.04,.14,0,.27,0,.41,0,.77-.02,1.54-.05,2.3-.08,.06,0,.12,0,.19,0,.77-.03,1.54-.07,2.3-.1,.06,0,.12,0,.18,0,.78-.04,1.55-.08,2.32-.13,.11,0,.22-.01,.33-.02,.77-.05,1.54-.1,2.31-.16,.07,0,.14-.01,.21-.02,1.61-.12,3.2-.27,4.78-.43,.05,0,.1,0,.15-.01,.78-.08,1.56-.17,2.34-.26,.05,0,.1,0,.15-.02,2.41-.29,4.77-.62,7.07-1,.02,0,.03,0,.05,0,.73-.12,1.46-.25,2.18-.38,.22-.04,.44-.08,.66-.13,.49-.09,.99-.18,1.47-.28,.26-.05,.53-.11,.79-.16,.43-.09,.87-.18,1.3-.28,.28-.06,.55-.12,.83-.18,.41-.09,.82-.18,1.23-.28,.15-.03,.31-.07,.47-.1,.15-.04,.3-.08,.45-.12,.23-.05,.45-.11,.67-.16,.36-.09,.72-.18,1.08-.28,.21-.06,.42-.11,.63-.17,.38-.1,.76-.21,1.13-.31,.17-.05,.35-.1,.53-.15,.54-.16,1.08-.32,1.61-.48,0,0,.02,0,.03-.01,1.44-.45,2.82-.93,4.14-1.43,0,0,.01,0,.02,0,.44-.17,.86-.34,1.29-.51,.09-.04,.17-.08,.26-.11l.3-.13c.49-.21,.97-.41,1.43-.63h0c.31-.15,.62-.29,.93-.44,0,0,.01,0,.02,0,.3-.15,.6-.3,.88-.44,.01,0,.02-.01,.04-.02,.28-.15,.56-.3,.83-.44,.02-.01,.04-.02,.06-.03,.27-.15,.53-.3,.79-.45,.02-.01,.04-.02,.06-.03,.26-.16,.52-.31,.77-.47,.01,0,.03-.01,.04-.02,.26-.16,.52-.33,.78-.5v18.1h.03c0,2.54-4.78,6.55-15.45,9.8Zm15.42-211.16v.34c-.4,2.55-5.22,6.36-15.42,9.46-1.08,.32-2.2,.63-3.34,.94-6.49,1.69-14.01,2.93-22.12,3.64-5.4,.48-11.06,.73-16.85,.73s-11.46-.25-16.85-.73c-4.06-.36-7.96-.85-11.67-1.46-3.7-.61-7.21-1.34-10.45-2.18-1.14-.3-2.26-.61-3.34-.94-9.94-3.02-14.76-6.71-15.38-9.26v-.55h-.07c0-2.54,4.78-6.55,15.45-9.8,11.25-3.42,26.28-5.3,42.31-5.3s31.06,1.88,42.31,5.3c10.67,3.25,15.45,7.26,15.45,9.8h-.03Z"/><path class="cls-1" d="M209.74,419.48c-28.31,0-55.78-5.55-81.64-16.49-24.98-10.56-47.41-25.69-66.67-44.95-19.26-19.26-34.38-41.69-44.95-66.67C5.55,265.52,0,238.05,0,209.74s5.55-55.78,16.49-81.64c10.56-24.98,25.69-47.41,44.95-66.67,19.26-19.26,41.69-34.38,66.67-44.95C153.96,5.55,181.43,0,209.74,0s55.78,5.55,81.64,16.49c24.98,10.56,47.41,25.69,66.67,44.95,19.26,19.26,34.38,41.69,44.95,66.67,10.94,25.86,16.49,53.33,16.49,81.64s-5.55,55.78-16.49,81.64c-10.56,24.98-25.69,47.41-44.95,66.67s-41.69,34.38-66.67,44.95c-25.86,10.94-53.33,16.49-81.64,16.49Zm0-403.03C103.16,16.45,16.45,103.16,16.45,209.74s86.71,193.29,193.29,193.29,193.29-86.71,193.29-193.29S316.32,16.45,209.74,16.45Z"/></g></g></svg>