<?xml version="1.0" encoding="UTF-8"?><svg id="_이어_2" xmlns="http://www.w3.org/2000/svg" viewBox="0 0 359.47 148.3"><defs><style>.cls-1{fill:#1585ff;}.cls-2{fill:#40ff7c;}.cls-3{fill:#515151;}.cls-4{fill:#f00000;}</style></defs><g id="_이어_1-2"><g><g><path class="cls-1" d="M8.17,15.26c-3.91,0-7.1-3.18-7.1-7.09S4.25,1.07,8.17,1.07s7.09,3.18,7.09,7.09-3.18,7.09-7.09,7.09Zm0-11.24c-2.29,0-4.15,1.86-4.15,4.15s1.86,4.15,4.15,4.15,4.15-1.86,4.15-4.15-1.86-4.15-4.15-4.15Z"/><path class="cls-4" d="M25.32,15.26c-3.91,0-7.1-3.18-7.1-7.09s3.18-7.09,7.1-7.09,7.09,3.18,7.09,7.09-3.18,7.09-7.09,7.09Zm0-11.24c-2.29,0-4.15,1.86-4.15,4.15s1.86,4.15,4.15,4.15,4.15-1.86,4.15-4.15-1.86-4.15-4.15-4.15Z"/><path class="cls-1" d="M42.48,15.26c-3.91,0-7.09-3.18-7.09-7.09s3.18-7.09,7.09-7.09,7.09,3.18,7.09,7.09-3.18,7.09-7.09,7.09Zm0-11.24c-2.29,0-4.15,1.86-4.15,4.15s1.86,4.15,4.15,4.15,4.15-1.86,4.15-4.15-1.86-4.15-4.15-4.15Z"/><path class="cls-4" d="M59.64,15.26c-3.91,0-7.09-3.18-7.09-7.09s3.18-7.09,7.09-7.09,7.09,3.18,7.09,7.09-3.18,7.09-7.09,7.09Zm0-11.24c-2.29,0-4.15,1.86-4.15,4.15s1.86,4.15,4.15,4.15,4.15-1.86,4.15-4.15-1.86-4.15-4.15-4.15Z"/><path class="cls-1" d="M76.79,15.26c-3.91,0-7.09-3.18-7.09-7.09s3.18-7.09,7.09-7.09,7.09,3.18,7.09,7.09-3.18,7.09-7.09,7.09Zm0-11.24c-2.29,0-4.15,1.86-4.15,4.15s1.86,4.15,4.15,4.15,4.15-1.86,4.15-4.15-1.86-4.15-4.15-4.15Z"/><path class="cls-4" d="M93.95,15.26c-3.91,0-7.09-3.18-7.09-7.09s3.18-7.09,7.09-7.09,7.09,3.18,7.09,7.09-3.18,7.09-7.09,7.09Zm0-11.24c-2.29,0-4.15,1.86-4.15,4.15s1.86,4.15,4.15,4.15,4.15-1.86,4.15-4.15-1.86-4.15-4.15-4.15Z"/><path class="cls-1" d="M111.11,15.26c-3.91,0-7.09-3.18-7.09-7.09s3.18-7.09,7.09-7.09,7.09,3.18,7.09,7.09-3.18,7.09-7.09,7.09Zm0-11.24c-2.29,0-4.15,1.86-4.15,4.15s1.86,4.15,4.15,4.15,4.15-1.86,4.15-4.15-1.86-4.15-4.15-4.15Z"/><path class="cls-4" d="M128.26,15.26c-3.91,0-7.09-3.18-7.09-7.09s3.18-7.09,7.09-7.09,7.09,3.18,7.09,7.09-3.18,7.09-7.09,7.09Zm0-11.24c-2.29,0-4.15,1.86-4.15,4.15s1.86,4.15,4.15,4.15,4.15-1.86,4.15-4.15-1.86-4.15-4.15-4.15Z"/><path class="cls-1" d="M145.42,15.26c-3.91,0-7.09-3.18-7.09-7.09s3.18-7.09,7.09-7.09,7.09,3.18,7.09,7.09-3.18,7.09-7.09,7.09Zm0-11.24c-2.29,0-4.15,1.86-4.15,4.15s1.86,4.15,4.15,4.15,4.15-1.86,4.15-4.15-1.86-4.15-4.15-4.15Z"/><path class="cls-4" d="M162.58,15.26c-3.91,0-7.09-3.18-7.09-7.09s3.18-7.09,7.09-7.09,7.09,3.18,7.09,7.09-3.18,7.09-7.09,7.09Zm0-11.24c-2.29,0-4.15,1.86-4.15,4.15s1.86,4.15,4.15,4.15,4.15-1.86,4.15-4.15-1.86-4.15-4.15-4.15Z"/><path class="cls-1" d="M179.73,15.26c-3.91,0-7.09-3.18-7.09-7.09s3.18-7.09,7.09-7.09,7.09,3.18,7.09,7.09-3.18,7.09-7.09,7.09Zm0-11.24c-2.29,0-4.15,1.86-4.15,4.15s1.86,4.15,4.15,4.15,4.15-1.86,4.15-4.15-1.86-4.15-4.15-4.15Z"/><path class="cls-4" d="M196.89,15.26c-3.91,0-7.09-3.18-7.09-7.09s3.18-7.09,7.09-7.09,7.09,3.18,7.09,7.09-3.18,7.09-7.09,7.09Zm0-11.24c-2.29,0-4.15,1.86-4.15,4.15s1.86,4.15,4.15,4.15,4.15-1.86,4.15-4.15-1.86-4.15-4.15-4.15Z"/><path class="cls-1" d="M214.05,15.26c-3.91,0-7.09-3.18-7.09-7.09s3.18-7.09,7.09-7.09,7.1,3.18,7.1,7.09-3.18,7.09-7.1,7.09Zm0-11.24c-2.29,0-4.15,1.86-4.15,4.15s1.86,4.15,4.15,4.15,4.15-1.86,4.15-4.15-1.86-4.15-4.15-4.15Z"/><path class="cls-4" d="M231.2,15.26c-3.91,0-7.09-3.18-7.09-7.09s3.18-7.09,7.09-7.09,7.1,3.18,7.1,7.09-3.18,7.09-7.1,7.09Zm0-11.24c-2.29,0-4.15,1.86-4.15,4.15s1.86,4.15,4.15,4.15,4.15-1.86,4.15-4.15-1.86-4.15-4.15-4.15Z"/><path class="cls-1" d="M248.36,15.26c-3.91,0-7.1-3.18-7.1-7.09s3.18-7.09,7.1-7.09,7.09,3.18,7.09,7.09-3.18,7.09-7.09,7.09Zm0-11.24c-2.29,0-4.15,1.86-4.15,4.15s1.86,4.15,4.15,4.15,4.15-1.86,4.15-4.15-1.86-4.15-4.15-4.15Z"/><path class="cls-4" d="M265.52,15.26c-3.91,0-7.1-3.18-7.1-7.09s3.18-7.09,7.1-7.09,7.09,3.18,7.09,7.09-3.18,7.09-7.09,7.09Zm0-11.24c-2.29,0-4.15,1.86-4.15,4.15s1.86,4.15,4.15,4.15,4.15-1.86,4.15-4.15-1.86-4.15-4.15-4.15Z"/><path class="cls-1" d="M282.68,15.26c-3.91,0-7.09-3.18-7.09-7.09s3.18-7.09,7.09-7.09,7.09,3.18,7.09,7.09-3.18,7.09-7.09,7.09Zm0-11.24c-2.29,0-4.15,1.86-4.15,4.15s1.86,4.15,4.15,4.15,4.15-1.86,4.15-4.15-1.86-4.15-4.15-4.15Z"/><path class="cls-4" d="M299.83,15.26c-3.91,0-7.09-3.18-7.09-7.09s3.18-7.09,7.09-7.09,7.09,3.18,7.09,7.09-3.18,7.09-7.09,7.09Zm0-11.24c-2.29,0-4.15,1.86-4.15,4.15s1.86,4.15,4.15,4.15,4.15-1.86,4.15-4.15-1.86-4.15-4.15-4.15Z"/><path class="cls-1" d="M316.99,15.26c-3.91,0-7.09-3.18-7.09-7.09s3.18-7.09,7.09-7.09,7.09,3.18,7.09,7.09-3.18,7.09-7.09,7.09Zm0-11.24c-2.29,0-4.15,1.86-4.15,4.15s1.86,4.15,4.15,4.15,4.15-1.86,4.15-4.15-1.86-4.15-4.15-4.15Z"/><path class="cls-4" d="M334.15,15.26c-3.91,0-7.09-3.18-7.09-7.09s3.18-7.09,7.09-7.09,7.09,3.18,7.09,7.09-3.18,7.09-7.09,7.09Zm0-11.24c-2.29,0-4.15,1.86-4.15,4.15s1.86,4.15,4.15,4.15,4.15-1.86,4.15-4.15-1.86-4.15-4.15-4.15Z"/><path class="cls-1" d="M351.3,15.26c-3.91,0-7.09-3.18-7.09-7.09s3.18-7.09,7.09-7.09,7.09,3.18,7.09,7.09-3.18,7.09-7.09,7.09Zm0-11.24c-2.29,0-4.15,1.86-4.15,4.15s1.86,4.15,4.15,4.15,4.15-1.86,4.15-4.15-1.86-4.15-4.15-4.15Z"/><path class="cls-2" d="M138.73,16.33c-.38,0-.75-.14-1.04-.43-.58-.58-.58-1.51,0-2.08L151.07,.43c.57-.58,1.51-.58,2.08,0,.58,.58,.58,1.51,0,2.08l-13.38,13.38c-.29,.29-.66,.43-1.04,.43Z"/><path class="cls-2" d="M155.89,16.33c-.38,0-.75-.14-1.04-.43-.58-.58-.58-1.51,0-2.08L168.23,.43c.57-.58,1.51-.58,2.08,0,.58,.58,.58,1.51,0,2.08l-13.38,13.38c-.29,.29-.66,.43-1.04,.43Z"/><path class="cls-2" d="M173.04,16.33c-.38,0-.75-.14-1.04-.43-.58-.58-.58-1.51,0-2.08L185.38,.43c.57-.58,1.51-.58,2.08,0,.58,.58,.58,1.51,0,2.08l-13.38,13.38c-.29,.29-.66,.43-1.04,.43Z"/><path class="cls-2" d="M190.2,16.33c-.38,0-.75-.14-1.04-.43-.58-.58-.58-1.51,0-2.08L202.54,.43c.57-.58,1.51-.58,2.08,0,.58,.58,.58,1.51,0,2.08l-13.38,13.38c-.29,.29-.66,.43-1.04,.43Z"/><path class="cls-2" d="M207.36,16.33c-.38,0-.75-.14-1.04-.43-.58-.58-.58-1.51,0-2.08L219.7,.43c.57-.58,1.51-.58,2.08,0,.58,.58,.58,1.51,0,2.08l-13.38,13.38c-.29,.29-.66,.43-1.04,.43Z"/><path class="cls-2" d="M224.51,16.33c-.38,0-.75-.14-1.04-.43-.58-.58-.58-1.51,0-2.08L236.86,.43c.57-.58,1.51-.58,2.08,0,.58,.58,.58,1.51,0,2.08l-13.38,13.38c-.29,.29-.66,.43-1.04,.43Z"/><path class="cls-2" d="M344.61,16.33c-.38,0-.75-.14-1.04-.43-.58-.58-.58-1.51,0-2.08L356.95,.43c.57-.58,1.51-.58,2.08,0,.58,.58,.58,1.51,0,2.08l-13.38,13.38c-.29,.29-.66,.43-1.04,.43Z"/><circle class="cls-1" cx="124.08" cy="4.31" r="2.83"/></g><g><path class="cls-1" d="M42.48,31.89c-3.91,0-7.09-3.18-7.09-7.09s3.18-7.09,7.09-7.09,7.09,3.18,7.09,7.09-3.18,7.09-7.09,7.09Zm0-11.24c-2.29,0-4.15,1.86-4.15,4.15s1.86,4.15,4.15,4.15,4.15-1.86,4.15-4.15-1.86-4.15-4.15-4.15Z"/><path class="cls-1" d="M76.79,31.89c-3.91,0-7.09-3.18-7.09-7.09s3.18-7.09,7.09-7.09,7.09,3.18,7.09,7.09-3.18,7.09-7.09,7.09Zm0-11.24c-2.29,0-4.15,1.86-4.15,4.15s1.86,4.15,4.15,4.15,4.15-1.86,4.15-4.15-1.86-4.15-4.15-4.15Z"/><path class="cls-1" d="M111.11,31.89c-3.91,0-7.09-3.18-7.09-7.09s3.18-7.09,7.09-7.09,7.09,3.18,7.09,7.09-3.18,7.09-7.09,7.09Zm0-11.24c-2.29,0-4.15,1.86-4.15,4.15s1.86,4.15,4.15,4.15,4.15-1.86,4.15-4.15-1.86-4.15-4.15-4.15Z"/><path class="cls-1" d="M145.42,31.89c-3.91,0-7.09-3.18-7.09-7.09s3.18-7.09,7.09-7.09,7.09,3.18,7.09,7.09-3.18,7.09-7.09,7.09Zm0-11.24c-2.29,0-4.15,1.86-4.15,4.15s1.86,4.15,4.15,4.15,4.15-1.86,4.15-4.15-1.86-4.15-4.15-4.15Z"/><path class="cls-1" d="M179.73,31.89c-3.91,0-7.09-3.18-7.09-7.09s3.18-7.09,7.09-7.09,7.09,3.18,7.09,7.09-3.18,7.09-7.09,7.09Zm0-11.24c-2.29,0-4.15,1.86-4.15,4.15s1.86,4.15,4.15,4.15,4.15-1.86,4.15-4.15-1.86-4.15-4.15-4.15Z"/><path class="cls-4" d="M196.89,31.89c-3.91,0-7.09-3.18-7.09-7.09s3.18-7.09,7.09-7.09,7.09,3.18,7.09,7.09-3.18,7.09-7.09,7.09Zm0-11.24c-2.29,0-4.15,1.86-4.15,4.15s1.86,4.15,4.15,4.15,4.15-1.86,4.15-4.15-1.86-4.15-4.15-4.15Z"/><path class="cls-4" d="M231.2,31.89c-3.91,0-7.09-3.18-7.09-7.09s3.18-7.09,7.09-7.09,7.1,3.18,7.1,7.09-3.18,7.09-7.1,7.09Zm0-11.24c-2.29,0-4.15,1.86-4.15,4.15s1.86,4.15,4.15,4.15,4.15-1.86,4.15-4.15-1.86-4.15-4.15-4.15Z"/><path class="cls-1" d="M8.17,31.89c-3.91,0-7.1-3.18-7.1-7.09s3.18-7.09,7.1-7.09,7.09,3.18,7.09,7.09-3.18,7.09-7.09,7.09Zm0-11.24c-2.29,0-4.15,1.86-4.15,4.15s1.86,4.15,4.15,4.15,4.15-1.86,4.15-4.15-1.86-4.15-4.15-4.15Z"/><path class="cls-2" d="M1.47,32.96c-.38,0-.75-.14-1.04-.43-.58-.58-.58-1.51,0-2.08l13.38-13.38c.57-.58,1.51-.58,2.08,0,.58,.58,.58,1.51,0,2.08L2.52,32.53c-.29,.29-.66,.43-1.04,.43Z"/><path class="cls-2" d="M70.1,32.96c-.38,0-.75-.14-1.04-.43-.58-.58-.58-1.51,0-2.08l13.38-13.38c.57-.58,1.51-.58,2.08,0,.58,.58,.58,1.51,0,2.08l-13.38,13.38c-.29,.29-.66,.43-1.04,.43Z"/><path class="cls-2" d="M275.98,32.96c-.38,0-.75-.14-1.04-.43-.58-.58-.58-1.51,0-2.08l13.38-13.38c.57-.58,1.51-.58,2.08,0,.58,.58,.58,1.51,0,2.08l-13.38,13.38c-.29,.29-.66,.43-1.04,.43Z"/><circle class="cls-1" cx="201.53" cy="24.8" r="2.83"/><circle class="cls-3" cx="93.95" cy="24.8" r="2.72"/><circle class="cls-3" cx="59.64" cy="24.8" r="2.72"/><circle class="cls-3" cx="25.32" cy="24.8" r="2.72"/><circle class="cls-3" cx="128.26" cy="24.8" r="2.72"/><circle class="cls-3" cx="162.58" cy="24.8" r="2.72"/><circle class="cls-3" cx="214.05" cy="24.8" r="2.72"/><circle class="cls-3" cx="248.36" cy="24.8" r="2.72"/><circle class="cls-3" cx="265.52" cy="24.8" r="2.72"/><circle class="cls-3" cx="299.83" cy="24.8" r="2.72"/><circle class="cls-3" cx="316.99" cy="24.8" r="2.72"/><circle class="cls-3" cx="334.15" cy="24.8" r="2.72"/><circle class="cls-3" cx="351.3" cy="24.8" r="2.72"/></g><g><path class="cls-1" d="M111.11,48.52c-3.91,0-7.09-3.18-7.09-7.09s3.18-7.09,7.09-7.09,7.09,3.18,7.09,7.09-3.18,7.09-7.09,7.09Zm0-11.24c-2.29,0-4.15,1.86-4.15,4.15s1.86,4.15,4.15,4.15,4.15-1.86,4.15-4.15-1.86-4.15-4.15-4.15Z"/><path class="cls-1" d="M145.42,48.52c-3.91,0-7.09-3.18-7.09-7.09s3.18-7.09,7.09-7.09,7.09,3.18,7.09,7.09-3.18,7.09-7.09,7.09Zm0-11.24c-2.29,0-4.15,1.86-4.15,4.15s1.86,4.15,4.15,4.15,4.15-1.86,4.15-4.15-1.86-4.15-4.15-4.15Z"/><path class="cls-1" d="M179.73,48.52c-3.91,0-7.09-3.18-7.09-7.09s3.18-7.09,7.09-7.09,7.09,3.18,7.09,7.09-3.18,7.09-7.09,7.09Zm0-11.24c-2.29,0-4.15,1.86-4.15,4.15s1.86,4.15,4.15,4.15,4.15-1.86,4.15-4.15-1.86-4.15-4.15-4.15Z"/><path class="cls-4" d="M231.2,48.52c-3.91,0-7.09-3.18-7.09-7.09s3.18-7.09,7.09-7.09,7.1,3.18,7.1,7.09-3.18,7.09-7.1,7.09Zm0-11.24c-2.29,0-4.15,1.86-4.15,4.15s1.86,4.15,4.15,4.15,4.15-1.86,4.15-4.15-1.86-4.15-4.15-4.15Z"/><path class="cls-2" d="M275.98,49.59c-.38,0-.75-.14-1.04-.43-.58-.58-.58-1.51,0-2.08l13.38-13.38c.57-.58,1.51-.58,2.08,0,.58,.58,.58,1.51,0,2.08l-13.38,13.38c-.29,.29-.66,.43-1.04,.43Z"/><circle class="cls-3" cx="8.17" cy="41.42" r="2.72"/><circle class="cls-3" cx="25.32" cy="41.42" r="2.72"/><circle class="cls-3" cx="42.48" cy="41.42" r="2.72"/><circle class="cls-3" cx="59.64" cy="41.42" r="2.72"/><circle class="cls-3" cx="76.79" cy="41.42" r="2.72"/><circle class="cls-3" cx="93.95" cy="41.42" r="2.72"/><circle class="cls-3" cx="128.26" cy="41.42" r="2.72"/><circle class="cls-3" cx="162.58" cy="41.42" r="2.72"/><circle class="cls-3" cx="214.05" cy="41.42" r="2.72"/><circle class="cls-3" cx="248.36" cy="41.42" r="2.72"/><circle class="cls-3" cx="265.52" cy="41.42" r="2.72"/><circle class="cls-3" cx="299.83" cy="41.42" r="2.72"/><circle class="cls-3" cx="316.99" cy="41.42" r="2.72"/><circle class="cls-3" cx="334.15" cy="41.42" r="2.72"/><circle class="cls-3" cx="351.3" cy="41.42" r="2.72"/><circle class="cls-3" cx="196.89" cy="41.42" r="2.72"/></g><g><path class="cls-1" d="M111.11,65.15c-3.91,0-7.09-3.18-7.09-7.09s3.18-7.09,7.09-7.09,7.09,3.18,7.09,7.09-3.18,7.09-7.09,7.09Zm0-11.24c-2.29,0-4.15,1.86-4.15,4.15s1.86,4.15,4.15,4.15,4.15-1.86,4.15-4.15-1.86-4.15-4.15-4.15Z"/><path class="cls-1" d="M145.42,65.15c-3.91,0-7.09-3.18-7.09-7.09s3.18-7.09,7.09-7.09,7.09,3.18,7.09,7.09-3.18,7.09-7.09,7.09Zm0-11.24c-2.29,0-4.15,1.86-4.15,4.15s1.86,4.15,4.15,4.15,4.15-1.86,4.15-4.15-1.86-4.15-4.15-4.15Z"/><path class="cls-1" d="M179.73,65.15c-3.91,0-7.09-3.18-7.09-7.09s3.18-7.09,7.09-7.09,7.09,3.18,7.09,7.09-3.18,7.09-7.09,7.09Zm0-11.24c-2.29,0-4.15,1.86-4.15,4.15s1.86,4.15,4.15,4.15,4.15-1.86,4.15-4.15-1.86-4.15-4.15-4.15Z"/><path class="cls-4" d="M231.2,65.15c-3.91,0-7.09-3.18-7.09-7.09s3.18-7.09,7.09-7.09,7.1,3.18,7.1,7.09-3.18,7.09-7.1,7.09Zm0-11.24c-2.29,0-4.15,1.86-4.15,4.15s1.86,4.15,4.15,4.15,4.15-1.86,4.15-4.15-1.86-4.15-4.15-4.15Z"/><circle class="cls-3" cx="8.17" cy="58.05" r="2.72"/><circle class="cls-3" cx="25.32" cy="58.05" r="2.72"/><circle class="cls-3" cx="42.48" cy="58.05" r="2.72"/><circle class="cls-3" cx="59.64" cy="58.05" r="2.72"/><circle class="cls-3" cx="76.79" cy="58.05" r="2.72"/><circle class="cls-3" cx="93.95" cy="58.05" r="2.72"/><circle class="cls-3" cx="128.26" cy="58.05" r="2.72"/><circle class="cls-3" cx="162.58" cy="58.05" r="2.72"/><circle class="cls-3" cx="214.05" cy="58.05" r="2.72"/><circle class="cls-3" cx="248.36" cy="58.05" r="2.72"/><circle class="cls-3" cx="265.52" cy="58.05" r="2.72"/><circle class="cls-3" cx="299.83" cy="58.05" r="2.72"/><circle class="cls-3" cx="316.99" cy="58.05" r="2.72"/><circle class="cls-3" cx="334.15" cy="58.05" r="2.72"/><circle class="cls-3" cx="351.3" cy="58.05" r="2.72"/><circle class="cls-3" cx="282.68" cy="58.05" r="2.72"/><circle class="cls-3" cx="196.89" cy="58.05" r="2.72"/></g><g><path class="cls-1" d="M145.42,81.78c-3.91,0-7.09-3.18-7.09-7.09s3.18-7.09,7.09-7.09,7.09,3.18,7.09,7.09-3.18,7.09-7.09,7.09Zm0-11.24c-2.29,0-4.15,1.86-4.15,4.15s1.86,4.15,4.15,4.15,4.15-1.86,4.15-4.15-1.86-4.15-4.15-4.15Z"/><path class="cls-1" d="M179.73,81.78c-3.91,0-7.09-3.18-7.09-7.09s3.18-7.09,7.09-7.09,7.09,3.18,7.09,7.09-3.18,7.09-7.09,7.09Zm0-11.24c-2.29,0-4.15,1.86-4.15,4.15s1.86,4.15,4.15,4.15,4.15-1.86,4.15-4.15-1.86-4.15-4.15-4.15Z"/><path class="cls-4" d="M231.2,81.78c-3.91,0-7.09-3.18-7.09-7.09s3.18-7.09,7.09-7.09,7.1,3.18,7.1,7.09-3.18,7.09-7.1,7.09Zm0-11.24c-2.29,0-4.15,1.86-4.15,4.15s1.86,4.15,4.15,4.15,4.15-1.86,4.15-4.15-1.86-4.15-4.15-4.15Z"/><circle class="cls-1" cx="235.35" cy="74.68" r="2.83"/><circle class="cls-3" cx="8.17" cy="74.68" r="2.72"/><circle class="cls-3" cx="25.32" cy="74.68" r="2.72"/><circle class="cls-3" cx="42.48" cy="74.68" r="2.72"/><circle class="cls-3" cx="59.64" cy="74.68" r="2.72"/><circle class="cls-3" cx="76.79" cy="74.68" r="2.72"/><circle class="cls-3" cx="93.95" cy="74.68" r="2.72"/><circle class="cls-3" cx="111.11" cy="74.68" r="2.72"/><circle class="cls-3" cx="128.26" cy="74.68" r="2.72"/><circle class="cls-3" cx="162.58" cy="74.68" r="2.72"/><circle class="cls-3" cx="214.05" cy="74.68" r="2.72"/><circle class="cls-3" cx="248.36" cy="74.68" r="2.72"/><circle class="cls-3" cx="265.52" cy="74.68" r="2.72"/><circle class="cls-3" cx="299.83" cy="74.68" r="2.72"/><circle class="cls-3" cx="316.99" cy="74.68" r="2.72"/><circle class="cls-3" cx="334.15" cy="74.68" r="2.72"/><circle class="cls-3" cx="351.3" cy="74.68" r="2.72"/><circle class="cls-3" cx="282.68" cy="74.68" r="2.72"/><circle class="cls-3" cx="196.89" cy="74.68" r="2.72"/></g><g><path class="cls-1" d="M145.42,98.41c-3.91,0-7.09-3.18-7.09-7.09s3.18-7.09,7.09-7.09,7.09,3.18,7.09,7.09-3.18,7.09-7.09,7.09Zm0-11.24c-2.29,0-4.15,1.86-4.15,4.15s1.86,4.15,4.15,4.15,4.15-1.86,4.15-4.15-1.86-4.15-4.15-4.15Z"/><path class="cls-1" d="M179.73,98.41c-3.91,0-7.09-3.18-7.09-7.09s3.18-7.09,7.09-7.09,7.09,3.18,7.09,7.09-3.18,7.09-7.09,7.09Zm0-11.24c-2.29,0-4.15,1.86-4.15,4.15s1.86,4.15,4.15,4.15,4.15-1.86,4.15-4.15-1.86-4.15-4.15-4.15Z"/><path class="cls-4" d="M231.2,98.41c-3.91,0-7.09-3.18-7.09-7.09s3.18-7.09,7.09-7.09,7.1,3.18,7.1,7.09-3.18,7.09-7.1,7.09Zm0-11.24c-2.29,0-4.15,1.86-4.15,4.15s1.86,4.15,4.15,4.15,4.15-1.86,4.15-4.15-1.86-4.15-4.15-4.15Z"/><circle class="cls-3" cx="8.17" cy="91.31" r="2.72"/><circle class="cls-3" cx="25.32" cy="91.31" r="2.72"/><circle class="cls-3" cx="42.48" cy="91.31" r="2.72"/><circle class="cls-3" cx="59.64" cy="91.31" r="2.72"/><circle class="cls-3" cx="76.79" cy="91.31" r="2.72"/><circle class="cls-3" cx="93.95" cy="91.31" r="2.72"/><circle class="cls-3" cx="111.11" cy="91.31" r="2.72"/><circle class="cls-3" cx="128.26" cy="91.31" r="2.72"/><circle class="cls-3" cx="162.58" cy="91.31" r="2.72"/><circle class="cls-3" cx="214.05" cy="91.31" r="2.72"/><circle class="cls-3" cx="248.36" cy="91.31" r="2.72"/><circle class="cls-3" cx="265.52" cy="91.31" r="2.72"/><circle class="cls-3" cx="299.83" cy="91.31" r="2.72"/><circle class="cls-3" cx="316.99" cy="91.31" r="2.72"/><circle class="cls-3" cx="334.15" cy="91.31" r="2.72"/><circle class="cls-3" cx="351.3" cy="91.31" r="2.72"/><circle class="cls-3" cx="282.68" cy="91.31" r="2.72"/><circle class="cls-3" cx="196.89" cy="91.31" r="2.72"/></g><g><path class="cls-1" d="M179.73,115.04c-3.91,0-7.09-3.18-7.09-7.09s3.18-7.09,7.09-7.09,7.09,3.18,7.09,7.09-3.18,7.09-7.09,7.09Zm0-11.24c-2.29,0-4.15,1.86-4.15,4.15s1.86,4.15,4.15,4.15,4.15-1.86,4.15-4.15-1.86-4.15-4.15-4.15Z"/><path class="cls-4" d="M231.2,115.04c-3.91,0-7.09-3.18-7.09-7.09s3.18-7.09,7.09-7.09,7.1,3.18,7.1,7.09-3.18,7.09-7.1,7.09Zm0-11.24c-2.29,0-4.15,1.86-4.15,4.15s1.86,4.15,4.15,4.15,4.15-1.86,4.15-4.15-1.86-4.15-4.15-4.15Z"/><circle class="cls-3" cx="8.17" cy="107.94" r="2.72"/><circle class="cls-3" cx="25.32" cy="107.94" r="2.72"/><circle class="cls-3" cx="42.48" cy="107.94" r="2.72"/><circle class="cls-3" cx="59.64" cy="107.94" r="2.72"/><circle class="cls-3" cx="76.79" cy="107.94" r="2.72"/><circle class="cls-3" cx="93.95" cy="107.94" r="2.72"/><circle class="cls-3" cx="111.11" cy="107.94" r="2.72"/><circle class="cls-3" cx="128.26" cy="107.94" r="2.72"/><circle class="cls-3" cx="145.42" cy="107.94" r="2.72"/><circle class="cls-3" cx="162.58" cy="107.94" r="2.72"/><circle class="cls-3" cx="214.05" cy="107.94" r="2.72"/><circle class="cls-3" cx="248.36" cy="107.94" r="2.72"/><circle class="cls-3" cx="265.52" cy="107.94" r="2.72"/><circle class="cls-3" cx="299.83" cy="107.94" r="2.72"/><circle class="cls-3" cx="316.99" cy="107.94" r="2.72"/><circle class="cls-3" cx="334.15" cy="107.94" r="2.72"/><circle class="cls-3" cx="351.3" cy="107.94" r="2.72"/><circle class="cls-3" cx="282.68" cy="107.94" r="2.72"/><circle class="cls-3" cx="196.89" cy="107.94" r="2.72"/></g><g><path class="cls-1" d="M179.73,131.67c-3.91,0-7.09-3.18-7.09-7.09s3.18-7.09,7.09-7.09,7.09,3.18,7.09,7.09-3.18,7.09-7.09,7.09Zm0-11.24c-2.29,0-4.15,1.86-4.15,4.15s1.86,4.15,4.15,4.15,4.15-1.86,4.15-4.15-1.86-4.15-4.15-4.15Z"/><circle class="cls-3" cx="8.17" cy="124.57" r="2.72"/><circle class="cls-3" cx="25.32" cy="124.57" r="2.72"/><circle class="cls-3" cx="42.48" cy="124.57" r="2.72"/><circle class="cls-3" cx="59.64" cy="124.57" r="2.72"/><circle class="cls-3" cx="76.79" cy="124.57" r="2.72"/><circle class="cls-3" cx="93.95" cy="124.57" r="2.72"/><circle class="cls-3" cx="111.11" cy="124.57" r="2.72"/><circle class="cls-3" cx="128.26" cy="124.57" r="2.72"/><circle class="cls-3" cx="145.42" cy="124.57" r="2.72"/><circle class="cls-3" cx="162.58" cy="124.57" r="2.72"/><circle class="cls-3" cx="214.05" cy="124.57" r="2.72"/><circle class="cls-3" cx="248.36" cy="124.57" r="2.72"/><circle class="cls-3" cx="265.52" cy="124.57" r="2.72"/><circle class="cls-3" cx="299.83" cy="124.57" r="2.72"/><circle class="cls-3" cx="316.99" cy="124.57" r="2.72"/><circle class="cls-3" cx="334.15" cy="124.57" r="2.72"/><circle class="cls-3" cx="351.3" cy="124.57" r="2.72"/><circle class="cls-3" cx="282.68" cy="124.57" r="2.72"/><circle class="cls-3" cx="231.2" cy="124.57" r="2.72"/><circle class="cls-3" cx="196.89" cy="124.57" r="2.72"/></g><g><path class="cls-1" d="M179.73,148.3c-3.91,0-7.09-3.18-7.09-7.09s3.18-7.09,7.09-7.09,7.09,3.18,7.09,7.09-3.18,7.09-7.09,7.09Zm0-11.24c-2.29,0-4.15,1.86-4.15,4.15s1.86,4.15,4.15,4.15,4.15-1.86,4.15-4.15-1.86-4.15-4.15-4.15Z"/><path class="cls-1" d="M196.89,148.3c-3.91,0-7.09-3.18-7.09-7.09s3.18-7.09,7.09-7.09,7.09,3.18,7.09,7.09-3.18,7.09-7.09,7.09Zm0-11.24c-2.29,0-4.15,1.86-4.15,4.15s1.86,4.15,4.15,4.15,4.15-1.86,4.15-4.15-1.86-4.15-4.15-4.15Z"/><path class="cls-1" d="M214.05,148.3c-3.91,0-7.09-3.18-7.09-7.09s3.18-7.09,7.09-7.09,7.1,3.18,7.1,7.09-3.18,7.09-7.1,7.09Zm0-11.24c-2.29,0-4.15,1.86-4.15,4.15s1.86,4.15,4.15,4.15,4.15-1.86,4.15-4.15-1.86-4.15-4.15-4.15Z"/><path class="cls-1" d="M231.2,148.3c-3.91,0-7.09-3.18-7.09-7.09s3.18-7.09,7.09-7.09,7.1,3.18,7.1,7.09-3.18,7.09-7.1,7.09Zm0-11.24c-2.29,0-4.15,1.86-4.15,4.15s1.86,4.15,4.15,4.15,4.15-1.86,4.15-4.15-1.86-4.15-4.15-4.15Z"/><path class="cls-1" d="M248.36,148.3c-3.91,0-7.1-3.18-7.1-7.09s3.18-7.09,7.1-7.09,7.09,3.18,7.09,7.09-3.18,7.09-7.09,7.09Zm0-11.24c-2.29,0-4.15,1.86-4.15,4.15s1.86,4.15,4.15,4.15,4.15-1.86,4.15-4.15-1.86-4.15-4.15-4.15Z"/><path class="cls-1" d="M265.52,148.3c-3.91,0-7.1-3.18-7.1-7.09s3.18-7.09,7.1-7.09,7.09,3.18,7.09,7.09-3.18,7.09-7.09,7.09Zm0-11.24c-2.29,0-4.15,1.86-4.15,4.15s1.86,4.15,4.15,4.15,4.15-1.86,4.15-4.15-1.86-4.15-4.15-4.15Z"/><circle class="cls-3" cx="8.17" cy="141.2" r="2.72"/><circle class="cls-3" cx="25.32" cy="141.2" r="2.72"/><circle class="cls-3" cx="42.48" cy="141.2" r="2.72"/><circle class="cls-3" cx="59.64" cy="141.2" r="2.72"/><circle class="cls-3" cx="76.79" cy="141.2" r="2.72"/><circle class="cls-3" cx="93.95" cy="141.2" r="2.72"/><circle class="cls-3" cx="111.11" cy="141.2" r="2.72"/><circle class="cls-3" cx="128.26" cy="141.2" r="2.72"/><circle class="cls-3" cx="145.42" cy="141.2" r="2.72"/><circle class="cls-3" cx="282.68" cy="141.2" r="2.72"/><circle class="cls-3" cx="299.83" cy="141.2" r="2.72"/><circle class="cls-3" cx="316.99" cy="141.2" r="2.72"/><circle class="cls-3" cx="334.15" cy="141.2" r="2.72"/><circle class="cls-3" cx="351.3" cy="141.2" r="2.72"/><circle class="cls-3" cx="162.58" cy="141.2" r="2.72"/></g></g></g></svg>