<?xml version="1.0" encoding="UTF-8"?><svg id="_이어_2" xmlns="http://www.w3.org/2000/svg" viewBox="0 0 360.8 150.7"><defs><style>.cls-1{fill:#fff;}.cls-2{fill:#1585ff;}.cls-3{fill:#40ff7c;}.cls-4{fill:#515151;}.cls-5{fill:#f00000;}</style></defs><g id="_이어_1-2"><g><g><path class="cls-2" d="M8.83,15.93c-3.91,0-7.1-3.18-7.1-7.09S4.92,1.74,8.83,1.74s7.09,3.18,7.09,7.09-3.18,7.09-7.09,7.09Zm0-11.24c-2.29,0-4.15,1.86-4.15,4.15s1.86,4.15,4.15,4.15,4.15-1.86,4.15-4.15-1.86-4.15-4.15-4.15Z"/><path class="cls-5" d="M25.99,15.93c-3.91,0-7.1-3.18-7.1-7.09s3.18-7.09,7.1-7.09,7.09,3.18,7.09,7.09-3.18,7.09-7.09,7.09Zm0-11.24c-2.29,0-4.15,1.86-4.15,4.15s1.86,4.15,4.15,4.15,4.15-1.86,4.15-4.15-1.86-4.15-4.15-4.15Z"/><path class="cls-2" d="M43.15,15.93c-3.91,0-7.09-3.18-7.09-7.09s3.18-7.09,7.09-7.09,7.09,3.18,7.09,7.09-3.18,7.09-7.09,7.09Zm0-11.24c-2.29,0-4.15,1.86-4.15,4.15s1.86,4.15,4.15,4.15,4.15-1.86,4.15-4.15-1.86-4.15-4.15-4.15Z"/><path class="cls-5" d="M60.3,15.93c-3.91,0-7.09-3.18-7.09-7.09s3.18-7.09,7.09-7.09,7.09,3.18,7.09,7.09-3.18,7.09-7.09,7.09Zm0-11.24c-2.29,0-4.15,1.86-4.15,4.15s1.86,4.15,4.15,4.15,4.15-1.86,4.15-4.15-1.86-4.15-4.15-4.15Z"/><path class="cls-2" d="M77.46,15.93c-3.91,0-7.09-3.18-7.09-7.09s3.18-7.09,7.09-7.09,7.09,3.18,7.09,7.09-3.18,7.09-7.09,7.09Zm0-11.24c-2.29,0-4.15,1.86-4.15,4.15s1.86,4.15,4.15,4.15,4.15-1.86,4.15-4.15-1.86-4.15-4.15-4.15Z"/><path class="cls-5" d="M94.62,15.93c-3.91,0-7.09-3.18-7.09-7.09s3.18-7.09,7.09-7.09,7.09,3.18,7.09,7.09-3.18,7.09-7.09,7.09Zm0-11.24c-2.29,0-4.15,1.86-4.15,4.15s1.86,4.15,4.15,4.15,4.15-1.86,4.15-4.15-1.86-4.15-4.15-4.15Z"/><path class="cls-2" d="M111.77,15.93c-3.91,0-7.09-3.18-7.09-7.09s3.18-7.09,7.09-7.09,7.09,3.18,7.09,7.09-3.18,7.09-7.09,7.09Zm0-11.24c-2.29,0-4.15,1.86-4.15,4.15s1.86,4.15,4.15,4.15,4.15-1.86,4.15-4.15-1.86-4.15-4.15-4.15Z"/><path class="cls-5" d="M128.93,15.93c-3.91,0-7.09-3.18-7.09-7.09s3.18-7.09,7.09-7.09,7.09,3.18,7.09,7.09-3.18,7.09-7.09,7.09Zm0-11.24c-2.29,0-4.15,1.86-4.15,4.15s1.86,4.15,4.15,4.15,4.15-1.86,4.15-4.15-1.86-4.15-4.15-4.15Z"/><path class="cls-2" d="M146.09,15.93c-3.91,0-7.09-3.18-7.09-7.09s3.18-7.09,7.09-7.09,7.09,3.18,7.09,7.09-3.18,7.09-7.09,7.09Zm0-11.24c-2.29,0-4.15,1.86-4.15,4.15s1.86,4.15,4.15,4.15,4.15-1.86,4.15-4.15-1.86-4.15-4.15-4.15Z"/><path class="cls-5" d="M163.24,15.93c-3.91,0-7.09-3.18-7.09-7.09s3.18-7.09,7.09-7.09,7.09,3.18,7.09,7.09-3.18,7.09-7.09,7.09Zm0-11.24c-2.29,0-4.15,1.86-4.15,4.15s1.86,4.15,4.15,4.15,4.15-1.86,4.15-4.15-1.86-4.15-4.15-4.15Z"/><path class="cls-2" d="M180.4,15.93c-3.91,0-7.09-3.18-7.09-7.09s3.18-7.09,7.09-7.09,7.09,3.18,7.09,7.09-3.18,7.09-7.09,7.09Zm0-11.24c-2.29,0-4.15,1.86-4.15,4.15s1.86,4.15,4.15,4.15,4.15-1.86,4.15-4.15-1.86-4.15-4.15-4.15Z"/><path class="cls-5" d="M197.56,15.93c-3.91,0-7.09-3.18-7.09-7.09s3.18-7.09,7.09-7.09,7.09,3.18,7.09,7.09-3.18,7.09-7.09,7.09Zm0-11.24c-2.29,0-4.15,1.86-4.15,4.15s1.86,4.15,4.15,4.15,4.15-1.86,4.15-4.15-1.86-4.15-4.15-4.15Z"/><path class="cls-2" d="M214.72,15.93c-3.91,0-7.09-3.18-7.09-7.09s3.18-7.09,7.09-7.09,7.1,3.18,7.1,7.09-3.18,7.09-7.1,7.09Zm0-11.24c-2.29,0-4.15,1.86-4.15,4.15s1.86,4.15,4.15,4.15,4.15-1.86,4.15-4.15-1.86-4.15-4.15-4.15Z"/><path class="cls-5" d="M231.87,15.93c-3.91,0-7.09-3.18-7.09-7.09s3.18-7.09,7.09-7.09,7.1,3.18,7.1,7.09-3.18,7.09-7.1,7.09Zm0-11.24c-2.29,0-4.15,1.86-4.15,4.15s1.86,4.15,4.15,4.15,4.15-1.86,4.15-4.15-1.86-4.15-4.15-4.15Z"/><path class="cls-2" d="M249.03,15.93c-3.91,0-7.1-3.18-7.1-7.09s3.18-7.09,7.1-7.09,7.09,3.18,7.09,7.09-3.18,7.09-7.09,7.09Zm0-11.24c-2.29,0-4.15,1.86-4.15,4.15s1.86,4.15,4.15,4.15,4.15-1.86,4.15-4.15-1.86-4.15-4.15-4.15Z"/><path class="cls-5" d="M266.19,15.93c-3.91,0-7.1-3.18-7.1-7.09s3.18-7.09,7.1-7.09,7.09,3.18,7.09,7.09-3.18,7.09-7.09,7.09Zm0-11.24c-2.29,0-4.15,1.86-4.15,4.15s1.86,4.15,4.15,4.15,4.15-1.86,4.15-4.15-1.86-4.15-4.15-4.15Z"/><path class="cls-2" d="M283.34,15.93c-3.91,0-7.09-3.18-7.09-7.09s3.18-7.09,7.09-7.09,7.09,3.18,7.09,7.09-3.18,7.09-7.09,7.09Zm0-11.24c-2.29,0-4.15,1.86-4.15,4.15s1.86,4.15,4.15,4.15,4.15-1.86,4.15-4.15-1.86-4.15-4.15-4.15Z"/><path class="cls-5" d="M300.5,15.93c-3.91,0-7.09-3.18-7.09-7.09s3.18-7.09,7.09-7.09,7.09,3.18,7.09,7.09-3.18,7.09-7.09,7.09Zm0-11.24c-2.29,0-4.15,1.86-4.15,4.15s1.86,4.15,4.15,4.15,4.15-1.86,4.15-4.15-1.86-4.15-4.15-4.15Z"/><path class="cls-2" d="M317.66,15.93c-3.91,0-7.09-3.18-7.09-7.09s3.18-7.09,7.09-7.09,7.09,3.18,7.09,7.09-3.18,7.09-7.09,7.09Zm0-11.24c-2.29,0-4.15,1.86-4.15,4.15s1.86,4.15,4.15,4.15,4.15-1.86,4.15-4.15-1.86-4.15-4.15-4.15Z"/><path class="cls-5" d="M334.81,15.93c-3.91,0-7.09-3.18-7.09-7.09s3.18-7.09,7.09-7.09,7.09,3.18,7.09,7.09-3.18,7.09-7.09,7.09Zm0-11.24c-2.29,0-4.15,1.86-4.15,4.15s1.86,4.15,4.15,4.15,4.15-1.86,4.15-4.15-1.86-4.15-4.15-4.15Z"/><path class="cls-2" d="M351.97,15.93c-3.91,0-7.09-3.18-7.09-7.09s3.18-7.09,7.09-7.09,7.09,3.18,7.09,7.09-3.18,7.09-7.09,7.09Zm0-11.24c-2.29,0-4.15,1.86-4.15,4.15s1.86,4.15,4.15,4.15,4.15-1.86,4.15-4.15-1.86-4.15-4.15-4.15Z"/><path class="cls-3" d="M139.4,17c-.38,0-.75-.14-1.04-.43-.58-.58-.58-1.51,0-2.08l13.38-13.38c.57-.58,1.51-.58,2.08,0,.58,.58,.58,1.51,0,2.08l-13.38,13.38c-.29,.29-.66,.43-1.04,.43Z"/><path class="cls-3" d="M156.55,17c-.38,0-.75-.14-1.04-.43-.58-.58-.58-1.51,0-2.08l13.38-13.38c.57-.58,1.51-.58,2.08,0,.58,.58,.58,1.51,0,2.08l-13.38,13.38c-.29,.29-.66,.43-1.04,.43Z"/><path class="cls-3" d="M173.71,17c-.38,0-.75-.14-1.04-.43-.58-.58-.58-1.51,0-2.08l13.38-13.38c.57-.58,1.51-.58,2.08,0,.58,.58,.58,1.51,0,2.08l-13.38,13.38c-.29,.29-.66,.43-1.04,.43Z"/><path class="cls-3" d="M190.87,17c-.38,0-.75-.14-1.04-.43-.58-.58-.58-1.51,0-2.08l13.38-13.38c.57-.58,1.51-.58,2.08,0,.58,.58,.58,1.51,0,2.08l-13.38,13.38c-.29,.29-.66,.43-1.04,.43Z"/><path class="cls-3" d="M208.02,17c-.38,0-.75-.14-1.04-.43-.58-.58-.58-1.51,0-2.08l13.38-13.38c.57-.58,1.51-.58,2.08,0,.58,.58,.58,1.51,0,2.08l-13.38,13.38c-.29,.29-.66,.43-1.04,.43Z"/><path class="cls-3" d="M225.18,17c-.38,0-.75-.14-1.04-.43-.58-.58-.58-1.51,0-2.08l13.38-13.38c.57-.58,1.51-.58,2.08,0,.58,.58,.58,1.51,0,2.08l-13.38,13.38c-.29,.29-.66,.43-1.04,.43Z"/><path class="cls-3" d="M345.28,17c-.38,0-.75-.14-1.04-.43-.58-.58-.58-1.51,0-2.08l13.38-13.38c.57-.58,1.51-.58,2.08,0,.58,.58,.58,1.51,0,2.08l-13.38,13.38c-.29,.29-.66,.43-1.04,.43Z"/><circle class="cls-2" cx="124.75" cy="4.98" r="2.83"/><path class="cls-1" d="M17.67,17.67H0V0H17.67V17.67ZM.5,17.17H17.17V.5H.5V17.17Z"/><path class="cls-1" d="M34.82,17.67H17.16V0h17.67V17.67Zm-17.17-.5h16.67V.5H17.66V17.17Z"/><path class="cls-1" d="M51.98,17.67h-17.67V0h17.67V17.67Zm-17.17-.5h16.67V.5h-16.67V17.17Z"/><path class="cls-1" d="M69.14,17.67h-17.67V0h17.67V17.67Zm-17.17-.5h16.67V.5h-16.67V17.17Z"/><path class="cls-1" d="M86.29,17.67h-17.67V0h17.67V17.67Zm-17.17-.5h16.67V.5h-16.67V17.17Z"/><path class="cls-1" d="M103.45,17.67h-17.67V0h17.67V17.67Zm-17.17-.5h16.67V.5h-16.67V17.17Z"/><path class="cls-1" d="M120.61,17.67h-17.67V0h17.67V17.67Zm-17.17-.5h16.67V.5h-16.67V17.17Z"/><path class="cls-1" d="M137.76,17.67h-17.67V0h17.67V17.67Zm-17.17-.5h16.67V.5h-16.67V17.17Z"/><path class="cls-1" d="M154.92,17.67h-17.67V0h17.67V17.67Zm-17.17-.5h16.67V.5h-16.67V17.17Z"/><path class="cls-1" d="M172.08,17.67h-17.67V0h17.67V17.67Zm-17.17-.5h16.67V.5h-16.67V17.17Z"/><path class="cls-1" d="M189.23,17.67h-17.67V0h17.67V17.67Zm-17.17-.5h16.67V.5h-16.67V17.17Z"/><path class="cls-1" d="M206.39,17.67h-17.67V0h17.67V17.67Zm-17.17-.5h16.67V.5h-16.67V17.17Z"/><path class="cls-1" d="M223.55,17.67h-17.67V0h17.67V17.67Zm-17.17-.5h16.67V.5h-16.67V17.17Z"/><path class="cls-1" d="M240.71,17.67h-17.67V0h17.67V17.67Zm-17.17-.5h16.67V.5h-16.67V17.17Z"/><path class="cls-1" d="M257.86,17.67h-17.67V0h17.67V17.67Zm-17.17-.5h16.67V.5h-16.67V17.17Z"/><path class="cls-1" d="M275.02,17.67h-17.67V0h17.67V17.67Zm-17.17-.5h16.67V.5h-16.67V17.17Z"/><path class="cls-1" d="M292.17,17.67h-17.67V0h17.67V17.67Zm-17.17-.5h16.67V.5h-16.67V17.17Z"/><path class="cls-1" d="M309.33,17.67h-17.67V0h17.67V17.67Zm-17.17-.5h16.67V.5h-16.67V17.17Z"/><path class="cls-1" d="M326.49,17.67h-17.67V0h17.67V17.67Zm-17.17-.5h16.67V.5h-16.67V17.17Z"/><path class="cls-1" d="M343.65,17.67h-17.67V0h17.67V17.67Zm-17.17-.5h16.67V.5h-16.67V17.17Z"/><path class="cls-1" d="M360.8,17.67h-17.67V0h17.67V17.67Zm-17.17-.5h16.67V.5h-16.67V17.17Z"/></g><g><path class="cls-2" d="M43.15,32.56c-3.91,0-7.09-3.18-7.09-7.09s3.18-7.09,7.09-7.09,7.09,3.18,7.09,7.09-3.18,7.09-7.09,7.09Zm0-11.24c-2.29,0-4.15,1.86-4.15,4.15s1.86,4.15,4.15,4.15,4.15-1.86,4.15-4.15-1.86-4.15-4.15-4.15Z"/><path class="cls-2" d="M77.46,32.56c-3.91,0-7.09-3.18-7.09-7.09s3.18-7.09,7.09-7.09,7.09,3.18,7.09,7.09-3.18,7.09-7.09,7.09Zm0-11.24c-2.29,0-4.15,1.86-4.15,4.15s1.86,4.15,4.15,4.15,4.15-1.86,4.15-4.15-1.86-4.15-4.15-4.15Z"/><path class="cls-2" d="M111.77,32.56c-3.91,0-7.09-3.18-7.09-7.09s3.18-7.09,7.09-7.09,7.09,3.18,7.09,7.09-3.18,7.09-7.09,7.09Zm0-11.24c-2.29,0-4.15,1.86-4.15,4.15s1.86,4.15,4.15,4.15,4.15-1.86,4.15-4.15-1.86-4.15-4.15-4.15Z"/><path class="cls-2" d="M146.09,32.56c-3.91,0-7.09-3.18-7.09-7.09s3.18-7.09,7.09-7.09,7.09,3.18,7.09,7.09-3.18,7.09-7.09,7.09Zm0-11.24c-2.29,0-4.15,1.86-4.15,4.15s1.86,4.15,4.15,4.15,4.15-1.86,4.15-4.15-1.86-4.15-4.15-4.15Z"/><path class="cls-2" d="M180.4,32.56c-3.91,0-7.09-3.18-7.09-7.09s3.18-7.09,7.09-7.09,7.09,3.18,7.09,7.09-3.18,7.09-7.09,7.09Zm0-11.24c-2.29,0-4.15,1.86-4.15,4.15s1.86,4.15,4.15,4.15,4.15-1.86,4.15-4.15-1.86-4.15-4.15-4.15Z"/><path class="cls-5" d="M197.56,32.56c-3.91,0-7.09-3.18-7.09-7.09s3.18-7.09,7.09-7.09,7.09,3.18,7.09,7.09-3.18,7.09-7.09,7.09Zm0-11.24c-2.29,0-4.15,1.86-4.15,4.15s1.86,4.15,4.15,4.15,4.15-1.86,4.15-4.15-1.86-4.15-4.15-4.15Z"/><path class="cls-5" d="M231.87,32.56c-3.91,0-7.09-3.18-7.09-7.09s3.18-7.09,7.09-7.09,7.1,3.18,7.1,7.09-3.18,7.09-7.1,7.09Zm0-11.24c-2.29,0-4.15,1.86-4.15,4.15s1.86,4.15,4.15,4.15,4.15-1.86,4.15-4.15-1.86-4.15-4.15-4.15Z"/><path class="cls-2" d="M8.83,32.56c-3.91,0-7.1-3.18-7.1-7.09s3.18-7.09,7.1-7.09,7.09,3.18,7.09,7.09-3.18,7.09-7.09,7.09Zm0-11.24c-2.29,0-4.15,1.86-4.15,4.15s1.86,4.15,4.15,4.15,4.15-1.86,4.15-4.15-1.86-4.15-4.15-4.15Z"/><path class="cls-3" d="M2.14,33.63c-.38,0-.75-.14-1.04-.43-.58-.58-.58-1.51,0-2.08l13.38-13.38c.57-.58,1.51-.58,2.08,0,.58,.58,.58,1.51,0,2.08L3.18,33.2c-.29,.29-.66,.43-1.04,.43Z"/><path class="cls-3" d="M70.77,33.63c-.38,0-.75-.14-1.04-.43-.58-.58-.58-1.51,0-2.08l13.38-13.38c.57-.58,1.51-.58,2.08,0,.58,.58,.58,1.51,0,2.08l-13.38,13.38c-.29,.29-.66,.43-1.04,.43Z"/><path class="cls-3" d="M276.65,33.63c-.38,0-.75-.14-1.04-.43-.58-.58-.58-1.51,0-2.08l13.38-13.38c.57-.58,1.51-.58,2.08,0,.58,.58,.58,1.51,0,2.08l-13.38,13.38c-.29,.29-.66,.43-1.04,.43Z"/><circle class="cls-2" cx="202.19" cy="25.46" r="2.83"/><circle class="cls-4" cx="94.62" cy="25.46" r="2.72"/><circle class="cls-4" cx="60.3" cy="25.46" r="2.72"/><circle class="cls-4" cx="25.99" cy="25.46" r="2.72"/><circle class="cls-4" cx="128.93" cy="25.46" r="2.72"/><circle class="cls-4" cx="163.24" cy="25.46" r="2.72"/><circle class="cls-4" cx="214.72" cy="25.46" r="2.72"/><circle class="cls-4" cx="249.03" cy="25.46" r="2.72"/><circle class="cls-4" cx="266.19" cy="25.46" r="2.72"/><circle class="cls-4" cx="300.5" cy="25.46" r="2.72"/><circle class="cls-4" cx="317.66" cy="25.46" r="2.72"/><circle class="cls-4" cx="334.81" cy="25.46" r="2.72"/><circle class="cls-4" cx="351.97" cy="25.46" r="2.72"/><path class="cls-1" d="M17.67,34.29H0V16.63H17.67v17.67Zm-17.17-.5H17.17V17.13H.5v16.67Z"/><path class="cls-1" d="M34.82,34.29H17.16V16.63h17.67v17.67Zm-17.17-.5h16.67V17.13H17.66v16.67Z"/><path class="cls-1" d="M51.98,34.29h-17.67V16.63h17.67v17.67Zm-17.17-.5h16.67V17.13h-16.67v16.67Z"/><path class="cls-1" d="M69.14,34.29h-17.67V16.63h17.67v17.67Zm-17.17-.5h16.67V17.13h-16.67v16.67Z"/><path class="cls-1" d="M86.29,34.29h-17.67V16.63h17.67v17.67Zm-17.17-.5h16.67V17.13h-16.67v16.67Z"/><path class="cls-1" d="M103.45,34.29h-17.67V16.63h17.67v17.67Zm-17.17-.5h16.67V17.13h-16.67v16.67Z"/><path class="cls-1" d="M120.61,34.29h-17.67V16.63h17.67v17.67Zm-17.17-.5h16.67V17.13h-16.67v16.67Z"/><path class="cls-1" d="M137.76,34.29h-17.67V16.63h17.67v17.67Zm-17.17-.5h16.67V17.13h-16.67v16.67Z"/><path class="cls-1" d="M154.92,34.29h-17.67V16.63h17.67v17.67Zm-17.17-.5h16.67V17.13h-16.67v16.67Z"/><path class="cls-1" d="M172.08,34.29h-17.67V16.63h17.67v17.67Zm-17.17-.5h16.67V17.13h-16.67v16.67Z"/><path class="cls-1" d="M189.23,34.29h-17.67V16.63h17.67v17.67Zm-17.17-.5h16.67V17.13h-16.67v16.67Z"/><path class="cls-1" d="M206.39,34.29h-17.67V16.63h17.67v17.67Zm-17.17-.5h16.67V17.13h-16.67v16.67Z"/><path class="cls-1" d="M223.55,34.29h-17.67V16.63h17.67v17.67Zm-17.17-.5h16.67V17.13h-16.67v16.67Z"/><path class="cls-1" d="M240.71,34.29h-17.67V16.63h17.67v17.67Zm-17.17-.5h16.67V17.13h-16.67v16.67Z"/><path class="cls-1" d="M257.86,34.29h-17.67V16.63h17.67v17.67Zm-17.17-.5h16.67V17.13h-16.67v16.67Z"/><path class="cls-1" d="M275.02,34.29h-17.67V16.63h17.67v17.67Zm-17.17-.5h16.67V17.13h-16.67v16.67Z"/><path class="cls-1" d="M292.17,34.29h-17.67V16.63h17.67v17.67Zm-17.17-.5h16.67V17.13h-16.67v16.67Z"/><path class="cls-1" d="M309.33,34.29h-17.67V16.63h17.67v17.67Zm-17.17-.5h16.67V17.13h-16.67v16.67Z"/><path class="cls-1" d="M326.49,34.29h-17.67V16.63h17.67v17.67Zm-17.17-.5h16.67V17.13h-16.67v16.67Z"/><path class="cls-1" d="M343.65,34.29h-17.67V16.63h17.67v17.67Zm-17.17-.5h16.67V17.13h-16.67v16.67Z"/><path class="cls-1" d="M360.8,34.29h-17.67V16.63h17.67v17.67Zm-17.17-.5h16.67V17.13h-16.67v16.67Z"/></g><g><path class="cls-2" d="M111.77,49.19c-3.91,0-7.09-3.18-7.09-7.09s3.18-7.09,7.09-7.09,7.09,3.18,7.09,7.09-3.18,7.09-7.09,7.09Zm0-11.24c-2.29,0-4.15,1.86-4.15,4.15s1.86,4.15,4.15,4.15,4.15-1.86,4.15-4.15-1.86-4.15-4.15-4.15Z"/><path class="cls-2" d="M146.09,49.19c-3.91,0-7.09-3.18-7.09-7.09s3.18-7.09,7.09-7.09,7.09,3.18,7.09,7.09-3.18,7.09-7.09,7.09Zm0-11.24c-2.29,0-4.15,1.86-4.15,4.15s1.86,4.15,4.15,4.15,4.15-1.86,4.15-4.15-1.86-4.15-4.15-4.15Z"/><path class="cls-2" d="M180.4,49.19c-3.91,0-7.09-3.18-7.09-7.09s3.18-7.09,7.09-7.09,7.09,3.18,7.09,7.09-3.18,7.09-7.09,7.09Zm0-11.24c-2.29,0-4.15,1.86-4.15,4.15s1.86,4.15,4.15,4.15,4.15-1.86,4.15-4.15-1.86-4.15-4.15-4.15Z"/><path class="cls-5" d="M231.87,49.19c-3.91,0-7.09-3.18-7.09-7.09s3.18-7.09,7.09-7.09,7.1,3.18,7.1,7.09-3.18,7.09-7.1,7.09Zm0-11.24c-2.29,0-4.15,1.86-4.15,4.15s1.86,4.15,4.15,4.15,4.15-1.86,4.15-4.15-1.86-4.15-4.15-4.15Z"/><path class="cls-3" d="M276.65,50.26c-.38,0-.75-.14-1.04-.43-.58-.58-.58-1.51,0-2.08l13.38-13.38c.57-.58,1.51-.58,2.08,0,.58,.58,.58,1.51,0,2.08l-13.38,13.38c-.29,.29-.66,.43-1.04,.43Z"/><circle class="cls-4" cx="8.83" cy="42.09" r="2.72"/><circle class="cls-4" cx="25.99" cy="42.09" r="2.72"/><circle class="cls-4" cx="43.15" cy="42.09" r="2.72"/><circle class="cls-4" cx="60.3" cy="42.09" r="2.72"/><circle class="cls-4" cx="77.46" cy="42.09" r="2.72"/><circle class="cls-4" cx="94.62" cy="42.09" r="2.72"/><circle class="cls-4" cx="128.93" cy="42.09" r="2.72"/><circle class="cls-4" cx="163.24" cy="42.09" r="2.72"/><circle class="cls-4" cx="214.72" cy="42.09" r="2.72"/><circle class="cls-4" cx="249.03" cy="42.09" r="2.72"/><circle class="cls-4" cx="266.19" cy="42.09" r="2.72"/><circle class="cls-4" cx="300.5" cy="42.09" r="2.72"/><circle class="cls-4" cx="317.66" cy="42.09" r="2.72"/><circle class="cls-4" cx="334.81" cy="42.09" r="2.72"/><circle class="cls-4" cx="351.97" cy="42.09" r="2.72"/><circle class="cls-4" cx="197.56" cy="42.09" r="2.72"/><path class="cls-1" d="M17.67,50.92H0v-17.67H17.67v17.67Zm-17.17-.5H17.17v-16.67H.5v16.67Z"/><path class="cls-1" d="M34.82,50.92H17.16v-17.67h17.67v17.67Zm-17.17-.5h16.67v-16.67H17.66v16.67Z"/><path class="cls-1" d="M51.98,50.92h-17.67v-17.67h17.67v17.67Zm-17.17-.5h16.67v-16.67h-16.67v16.67Z"/><path class="cls-1" d="M69.14,50.92h-17.67v-17.67h17.67v17.67Zm-17.17-.5h16.67v-16.67h-16.67v16.67Z"/><path class="cls-1" d="M86.29,50.92h-17.67v-17.67h17.67v17.67Zm-17.17-.5h16.67v-16.67h-16.67v16.67Z"/><path class="cls-1" d="M103.45,50.92h-17.67v-17.67h17.67v17.67Zm-17.17-.5h16.67v-16.67h-16.67v16.67Z"/><path class="cls-1" d="M120.61,50.92h-17.67v-17.67h17.67v17.67Zm-17.17-.5h16.67v-16.67h-16.67v16.67Z"/><path class="cls-1" d="M137.76,50.92h-17.67v-17.67h17.67v17.67Zm-17.17-.5h16.67v-16.67h-16.67v16.67Z"/><path class="cls-1" d="M154.92,50.92h-17.67v-17.67h17.67v17.67Zm-17.17-.5h16.67v-16.67h-16.67v16.67Z"/><path class="cls-1" d="M172.08,50.92h-17.67v-17.67h17.67v17.67Zm-17.17-.5h16.67v-16.67h-16.67v16.67Z"/><path class="cls-1" d="M189.23,50.92h-17.67v-17.67h17.67v17.67Zm-17.17-.5h16.67v-16.67h-16.67v16.67Z"/><path class="cls-1" d="M206.39,50.92h-17.67v-17.67h17.67v17.67Zm-17.17-.5h16.67v-16.67h-16.67v16.67Z"/><path class="cls-1" d="M223.55,50.92h-17.67v-17.67h17.67v17.67Zm-17.17-.5h16.67v-16.67h-16.67v16.67Z"/><path class="cls-1" d="M240.71,50.92h-17.67v-17.67h17.67v17.67Zm-17.17-.5h16.67v-16.67h-16.67v16.67Z"/><path class="cls-1" d="M257.86,50.92h-17.67v-17.67h17.67v17.67Zm-17.17-.5h16.67v-16.67h-16.67v16.67Z"/><path class="cls-1" d="M275.02,50.92h-17.67v-17.67h17.67v17.67Zm-17.17-.5h16.67v-16.67h-16.67v16.67Z"/><path class="cls-1" d="M292.17,50.92h-17.67v-17.67h17.67v17.67Zm-17.17-.5h16.67v-16.67h-16.67v16.67Z"/><path class="cls-1" d="M309.33,50.92h-17.67v-17.67h17.67v17.67Zm-17.17-.5h16.67v-16.67h-16.67v16.67Z"/><path class="cls-1" d="M326.49,50.92h-17.67v-17.67h17.67v17.67Zm-17.17-.5h16.67v-16.67h-16.67v16.67Z"/><path class="cls-1" d="M343.65,50.92h-17.67v-17.67h17.67v17.67Zm-17.17-.5h16.67v-16.67h-16.67v16.67Z"/><path class="cls-1" d="M360.8,50.92h-17.67v-17.67h17.67v17.67Zm-17.17-.5h16.67v-16.67h-16.67v16.67Z"/></g><g><path class="cls-2" d="M111.77,65.82c-3.91,0-7.09-3.18-7.09-7.09s3.18-7.09,7.09-7.09,7.09,3.18,7.09,7.09-3.18,7.09-7.09,7.09Zm0-11.24c-2.29,0-4.15,1.86-4.15,4.15s1.86,4.15,4.15,4.15,4.15-1.86,4.15-4.15-1.86-4.15-4.15-4.15Z"/><path class="cls-2" d="M146.09,65.82c-3.91,0-7.09-3.18-7.09-7.09s3.18-7.09,7.09-7.09,7.09,3.18,7.09,7.09-3.18,7.09-7.09,7.09Zm0-11.24c-2.29,0-4.15,1.86-4.15,4.15s1.86,4.15,4.15,4.15,4.15-1.86,4.15-4.15-1.86-4.15-4.15-4.15Z"/><path class="cls-2" d="M180.4,65.82c-3.91,0-7.09-3.18-7.09-7.09s3.18-7.09,7.09-7.09,7.09,3.18,7.09,7.09-3.18,7.09-7.09,7.09Zm0-11.24c-2.29,0-4.15,1.86-4.15,4.15s1.86,4.15,4.15,4.15,4.15-1.86,4.15-4.15-1.86-4.15-4.15-4.15Z"/><path class="cls-5" d="M231.87,65.82c-3.91,0-7.09-3.18-7.09-7.09s3.18-7.09,7.09-7.09,7.1,3.18,7.1,7.09-3.18,7.09-7.1,7.09Zm0-11.24c-2.29,0-4.15,1.86-4.15,4.15s1.86,4.15,4.15,4.15,4.15-1.86,4.15-4.15-1.86-4.15-4.15-4.15Z"/><circle class="cls-4" cx="8.83" cy="58.72" r="2.72"/><circle class="cls-4" cx="25.99" cy="58.72" r="2.72"/><circle class="cls-4" cx="43.15" cy="58.72" r="2.72"/><circle class="cls-4" cx="60.3" cy="58.72" r="2.72"/><circle class="cls-4" cx="77.46" cy="58.72" r="2.72"/><circle class="cls-4" cx="94.62" cy="58.72" r="2.72"/><circle class="cls-4" cx="128.93" cy="58.72" r="2.72"/><circle class="cls-4" cx="163.24" cy="58.72" r="2.72"/><circle class="cls-4" cx="214.72" cy="58.72" r="2.72"/><circle class="cls-4" cx="249.03" cy="58.72" r="2.72"/><circle class="cls-4" cx="266.19" cy="58.72" r="2.72"/><circle class="cls-4" cx="300.5" cy="58.72" r="2.72"/><circle class="cls-4" cx="317.66" cy="58.72" r="2.72"/><circle class="cls-4" cx="334.81" cy="58.72" r="2.72"/><circle class="cls-4" cx="351.97" cy="58.72" r="2.72"/><circle class="cls-4" cx="283.34" cy="58.72" r="2.72"/><circle class="cls-4" cx="197.56" cy="58.72" r="2.72"/><path class="cls-1" d="M17.67,67.55H0v-17.67H17.67v17.67Zm-17.17-.5H17.17v-16.67H.5v16.67Z"/><path class="cls-1" d="M34.82,67.55H17.16v-17.67h17.67v17.67Zm-17.17-.5h16.67v-16.67H17.66v16.67Z"/><path class="cls-1" d="M51.98,67.55h-17.67v-17.67h17.67v17.67Zm-17.17-.5h16.67v-16.67h-16.67v16.67Z"/><path class="cls-1" d="M69.14,67.55h-17.67v-17.67h17.67v17.67Zm-17.17-.5h16.67v-16.67h-16.67v16.67Z"/><path class="cls-1" d="M86.29,67.55h-17.67v-17.67h17.67v17.67Zm-17.17-.5h16.67v-16.67h-16.67v16.67Z"/><path class="cls-1" d="M103.45,67.55h-17.67v-17.67h17.67v17.67Zm-17.17-.5h16.67v-16.67h-16.67v16.67Z"/><path class="cls-1" d="M120.61,67.55h-17.67v-17.67h17.67v17.67Zm-17.17-.5h16.67v-16.67h-16.67v16.67Z"/><path class="cls-1" d="M137.76,67.55h-17.67v-17.67h17.67v17.67Zm-17.17-.5h16.67v-16.67h-16.67v16.67Z"/><path class="cls-1" d="M154.92,67.55h-17.67v-17.67h17.67v17.67Zm-17.17-.5h16.67v-16.67h-16.67v16.67Z"/><path class="cls-1" d="M172.08,67.55h-17.67v-17.67h17.67v17.67Zm-17.17-.5h16.67v-16.67h-16.67v16.67Z"/><path class="cls-1" d="M189.23,67.55h-17.67v-17.67h17.67v17.67Zm-17.17-.5h16.67v-16.67h-16.67v16.67Z"/><path class="cls-1" d="M206.39,67.55h-17.67v-17.67h17.67v17.67Zm-17.17-.5h16.67v-16.67h-16.67v16.67Z"/><path class="cls-1" d="M223.55,67.55h-17.67v-17.67h17.67v17.67Zm-17.17-.5h16.67v-16.67h-16.67v16.67Z"/><path class="cls-1" d="M240.71,67.55h-17.67v-17.67h17.67v17.67Zm-17.17-.5h16.67v-16.67h-16.67v16.67Z"/><path class="cls-1" d="M257.86,67.55h-17.67v-17.67h17.67v17.67Zm-17.17-.5h16.67v-16.67h-16.67v16.67Z"/><path class="cls-1" d="M275.02,67.55h-17.67v-17.67h17.67v17.67Zm-17.17-.5h16.67v-16.67h-16.67v16.67Z"/><path class="cls-1" d="M292.17,67.55h-17.67v-17.67h17.67v17.67Zm-17.17-.5h16.67v-16.67h-16.67v16.67Z"/><path class="cls-1" d="M309.33,67.55h-17.67v-17.67h17.67v17.67Zm-17.17-.5h16.67v-16.67h-16.67v16.67Z"/><path class="cls-1" d="M326.49,67.55h-17.67v-17.67h17.67v17.67Zm-17.17-.5h16.67v-16.67h-16.67v16.67Z"/><path class="cls-1" d="M343.65,67.55h-17.67v-17.67h17.67v17.67Zm-17.17-.5h16.67v-16.67h-16.67v16.67Z"/><path class="cls-1" d="M360.8,67.55h-17.67v-17.67h17.67v17.67Zm-17.17-.5h16.67v-16.67h-16.67v16.67Z"/></g><g><path class="cls-2" d="M146.09,82.45c-3.91,0-7.09-3.18-7.09-7.09s3.18-7.09,7.09-7.09,7.09,3.18,7.09,7.09-3.18,7.09-7.09,7.09Zm0-11.24c-2.29,0-4.15,1.86-4.15,4.15s1.86,4.15,4.15,4.15,4.15-1.86,4.15-4.15-1.86-4.15-4.15-4.15Z"/><path class="cls-2" d="M180.4,82.45c-3.91,0-7.09-3.18-7.09-7.09s3.18-7.09,7.09-7.09,7.09,3.18,7.09,7.09-3.18,7.09-7.09,7.09Zm0-11.24c-2.29,0-4.15,1.86-4.15,4.15s1.86,4.15,4.15,4.15,4.15-1.86,4.15-4.15-1.86-4.15-4.15-4.15Z"/><path class="cls-5" d="M231.87,82.45c-3.91,0-7.09-3.18-7.09-7.09s3.18-7.09,7.09-7.09,7.1,3.18,7.1,7.09-3.18,7.09-7.1,7.09Zm0-11.24c-2.29,0-4.15,1.86-4.15,4.15s1.86,4.15,4.15,4.15,4.15-1.86,4.15-4.15-1.86-4.15-4.15-4.15Z"/><circle class="cls-2" cx="236.02" cy="75.35" r="2.83"/><circle class="cls-4" cx="8.83" cy="75.35" r="2.72"/><circle class="cls-4" cx="25.99" cy="75.35" r="2.72"/><circle class="cls-4" cx="43.15" cy="75.35" r="2.72"/><circle class="cls-4" cx="60.3" cy="75.35" r="2.72"/><circle class="cls-4" cx="77.46" cy="75.35" r="2.72"/><circle class="cls-4" cx="94.62" cy="75.35" r="2.72"/><circle class="cls-4" cx="111.77" cy="75.35" r="2.72"/><circle class="cls-4" cx="128.93" cy="75.35" r="2.72"/><circle class="cls-4" cx="163.24" cy="75.35" r="2.72"/><circle class="cls-4" cx="214.72" cy="75.35" r="2.72"/><circle class="cls-4" cx="249.03" cy="75.35" r="2.72"/><circle class="cls-4" cx="266.19" cy="75.35" r="2.72"/><circle class="cls-4" cx="300.5" cy="75.35" r="2.72"/><circle class="cls-4" cx="317.66" cy="75.35" r="2.72"/><circle class="cls-4" cx="334.81" cy="75.35" r="2.72"/><circle class="cls-4" cx="351.97" cy="75.35" r="2.72"/><circle class="cls-4" cx="283.34" cy="75.35" r="2.72"/><circle class="cls-4" cx="197.56" cy="75.35" r="2.72"/><path class="cls-1" d="M17.67,84.18H0v-17.67H17.67v17.67Zm-17.17-.5H17.17v-16.67H.5v16.67Z"/><path class="cls-1" d="M34.82,84.18H17.16v-17.67h17.67v17.67Zm-17.17-.5h16.67v-16.67H17.66v16.67Z"/><path class="cls-1" d="M51.98,84.18h-17.67v-17.67h17.67v17.67Zm-17.17-.5h16.67v-16.67h-16.67v16.67Z"/><path class="cls-1" d="M69.14,84.18h-17.67v-17.67h17.67v17.67Zm-17.17-.5h16.67v-16.67h-16.67v16.67Z"/><path class="cls-1" d="M86.29,84.18h-17.67v-17.67h17.67v17.67Zm-17.17-.5h16.67v-16.67h-16.67v16.67Z"/><path class="cls-1" d="M103.45,84.18h-17.67v-17.67h17.67v17.67Zm-17.17-.5h16.67v-16.67h-16.67v16.67Z"/><path class="cls-1" d="M120.61,84.18h-17.67v-17.67h17.67v17.67Zm-17.17-.5h16.67v-16.67h-16.67v16.67Z"/><path class="cls-1" d="M137.76,84.18h-17.67v-17.67h17.67v17.67Zm-17.17-.5h16.67v-16.67h-16.67v16.67Z"/><path class="cls-1" d="M154.92,84.18h-17.67v-17.67h17.67v17.67Zm-17.17-.5h16.67v-16.67h-16.67v16.67Z"/><path class="cls-1" d="M172.08,84.18h-17.67v-17.67h17.67v17.67Zm-17.17-.5h16.67v-16.67h-16.67v16.67Z"/><path class="cls-1" d="M189.23,84.18h-17.67v-17.67h17.67v17.67Zm-17.17-.5h16.67v-16.67h-16.67v16.67Z"/><path class="cls-1" d="M206.39,84.18h-17.67v-17.67h17.67v17.67Zm-17.17-.5h16.67v-16.67h-16.67v16.67Z"/><path class="cls-1" d="M223.55,84.18h-17.67v-17.67h17.67v17.67Zm-17.17-.5h16.67v-16.67h-16.67v16.67Z"/><path class="cls-1" d="M240.71,84.18h-17.67v-17.67h17.67v17.67Zm-17.17-.5h16.67v-16.67h-16.67v16.67Z"/><path class="cls-1" d="M257.86,84.18h-17.67v-17.67h17.67v17.67Zm-17.17-.5h16.67v-16.67h-16.67v16.67Z"/><path class="cls-1" d="M275.02,84.18h-17.67v-17.67h17.67v17.67Zm-17.17-.5h16.67v-16.67h-16.67v16.67Z"/><path class="cls-1" d="M292.17,84.18h-17.67v-17.67h17.67v17.67Zm-17.17-.5h16.67v-16.67h-16.67v16.67Z"/><path class="cls-1" d="M309.33,84.18h-17.67v-17.67h17.67v17.67Zm-17.17-.5h16.67v-16.67h-16.67v16.67Z"/><path class="cls-1" d="M326.49,84.18h-17.67v-17.67h17.67v17.67Zm-17.17-.5h16.67v-16.67h-16.67v16.67Z"/><path class="cls-1" d="M343.65,84.18h-17.67v-17.67h17.67v17.67Zm-17.17-.5h16.67v-16.67h-16.67v16.67Z"/><path class="cls-1" d="M360.8,84.18h-17.67v-17.67h17.67v17.67Zm-17.17-.5h16.67v-16.67h-16.67v16.67Z"/></g><g><path class="cls-2" d="M146.09,99.08c-3.91,0-7.09-3.18-7.09-7.09s3.18-7.09,7.09-7.09,7.09,3.18,7.09,7.09-3.18,7.09-7.09,7.09Zm0-11.24c-2.29,0-4.15,1.86-4.15,4.15s1.86,4.15,4.15,4.15,4.15-1.86,4.15-4.15-1.86-4.15-4.15-4.15Z"/><path class="cls-2" d="M180.4,99.08c-3.91,0-7.09-3.18-7.09-7.09s3.18-7.09,7.09-7.09,7.09,3.18,7.09,7.09-3.18,7.09-7.09,7.09Zm0-11.24c-2.29,0-4.15,1.86-4.15,4.15s1.86,4.15,4.15,4.15,4.15-1.86,4.15-4.15-1.86-4.15-4.15-4.15Z"/><path class="cls-5" d="M231.87,99.08c-3.91,0-7.09-3.18-7.09-7.09s3.18-7.09,7.09-7.09,7.1,3.18,7.1,7.09-3.18,7.09-7.1,7.09Zm0-11.24c-2.29,0-4.15,1.86-4.15,4.15s1.86,4.15,4.15,4.15,4.15-1.86,4.15-4.15-1.86-4.15-4.15-4.15Z"/><circle class="cls-4" cx="8.83" cy="91.98" r="2.72"/><circle class="cls-4" cx="25.99" cy="91.98" r="2.72"/><circle class="cls-4" cx="43.15" cy="91.98" r="2.72"/><circle class="cls-4" cx="60.3" cy="91.98" r="2.72"/><circle class="cls-4" cx="77.46" cy="91.98" r="2.72"/><circle class="cls-4" cx="94.62" cy="91.98" r="2.72"/><circle class="cls-4" cx="111.77" cy="91.98" r="2.72"/><circle class="cls-4" cx="128.93" cy="91.98" r="2.72"/><circle class="cls-4" cx="163.24" cy="91.98" r="2.72"/><circle class="cls-4" cx="214.72" cy="91.98" r="2.72"/><circle class="cls-4" cx="249.03" cy="91.98" r="2.72"/><circle class="cls-4" cx="266.19" cy="91.98" r="2.72"/><circle class="cls-4" cx="300.5" cy="91.98" r="2.72"/><circle class="cls-4" cx="317.66" cy="91.98" r="2.72"/><circle class="cls-4" cx="334.81" cy="91.98" r="2.72"/><circle class="cls-4" cx="351.97" cy="91.98" r="2.72"/><circle class="cls-4" cx="283.34" cy="91.98" r="2.72"/><circle class="cls-4" cx="197.56" cy="91.98" r="2.72"/><path class="cls-1" d="M17.67,100.81H0v-17.67H17.67v17.67Zm-17.17-.5H17.17v-16.67H.5v16.67Z"/><path class="cls-1" d="M34.82,100.81H17.16v-17.67h17.67v17.67Zm-17.17-.5h16.67v-16.67H17.66v16.67Z"/><path class="cls-1" d="M51.98,100.81h-17.67v-17.67h17.67v17.67Zm-17.17-.5h16.67v-16.67h-16.67v16.67Z"/><path class="cls-1" d="M69.14,100.81h-17.67v-17.67h17.67v17.67Zm-17.17-.5h16.67v-16.67h-16.67v16.67Z"/><path class="cls-1" d="M86.29,100.81h-17.67v-17.67h17.67v17.67Zm-17.17-.5h16.67v-16.67h-16.67v16.67Z"/><path class="cls-1" d="M103.45,100.81h-17.67v-17.67h17.67v17.67Zm-17.17-.5h16.67v-16.67h-16.67v16.67Z"/><path class="cls-1" d="M120.61,100.81h-17.67v-17.67h17.67v17.67Zm-17.17-.5h16.67v-16.67h-16.67v16.67Z"/><path class="cls-1" d="M137.76,100.81h-17.67v-17.67h17.67v17.67Zm-17.17-.5h16.67v-16.67h-16.67v16.67Z"/><path class="cls-1" d="M154.92,100.81h-17.67v-17.67h17.67v17.67Zm-17.17-.5h16.67v-16.67h-16.67v16.67Z"/><path class="cls-1" d="M172.08,100.81h-17.67v-17.67h17.67v17.67Zm-17.17-.5h16.67v-16.67h-16.67v16.67Z"/><path class="cls-1" d="M189.23,100.81h-17.67v-17.67h17.67v17.67Zm-17.17-.5h16.67v-16.67h-16.67v16.67Z"/><path class="cls-1" d="M206.39,100.81h-17.67v-17.67h17.67v17.67Zm-17.17-.5h16.67v-16.67h-16.67v16.67Z"/><path class="cls-1" d="M223.55,100.81h-17.67v-17.67h17.67v17.67Zm-17.17-.5h16.67v-16.67h-16.67v16.67Z"/><path class="cls-1" d="M240.71,100.81h-17.67v-17.67h17.67v17.67Zm-17.17-.5h16.67v-16.67h-16.67v16.67Z"/><path class="cls-1" d="M257.86,100.81h-17.67v-17.67h17.67v17.67Zm-17.17-.5h16.67v-16.67h-16.67v16.67Z"/><path class="cls-1" d="M275.02,100.81h-17.67v-17.67h17.67v17.67Zm-17.17-.5h16.67v-16.67h-16.67v16.67Z"/><path class="cls-1" d="M292.17,100.81h-17.67v-17.67h17.67v17.67Zm-17.17-.5h16.67v-16.67h-16.67v16.67Z"/><path class="cls-1" d="M309.33,100.81h-17.67v-17.67h17.67v17.67Zm-17.17-.5h16.67v-16.67h-16.67v16.67Z"/><path class="cls-1" d="M326.49,100.81h-17.67v-17.67h17.67v17.67Zm-17.17-.5h16.67v-16.67h-16.67v16.67Z"/><path class="cls-1" d="M343.65,100.81h-17.67v-17.67h17.67v17.67Zm-17.17-.5h16.67v-16.67h-16.67v16.67Z"/><path class="cls-1" d="M360.8,100.81h-17.67v-17.67h17.67v17.67Zm-17.17-.5h16.67v-16.67h-16.67v16.67Z"/></g><g><path class="cls-2" d="M180.4,115.71c-3.91,0-7.09-3.18-7.09-7.09s3.18-7.09,7.09-7.09,7.09,3.18,7.09,7.09-3.18,7.09-7.09,7.09Zm0-11.24c-2.29,0-4.15,1.86-4.15,4.15s1.86,4.15,4.15,4.15,4.15-1.86,4.15-4.15-1.86-4.15-4.15-4.15Z"/><path class="cls-5" d="M231.87,115.71c-3.91,0-7.09-3.18-7.09-7.09s3.18-7.09,7.09-7.09,7.1,3.18,7.1,7.09-3.18,7.09-7.1,7.09Zm0-11.24c-2.29,0-4.15,1.86-4.15,4.15s1.86,4.15,4.15,4.15,4.15-1.86,4.15-4.15-1.86-4.15-4.15-4.15Z"/><circle class="cls-4" cx="8.83" cy="108.61" r="2.72"/><circle class="cls-4" cx="25.99" cy="108.61" r="2.72"/><circle class="cls-4" cx="43.15" cy="108.61" r="2.72"/><circle class="cls-4" cx="60.3" cy="108.61" r="2.72"/><circle class="cls-4" cx="77.46" cy="108.61" r="2.72"/><circle class="cls-4" cx="94.62" cy="108.61" r="2.72"/><circle class="cls-4" cx="111.77" cy="108.61" r="2.72"/><circle class="cls-4" cx="128.93" cy="108.61" r="2.72"/><circle class="cls-4" cx="146.09" cy="108.61" r="2.72"/><circle class="cls-4" cx="163.24" cy="108.61" r="2.72"/><circle class="cls-4" cx="214.72" cy="108.61" r="2.72"/><circle class="cls-4" cx="249.03" cy="108.61" r="2.72"/><circle class="cls-4" cx="266.19" cy="108.61" r="2.72"/><circle class="cls-4" cx="300.5" cy="108.61" r="2.72"/><circle class="cls-4" cx="317.66" cy="108.61" r="2.72"/><circle class="cls-4" cx="334.81" cy="108.61" r="2.72"/><circle class="cls-4" cx="351.97" cy="108.61" r="2.72"/><circle class="cls-4" cx="283.34" cy="108.61" r="2.72"/><circle class="cls-4" cx="197.56" cy="108.61" r="2.72"/><path class="cls-1" d="M17.67,117.44H0v-17.67H17.67v17.67Zm-17.17-.5H17.17v-16.67H.5v16.67Z"/><path class="cls-1" d="M34.82,117.44H17.16v-17.67h17.67v17.67Zm-17.17-.5h16.67v-16.67H17.66v16.67Z"/><path class="cls-1" d="M51.98,117.44h-17.67v-17.67h17.67v17.67Zm-17.17-.5h16.67v-16.67h-16.67v16.67Z"/><path class="cls-1" d="M69.14,117.44h-17.67v-17.67h17.67v17.67Zm-17.17-.5h16.67v-16.67h-16.67v16.67Z"/><path class="cls-1" d="M86.29,117.44h-17.67v-17.67h17.67v17.67Zm-17.17-.5h16.67v-16.67h-16.67v16.67Z"/><path class="cls-1" d="M103.45,117.44h-17.67v-17.67h17.67v17.67Zm-17.17-.5h16.67v-16.67h-16.67v16.67Z"/><path class="cls-1" d="M120.61,117.44h-17.67v-17.67h17.67v17.67Zm-17.17-.5h16.67v-16.67h-16.67v16.67Z"/><path class="cls-1" d="M137.76,117.44h-17.67v-17.67h17.67v17.67Zm-17.17-.5h16.67v-16.67h-16.67v16.67Z"/><path class="cls-1" d="M154.92,117.44h-17.67v-17.67h17.67v17.67Zm-17.17-.5h16.67v-16.67h-16.67v16.67Z"/><path class="cls-1" d="M172.08,117.44h-17.67v-17.67h17.67v17.67Zm-17.17-.5h16.67v-16.67h-16.67v16.67Z"/><path class="cls-1" d="M189.23,117.44h-17.67v-17.67h17.67v17.67Zm-17.17-.5h16.67v-16.67h-16.67v16.67Z"/><path class="cls-1" d="M206.39,117.44h-17.67v-17.67h17.67v17.67Zm-17.17-.5h16.67v-16.67h-16.67v16.67Z"/><path class="cls-1" d="M223.55,117.44h-17.67v-17.67h17.67v17.67Zm-17.17-.5h16.67v-16.67h-16.67v16.67Z"/><path class="cls-1" d="M240.71,117.44h-17.67v-17.67h17.67v17.67Zm-17.17-.5h16.67v-16.67h-16.67v16.67Z"/><path class="cls-1" d="M257.86,117.44h-17.67v-17.67h17.67v17.67Zm-17.17-.5h16.67v-16.67h-16.67v16.67Z"/><path class="cls-1" d="M275.02,117.44h-17.67v-17.67h17.67v17.67Zm-17.17-.5h16.67v-16.67h-16.67v16.67Z"/><path class="cls-1" d="M292.17,117.44h-17.67v-17.67h17.67v17.67Zm-17.17-.5h16.67v-16.67h-16.67v16.67Z"/><path class="cls-1" d="M309.33,117.44h-17.67v-17.67h17.67v17.67Zm-17.17-.5h16.67v-16.67h-16.67v16.67Z"/><path class="cls-1" d="M326.49,117.44h-17.67v-17.67h17.67v17.67Zm-17.17-.5h16.67v-16.67h-16.67v16.67Z"/><path class="cls-1" d="M343.65,117.44h-17.67v-17.67h17.67v17.67Zm-17.17-.5h16.67v-16.67h-16.67v16.67Z"/><path class="cls-1" d="M360.8,117.44h-17.67v-17.67h17.67v17.67Zm-17.17-.5h16.67v-16.67h-16.67v16.67Z"/></g><g><path class="cls-2" d="M180.4,132.34c-3.91,0-7.09-3.18-7.09-7.09s3.18-7.09,7.09-7.09,7.09,3.18,7.09,7.09-3.18,7.09-7.09,7.09Zm0-11.24c-2.29,0-4.15,1.86-4.15,4.15s1.86,4.15,4.15,4.15,4.15-1.86,4.15-4.15-1.86-4.15-4.15-4.15Z"/><circle class="cls-4" cx="8.83" cy="125.24" r="2.72"/><circle class="cls-4" cx="25.99" cy="125.24" r="2.72"/><circle class="cls-4" cx="43.15" cy="125.24" r="2.72"/><circle class="cls-4" cx="60.3" cy="125.24" r="2.72"/><circle class="cls-4" cx="77.46" cy="125.24" r="2.72"/><circle class="cls-4" cx="94.62" cy="125.24" r="2.72"/><circle class="cls-4" cx="111.77" cy="125.24" r="2.72"/><circle class="cls-4" cx="128.93" cy="125.24" r="2.72"/><circle class="cls-4" cx="146.09" cy="125.24" r="2.72"/><circle class="cls-4" cx="163.24" cy="125.24" r="2.72"/><circle class="cls-4" cx="214.72" cy="125.24" r="2.72"/><circle class="cls-4" cx="249.03" cy="125.24" r="2.72"/><circle class="cls-4" cx="266.19" cy="125.24" r="2.72"/><circle class="cls-4" cx="300.5" cy="125.24" r="2.72"/><circle class="cls-4" cx="317.66" cy="125.24" r="2.72"/><circle class="cls-4" cx="334.81" cy="125.24" r="2.72"/><circle class="cls-4" cx="351.97" cy="125.24" r="2.72"/><circle class="cls-4" cx="283.34" cy="125.24" r="2.72"/><circle class="cls-4" cx="231.87" cy="125.24" r="2.72"/><circle class="cls-4" cx="197.56" cy="125.24" r="2.72"/><path class="cls-1" d="M17.67,134.07H0v-17.67H17.67v17.67Zm-17.17-.5H17.17v-16.67H.5v16.67Z"/><path class="cls-1" d="M34.82,134.07H17.16v-17.67h17.67v17.67Zm-17.17-.5h16.67v-16.67H17.66v16.67Z"/><path class="cls-1" d="M51.98,134.07h-17.67v-17.67h17.67v17.67Zm-17.17-.5h16.67v-16.67h-16.67v16.67Z"/><path class="cls-1" d="M69.14,134.07h-17.67v-17.67h17.67v17.67Zm-17.17-.5h16.67v-16.67h-16.67v16.67Z"/><path class="cls-1" d="M86.29,134.07h-17.67v-17.67h17.67v17.67Zm-17.17-.5h16.67v-16.67h-16.67v16.67Z"/><path class="cls-1" d="M103.45,134.07h-17.67v-17.67h17.67v17.67Zm-17.17-.5h16.67v-16.67h-16.67v16.67Z"/><path class="cls-1" d="M120.61,134.07h-17.67v-17.67h17.67v17.67Zm-17.17-.5h16.67v-16.67h-16.67v16.67Z"/><path class="cls-1" d="M137.76,134.07h-17.67v-17.67h17.67v17.67Zm-17.17-.5h16.67v-16.67h-16.67v16.67Z"/><path class="cls-1" d="M154.92,134.07h-17.67v-17.67h17.67v17.67Zm-17.17-.5h16.67v-16.67h-16.67v16.67Z"/><path class="cls-1" d="M172.08,134.07h-17.67v-17.67h17.67v17.67Zm-17.17-.5h16.67v-16.67h-16.67v16.67Z"/><path class="cls-1" d="M189.23,134.07h-17.67v-17.67h17.67v17.67Zm-17.17-.5h16.67v-16.67h-16.67v16.67Z"/><path class="cls-1" d="M206.39,134.07h-17.67v-17.67h17.67v17.67Zm-17.17-.5h16.67v-16.67h-16.67v16.67Z"/><path class="cls-1" d="M223.55,134.07h-17.67v-17.67h17.67v17.67Zm-17.17-.5h16.67v-16.67h-16.67v16.67Z"/><path class="cls-1" d="M240.71,134.07h-17.67v-17.67h17.67v17.67Zm-17.17-.5h16.67v-16.67h-16.67v16.67Z"/><path class="cls-1" d="M257.86,134.07h-17.67v-17.67h17.67v17.67Zm-17.17-.5h16.67v-16.67h-16.67v16.67Z"/><path class="cls-1" d="M275.02,134.07h-17.67v-17.67h17.67v17.67Zm-17.17-.5h16.67v-16.67h-16.67v16.67Z"/><path class="cls-1" d="M292.17,134.07h-17.67v-17.67h17.67v17.67Zm-17.17-.5h16.67v-16.67h-16.67v16.67Z"/><path class="cls-1" d="M309.33,134.07h-17.67v-17.67h17.67v17.67Zm-17.17-.5h16.67v-16.67h-16.67v16.67Z"/><path class="cls-1" d="M326.49,134.07h-17.67v-17.67h17.67v17.67Zm-17.17-.5h16.67v-16.67h-16.67v16.67Z"/><path class="cls-1" d="M343.65,134.07h-17.67v-17.67h17.67v17.67Zm-17.17-.5h16.67v-16.67h-16.67v16.67Z"/><path class="cls-1" d="M360.8,134.07h-17.67v-17.67h17.67v17.67Zm-17.17-.5h16.67v-16.67h-16.67v16.67Z"/></g><g><path class="cls-2" d="M180.4,148.97c-3.91,0-7.09-3.18-7.09-7.09s3.18-7.09,7.09-7.09,7.09,3.18,7.09,7.09-3.18,7.09-7.09,7.09Zm0-11.24c-2.29,0-4.15,1.86-4.15,4.15s1.86,4.15,4.15,4.15,4.15-1.86,4.15-4.15-1.86-4.15-4.15-4.15Z"/><path class="cls-2" d="M197.56,148.97c-3.91,0-7.09-3.18-7.09-7.09s3.18-7.09,7.09-7.09,7.09,3.18,7.09,7.09-3.18,7.09-7.09,7.09Zm0-11.24c-2.29,0-4.15,1.86-4.15,4.15s1.86,4.15,4.15,4.15,4.15-1.86,4.15-4.15-1.86-4.15-4.15-4.15Z"/><path class="cls-2" d="M214.72,148.97c-3.91,0-7.09-3.18-7.09-7.09s3.18-7.09,7.09-7.09,7.1,3.18,7.1,7.09-3.18,7.09-7.1,7.09Zm0-11.24c-2.29,0-4.15,1.86-4.15,4.15s1.86,4.15,4.15,4.15,4.15-1.86,4.15-4.15-1.86-4.15-4.15-4.15Z"/><path class="cls-2" d="M231.87,148.97c-3.91,0-7.09-3.18-7.09-7.09s3.18-7.09,7.09-7.09,7.1,3.18,7.1,7.09-3.18,7.09-7.1,7.09Zm0-11.24c-2.29,0-4.15,1.86-4.15,4.15s1.86,4.15,4.15,4.15,4.15-1.86,4.15-4.15-1.86-4.15-4.15-4.15Z"/><path class="cls-2" d="M249.03,148.97c-3.91,0-7.1-3.18-7.1-7.09s3.18-7.09,7.1-7.09,7.09,3.18,7.09,7.09-3.18,7.09-7.09,7.09Zm0-11.24c-2.29,0-4.15,1.86-4.15,4.15s1.86,4.15,4.15,4.15,4.15-1.86,4.15-4.15-1.86-4.15-4.15-4.15Z"/><path class="cls-2" d="M266.19,148.97c-3.91,0-7.1-3.18-7.1-7.09s3.18-7.09,7.1-7.09,7.09,3.18,7.09,7.09-3.18,7.09-7.09,7.09Zm0-11.24c-2.29,0-4.15,1.86-4.15,4.15s1.86,4.15,4.15,4.15,4.15-1.86,4.15-4.15-1.86-4.15-4.15-4.15Z"/><circle class="cls-4" cx="8.83" cy="141.87" r="2.72"/><circle class="cls-4" cx="25.99" cy="141.87" r="2.72"/><circle class="cls-4" cx="43.15" cy="141.87" r="2.72"/><circle class="cls-4" cx="60.3" cy="141.87" r="2.72"/><circle class="cls-4" cx="77.46" cy="141.87" r="2.72"/><circle class="cls-4" cx="94.62" cy="141.87" r="2.72"/><circle class="cls-4" cx="111.77" cy="141.87" r="2.72"/><circle class="cls-4" cx="128.93" cy="141.87" r="2.72"/><circle class="cls-4" cx="146.09" cy="141.87" r="2.72"/><circle class="cls-4" cx="283.34" cy="141.87" r="2.72"/><circle class="cls-4" cx="300.5" cy="141.87" r="2.72"/><circle class="cls-4" cx="317.66" cy="141.87" r="2.72"/><circle class="cls-4" cx="334.81" cy="141.87" r="2.72"/><circle class="cls-4" cx="351.97" cy="141.87" r="2.72"/><circle class="cls-4" cx="163.24" cy="141.87" r="2.72"/><path class="cls-1" d="M17.67,150.7H0v-17.67H17.67v17.67Zm-17.17-.5H17.17v-16.67H.5v16.67Z"/><path class="cls-1" d="M34.82,150.7H17.16v-17.67h17.67v17.67Zm-17.17-.5h16.67v-16.67H17.66v16.67Z"/><path class="cls-1" d="M51.98,150.7h-17.67v-17.67h17.67v17.67Zm-17.17-.5h16.67v-16.67h-16.67v16.67Z"/><path class="cls-1" d="M69.14,150.7h-17.67v-17.67h17.67v17.67Zm-17.17-.5h16.67v-16.67h-16.67v16.67Z"/><path class="cls-1" d="M86.29,150.7h-17.67v-17.67h17.67v17.67Zm-17.17-.5h16.67v-16.67h-16.67v16.67Z"/><path class="cls-1" d="M103.45,150.7h-17.67v-17.67h17.67v17.67Zm-17.17-.5h16.67v-16.67h-16.67v16.67Z"/><path class="cls-1" d="M120.61,150.7h-17.67v-17.67h17.67v17.67Zm-17.17-.5h16.67v-16.67h-16.67v16.67Z"/><path class="cls-1" d="M137.76,150.7h-17.67v-17.67h17.67v17.67Zm-17.17-.5h16.67v-16.67h-16.67v16.67Z"/><path class="cls-1" d="M154.92,150.7h-17.67v-17.67h17.67v17.67Zm-17.17-.5h16.67v-16.67h-16.67v16.67Z"/><path class="cls-1" d="M172.08,150.7h-17.67v-17.67h17.67v17.67Zm-17.17-.5h16.67v-16.67h-16.67v16.67Z"/><path class="cls-1" d="M189.23,150.7h-17.67v-17.67h17.67v17.67Zm-17.17-.5h16.67v-16.67h-16.67v16.67Z"/><path class="cls-1" d="M206.39,150.7h-17.67v-17.67h17.67v17.67Zm-17.17-.5h16.67v-16.67h-16.67v16.67Z"/><path class="cls-1" d="M223.55,150.7h-17.67v-17.67h17.67v17.67Zm-17.17-.5h16.67v-16.67h-16.67v16.67Z"/><path class="cls-1" d="M240.71,150.7h-17.67v-17.67h17.67v17.67Zm-17.17-.5h16.67v-16.67h-16.67v16.67Z"/><path class="cls-1" d="M257.86,150.7h-17.67v-17.67h17.67v17.67Zm-17.17-.5h16.67v-16.67h-16.67v16.67Z"/><path class="cls-1" d="M275.02,150.7h-17.67v-17.67h17.67v17.67Zm-17.17-.5h16.67v-16.67h-16.67v16.67Z"/><path class="cls-1" d="M292.17,150.7h-17.67v-17.67h17.67v17.67Zm-17.17-.5h16.67v-16.67h-16.67v16.67Z"/><path class="cls-1" d="M309.33,150.7h-17.67v-17.67h17.67v17.67Zm-17.17-.5h16.67v-16.67h-16.67v16.67Z"/><path class="cls-1" d="M326.49,150.7h-17.67v-17.67h17.67v17.67Zm-17.17-.5h16.67v-16.67h-16.67v16.67Z"/><path class="cls-1" d="M343.65,150.7h-17.67v-17.67h17.67v17.67Zm-17.17-.5h16.67v-16.67h-16.67v16.67Z"/><path class="cls-1" d="M360.8,150.7h-17.67v-17.67h17.67v17.67Zm-17.17-.5h16.67v-16.67h-16.67v16.67Z"/></g></g></g></svg>