<?xml version="1.0" encoding="UTF-8"?><svg id="_이어_2" xmlns="http://www.w3.org/2000/svg" viewBox="0 0 494.61 494.61"><defs><style>.cls-1{fill:#ffe812;}.cls-2{fill:#421d1d;}</style></defs><g id="_이어_7"><g><path class="cls-1" d="M494.61,455.97c0,21.34-17.3,38.64-38.64,38.64H38.64c-21.34,0-38.64-17.3-38.64-38.64V38.64C0,17.3,17.3,0,38.64,0H455.97c21.34,0,38.64,17.3,38.64,38.64V455.97Z"/><path class="cls-2" d="M247.3,69.55c-110.97,0-200.93,70.93-200.93,158.43,0,56.57,37.61,106.21,94.18,134.23-3.08,10.61-19.78,68.29-20.44,72.82,0,0-.4,3.4,1.8,4.7,2.2,1.3,4.8,.29,4.8,.29,6.32-.88,73.31-47.94,84.9-56.11,11.58,1.64,23.51,2.49,35.69,2.49,110.97,0,200.93-70.93,200.93-158.43S358.28,69.55,247.3,69.55Z"/><path class="cls-1" d="M136.21,283.29c-6.39,0-11.59-4.97-11.59-11.07v-68.87h-18.09c-6.27,0-11.38-5.09-11.38-11.35s5.1-11.35,11.38-11.35h59.36c6.27,0,11.38,5.09,11.38,11.35s-5.1,11.35-11.38,11.35h-18.09v68.87c0,6.11-5.2,11.07-11.59,11.07Z"/><path class="cls-1" d="M237.86,283.14c-4.83,0-8.53-1.96-9.65-5.12l-5.74-15.03h-35.35l-5.74,15.03c-1.11,3.15-4.81,5.11-9.64,5.11-2.55,0-5.1-.55-7.37-1.6-3.2-1.47-6.27-5.53-2.75-16.46l27.73-72.99c1.95-5.55,7.89-11.27,15.44-11.44,7.57,.17,13.5,5.89,15.46,11.45l27.72,72.95c3.53,10.96,.46,15.02-2.74,16.48-2.27,1.05-4.82,1.6-7.37,1.6h0Zm-21.48-40.68l-11.58-32.89-11.58,32.89h23.16Z"/><path class="cls-1" d="M266.62,281.6c-6.13,0-11.11-4.77-11.11-10.63v-78.73c0-6.39,5.31-11.59,11.83-11.59s11.83,5.2,11.83,11.59v68.11h24.63c6.13,0,11.11,4.77,11.11,10.63s-4.98,10.63-11.11,10.63h-37.19Z"/><path class="cls-1" d="M331.03,283.14c-6.39,0-11.59-5.2-11.59-11.59v-79.31c0-6.39,5.2-11.59,11.59-11.59s11.59,5.2,11.59,11.59v24.92l32.34-32.34c1.66-1.66,3.95-2.58,6.43-2.58,2.89,0,5.8,1.25,7.98,3.42,2.03,2.03,3.24,4.64,3.41,7.35,.17,2.73-.74,5.24-2.56,7.06l-26.42,26.41,28.53,37.8c1.87,2.47,2.66,5.52,2.23,8.59-.43,3.07-2.03,5.78-4.5,7.65-2.03,1.53-4.44,2.34-6.97,2.34-3.68,0-7.05-1.68-9.26-4.61l-27.18-36.02-4.02,4.02v25.29c0,6.4-5.2,11.6-11.6,11.6Z"/></g></g></svg>