<?xml version="1.0" encoding="UTF-8"?><svg id="_이어_2" xmlns="http://www.w3.org/2000/svg" xmlns:xlink="http://www.w3.org/1999/xlink" viewBox="0 0 494.61 494.61"><defs><style>.cls-1{fill:url(#_제_그라디언트_95);}.cls-2{fill:#cad9ec;}.cls-3{fill:#fdfffc;}.cls-4{fill:#b2c2d3;}</style><linearGradient id="_제_그라디언트_95" x1="0" y1="247.3" x2="494.61" y2="247.3" gradientTransform="matrix(1, 0, 0, 1, 0, 0)" gradientUnits="userSpaceOnUse"><stop offset=".14" stop-color="#50c5e9"/><stop offset=".89" stop-color="#2d74ff"/></linearGradient></defs><g id="_이어_7"><g><path class="cls-1" d="M494.61,455.97c0,21.34-17.3,38.64-38.64,38.64H38.64c-21.34,0-38.64-17.3-38.64-38.64V38.64C0,17.3,17.3,0,38.64,0H455.97c21.34,0,38.64,17.3,38.64,38.64V455.97Z"/><g><path class="cls-2" d="M161.86,272.1l31.77,104.18c.55,1.65,2.96,1.37,3.12-.36l8.25-85.74c.04-.4,.23-.78,.53-1.05l152.06-131.95c1.46-1.29-.21-3.58-1.88-2.59l-193.15,115.61c-.65,.39-.95,1.18-.71,1.89Z"/><polygon class="cls-4" points="196.76 376.27 402.39 142.09 205.07 289.56 196.76 376.27"/><path class="cls-3" d="M82.68,230.33L398.3,104.59c7.97-3.18,16.27,3.81,14.5,12.2l-55.33,263.17c-2.05,9.77-13.56,14.09-21.54,8.09l-130.86-98.49,150.33-133.19-193.95,114.5-78.26-25.27c-7.23-2.34-7.57-12.45-.51-15.26Z"/></g></g></g></svg>